<svg width="41" height="50" viewBox="0 0 41 50" fill="none" xmlns="http://www.w3.org/2000/svg">
<path d="M40.0131 35.9504C39.643 29.8335 36.0562 24.6554 32.0993 20.2456C30.0781 17.9979 28.3986 15.4374 26.3774 13.1897C25.495 12.2224 24.3563 10.8568 23.0184 10.3162C23.0468 10.2878 23.1037 10.2593 23.1322 10.2024C24.6694 7.44267 26.8044 4.11395 29.6511 2.54915C29.7081 2.5207 29.765 2.52068 29.8219 2.49223C30.3343 2.29307 30.1066 1.46799 29.5942 1.66714C27.4592 2.49222 26.8614 -0.239041 24.9256 0.0170162C24.1001 0.13082 23.4738 0.472216 22.7622 0.927429C21.1111 1.98011 19.6593 1.41109 18.0367 0.671365C16.3571 -0.125259 15.2184 1.15504 14.2221 2.32153C13.3681 3.31731 11.8024 2.40687 10.7776 2.34997C10.1798 2.32152 9.75278 2.43534 9.32578 2.71985C9.29731 2.66295 9.21192 2.63448 9.15499 2.63448C9.09805 2.74828 9.04112 2.83363 9.01265 2.94743V2.97591C9.01265 2.97591 9.01266 2.9759 8.98419 3.00436C8.92726 3.11816 8.87033 3.23195 8.8134 3.34575C8.84187 3.40265 8.92726 3.45958 8.98419 3.40267C9.09806 4.56916 10.0944 5.42268 10.7776 6.41846C11.7455 7.81255 12.7703 9.29199 14.1936 10.2593C12.8272 11.6534 11.6601 13.4174 10.4929 14.9253C8.89881 16.9737 7.33312 19.0222 5.85284 21.156C3.03462 25.2244 0.472599 29.7481 0.0455962 34.7555C-0.35294 39.2223 1.89595 44.2296 5.42584 46.9894C6.36524 47.7291 7.56085 48.0136 8.69952 48.2697C10.0944 48.5826 11.4608 49.0094 12.8557 49.3508C14.1652 49.6638 15.6454 49.8913 17.0688 49.8344C19.4315 50.3181 22.3351 49.6353 24.5555 49.1516C27.1745 48.5826 29.765 47.7291 32.1562 46.4488C36.17 44.3719 40.2977 40.7302 40.0131 35.9504ZM12.2863 5.79252C11.8024 5.1666 11.3185 4.48381 10.6922 3.97169C10.3221 3.65873 9.92361 3.4311 9.63894 3.06124C11.2046 2.52068 12.9126 4.05704 14.5352 3.14661C15.6454 2.54914 15.7024 1.04125 17.4104 1.2973C18.4067 1.43956 19.3746 2.15081 20.3994 2.37842C22.4205 2.77673 24.1855 0.15925 25.9789 1.24038C26.9468 1.8094 27.6015 2.52067 28.5124 2.66292C26.4913 3.6018 24.8402 5.73563 23.5592 7.72719C23.7585 6.90211 23.9577 6.10548 24.2709 5.33731C24.3278 5.22351 24.157 5.1666 24.0716 5.2235C22.6767 6.33308 22.5629 8.15396 21.6519 9.54805C21.595 9.54805 21.5096 9.54806 21.4527 9.51961C21.5666 7.24354 23.0468 5.33733 23.4454 3.11817C23.4738 3.03281 23.3315 2.94744 23.2745 3.06124C22.1928 5.22351 20.6271 6.98746 20.3994 9.46268C20.0863 9.46268 19.7731 9.43423 19.46 9.46268C19.9155 8.95057 19.887 7.95479 19.9439 7.32887C20.0578 6.07703 19.8585 4.76829 19.6593 3.51645C19.6308 3.40265 19.4315 3.3742 19.4031 3.51645C19.2323 4.54068 19.2607 5.56492 19.1753 6.6176C19.1184 7.27197 19.0615 7.8979 18.9476 8.55227C18.8622 8.95058 18.7483 9.14972 18.8337 9.49113C18.6914 9.49113 18.549 9.49113 18.4067 9.49113C18.2644 9.49113 18.122 9.49113 17.9797 9.49113C18.0082 9.37733 18.0082 9.26354 17.9228 9.14973C16.6987 7.49958 17.325 5.16662 16.3287 3.43112C16.3002 3.37422 16.2148 3.40266 16.2148 3.45956C16.3002 5.28042 15.9016 7.95481 17.0688 9.51961C16.898 9.51961 16.7272 9.54805 16.5564 9.54805C16.5564 9.5196 16.5279 9.4627 16.4994 9.4058C15.6739 7.7841 15.0192 5.62181 13.5104 4.51223C13.425 4.45533 13.3112 4.56913 13.3681 4.65448C13.9944 5.47956 14.4214 6.5038 14.8199 7.47112C15.1046 8.1824 15.3323 9.03594 15.7593 9.69031C15.7308 9.69031 15.7308 9.6903 15.7024 9.71875C15.6739 9.66185 15.617 9.60495 15.56 9.54805C14.2221 8.43847 13.3111 7.10126 12.2863 5.79252ZM36.9671 41.3561C35.5438 43.0631 33.665 44.4003 31.7292 45.453C29.6227 46.6195 27.2314 47.2454 24.8972 47.7575C23.5877 48.042 22.2782 48.2128 20.9687 48.355C20.9687 48.355 20.9403 48.3265 20.9118 48.3265C21.2534 48.1558 21.6235 47.9567 21.9651 47.7575C23.0183 47.217 23.9578 46.3635 24.8687 45.6522C26.0074 44.7702 27.203 44.0589 28.4555 43.3476C28.5979 43.2623 28.5409 43.0062 28.3701 43.0062C26.2066 43.12 24.2709 44.7418 22.4775 45.8229C21.1965 46.6195 19.7731 47.3592 18.3498 47.8998C17.8089 48.0989 17.2965 48.1558 16.841 48.2697C15.5316 48.2127 14.2221 48.099 12.8841 47.786C11.6316 47.5015 10.4645 47.1032 9.21194 46.8471C7.81707 46.5911 6.67836 46.2212 5.62509 45.2254C2.89227 42.6079 1.46893 39.08 1.4974 35.4383C1.5828 35.4952 1.69667 35.4668 1.75361 35.3814C3.00615 33.4467 4.25871 31.7113 6.22292 30.431C7.50393 29.5775 8.81338 28.8662 9.75278 27.6143C9.75278 27.6143 9.75279 27.5859 9.72432 27.5859C8.38638 29.0938 6.53606 29.6912 4.94192 30.8293C3.49011 31.8535 2.4368 33.589 1.4974 35.0684C1.52587 34.2149 1.63976 33.333 1.81056 32.4794C1.9529 31.882 2.09522 31.313 2.29448 30.7155C2.32295 30.7155 2.3514 30.7155 2.3514 30.687C2.86381 30.2887 3.14848 29.7766 3.49008 29.2076C4.05941 28.2687 4.77111 27.6712 5.68205 27.1022C6.99152 26.3056 8.50027 25.8504 9.78128 25.0253C9.92361 24.94 9.78128 24.7123 9.63894 24.7977C8.18713 25.6797 6.56452 26.2202 5.11271 27.0738C3.94557 27.7566 3.20541 28.8946 2.49374 30.0327C3.09154 28.3825 3.88864 26.7608 4.79958 25.2245C5.85285 24.2571 6.76379 23.1475 7.95939 22.294C9.26887 21.3551 10.7491 20.6723 12.1725 19.9042C12.2009 19.8757 12.1725 19.8472 12.144 19.8472C10.3221 20.4447 7.98785 21.4405 6.27984 22.863C6.87765 21.9526 7.50392 21.0706 8.13019 20.2171C9.46813 18.3678 10.8915 16.5469 12.2863 14.7261C13.2827 13.4458 14.4783 11.9948 15.1615 10.4585C15.19 10.4585 15.2184 10.43 15.2469 10.43C15.617 10.6007 16.044 10.6292 16.471 10.6576C15.5316 12.0517 14.6206 13.4458 13.7666 14.8968C12.9411 16.2909 11.9163 17.9695 11.6885 19.5912C11.6885 19.705 11.8024 19.7335 11.8593 19.6481C12.8272 18.2825 13.5104 16.6608 14.3644 15.2098C15.2754 13.645 16.3002 12.1086 17.3535 10.6007C17.4958 10.6007 17.6666 10.6007 17.8089 10.6007C17.4104 11.7388 17.6096 12.9621 17.6666 14.1571C17.7804 16.0633 17.0972 17.9126 17.268 19.8472C17.268 19.961 17.4389 19.9895 17.4673 19.8757C17.7235 18.3109 18.2074 16.7745 18.4067 15.1813C18.5775 13.7019 18.1505 12.0233 18.7483 10.6576C18.7483 10.6292 18.7483 10.6292 18.7483 10.6007C18.9476 10.6007 19.1469 10.6007 19.3177 10.6007C19.6308 11.9664 20.1717 13.3036 20.5133 14.6692C20.9118 16.1771 21.0541 17.685 21.3388 19.1929C21.3673 19.3921 21.7373 19.4205 21.7658 19.1929C22.1644 16.5185 21.4527 13.1328 20.314 10.6007C20.6271 10.6007 20.9118 10.6007 21.2249 10.6292C21.2534 10.9137 21.4527 11.1128 21.6804 11.4258C22.1643 12.1371 22.5914 12.9053 23.0184 13.645C23.8724 15.1244 24.6979 16.6039 25.7796 17.9411C25.9789 18.1971 26.3774 17.8557 26.2351 17.5996C25.3526 15.9779 24.5556 14.3562 23.6731 12.7345C23.4453 12.2793 23.1037 11.3973 22.6767 10.7714C23.9293 11.6534 24.9826 12.9906 25.922 14.0717C27.5446 16.0064 28.9964 18.0548 30.619 19.9895C31.2453 20.7292 31.8715 21.469 32.4978 22.1802C30.5336 21.1845 26.9468 21.4405 25.5519 21.469C25.5234 21.469 25.5234 21.4974 25.5519 21.4974C28.3132 21.8104 31.9854 21.3836 33.608 24.1149C33.665 24.2002 33.8358 24.1718 33.8358 24.058C33.8358 23.9726 33.8357 23.8873 33.8073 23.7735C34.5474 24.7124 35.2591 25.6512 35.8854 26.7039C37.3372 29.0938 38.3335 31.7113 38.8175 34.4425C39.2445 37.1738 38.6751 39.3076 36.9671 41.3561Z" fill="black"/>
<path d="M21.5663 32.3089C21.5379 29.8337 21.4809 27.3585 21.2817 24.8833C21.6517 25.1109 21.7941 25.5945 22.1357 26.0498C22.1926 26.1351 22.3065 26.1351 22.3634 26.0498C22.8473 25.2247 22.2496 24.2574 21.4525 23.8875C21.3671 23.859 21.2532 23.8021 21.1678 23.7737C21.1109 23.1193 21.0255 22.4365 20.9401 21.7537C20.8831 21.3269 20.3138 21.2985 20.2569 21.7537C20.1999 22.408 20.143 23.0624 20.143 23.7168C19.4313 23.8021 18.7197 24.0866 18.1503 24.3711C18.1219 24.3711 18.1219 24.3996 18.0934 24.3996C18.008 23.8306 17.9226 23.2616 17.8372 22.6925C17.8372 22.6641 17.7518 22.6356 17.7518 22.6925C17.638 23.3469 17.581 24.0297 17.5525 24.6841C15.6737 25.9075 14.1365 28.7526 15.8445 30.6303C16.3569 31.1994 17.154 31.6546 18.0365 32.0529C18.1219 32.7072 18.2073 33.3616 18.2642 33.9876C18.435 35.4954 18.3212 37.0318 18.3212 38.5397C18.3212 38.7957 18.3212 39.1087 18.3212 39.4217C18.2073 39.3932 18.1219 39.3932 18.008 39.3647C17.2963 39.1656 16.7555 38.5681 16.0153 38.3974C15.7022 38.3405 15.4745 38.5681 15.5314 38.8811C15.7876 40.2752 17.0686 40.8157 18.4635 40.8726C18.5489 41.1572 18.6912 41.4132 18.9189 41.5839C19.1182 41.7546 19.4313 41.6977 19.5167 41.4132C19.5737 41.2141 19.6022 41.0149 19.6022 40.7873C20.0292 40.7304 20.4561 40.645 20.8262 40.5028C20.9401 40.8442 21.0824 41.1856 21.2532 41.4986C21.3101 41.6408 21.5379 41.5555 21.5379 41.4132C21.5379 41.0149 21.5379 40.6166 21.5379 40.2183C23.6444 39.1371 24.7546 36.6904 23.8152 34.4996C23.4167 33.4754 22.5627 32.8211 21.5663 32.3089ZM20.1999 24.8548C20.2569 27.1593 20.5131 29.4923 20.5415 31.8253C20.0007 31.5977 19.4313 31.3701 18.9189 31.1425C18.7197 29.3501 18.5489 27.5292 18.3496 25.7368C18.9189 25.3385 19.5167 25.054 20.1999 24.8548ZM16.9832 29.976C15.873 28.9517 16.6416 27.3585 17.581 26.3627C17.6095 27.7852 17.7518 29.2362 17.8942 30.6588C17.581 30.4312 17.2679 30.232 16.9832 29.976ZM20.2569 39.3078C20.0291 39.3932 19.8014 39.4501 19.5737 39.4785C19.4883 38.9949 19.4313 38.5112 19.4029 38.0844C19.3459 36.6904 19.4313 35.2678 19.2321 33.8737C19.1751 33.4185 19.1182 32.9633 19.0613 32.4796C19.5452 32.7072 20.0576 32.9064 20.5131 33.1625C20.4277 35.0971 20.2569 37.2025 20.5985 39.1656C20.4846 39.2225 20.3707 39.2794 20.2569 39.3078ZM21.5948 38.5681C21.5948 37.0033 21.5948 35.4385 21.5948 33.8737C22.3634 34.4428 22.8758 35.1825 22.9043 36.2067C22.9327 37.1456 22.335 37.9707 21.5948 38.5681Z" fill="black"/>
<path d="M5.56817 35.0117C4.74263 36.0075 2.57914 38.568 3.31928 40.019C3.37621 40.1044 3.51856 40.076 3.54703 39.9906C3.80323 39.194 3.86017 38.4827 4.23024 37.6861C4.71418 36.6903 5.39738 35.8083 6.08059 34.9548C7.21927 33.5607 8.69953 31.8252 10.4075 31.1139C10.436 31.1139 10.4075 31.0854 10.4075 31.0854C8.44333 31.7114 6.82072 33.4753 5.56817 35.0117Z" fill="black"/>
<path d="M9.69585 34.13C8.64259 35.4387 7.44699 36.6336 6.45066 37.9708C5.34046 39.4503 4.91348 41.2996 4.51495 43.092C4.48649 43.1773 4.62881 43.2627 4.68575 43.1489C5.45434 41.4418 5.68207 39.7063 6.70686 38.0846C7.58933 36.6905 8.78491 35.4956 9.75277 34.1584C9.75277 34.1299 9.69585 34.1015 9.69585 34.13Z" fill="black"/>
<path d="M9.49676 38.2832C8.58584 40.2179 7.3333 42.5793 7.27637 44.7415C7.27637 44.8553 7.44718 44.9123 7.50411 44.7985C7.90264 43.9165 8.04495 42.9491 8.32961 42.0387C8.69968 40.7869 9.21208 39.5919 9.72448 38.4254C9.75294 38.2547 9.5537 38.1409 9.49676 38.2832Z" fill="black"/>
<path d="M35.2591 28.6387C35.3445 28.7241 35.4868 28.6103 35.4299 28.5249C33.8926 25.4807 29.9642 25.2531 27.0891 24.3711C27.0606 24.3711 27.0322 24.428 27.0606 24.428C28.3986 24.9401 29.7934 25.2815 31.1598 25.7652C32.8963 26.3342 34.035 27.2446 35.2591 28.6387Z" fill="black"/>
<path d="M35.6574 32.3657C35.7428 32.5079 35.999 32.4226 35.9421 32.2519C34.7465 28.7524 30.5334 27.9843 27.4305 27.1592C27.4021 27.1592 27.4021 27.1876 27.4305 27.1876C28.9108 27.5575 30.3911 28.0696 31.7859 28.724C33.5509 29.5206 34.6042 30.744 35.6574 32.3657Z" fill="black"/>
<path d="M36.1697 36.2917C36.2267 36.377 36.3975 36.3201 36.369 36.2063C35.4011 33.3043 32.4406 31.2274 29.3946 31.2843C29.3092 31.2843 29.3092 31.3981 29.3946 31.3981C32.7822 31.455 34.4333 33.7311 36.1697 36.2917Z" fill="black"/>
<path d="M34.291 38.0845C33.0384 36.9749 31.3589 36.2921 29.7363 35.9507C29.6793 35.9507 29.6509 36.0076 29.7078 36.036C31.2165 36.4344 32.5545 37.1456 33.7785 38.113C35.1165 39.1372 35.572 40.3321 36.1129 41.84C36.1698 41.9823 36.3406 41.9538 36.3406 41.8116C36.5398 40.389 35.2873 38.9665 34.291 38.0845Z" fill="black"/>
<path d="M30.3627 40.7868C30.2488 40.7299 30.135 40.9007 30.2488 40.9576C31.786 41.7257 32.4692 43.1483 31.9568 44.7984C31.9283 44.9122 32.0992 44.9976 32.1561 44.8838C32.8962 43.2336 31.8999 41.555 30.3627 40.7868Z" fill="black"/>
</svg>
