<svg width="50" height="46" viewBox="0 0 50 46" fill="none" xmlns="http://www.w3.org/2000/svg">
<path d="M6.44907 34.771C6.52042 34.8423 6.62747 34.8066 6.66315 34.6997C6.77019 34.4144 6.62746 34.0935 6.5561 33.8082C6.44906 33.3446 6.37772 32.9167 6.30636 32.4532C6.27069 32.3105 6.09228 32.3105 6.09228 32.4532C6.0566 32.8454 6.05661 33.2377 6.12797 33.6299C6.19933 33.9865 6.19932 34.4857 6.44907 34.771Z" fill="black"/>
<path d="M6.4129 36.9103C6.37722 37.2669 6.44858 37.6235 6.5913 37.9801C6.69834 38.2297 6.87674 38.6219 7.19785 38.6219C7.26921 38.6219 7.30489 38.5506 7.30489 38.515C7.30489 38.301 7.12649 38.1227 7.05513 37.9801C6.87673 37.6592 6.73401 37.3026 6.69833 36.946C6.66265 36.732 6.44858 36.732 6.4129 36.9103Z" fill="black"/>
<path d="M8.44663 41.7959C8.55367 41.7959 8.58934 41.6532 8.55366 41.5819C8.37527 41.368 8.12551 41.2253 7.94712 40.9757C7.76872 40.7261 7.66169 40.3695 7.59033 40.0486C7.55465 39.9773 7.44761 39.9773 7.44761 40.0486C7.34057 40.4765 7.37626 40.7974 7.59033 41.1897C7.76872 41.5106 8.05416 41.7602 8.44663 41.7959Z" fill="black"/>
<path d="M12.9427 42.1881C12.6573 42.0811 12.3005 42.1881 11.9794 42.1524C11.5513 42.1168 11.1231 42.0811 10.695 41.9385C10.6593 41.9385 10.6236 41.9741 10.6593 42.0098C11.2302 42.3664 12.3719 42.9013 12.9784 42.3664C13.0498 42.2951 13.0141 42.1881 12.9427 42.1881Z" fill="black"/>
<path d="M15.7609 42.5446C15.7252 42.5446 15.6896 42.6159 15.7609 42.6515C16.3318 42.7229 16.8313 42.8655 17.4378 42.8655C17.8659 42.8655 18.5795 42.8298 18.7579 42.3663C18.7936 42.295 18.7579 42.1523 18.6865 42.1523C18.2941 42.081 17.8659 42.3306 17.4378 42.4019C16.8669 42.4376 16.2961 42.4733 15.7609 42.5446Z" fill="black"/>
<path d="M21.1126 42.4019C21.5764 42.4732 22.0402 42.4732 22.504 42.5088C22.8965 42.5088 23.396 42.6158 23.7528 42.4019C23.8241 42.3662 23.8241 42.2236 23.7528 42.1879C23.396 41.974 22.8965 42.0809 22.504 42.0809C22.0402 42.0809 21.5764 42.0809 21.1126 42.1879C21.0412 42.2236 21.0412 42.3662 21.1126 42.4019Z" fill="black"/>
<path d="M25.8579 42.473C26.3217 42.5799 26.7855 42.5443 27.2494 42.58C27.6418 42.58 28.2127 42.7226 28.5338 42.4017C28.5695 42.366 28.5695 42.259 28.5338 42.2234C28.2484 41.9381 27.7845 42.0094 27.4278 42.0451C26.8926 42.0807 26.3574 42.0451 25.8579 42.152C25.6795 42.152 25.6795 42.4373 25.8579 42.473Z" fill="black"/>
<path d="M30.9603 42.1168C31.3884 42.2238 31.8522 42.2238 32.2804 42.1525C32.6015 42.0812 33.1367 42.0455 33.3151 41.7246C33.3507 41.6533 33.3151 41.582 33.2437 41.5463C32.9583 41.475 32.7442 41.6533 32.4944 41.7246C32.0306 41.8672 31.5311 41.9029 31.0316 41.8316C30.8532 41.7959 30.7819 42.0812 30.9603 42.1168Z" fill="black"/>
<path d="M35.4198 42.1522C35.955 42.1522 36.4902 42.1878 36.9897 42.1878C37.2394 42.1878 37.2394 41.7599 36.9897 41.7956C36.4545 41.7956 35.9193 41.8312 35.4198 41.8312C35.2058 41.7956 35.2058 42.1165 35.4198 42.1522Z" fill="black"/>
<path d="M41.9136 41.5461C41.6281 41.5817 41.3427 41.6887 41.0573 41.76C40.6648 41.8313 40.2724 41.8313 39.8799 41.867C39.7015 41.867 39.7015 42.1523 39.8799 42.1523C40.5578 42.1879 41.4854 42.2949 42.0206 41.7957C42.1276 41.653 42.0206 41.5104 41.9136 41.5461Z" fill="black"/>
<path d="M44.661 41.7244C44.9464 41.6531 45.2318 41.5818 45.5173 41.4748C45.6957 41.4035 45.9811 41.2609 46.0168 41.0113C46.0168 40.94 45.9811 40.9043 45.9097 40.9043C45.7313 40.9043 45.5173 41.0826 45.3746 41.1896C45.1248 41.3322 44.875 41.4392 44.5896 41.5462C44.5183 41.6175 44.5896 41.7601 44.661 41.7244Z" fill="black"/>
<path d="M46.0878 40.0844C46.1235 40.2984 46.3732 40.2984 46.4089 40.0844C46.4446 39.5852 46.4803 39.0503 46.4803 38.5511C46.4803 38.1945 46.5873 37.731 46.3376 37.4457C46.3019 37.41 46.1948 37.41 46.1592 37.4457C45.9094 37.731 45.9808 38.1589 46.0165 38.5511C45.9808 39.0503 46.0165 39.5495 46.0878 40.0844Z" fill="black"/>
<path d="M2.38144 14.6596C2.20305 15.3727 2.06034 16.2285 2.31008 16.9417C2.34576 17.0487 2.48847 17.0487 2.55983 16.9417C2.80957 16.2285 2.66686 15.3727 2.48847 14.6596C2.45279 14.6239 2.38144 14.6239 2.38144 14.6596Z" fill="black"/>
<path d="M3.70165 24.8579C3.66597 24.5013 3.59462 24.1804 3.48759 23.8595C3.45191 23.7525 3.23785 23.7525 3.27353 23.8951C3.3092 24.2517 3.34488 24.5726 3.38056 24.9292C3.38056 25.1075 3.41624 25.2501 3.45192 25.4284C3.4876 25.6424 3.55895 25.6424 3.63031 25.8563C3.66599 25.9277 3.77301 25.892 3.77301 25.8207C3.77301 25.7137 3.84438 25.6067 3.8087 25.4641C3.77302 25.2501 3.73733 25.0718 3.70165 24.8579Z" fill="black"/>
<path d="M4.84307 27.9961C4.84307 27.9248 4.77172 27.8891 4.73604 27.8891C4.73604 27.8178 4.70037 27.7821 4.70037 27.7108C4.70037 27.6752 4.629 27.6752 4.629 27.7108C4.629 27.7821 4.62899 27.8178 4.59331 27.8891C4.55763 27.9248 4.52197 27.9961 4.52197 28.0318C4.59333 28.8163 5.05714 29.6008 5.91343 29.7434C6.05615 29.779 6.16318 29.6007 6.02046 29.4938C5.41392 29.0659 4.98578 28.7093 4.84307 27.9961Z" fill="black"/>
<path d="M9.66017 30.0283C9.19635 30.0283 8.58981 30.0996 8.16167 29.8857C8.12599 29.85 8.09033 29.9214 8.09033 29.957C8.34008 30.2779 8.76822 30.4206 9.16069 30.4562C9.48179 30.4919 9.80288 30.4919 10.124 30.4919C10.4451 30.4919 10.7662 30.5632 11.0516 30.3493C11.123 30.2779 11.1587 30.171 11.0516 30.0997C10.6949 29.85 10.0883 30.0283 9.66017 30.0283Z" fill="black"/>
<path d="M16.4389 30.4207C16.0465 30.3137 15.5827 30.492 15.1902 30.599C14.655 30.7059 14.0485 30.8129 13.549 30.5633C13.5133 30.5633 13.4776 30.599 13.5133 30.599C13.8701 30.9556 14.2626 31.0982 14.7621 31.0982C15.2616 31.0625 16.0465 30.9912 16.4389 30.7059C16.546 30.599 16.546 30.4563 16.4389 30.4207Z" fill="black"/>
<path d="M21.1838 30.3849C20.5773 30.2066 19.7923 30.3492 19.2215 30.4562C19.1501 30.4562 19.1501 30.6345 19.2215 30.6345C19.828 30.7415 20.6129 30.9198 21.1838 30.7058C21.3622 30.6701 21.3622 30.4205 21.1838 30.3849Z" fill="black"/>
<path d="M32.5655 30.7417C32.2444 30.7417 31.9233 30.8487 31.6022 30.92C31.174 30.9913 30.7459 30.9913 30.3534 31.0626C30.1394 31.0983 30.1394 31.3479 30.3534 31.3835C31.1027 31.4549 32.066 31.5262 32.6725 30.9913C32.7439 30.8843 32.6725 30.7417 32.5655 30.7417Z" fill="black"/>
<path d="M35.9191 30.6345C35.491 30.6702 35.0271 30.6345 34.6347 30.8128C34.599 30.8128 34.599 30.8841 34.6347 30.8841C35.0628 31.0624 35.491 31.0624 35.9191 31.0624C36.3116 31.0981 36.7397 31.1694 37.0965 30.9555C37.2035 30.9198 37.2035 30.7415 37.0965 30.7058C36.7397 30.5632 36.3116 30.6345 35.9191 30.6345Z" fill="black"/>
<path d="M41.8779 30.706C41.5568 30.5277 41.2 30.599 40.8432 30.599C40.4151 30.599 39.9869 30.6347 39.5944 30.6704C39.309 30.706 39.309 31.0626 39.5944 31.0983C40.0226 31.1339 40.4507 31.1339 40.8432 31.1696C41.2 31.1696 41.5568 31.2052 41.8779 31.0626C41.9849 30.9556 41.9849 30.7773 41.8779 30.706Z" fill="black"/>
<path d="M45.8379 29.779C45.267 30.1356 44.6248 30.2425 43.9826 30.4208C43.8756 30.4565 43.8756 30.6348 43.9826 30.6704C44.4108 30.7774 44.8389 30.7774 45.267 30.6348C45.6595 30.5278 45.9449 30.3495 46.052 29.9573C46.0876 29.8503 45.9449 29.7433 45.8379 29.779Z" fill="black"/>
<path d="M47.0513 26.391C46.98 26.7476 47.0513 27.1399 47.0513 27.4964C47.0156 27.96 46.9086 28.4592 46.8016 28.9228C46.7659 28.9941 46.9086 29.0654 46.9443 28.9941C47.3368 28.2809 47.6935 27.1399 47.3011 26.3554C47.2297 26.284 47.087 26.2841 47.0513 26.391Z" fill="black"/>
<path d="M47.0867 21.3278C47.0154 21.6131 46.944 21.6487 46.9797 21.934C46.9797 22.2549 46.9797 22.5402 46.9797 22.8611C46.9797 23.4317 47.0154 23.9665 47.051 24.5371C47.051 24.7154 47.3365 24.7154 47.3365 24.5371C47.3722 23.9665 47.4078 23.4317 47.4078 22.8611C47.4078 22.6115 47.4078 22.3619 47.4078 22.1123C47.4078 21.7914 47.3722 21.6487 47.3008 21.3278C47.2651 21.2208 47.0867 21.2208 47.0867 21.3278Z" fill="black"/>
<path d="M46.9442 17.0845C46.8729 17.0488 46.7659 17.0488 46.7302 17.1201C46.4804 17.441 46.6588 17.7976 46.7302 18.1542C46.8372 18.7247 46.9443 19.2596 47.087 19.7945C47.1227 19.8658 47.2297 19.9015 47.2654 19.7945C47.3724 19.2596 47.4081 18.7961 47.3367 18.2255C47.3011 17.8689 47.3367 17.2627 46.9442 17.0845Z" fill="black"/>
<path d="M47.0156 15.4084C47.1226 15.6223 47.4437 15.444 47.3367 15.1944C47.0156 14.5169 47.0512 13.8037 46.9799 13.0549C46.9799 12.9479 46.8015 12.8766 46.7658 12.9836C46.6944 13.0906 46.5874 13.2332 46.5874 13.3758C46.5874 13.6254 46.5874 13.875 46.6231 14.1603C46.6588 14.6239 46.8015 15.0161 47.0156 15.4084Z" fill="black"/>
<path d="M24.2527 33.0237C24.0743 33.202 23.7889 33.1664 23.6105 33.3447C23.5392 33.416 23.6462 33.5586 23.7532 33.4873C23.9316 33.3447 24.217 33.3447 24.3954 33.1664C24.5025 33.0594 24.3598 32.9167 24.2527 33.0237Z" fill="black"/>
<path d="M30.7816 7.3853C30.7816 7.24266 30.5318 7.24266 30.5318 7.3853L30.4962 7.95583C30.4962 8.09847 30.4605 8.27676 30.6032 8.38374C30.6389 8.4194 30.7102 8.4194 30.7459 8.38374C30.8529 8.27676 30.8529 8.09847 30.8529 7.95583L30.7816 7.3853Z" fill="black"/>
<path d="M34.8851 8.38372C34.9564 8.24108 34.9207 8.13411 34.9207 7.99147C34.9207 7.81318 34.9207 7.59923 34.9207 7.42094C34.9207 7.27831 34.7067 7.27831 34.7067 7.42094C34.7067 7.59923 34.7067 7.77752 34.7067 7.92015C34.7067 8.06279 34.671 8.27674 34.7423 8.38372C34.778 8.45503 34.8494 8.45503 34.8851 8.38372Z" fill="black"/>
<path d="M49.5486 29.4936C50.2265 26.3913 50.0481 23.2177 49.62 20.044C49.3702 18.2968 49.0848 16.5495 48.7994 14.8022C48.621 13.6612 48.4782 12.4844 48.3712 11.3434C48.3355 10.5589 48.3712 9.77438 48.4426 8.98989C48.4782 8.70463 48.0858 8.63331 47.9431 8.8116C47.8717 8.63331 47.7647 8.52634 47.5149 8.52634C43.5189 8.52634 39.4872 8.41936 35.4556 8.41936C35.3485 7.84882 35.3485 7.27829 35.2415 6.74341C35.2415 6.63644 35.0988 6.56512 34.9917 6.60078C34.5993 6.74341 34.2425 6.81472 33.85 6.81472C33.9571 5.85194 33.6716 4.88916 33.4576 3.96204C33.2792 3.14189 33.1008 2.32175 32.8867 1.53726C32.7083 0.931064 32.4942 0.538823 31.8877 0.324871C31.2098 0.0396028 30.4249 0.00394644 29.7113 0.00394644C28.2842 -0.0317121 26.857 0.182237 25.4299 0.324871C25.1445 0.324871 24.859 0.289213 24.5736 0.324871C22.4686 0.324871 20.3635 0.717118 18.3299 1.252C17.9374 1.32331 17.5449 1.35897 17.1525 1.43029C16.4389 1.53726 15.7967 1.71555 15.2258 2.17911C15.1545 2.25043 15.0474 2.32175 14.9761 2.39306C14.1912 2.82097 13.5489 3.46282 13.3349 4.35428C13.0494 5.53102 13.6916 6.67209 14.4052 7.56355C14.1555 7.59921 13.9057 7.63487 13.656 7.59921C13.5846 7.59921 13.5133 7.56355 13.4062 7.56355C13.3349 7.59921 13.2635 7.70618 13.1922 7.70618C13.1208 7.70618 13.0138 7.7775 13.0138 7.88448C13.0138 8.41936 12.9424 8.91858 13.0138 9.4178C11.1585 9.45346 9.33887 9.52477 7.48359 9.52477C5.27152 9.56043 3.09513 9.66741 0.883057 9.77439V9.73873H0.847366V9.77439C0.597616 9.77439 0.383544 9.81005 0.133795 9.81005C-0.0445982 9.81005 -0.0445982 10.0953 0.133795 10.0953C0.312187 10.0953 0.490589 10.0953 0.633303 10.131C0.45491 10.1666 0.3122 10.2379 0.169486 10.3093C0.0981291 10.3449 0.0981291 10.4162 0.169486 10.4519C0.3122 10.5589 0.49058 10.6302 0.668973 10.7015C0.169473 14.3387 0.276526 18.1185 0.597633 21.7557C0.776026 23.8239 0.990084 25.9277 1.6323 27.9246C1.73933 28.2099 1.84637 28.5308 1.98908 28.8517C2.16748 29.3153 2.41724 29.7432 2.73835 30.1354C3.02378 30.5277 3.38055 30.8129 3.77301 31.0625C3.73733 31.1695 3.73733 31.3121 3.70165 31.4191C3.63029 31.3121 3.48758 31.4191 3.52326 31.5261C3.55894 31.6331 3.59463 31.7401 3.63031 31.8114C3.38056 33.63 3.59463 35.6268 3.8087 37.4098C4.05845 39.6563 4.45091 41.9027 4.98609 44.1136C5.05745 44.3632 5.3072 44.5771 5.59263 44.5771C6.62731 44.5771 7.6263 44.4345 8.66098 44.2919C8.91073 44.2562 9.1248 44.2206 9.37455 44.2206C9.98108 44.1849 10.5876 44.1492 11.1941 44.1492C11.8007 44.1492 12.4072 44.1492 13.0494 44.1492C14.7263 44.8981 16.653 45.1477 18.4726 45.2547C21.6123 45.3973 24.7163 45.005 27.8204 44.6841C34.2782 43.9709 41.1998 46.0748 47.3365 43.3647C47.8717 43.7213 48.7994 43.2934 48.5853 42.5089C48.5496 42.3306 48.4782 42.1524 48.4426 41.9741C48.5496 40.2268 48.2642 38.5152 47.9788 36.7679C47.9074 36.4113 47.836 36.0191 47.7647 35.6625C47.729 34.4145 47.6933 33.2021 47.5863 31.954C47.9431 31.7757 48.3355 31.5618 48.6566 31.3122C48.835 31.2765 49.0134 31.1339 49.0848 30.9199C49.5486 30.492 49.7627 30.0284 49.5486 29.4936ZM28.8194 32.2036C28.855 32.168 28.855 32.168 28.8907 32.1323C28.8907 32.5245 28.8907 32.9168 28.8907 33.309C28.855 33.309 28.855 33.309 28.8194 33.309C28.6766 33.309 28.4983 33.309 28.3555 33.309C28.3555 32.9524 28.3555 32.6315 28.3555 32.2749C28.3555 31.9184 28.3555 31.5261 28.3199 31.1339C28.5696 31.0269 28.748 30.8843 28.9264 30.6703C28.9264 31.0982 28.9264 31.4904 28.9264 31.9184C28.855 31.9897 28.8194 32.0253 28.748 32.0966C28.641 32.168 28.748 32.2749 28.8194 32.2036ZM24.1455 36.233C23.6817 35.8408 23.5033 35.1989 23.3962 34.6284C23.2178 33.9152 23.1821 33.1664 23.1465 32.4532V32.4176C23.3605 32.3463 23.4319 32.061 23.2892 31.954V31.9184C23.4676 31.9184 23.6103 31.954 23.7887 31.954C24.0028 31.954 24.2168 31.9897 24.4309 31.9184C24.5023 31.8827 24.5023 31.8114 24.4309 31.7757C24.2525 31.7044 24.0741 31.7401 23.86 31.7401C23.6816 31.7401 23.4676 31.7757 23.2892 31.7757C23.2535 31.6331 23.2178 31.4904 23.1108 31.3835C23.0751 31.0269 23.0394 30.6703 23.0038 30.3137C23.4319 30.385 23.86 30.5277 24.2882 30.599C24.645 31.7401 24.859 32.9168 24.8947 34.1292C24.752 34.2718 24.6093 34.4144 24.5023 34.5571C24.3596 34.6997 24.2168 34.8424 24.0384 34.9493C23.9314 35.0206 24.0384 35.1276 24.1098 35.092C24.2882 35.0206 24.4309 34.878 24.6093 34.771C24.7163 34.6641 24.8234 34.5571 24.8947 34.4145C24.8947 34.7354 24.8591 35.0206 24.8591 35.3416C24.8591 35.4485 24.9304 35.5199 25.0374 35.5199C25.0731 35.5199 25.0731 35.5199 25.1088 35.5199C25.0017 35.7695 24.8591 36.0547 24.6807 36.233C24.6093 36.3043 24.7163 36.3757 24.7877 36.34C25.0018 36.0904 25.1801 35.8408 25.2872 35.5199C25.644 35.5199 26.0007 35.5555 26.3575 35.5555C26.3932 35.8051 26.5003 36.0904 26.5716 36.3044C26.5716 36.34 26.643 36.34 26.643 36.3044C26.6073 36.0904 26.5716 35.8408 26.5359 35.5912C27.0711 35.5912 27.6063 35.5912 28.1058 35.4842C28.1058 35.7695 28.1415 36.0547 28.1415 36.3044C28.1415 36.34 28.2128 36.34 28.2128 36.3044C28.2128 36.0191 28.2485 35.7338 28.2485 35.4485C28.3556 35.4129 28.4269 35.4129 28.5339 35.3772C28.641 35.3416 28.7123 35.2346 28.6766 35.1276C28.641 35.0206 28.6053 34.9493 28.6053 34.8423C28.7123 35.092 28.8194 35.3059 28.9264 35.5555C28.9264 35.8408 28.9264 36.0904 28.9264 36.3757C28.3912 36.4113 27.8917 36.4826 27.3566 36.554C26.7857 36.6253 26.2148 36.6253 25.6083 36.6253C25.0731 36.5896 24.5379 36.554 24.1455 36.233ZM30.0681 6.77907C30.0681 7.20697 30.0681 7.63487 30.1038 8.06277C30.1038 8.2054 30.1038 8.34804 30.1038 8.49068C29.2118 8.52634 28.3555 8.56199 27.4636 8.59765C24.6807 8.74028 21.9334 8.98989 19.1505 9.13253C19.1862 8.59765 19.1148 8.09843 19.1148 7.56355C19.1148 7.42092 19.0078 7.31395 18.865 7.31395C18.3299 7.34961 17.8304 7.31395 17.3309 7.24263C17.2952 7.24263 17.2952 7.24263 17.2595 7.24263C17.4736 6.31551 17.2952 5.10312 18.0088 4.4256C18.3299 4.14034 18.865 4.06902 19.2575 3.9977C19.8284 3.89072 20.4349 3.81941 21.0058 3.74809C21.9691 3.64112 22.8967 3.60546 23.86 3.53414C23.8957 3.5698 23.8957 3.60545 23.9314 3.60545C23.9671 3.67677 24.1098 3.64112 24.0741 3.53414C24.0741 3.53414 24.0741 3.53414 24.0741 3.49848C24.4309 3.49848 24.752 3.46282 25.1088 3.46282C26.3932 3.3915 27.6777 3.35585 28.9621 3.35585C28.9621 3.42717 28.9621 3.49848 28.9978 3.5698C28.9978 3.67678 29.1405 3.67678 29.1405 3.5698C29.1405 3.49848 29.1405 3.42717 29.1405 3.35585C29.4259 3.35585 29.7113 3.35585 29.9967 3.39151L30.0324 3.42716C30.0681 3.53413 30.0681 3.60546 30.1038 3.71243C30.0324 3.85507 29.9967 4.03336 29.9254 4.17599C29.8897 4.24731 29.9968 4.28297 30.0324 4.21165C30.0681 4.14033 30.1038 4.03335 30.1751 3.96204C30.3892 4.81784 30.639 5.67365 30.746 6.56512C30.5676 6.56512 30.3892 6.56512 30.2108 6.56512C30.1752 6.60078 30.0681 6.6721 30.0681 6.77907ZM18.6866 9.16819C18.4726 9.16819 18.2585 9.20385 18.0088 9.20385C17.8304 8.77595 17.652 8.27673 17.7233 7.81317C18.0444 7.84883 18.3299 7.84883 18.651 7.84883C18.6867 8.27673 18.758 8.74028 18.6866 9.16819ZM28.9264 2.89228C28.4983 2.89228 28.0701 2.89228 27.6063 2.89228C27.5349 2.64267 27.4992 2.39307 27.4279 2.14346C27.4636 2.14346 27.4993 2.14346 27.5349 2.14346C27.9988 2.25044 28.4626 2.39307 28.8907 2.60702C28.8907 2.71399 28.9264 2.82096 28.9264 2.89228ZM22.1832 2.50005C22.5399 2.50005 22.8967 2.46438 23.2535 2.46438C23.3606 2.71399 23.4676 2.92794 23.6103 3.14189C23.1465 3.17755 22.6827 3.21321 22.2188 3.24887C22.2545 2.99926 22.2545 2.74966 22.1832 2.50005ZM21.8977 2.50005C21.9334 2.74966 21.9334 3.03491 22.0048 3.24887C21.6837 3.28452 21.3982 3.32019 21.0771 3.32019C20.8987 3.07058 20.649 2.82097 20.4706 2.60702C20.8987 2.57136 21.3269 2.5357 21.7907 2.50005C21.8264 2.50005 21.862 2.50005 21.8977 2.50005ZM18.651 3.42716C18.3655 3.32018 18.1158 3.24887 17.8304 3.14189C17.9017 3.10624 17.9731 3.07058 18.0444 3.03492C18.1871 2.99926 18.3299 2.9636 18.4369 2.92794C18.6867 3.10623 18.9721 3.32019 19.2218 3.32019C19.2575 3.32019 19.2932 3.24887 19.2932 3.21322C19.1861 3.03492 18.9364 2.96361 18.7223 2.85663C19.1862 2.74966 19.6857 2.67834 20.1495 2.64268C20.1852 2.67834 20.1852 2.71399 20.2208 2.74965C20.3636 2.9636 20.5063 3.17756 20.6847 3.39151C20.649 3.39151 20.6133 3.39151 20.5776 3.39151C20.0068 3.46283 19.3289 3.49848 18.7223 3.67677C18.7937 3.60546 18.7937 3.46282 18.651 3.42716ZM16.4389 4.92482C16.4389 5.10312 16.4032 5.31707 16.4032 5.49536C16.4032 5.60234 16.4032 5.70931 16.4032 5.81629C16.3319 5.85194 16.2248 5.85195 16.1535 5.88761C16.2248 5.56668 16.2962 5.24575 16.3675 4.92482C16.4032 4.92482 16.4032 4.92482 16.4389 4.92482ZM16.76 3.39151C16.8314 3.35585 16.9027 3.35585 16.9741 3.32019C16.6887 3.71243 16.5459 4.14034 16.4746 4.63956C16.4746 4.63956 16.4746 4.63956 16.4389 4.63956C16.5459 4.21166 16.653 3.81941 16.76 3.39151ZM23.5389 2.42872C24.0741 2.39307 24.645 2.35741 25.1801 2.28609C25.1801 2.39307 25.2158 2.5357 25.2158 2.64268C25.2158 2.71399 25.3229 2.67834 25.3229 2.64268C25.3229 2.5357 25.3585 2.39307 25.3585 2.28609C25.9294 2.21477 26.5359 2.14345 27.1425 2.17911C27.2138 2.42872 27.2852 2.71399 27.3566 2.9636C26.5003 2.99926 25.644 3.03492 24.7877 3.10623C24.5023 3.14189 24.2168 3.1419 23.9314 3.17756C23.7887 2.89229 23.6817 2.64268 23.5389 2.42872ZM31.2455 2.14346C31.3169 2.28609 31.3882 2.39306 31.4596 2.5357C31.3169 2.39306 31.1742 2.25043 31.0314 2.1078C31.0671 2.03648 31.0671 1.96516 31.0671 1.89385C31.1385 2.00082 31.2098 2.07214 31.2455 2.14346ZM30.7817 1.96517C30.746 1.92951 30.7103 1.89384 30.6747 1.85818C30.746 1.85818 30.7817 1.85818 30.8174 1.85818C30.8174 1.89384 30.7817 1.92951 30.7817 1.96517ZM29.4259 2.92794C29.3545 2.92794 29.2832 2.92794 29.2118 2.92794C29.2118 2.89228 29.2118 2.85663 29.2118 2.78531C29.2475 2.82097 29.3189 2.85662 29.4259 2.92794ZM15.0474 4.49692C15.0474 4.49692 15.0831 4.46126 15.0474 4.49692C15.0118 4.96048 14.9761 5.42405 14.9761 5.88761H14.9404C14.7977 5.42405 14.762 4.92482 15.0474 4.49692ZM15.9751 6.67209C16.0108 6.52945 16.0464 6.38683 16.0821 6.24419C16.1891 6.24419 16.3319 6.20853 16.4032 6.13721C16.4032 6.35116 16.4389 6.60077 16.4389 6.81472C16.1891 6.88604 15.9394 6.95736 15.6897 6.95736C15.8324 6.92171 15.9394 6.81472 15.9751 6.67209ZM16.5459 7.13566C16.5816 7.13566 16.6173 7.13565 16.653 7.1C16.7957 7.02868 16.9741 6.9217 17.0811 6.81472C17.1525 6.7434 17.0811 6.67209 17.0098 6.67209C16.9027 6.70775 16.7957 6.74341 16.6887 6.77907C16.6887 6.4938 16.6886 6.24419 16.7243 5.95892C16.76 5.92326 16.76 5.88761 16.7957 5.85195C16.8314 5.78063 16.7957 5.74496 16.7243 5.74496C16.7243 5.49535 16.76 5.24575 16.7957 4.99614C16.867 4.96049 16.9027 4.81785 16.8314 4.74653C16.8314 4.63955 16.867 4.56824 16.9027 4.46127C17.0098 3.9977 17.2595 3.64112 17.5806 3.35585C17.9374 3.49848 18.2585 3.60546 18.6153 3.74809C18.3299 3.85507 18.0444 3.9977 17.8304 4.17599C16.9741 4.88916 17.3309 6.20853 17.1525 7.20697C16.9027 7.17131 16.6887 7.17131 16.4389 7.17131C16.4389 7.17131 16.5103 7.17132 16.5459 7.13566ZM30.7817 4.35428C30.7817 4.35428 30.7817 4.31862 30.7817 4.35428C30.7817 4.31862 30.7817 4.31862 30.7817 4.35428ZM30.8174 4.4256C30.9244 4.63956 30.9958 4.81784 31.0671 5.06745C31.0314 5.06745 30.9958 5.10312 30.9601 5.10312C30.9244 4.88916 30.853 4.67521 30.8174 4.4256C30.8174 4.46126 30.8174 4.46126 30.8174 4.4256ZM30.9957 5.24575C31.0314 5.24575 31.0671 5.24575 31.1028 5.21009C31.1385 5.42404 31.2098 5.67365 31.2098 5.92326C31.2098 5.95892 31.2098 5.99458 31.2455 6.03024C31.2098 6.03024 31.2098 6.03024 31.1741 6.03024C31.1028 5.78063 31.0671 5.49536 30.9957 5.24575ZM31.2812 6.17287C31.3882 6.42248 31.6023 6.60077 31.852 6.67209C31.638 6.63643 31.4596 6.63644 31.2455 6.60078C31.2098 6.45814 31.2098 6.31551 31.1741 6.17287C31.2098 6.17287 31.2455 6.17287 31.2812 6.17287ZM32.2445 6.67209C32.3515 6.70775 32.4586 6.67209 32.4943 6.56512C32.5656 6.52946 32.637 6.45814 32.6726 6.42249C32.7797 6.56512 32.9224 6.6721 33.0651 6.77907C32.744 6.74341 32.4229 6.70775 32.0661 6.67209C32.1375 6.70775 32.2088 6.70775 32.2445 6.67209ZM15.5113 7.17131C15.5826 7.20696 15.654 7.20697 15.7253 7.20697C15.654 7.20697 15.5826 7.24263 15.4756 7.24263C15.4756 7.24263 15.5113 7.20696 15.5113 7.17131ZM15.4756 7.70618C15.654 7.67053 15.8324 7.67054 16.0464 7.67054C16.5459 7.67054 17.0454 7.74185 17.5093 7.77751C17.4022 8.27673 17.5093 8.77595 17.7947 9.20385C17.7233 9.20385 17.6163 9.20385 17.5449 9.20385C17.3309 9.20385 17.1168 9.20385 16.9027 9.23951C16.9384 9.02556 16.9027 8.74028 16.867 8.59765C16.8314 8.31238 16.653 8.02712 16.3319 7.99146C16.2962 7.99146 16.2605 8.06277 16.2962 8.06277C16.5816 8.24106 16.5816 8.59766 16.5816 8.88292C16.5816 8.9899 16.5459 9.13253 16.5459 9.23951C16.2605 9.23951 15.9751 9.27517 15.6897 9.27517C15.6183 9.06122 15.5469 8.84726 15.5113 8.63331C15.5113 8.34804 15.4756 8.02711 15.4756 7.70618ZM3.9871 30.3494C3.9871 30.4207 4.02277 30.4563 4.02277 30.5277C3.98709 30.5277 3.98708 30.5633 3.9514 30.5633C3.84437 30.492 3.73734 30.4207 3.66598 30.3137C3.77302 30.3494 3.88006 30.3494 3.9871 30.3494ZM28.855 35.092L28.8907 35.1276C28.8907 35.1633 28.8907 35.1633 28.8907 35.1989C28.855 35.1633 28.855 35.1276 28.855 35.092ZM28.8907 34.985C28.855 34.985 28.8194 34.9493 28.7837 34.9493C28.7123 34.771 28.6053 34.6284 28.4982 34.4858C28.4269 34.1648 28.3912 33.8439 28.3912 33.4873C28.5339 33.4873 28.7123 33.4873 28.855 33.4873C28.8907 33.4873 28.8907 33.4873 28.9264 33.4873C28.8907 33.9865 28.8907 34.4858 28.8907 34.985ZM28.2842 31.0982C28.2485 30.8129 28.2128 30.5633 28.1415 30.3137C28.2842 30.3137 28.3555 30.1354 28.3912 30.0284C28.4626 29.8858 28.5339 29.7432 28.5339 29.6005C28.5339 29.4936 28.3912 29.4936 28.3555 29.6005C28.3555 29.7075 28.3199 29.7788 28.2842 29.8501C28.2485 29.7788 28.1771 29.7432 28.1058 29.7432C28.0701 29.7432 27.9987 29.7432 27.9631 29.7788C27.8917 29.7075 27.749 29.7432 27.7133 29.8145C27.5349 29.8501 27.3566 29.8858 27.1782 29.9215C27.2138 29.7432 27.2138 29.5292 27.2495 29.3866C27.8204 29.4223 28.3912 29.4579 28.9621 29.4579C28.9621 29.8145 28.9621 30.1711 28.9621 30.5277C28.748 30.7773 28.5339 30.9556 28.2842 31.0982ZM28.1058 30.0998L28.0701 30.1354V30.0998C28.1058 30.0998 28.1058 30.0998 28.1058 30.0998ZM23.3962 28.8874C23.2892 28.8161 23.1822 28.7091 23.0751 28.6378C23.0394 28.6021 23.0038 28.6378 23.0394 28.6734C23.1108 28.7447 23.1821 28.8161 23.2178 28.8874C23.0394 28.8874 22.8967 28.8874 22.7183 28.8874C22.6113 28.8874 22.6113 29.03 22.7183 29.03C22.9324 29.03 23.1821 29.0657 23.3962 29.0657C23.6816 29.3509 23.9671 29.6362 24.2168 29.9571C24.2882 30.0641 24.5022 29.9571 24.3952 29.8501C24.1811 29.5649 23.8957 29.3153 23.646 29.1013C24.2525 29.137 24.8947 29.2083 25.5013 29.244V29.2796C25.5013 29.4936 25.5013 29.6719 25.5013 29.8858C25.5013 29.9928 25.6797 29.9928 25.6797 29.8858C25.6797 29.6719 25.6797 29.4936 25.6797 29.2796C25.6797 29.2796 25.6797 29.2796 25.6797 29.244C26.1435 29.2796 26.643 29.3153 27.1068 29.3509C27.0354 29.5292 26.9641 29.7075 26.9284 29.9215V29.9571C26.1792 30.0998 25.4299 30.2067 24.6807 30.1711C24.6093 30.1711 24.6093 30.2781 24.6807 30.3137C25.4299 30.4564 26.1435 30.385 26.8927 30.2781C26.857 30.385 26.857 30.4563 26.857 30.5633C26.857 30.6346 26.9641 30.6703 26.9998 30.599C27.0711 30.492 27.1068 30.385 27.1425 30.2424C27.3565 30.2067 27.5349 30.1711 27.749 30.1354C27.9274 30.9912 27.9988 31.7757 27.9988 32.6315C27.9988 33.4517 28.0344 34.2361 28.2842 34.985C28.2842 34.985 28.2842 34.985 28.2485 34.985V34.9493C28.2485 34.878 28.1415 34.878 28.1415 34.9493C28.1415 34.985 28.1415 34.985 28.1415 35.0206C27.6063 35.1276 27.0711 35.1633 26.5359 35.1276C26.5359 34.9493 26.5716 34.8067 26.6786 34.6641C26.7143 34.5927 26.643 34.5571 26.6073 34.5927C26.4289 34.7354 26.3575 34.9137 26.3575 35.1276C26.0364 35.1276 25.7153 35.092 25.3942 35.092C25.4299 34.9493 25.4656 34.771 25.4656 34.6284C25.4656 34.4858 25.2515 34.4858 25.2515 34.6284C25.2515 34.7354 25.2515 34.8424 25.2158 34.9493C25.2872 33.4517 25.0018 31.954 24.5023 30.5633C24.5736 30.5633 24.645 30.599 24.7163 30.599C24.7877 30.599 24.8234 30.492 24.752 30.4564C24.2168 30.2424 23.6103 30.1711 23.0038 30.1711C22.9324 29.6362 22.7897 29.0657 22.5756 28.5664C22.5399 28.4595 22.3972 28.5308 22.4329 28.6378C22.5756 29.4579 22.647 30.3137 22.647 31.1339C22.6113 31.1339 22.6113 31.1339 22.5756 31.1339C19.4359 31.5261 16.2962 31.7401 13.1208 31.6687C11.2655 31.6331 9.41023 31.6331 7.59062 31.3122C6.59162 31.1339 5.20015 30.9556 4.48658 30.0998C4.55794 29.9215 4.48659 29.7432 4.27252 29.6719C3.84438 29.5292 3.66599 29.0657 3.45192 28.6734C3.05945 28.0316 2.84538 27.3184 2.66699 26.6052C2.16749 24.644 1.98908 22.6115 1.81069 20.5789C1.52526 17.334 1.63229 14.0178 1.20415 10.7728C1.56094 10.8798 1.91774 10.9155 2.3102 10.9511C2.16749 11.4147 2.06045 11.9139 2.06045 12.4131C2.06045 12.5914 2.34587 12.5914 2.34587 12.4131C2.34587 11.9139 2.41723 11.4503 2.52426 10.9511C3.4519 11.0224 4.41523 10.9511 5.20015 10.9868C7.19815 11.0581 9.19615 11.0581 11.1941 11.0224C12.2288 10.9868 13.2635 10.9868 14.3339 10.9511C12.764 13.1619 10.7303 14.9805 8.9464 16.9774C7.37655 18.7247 5.69967 20.8999 5.41424 23.289C5.41424 23.4316 5.59262 23.4316 5.6283 23.3246C7.26951 18.2611 11.6223 15.2301 14.4409 10.9511C17.3666 10.8798 20.2922 10.7372 23.2178 10.6302C27.2495 10.4519 31.2455 10.2736 35.2772 10.2023C39.0591 10.131 42.8054 10.2379 46.5516 10.3093C46.5873 10.4162 46.5873 10.5232 46.623 10.5945C46.6943 10.9868 46.8013 11.4147 46.8727 11.8426C46.9084 12.0209 47.1581 11.9496 47.1938 11.8069C47.2295 11.4147 47.2652 11.0224 47.1938 10.6302C47.1938 10.5232 47.1581 10.4162 47.1581 10.3449C47.2652 10.3449 47.3365 10.3449 47.4436 10.3449C47.5506 10.3449 47.622 10.3449 47.6933 10.3093C47.3722 13.2333 47.9431 16.2642 48.3355 19.1169C48.2999 21.2564 48.6566 23.396 48.728 25.4998C48.728 25.6068 48.728 25.6781 48.728 25.7851C48.6566 27.1401 48.5139 28.4595 48.1928 29.8145C47.5506 30.1711 46.8013 30.4207 46.1591 30.599C44.1968 31.2052 42.1275 31.4904 40.0938 31.7044C39.8083 31.7401 39.4872 31.7757 39.2018 31.7757C38.2742 31.7044 37.3465 31.6687 36.3832 31.7401C34.2425 31.8827 32.1375 32.0966 30.0324 32.2036C29.9611 32.2036 29.854 32.168 29.7827 32.168C29.6757 32.1323 29.5686 32.168 29.4973 32.2393C29.4973 31.2408 29.4973 30.2424 29.4973 29.244C29.4973 29.137 29.4259 29.0657 29.3189 29.0657C27.1782 29.1013 25.2872 28.8517 23.3962 28.8874ZM34.8847 7.06434C34.9561 7.5279 34.9918 7.99145 35.0631 8.41936C34.7063 8.41936 34.3495 8.41936 33.9928 8.41936C33.9928 8.31238 33.9928 8.16975 33.9928 8.06277C33.9928 7.81316 33.9571 7.59921 33.9214 7.38526C33.9214 7.31394 33.7787 7.31394 33.7787 7.38526C33.743 7.63487 33.7073 7.84882 33.7073 8.06277C33.7073 8.16975 33.7073 8.31238 33.7073 8.41936C32.6013 8.41936 31.5309 8.45502 30.4249 8.49068C30.4249 8.34804 30.4249 8.20541 30.4249 8.09843C30.4606 7.74185 30.4606 7.3496 30.4606 6.99301C30.639 6.99301 30.8174 6.99302 30.9957 7.02867C31.0314 7.02867 31.0671 7.02867 31.1028 7.02867C31.3525 7.06433 31.6023 7.06434 31.852 7.1C31.8164 7.27829 31.8164 7.42092 31.7807 7.63487C31.7807 7.88448 31.6736 8.2054 31.852 8.41936C31.8877 8.49067 31.9948 8.49067 32.0304 8.41936C32.1731 8.2054 32.1018 7.88448 32.1018 7.63487C32.1018 7.45658 32.0661 7.31395 32.0661 7.13566C32.2802 7.17132 32.4586 7.17131 32.6726 7.20697C32.744 7.38526 32.8154 7.59922 32.8154 7.81317C32.851 8.02712 32.744 8.20541 32.8154 8.38371C32.851 8.41936 32.8867 8.49067 32.9581 8.45502C33.2792 8.24107 33.1008 7.63487 32.9581 7.24263C33.6003 7.27829 34.2425 7.27829 34.8847 7.06434ZM15.2972 7.74185C15.2258 8.24107 15.2258 8.84727 15.4399 9.27517C15.1188 9.27517 14.762 9.31082 14.4409 9.31082C14.4766 9.09687 14.4766 8.88292 14.4766 8.70463C14.4766 8.41936 14.4409 8.16975 14.4052 7.88448C14.655 7.88448 14.9761 7.81316 15.2972 7.74185ZM13.3706 7.9558C13.4419 7.9558 13.4776 7.92014 13.5133 7.88448C13.6916 7.92014 13.9057 7.9558 14.0841 7.92014C14.1198 8.16975 14.1555 8.45502 14.1198 8.70463C14.1198 8.91858 14.0484 9.13253 14.0128 9.31082C13.763 9.31082 13.5133 9.31082 13.2635 9.34648C13.2635 8.91858 13.3349 8.41936 13.3706 7.9558ZM4.30819 31.3478C4.52226 31.4548 4.73633 31.5618 4.9504 31.6331C4.98608 31.6331 4.98608 31.6331 5.02176 31.6687C5.37855 31.9183 5.80669 32.1323 6.16348 32.2749C7.91173 33.0594 10.0168 33.1664 11.9077 33.309C13.9771 33.4873 16.1178 33.3447 18.1872 33.2377C19.65 33.1307 21.1841 33.0594 22.6113 32.7028C22.6113 32.8811 22.6113 33.0594 22.6113 33.2377C22.6826 34.3788 22.8254 35.9121 23.7887 36.6966C24.1098 36.9462 24.5023 37.0532 24.8947 37.1245C24.5379 37.9446 24.0027 38.6578 23.6816 39.5136C23.646 39.6206 23.7887 39.6563 23.86 39.5849C24.3595 38.8361 24.7877 38.016 25.1088 37.1602C25.7153 37.2315 26.4289 37.2671 27.0354 37.1602C27.6063 37.0532 28.1772 37.0175 28.7123 36.9462C28.9621 36.9105 29.2118 36.9105 29.4616 36.8749C29.5329 36.8749 29.6043 36.8392 29.6757 36.8036C29.6757 36.8036 29.854 36.7323 29.747 36.7679C29.9967 36.6966 29.9254 36.3757 29.6757 36.34C29.6757 36.34 29.6756 36.34 29.64 36.34C29.747 36.3044 29.5686 36.34 29.4973 36.3044C29.4259 36.3044 29.3189 36.3044 29.2475 36.3044C29.2475 35.9834 29.2475 35.6625 29.2475 35.3416C29.2832 35.3416 29.3189 35.3772 29.3545 35.3772C29.4616 35.3772 29.4616 35.2346 29.3545 35.1989C29.3189 35.1989 29.2832 35.1633 29.2475 35.1633C29.2475 34.5927 29.2475 34.0579 29.2475 33.4873C29.2832 33.4873 29.3189 33.4873 29.3902 33.4517C29.4616 33.416 29.4616 33.3447 29.3902 33.309C29.3545 33.309 29.3189 33.2734 29.2475 33.2734C29.2475 33.1307 29.2475 32.9881 29.2475 32.8455C30.3892 33.5943 32.1375 33.7013 33.4576 33.7369C35.8124 33.8082 38.2028 33.7369 40.5576 33.4873C42.2702 33.309 44.0184 33.0594 45.6953 32.5959C45.4812 33.2021 45.5883 33.9152 45.6596 34.5571C45.731 35.2346 45.9094 35.9121 46.1948 36.554H46.2305C46.3375 35.9121 46.3732 35.1989 46.3375 34.5571C46.2662 33.8439 46.3732 33.1307 46.0878 32.4889C46.3375 32.4176 46.5873 32.3463 46.8727 32.2393C46.5873 35.4842 46.2305 38.9074 46.9441 42.1167C46.9084 42.1523 46.8727 42.1524 46.837 42.1524C46.4802 42.188 46.0878 42.2593 45.731 42.3663C45.6596 42.402 45.624 42.4376 45.5883 42.5089C43.0551 42.8655 40.4506 42.9725 37.8817 43.0795C36.8827 43.1151 35.9194 43.1508 34.9204 43.2221C32.7083 43.1151 30.4606 43.0082 28.2485 43.2221C27.4636 43.2934 26.6787 43.3647 25.858 43.4717C23.1822 43.5074 20.5063 43.543 17.8304 43.543C16.5103 43.543 15.1901 43.5074 13.87 43.5074C13.5489 43.4361 13.2278 43.3291 12.9067 43.2221C12.8711 43.0082 12.764 42.8299 12.5143 42.7586C12.1932 42.6872 11.8364 42.6516 11.4796 42.6516C11.3726 42.6159 11.2655 42.5446 11.1585 42.5089C11.0514 42.4376 10.9087 42.5446 10.9444 42.6516C9.55295 42.6872 8.1258 43.0438 6.77002 43.2221C6.69866 43.0082 6.59163 42.7229 6.4846 42.5446C6.12781 41.9027 5.8067 41.2966 5.59263 40.619C5.41424 39.8345 5.27151 39.0144 5.12879 38.1942C4.9504 36.5896 4.91473 34.9137 4.55794 33.3447C4.45091 32.7385 4.37955 32.061 4.30819 31.3478ZM6.16348 43.2578C6.16348 43.2934 6.19915 43.3291 6.19915 43.3291C6.19915 43.3291 6.19916 43.3291 6.16348 43.3291C6.16348 43.2934 6.16348 43.2934 6.16348 43.2578Z" fill="black"/>
<path d="M7.09081 13.5898C7.16216 13.4115 6.91243 13.2689 6.84108 13.4472C6.19886 14.7309 5.55665 15.9789 4.87876 17.227C4.41494 18.0828 3.80839 18.9386 3.34457 19.7944C3.27321 19.4378 3.20187 19.1169 3.13051 18.796C3.13051 18.7603 3.09483 18.7603 3.05915 18.796C2.91643 19.2952 2.88075 19.937 2.98779 20.5076C2.88075 20.7215 2.80941 20.8998 2.73805 21.1138C2.70238 21.2207 2.84509 21.2921 2.91645 21.2207C2.9878 21.1494 3.02348 21.0781 3.09484 21.0068C3.13052 21.1494 3.20187 21.2921 3.27323 21.399C3.30891 21.506 3.48728 21.4704 3.52296 21.3634C3.55864 21.0781 3.52297 20.7928 3.48729 20.5432C4.09383 19.6874 4.52196 18.6533 5.02146 17.7619C5.69935 16.4068 6.41292 15.0161 7.09081 13.5898Z" fill="black"/>
<path d="M20.0423 11.3432C20.1137 11.2362 19.9353 11.1649 19.8996 11.2362C17.5805 14.3385 14.8689 17.0842 12.2287 19.9369C9.69555 22.647 7.09102 25.4283 5.27142 28.6733C5.20006 28.8159 5.37845 28.8872 5.44981 28.7802C7.73323 25.5353 10.195 22.54 12.8709 19.616C15.3684 16.9416 17.8659 14.3029 20.0423 11.3432Z" fill="black"/>
<path d="M23.1465 13.5541C23.1822 13.5184 23.1465 13.5184 23.1465 13.5541C20.0782 15.1231 17.5807 17.6192 15.4043 20.2579C14.2982 21.6486 13.2636 23.0749 12.3002 24.5726C11.3726 25.9989 10.3736 27.4609 9.73138 29.0299C9.66002 29.1725 9.83841 29.2795 9.90977 29.1369C10.8017 27.7819 11.5153 26.3555 12.3716 25.0005C13.3706 23.4315 14.4766 21.9339 15.6183 20.4718C17.7591 17.7975 20.1495 15.23 23.1465 13.5541Z" fill="black"/>
<path d="M28.8192 11.6287C27.8202 14.4101 26.0363 16.8705 24.181 19.1527C23.2534 20.2938 22.29 21.3992 21.291 22.4689C20.3991 23.4674 19.3287 24.4301 18.5795 25.5356C18.4724 25.6782 18.6865 25.7852 18.7935 25.6782C19.8996 24.7511 20.8272 23.5387 21.7549 22.4689C22.7182 21.3635 23.6815 20.2224 24.5735 19.0457C26.3217 16.7992 27.9629 14.3744 28.8549 11.6644C28.8906 11.5931 28.8192 11.5574 28.8192 11.6287Z" fill="black"/>
<path d="M32.744 13.5541C32.7797 13.4828 32.6727 13.3758 32.6013 13.4828C31.745 15.123 30.8174 16.7633 29.8898 18.368C29.0335 19.8656 28.0345 21.3633 27.4636 23.0036C27.4279 23.1462 27.6063 23.2175 27.7134 23.1106C28.7124 21.7199 29.3903 20.0796 30.2109 18.5463C31.0672 16.906 31.9234 15.2657 32.744 13.5541Z" fill="black"/>
<path d="M32.4584 24.109C33.6358 22.9679 34.5278 21.4703 35.5268 20.1509C36.7041 18.5819 37.8102 16.9773 39.0589 15.444C39.0946 15.4083 39.0233 15.3727 39.0233 15.4083C37.8459 16.6564 36.7042 17.9757 35.6695 19.3308C34.5278 20.8284 33.2077 22.2904 32.28 23.9307C32.1373 24.0734 32.3157 24.216 32.4584 24.109Z" fill="black"/>
<path d="M36.2405 27.2473C39.63 23.2535 41.8064 18.0831 45.9807 14.8025C45.9807 14.8025 45.9807 14.7668 45.9807 14.8025C43.7687 16.1218 42.1988 18.0474 40.6647 20.1156C38.9878 22.3621 37.5606 24.7869 36.0621 27.1047C35.9551 27.2116 36.1692 27.3899 36.2405 27.2473Z" fill="black"/>
<path d="M41.0215 27.889C42.8411 26.0348 44.8391 23.717 45.4456 21.1496C45.4813 21.0426 45.3386 21.0069 45.3029 21.1139C44.4466 23.7526 42.0918 25.3573 40.8074 27.7464C40.736 27.8534 40.9144 27.996 41.0215 27.889Z" fill="black"/>
<path d="M9.90977 39.5847C11.0158 38.1227 11.9791 36.5894 13.0494 35.1274C13.0851 35.0918 13.0138 35.0204 12.9781 35.0561C11.8721 36.4468 10.5163 37.8731 9.73138 39.4777C9.66002 39.6204 9.83841 39.7274 9.90977 39.5847Z" fill="black"/>
<path d="M14.9762 39.0504C16.3677 38.0519 17.2596 36.162 17.6164 34.5217C17.6521 34.2721 17.331 34.2008 17.2596 34.4148C16.8315 36.1977 15.7255 37.3388 14.7621 38.8364C14.6551 38.9434 14.8335 39.1574 14.9762 39.0504Z" fill="black"/>
<path d="M19.4358 39.9416C19.8639 39.2641 20.1494 38.4439 20.5061 37.7308C20.9343 36.875 21.4338 36.0192 21.9333 35.1634C21.969 35.092 21.8619 35.0207 21.7906 35.092C20.8629 36.554 19.5785 38.1587 19.186 39.8703C19.186 39.9773 19.3644 40.0486 19.4358 39.9416Z" fill="black"/>
<path d="M31.8164 39.264C32.4943 37.5881 33.6717 36.1261 34.9205 34.8424C34.9561 34.8067 34.8848 34.6997 34.8491 34.7711C33.529 36.0548 32.3516 37.4811 31.6023 39.1927C31.5666 39.3354 31.7451 39.4067 31.8164 39.264Z" fill="black"/>
<path d="M38.7734 39.6206C40.2362 38.4082 40.9141 36.3401 42.8408 35.7695C42.8764 35.7695 42.8408 35.7339 42.8408 35.7339C40.8071 35.9478 39.7367 38.0517 38.6307 39.5137C38.5236 39.585 38.6664 39.6919 38.7734 39.6206Z" fill="black"/>
<path d="M43.5187 38.2654C43.5187 37.5879 43.8041 36.9817 44.0896 36.3755C44.0896 36.3398 44.0539 36.3398 44.0539 36.3398C43.7328 36.946 43.4117 37.5522 43.376 38.2654C43.376 38.3724 43.5187 38.3724 43.5187 38.2654Z" fill="black"/>
</svg>
