<svg width="50" height="47" viewBox="0 0 50 47" fill="none" xmlns="http://www.w3.org/2000/svg">
<path d="M0.546602 43.973C0.50627 44.0939 0.465968 44.1745 0.425636 44.2954C2.84554 44.4163 5.22508 44.9404 7.60464 45.4644C9.50023 45.8675 11.3958 46.1496 13.2511 46.3512C14.6224 46.3512 15.9533 46.3512 17.3246 46.3109C17.4053 46.4318 17.5262 46.5124 17.6472 46.593C17.9296 46.593 18.2119 46.593 18.4942 46.593H18.5346C18.7362 46.5124 18.8975 46.3915 19.0588 46.2706C21.1158 46.2302 23.1727 46.2706 25.2296 46.2303C25.5523 46.2303 25.8749 46.2303 26.1976 46.19C28.0932 45.9884 29.9484 45.6659 31.8036 45.2628C31.7633 45.1016 31.723 44.9 31.6827 44.7388C31.8037 44.6985 31.8843 44.5776 31.9247 44.4566C32.0457 41.6753 32.5296 38.894 32.8119 36.1127C33.0943 33.2507 33.2959 30.026 31.8036 27.3656C30.7147 25.3904 28.2141 24.5439 26.0766 23.6974C25.2296 23.3347 24.3423 22.9719 23.6163 22.4479C23.0517 21.4805 22.6484 20.3518 22.0434 19.4247C25.3506 17.1674 27.4882 13.1365 27.5688 9.7102C27.6092 8.50093 27.3269 7.33196 26.8026 6.28392C25.8346 2.97858 22.124 0.560019 18.2925 0.0763093C14.2594 -0.4074 10.7102 1.44681 9.2986 4.55061C9.13728 4.79247 8.9356 4.99399 8.77427 5.23585C6.63669 8.37996 7.84666 13.0155 9.70192 16.0387C9.74225 16.1193 9.82292 16.2402 9.90358 16.3209C10.0649 17.4495 10.7102 18.4976 11.8395 19.3844C12.2831 19.7472 12.7671 20.0293 13.2914 20.2712C13.0091 20.9161 12.6865 21.5207 12.2832 22.1254C11.4765 22.6897 10.5892 23.1734 9.70192 23.6571C9.50026 23.6168 9.25828 23.6572 9.05662 23.8184C8.8953 23.9393 8.69362 24.1006 8.53229 24.2215C6.43505 25.2292 4.25714 26.1563 2.64388 27.6478C-2.07493 31.9205 1.07091 38.6925 0.546602 43.973ZM28.5368 44.5776C28.5771 44.5373 28.6175 44.5373 28.6981 44.4969C28.6981 44.5373 28.6981 44.5776 28.6981 44.6179C28.6578 44.5776 28.6175 44.5776 28.5368 44.5776ZM30.1097 27.1237C30.634 27.6477 30.9971 28.2927 31.239 28.9779C30.9567 28.4539 30.5937 27.9702 30.1501 27.4865C30.1097 27.285 29.9887 27.0834 29.9081 26.9222C29.9484 26.9625 30.0291 27.0431 30.1097 27.1237ZM29.3837 39.0955C29.3837 39.2567 29.3434 39.418 29.3031 39.5792C29.2628 39.5389 29.2224 39.4986 29.1821 39.4986C29.2628 39.3374 29.3031 39.2164 29.3837 39.0955ZM28.7788 34.2584C28.7788 35.0243 28.6981 35.8305 28.4965 36.5964C28.4561 36.5964 28.4158 36.5561 28.3755 36.5561C28.6174 35.8305 28.7384 35.0646 28.7788 34.2584ZM27.1655 41.5141C27.2462 41.3528 27.3269 41.1916 27.4075 41.0304C27.4075 41.111 27.4075 41.1513 27.4075 41.2319C27.3269 41.4335 27.2462 41.5947 27.1252 41.7962C27.1655 41.6753 27.1655 41.5947 27.1655 41.5141ZM25.7943 36.2336C25.8346 36.3948 25.8346 36.5157 25.8749 36.677C25.8346 36.556 25.7942 36.4351 25.7539 36.3545C25.7539 36.3142 25.7943 36.2739 25.7943 36.2336ZM25.6733 43.7311C25.5926 43.7311 25.5119 43.7311 25.4313 43.7714C25.4716 43.7311 25.5119 43.6908 25.5522 43.6505C25.5926 43.6505 25.6329 43.6505 25.6733 43.6102C25.6733 43.6505 25.6733 43.6908 25.6733 43.7311ZM25.5926 27.2043C25.5926 27.2849 25.5522 27.3252 25.5119 27.4059C25.4716 27.4865 25.4716 27.6074 25.4716 27.7284V27.7687C25.4716 27.8896 25.4716 27.9702 25.4716 28.0911C25.4313 28.0911 25.4313 28.1314 25.3909 28.1314C25.3506 28.0508 25.3103 27.9299 25.2699 27.8493C25.3506 27.6478 25.4716 27.4059 25.5926 27.2043ZM24.2213 38.4909L24.2616 38.5312C24.2213 38.5715 24.2213 38.5715 24.181 38.6118C24.181 38.5715 24.2213 38.5312 24.2213 38.4909ZM23.0517 25.8338C23.1324 25.9145 23.213 25.9548 23.2937 26.0354C23.213 26.0757 23.1324 26.116 23.0517 26.1563C23.092 26.0757 23.092 25.9548 23.0517 25.8338ZM9.45994 9.91175C9.50027 9.95205 9.50025 9.99232 9.54058 10.0729C9.58092 10.9597 9.78259 11.9272 10.0649 12.8543C9.70193 11.8466 9.50027 10.8792 9.45994 9.91175ZM12.6865 17.0061C12.8075 17.1271 12.9688 17.2077 13.1301 17.3286C13.1301 17.3689 13.1301 17.3689 13.1301 17.4092C12.9688 17.248 12.8075 17.1271 12.6865 17.0061ZM15.4693 44.7388C15.4693 44.6985 15.5097 44.6179 15.5097 44.5776C15.6307 44.497 15.7517 44.4163 15.8323 44.2954C15.9533 44.4566 16.034 44.6179 16.1147 44.7388C15.913 44.7791 15.7113 44.7791 15.4693 44.7388ZM18.0102 18.2557C18.2119 18.2154 18.4539 18.1751 18.6555 18.1348C18.4135 18.2154 18.1715 18.296 17.8892 18.3767C17.9296 18.3364 17.9699 18.296 18.0102 18.2557ZM15.2677 30.2679C15.308 29.9454 15.3887 29.5826 15.4693 29.2601V29.2198C15.6306 29.1392 15.7517 29.0585 15.792 28.9779C15.913 28.8167 15.913 28.5748 15.7113 28.3733C14.945 27.688 14.2997 27.0431 14.2997 25.995C14.2997 25.2695 14.703 24.5439 15.066 23.899C15.5903 23.0122 16.276 22.0851 16.4776 21.0774C17.2439 21.1177 18.0506 21.0774 18.8169 20.8758C19.3815 22.73 20.9544 24.2618 21.9224 25.9547C20.7931 26.8819 19.6235 27.8493 18.7362 28.9779C18.6152 28.9376 18.4539 28.9779 18.3329 29.0989C17.7279 29.8244 17.9296 30.8725 17.9296 31.6787C17.9296 32.8073 17.9699 33.9359 18.1313 35.0646C18.1716 35.508 18.2522 35.9514 18.3732 36.3545C18.3732 36.3948 18.3329 36.4351 18.3329 36.4754C18.2926 36.5963 18.3732 36.7576 18.5346 36.7979C18.8976 37.9669 19.5832 39.0955 20.7528 39.7405C20.5511 40.1839 19.9058 40.6676 19.5429 41.1916C18.8572 42.1993 18.3329 43.2474 17.5263 44.1745C17.2036 43.5699 16.881 42.9652 16.518 42.3606C15.913 41.4335 15.066 40.4257 13.8964 40.0629C14.3401 37.8056 14.5417 35.508 14.824 33.2104C15.1467 32.243 15.3483 31.2353 15.2677 30.2679ZM20.7931 37.9669C20.7528 38.0475 20.7528 38.1281 20.7124 38.2087C20.6318 38.1281 20.5914 38.0475 20.5108 37.9669C20.5511 37.9266 20.5915 37.8862 20.6318 37.8459C20.7125 37.8862 20.7528 37.9266 20.7931 37.9669ZM19.4622 34.1778C19.5025 34.2181 19.5025 34.2181 19.4622 34.1778C19.4218 34.2584 19.3815 34.339 19.3412 34.4197C19.3412 34.3794 19.3412 34.2987 19.3412 34.2584C19.3815 34.2584 19.4218 34.2181 19.4622 34.1778ZM19.3008 33.6538C19.3008 33.5732 19.3008 33.5329 19.3008 33.4522C19.3412 33.4925 19.3815 33.4926 19.4218 33.5329C19.4218 33.5732 19.4218 33.5732 19.4218 33.6135C19.3815 33.6135 19.3412 33.6538 19.3008 33.6538ZM14.1384 41.9575C13.9771 41.8366 13.7754 41.6753 13.6141 41.5544C13.8157 41.635 13.9771 41.756 14.1384 41.9575ZM13.0091 26.3578C13.0091 26.5191 13.0495 26.6803 13.0898 26.8416C13.0091 26.761 12.9284 26.6803 12.8478 26.5997C12.9284 26.5191 12.9688 26.4385 13.0091 26.3578ZM12.8074 37.5235C12.8478 37.5235 12.8478 37.4831 12.8881 37.4831C12.8478 37.725 12.8075 37.9669 12.7268 38.2087C12.7268 37.9669 12.7671 37.7653 12.8074 37.5235ZM11.1942 45.6256C10.5489 45.6256 9.90358 45.6256 9.2986 45.6256C9.74225 45.6256 10.1859 45.5853 10.6699 45.5853C10.8312 45.5853 11.0328 45.5853 11.1942 45.6256ZM10.3875 24.423C10.4682 24.3827 10.5489 24.3424 10.6295 24.3021C10.5085 24.423 10.3876 24.5439 10.2666 24.6649C10.3472 24.5843 10.3875 24.5036 10.3875 24.423ZM9.86326 38.6521C9.78259 38.4506 9.74226 38.249 9.6616 38.0072C9.6616 37.9669 9.62123 37.9266 9.62123 37.8459C9.70189 37.8862 9.82292 37.8862 9.90358 37.8862C9.90358 38.1281 9.90359 38.37 9.86326 38.6521ZM9.37925 28.9779C9.54057 28.7361 9.70193 28.4539 9.86326 28.212C9.62127 28.7361 9.37926 29.2601 9.13727 29.8244C9.09694 29.8647 9.05662 29.8647 9.05662 29.9051C9.13729 29.5826 9.25825 29.2601 9.37925 28.9779ZM9.05662 40.7079C9.17762 40.99 9.29857 41.2722 9.41957 41.5544C9.25824 41.3529 9.09692 41.111 9.01625 40.8288C9.01625 40.7885 9.01629 40.7482 9.05662 40.7079ZM3.57148 31.6787C3.57148 31.6384 3.57148 31.6384 3.57148 31.6787C3.57148 31.7593 3.57149 31.8399 3.53116 31.9205H3.49083C3.53117 31.8399 3.53115 31.7593 3.57148 31.6787ZM3.45051 43.9326C3.41018 43.9326 3.41015 43.9326 3.36982 43.973C3.36982 43.8923 3.36986 43.8117 3.41019 43.7714C3.41019 43.8117 3.41018 43.852 3.45051 43.9326ZM3.20853 33.0491C3.28919 33.0491 3.32953 33.0088 3.41019 33.0088V33.0491C3.2892 33.5732 3.12787 34.0569 3.00687 34.5809C3.0472 34.0569 3.12787 33.5732 3.20853 33.0491Z" fill="black"/>
<path d="M6.87891 41.1917V41.1514C6.91926 41.1917 6.91926 41.1917 6.87891 41.1917C6.91926 41.232 6.87891 41.232 6.87891 41.1917Z" fill="black"/>
<path d="M21.3579 38.7729C21.3982 38.7729 21.3982 38.7729 21.3982 38.8133L21.3579 38.7729Z" fill="black"/>
<path d="M19.2603 29.7437C19.2603 29.7034 19.2603 29.7034 19.2603 29.6631C19.3006 29.6631 19.3006 29.6631 19.3409 29.6631C19.3006 29.7034 19.2603 29.7437 19.2603 29.7437Z" fill="black"/>
<path d="M34.9496 27.6877C34.9899 27.4055 35.0303 27.1234 35.1109 26.8412V26.8008C35.2319 26.7605 35.3529 26.6799 35.3932 26.5993C35.5142 26.4381 35.5142 26.2769 35.3126 26.0753C34.6673 25.4707 34.1026 24.9467 34.1026 24.0599C34.1026 23.4149 34.4656 22.8103 34.7479 22.2862C35.1916 21.5204 35.7966 20.7545 35.9579 19.8677C36.6032 19.908 37.2888 19.8677 37.9342 19.7065C38.4181 21.2785 39.7491 22.5684 40.5557 24.0196C39.6281 24.8257 38.6198 25.6319 37.8535 26.559C37.7325 26.5187 37.6115 26.559 37.5308 26.6799C37.0469 27.2846 37.2082 28.1714 37.2082 28.8566C37.2082 29.8241 37.2485 30.7915 37.3695 31.7589C37.4098 32.1217 37.4905 32.4844 37.5712 32.8472C37.5712 32.8875 37.5308 32.9278 37.5308 32.9682C37.4905 33.0891 37.5712 33.21 37.6922 33.2503C38.0148 34.258 38.5795 35.1852 39.5877 35.7495C39.4264 36.1123 38.8618 36.5557 38.5795 36.9991C38.0148 37.8456 37.5712 38.7324 36.8855 39.5386C36.6032 39.0145 36.3209 38.4905 36.0385 38.0068C35.9982 37.9665 35.9579 37.8859 35.9176 37.8455C35.9579 39.0145 35.8772 40.1835 35.7159 41.3121C36.0386 41.3121 36.4015 41.3121 36.7242 41.3121C36.7645 41.3524 36.8048 41.3928 36.8452 41.4331C38.7811 41.0703 40.717 40.9897 42.6529 41.03C44.8712 40.7478 47.0088 40.2641 49.106 39.5789C49.227 37.2812 49.6304 34.9433 49.832 32.6457C50.074 30.2271 50.2353 27.4861 48.9851 25.2288C48.0574 23.5762 45.9198 22.8506 44.1453 22.125C43.4193 21.8428 42.6933 21.5204 42.048 21.077C41.6043 20.2305 41.201 19.3034 40.7171 18.4972C43.4999 16.6027 45.3552 13.1764 45.3955 10.2741C45.4359 9.26638 45.1939 8.25868 44.7502 7.37188C43.9436 4.55024 40.7977 2.53478 37.5712 2.13169C34.1833 1.68829 31.1584 3.30067 29.9888 5.92076C29.8274 6.1223 29.7065 6.32385 29.5451 6.52539C27.7302 9.18579 28.7385 13.1361 30.3114 15.6755C30.3518 15.7562 30.4324 15.8368 30.4728 15.9174C30.6341 16.8848 31.1584 17.7716 32.1264 18.4972C32.4894 18.7793 32.933 19.0615 33.3766 19.2631C33.1347 19.7871 32.8523 20.3111 32.5297 20.8351C31.8441 21.3188 31.1181 21.7219 30.3114 22.125C30.1501 22.0847 29.9484 22.125 29.7468 22.2862C29.5855 22.4072 29.4241 22.5281 29.3032 22.649C29.1418 22.7297 28.9805 22.8103 28.8595 22.8506C31.7634 24.2614 33.6187 27.1636 34.6673 30.1868C34.869 29.3 34.9899 28.4535 34.9496 27.6877ZM38.3375 30.3884C38.3778 30.4287 38.4181 30.4287 38.4584 30.4287C38.4584 30.469 38.4584 30.469 38.4584 30.5093C38.4181 30.5093 38.3778 30.5496 38.3778 30.5496C38.3778 30.5093 38.3778 30.469 38.3375 30.3884ZM38.4181 31.1945C38.4181 31.1542 38.4181 31.114 38.4181 31.0736C38.4584 31.0736 38.4988 31.0333 38.5391 31.0333V31.0736C38.4988 31.114 38.4584 31.1542 38.4181 31.1945ZM39.5474 34.4193C39.5071 34.3387 39.4264 34.2983 39.3861 34.2177C39.4264 34.1774 39.4668 34.1371 39.5071 34.1371C39.5474 34.1774 39.5877 34.2177 39.6281 34.258C39.5877 34.2983 39.5878 34.3387 39.5474 34.4193ZM46.2022 39.8207C46.2425 39.7804 46.2828 39.7804 46.3231 39.7401C46.3231 39.7804 46.3231 39.7804 46.3231 39.8207C46.2828 39.8207 46.2425 39.8207 46.2022 39.8207ZM47.5331 25.0273C47.9767 25.4707 48.2591 25.9947 48.501 26.5993C48.2591 26.1559 47.9364 25.7125 47.5734 25.3497C47.5331 25.1885 47.4525 25.0273 47.3718 24.866C47.3718 24.9063 47.4524 24.9467 47.5331 25.0273ZM46.8878 35.1852C46.8878 35.3061 46.8475 35.4673 46.8475 35.5882C46.8071 35.5479 46.7668 35.548 46.7668 35.5076C46.8071 35.3867 46.8474 35.2658 46.8878 35.1852ZM46.4038 31.0736C46.4038 31.7186 46.3232 32.4038 46.1618 33.0488C46.1215 33.0488 46.0811 33.0488 46.0811 33.0085C46.2425 32.4038 46.3635 31.7589 46.4038 31.0736ZM45.0325 37.2409C45.1132 37.12 45.1939 36.9588 45.2342 36.7975C45.2342 36.8378 45.2342 36.9185 45.2342 36.9588C45.1535 37.12 45.0729 37.2812 44.9922 37.4425C45.0325 37.3618 45.0325 37.2812 45.0325 37.2409ZM43.8629 32.7666C43.9032 32.8875 43.9033 33.0085 43.9436 33.1697C43.9033 33.0891 43.8629 32.9682 43.8226 32.8876C43.8226 32.8069 43.8629 32.7666 43.8629 32.7666ZM43.7823 39.0951C43.7016 39.0951 43.6209 39.0952 43.5806 39.1355C43.6209 39.0952 43.6612 39.0548 43.6612 39.0145C43.7016 39.0145 43.7419 39.0145 43.7823 38.9742C43.7419 39.0145 43.7419 39.0548 43.7823 39.0951ZM43.6612 25.1079C43.7016 25.1079 43.7016 25.1079 43.6612 25.1079C43.6612 25.1482 43.6209 25.2288 43.6209 25.2691C43.5806 25.3497 43.5806 25.4303 43.5806 25.5513V25.5916C43.5806 25.6722 43.5806 25.7528 43.5806 25.8738C43.5403 25.8738 43.5402 25.9141 43.4999 25.9141C43.4596 25.8334 43.4193 25.7528 43.4193 25.6722C43.4999 25.4707 43.5806 25.2691 43.6612 25.1079ZM41.564 23.9792C41.6447 24.0195 41.685 24.1001 41.7657 24.1405C41.685 24.1808 41.6043 24.2211 41.564 24.2614C41.6043 24.1405 41.6043 24.0598 41.564 23.9792ZM37.2485 17.5297C37.4501 17.4894 37.6115 17.4492 37.8131 17.4089C37.6115 17.4895 37.4098 17.5701 37.1678 17.6104C37.2082 17.6104 37.2485 17.5701 37.2485 17.5297ZM30.0291 10.4354C30.0291 10.4757 30.0695 10.516 30.1098 10.5563C30.1501 11.3222 30.3114 12.1283 30.5534 12.8942C30.2308 12.1283 30.0695 11.2818 30.0291 10.4354ZM32.7717 16.4414C32.8927 16.522 33.0137 16.6429 33.1347 16.7236V16.7639C33.0137 16.6833 32.8927 16.5624 32.7717 16.4414ZM30.7148 22.9312C30.7551 22.8506 30.7954 22.8103 30.7954 22.7296C30.8761 22.6893 30.9567 22.649 30.9971 22.6087C30.9567 22.7297 30.8358 22.8506 30.7148 22.9312ZM32.933 24.6242C32.9733 24.5436 33.0137 24.5033 33.054 24.4226C33.054 24.5436 33.0943 24.7048 33.1347 24.8257C33.054 24.7451 32.9733 24.6645 32.933 24.6242Z" fill="black"/>
</svg>
