<svg width="50" height="40" viewBox="0 0 50 40" fill="none" xmlns="http://www.w3.org/2000/svg">
<path d="M49.8191 16.9836C49.6423 16.4182 49.3595 15.8882 49.0413 15.3935C48.617 14.7221 47.7685 14.3687 47.0614 14.0507C46.7078 13.874 46.3542 13.768 46.0007 13.662C45.7885 13.5913 45.6471 13.874 45.7885 14.0154C46.7078 15.0401 47.8392 15.8882 48.2988 17.231C48.5817 18.1144 48.4402 18.9978 47.9806 19.7752C47.0967 21.2239 45.3996 22.2134 43.7379 22.9907C43.9147 20.5879 43.6672 18.1497 43.1368 15.7822C42.4651 12.8493 41.263 9.98705 39.5305 7.51353C39.5305 7.40752 39.4952 7.26617 39.4952 7.16016C39.4598 6.98348 39.2477 6.91281 39.1416 6.98348C37.692 5.07533 35.8889 3.41455 33.7675 2.17778C28.6762 -0.755115 21.8526 -0.613774 16.6553 1.93042C11.7408 4.33328 9.01837 9.31567 7.392 14.2981C6.57881 16.8423 5.87169 19.4571 5.65955 22.1073C5.62419 22.7434 5.58885 23.4148 5.6242 24.0862C5.02315 23.8035 4.45748 23.4501 3.92714 23.0614C2.33613 21.8953 1.02794 20.1639 0.815807 18.2204C0.70974 17.3723 0.886511 16.5596 1.38149 15.8528C2.0179 14.9341 3.22002 14.5101 4.31605 14.2981C4.42212 14.2627 4.42213 14.086 4.2807 14.1214C1.84115 14.2627 0.0379601 15.6055 0.00260419 17.973C-0.0681076 20.3052 1.31078 22.6374 2.97251 24.2628C3.85641 25.1462 4.88173 25.8176 5.97776 26.383C6.26061 27.2311 6.6849 28.0085 7.3213 28.6799C7.5688 28.9272 7.887 29.1392 8.2052 29.3512C8.24056 29.3866 8.2759 29.3159 8.24055 29.2806C7.3213 28.5738 6.75562 27.6551 6.40206 26.6304C6.86169 26.8424 7.32128 27.0191 7.7809 27.1957C8.31124 28.6092 9.01837 29.9873 9.86691 31.2594C12.4479 35.0404 16.3724 37.5846 20.7212 38.68C20.7212 38.68 20.7212 38.68 20.7565 38.68C21.994 38.998 23.2668 39.21 24.5396 39.2807C25.4235 39.3514 26.3074 39.316 27.156 39.2454C27.156 39.2807 27.156 39.316 27.156 39.3514C27.1913 39.7047 27.6863 39.7401 27.757 39.422C28.0752 39.4927 28.3934 39.5634 28.7116 39.5634C28.9591 39.5634 29.0298 39.1747 28.7823 39.104C28.747 39.104 28.6762 39.0687 28.6409 39.0687C29.348 38.9627 30.0198 38.8213 30.7269 38.6093C30.7623 38.6446 30.833 38.68 30.9037 38.6446C31.0097 38.574 31.1512 38.5386 31.2572 38.468C34.6514 37.4079 37.7274 35.429 39.9902 32.6022C41.864 30.27 42.9601 27.5844 43.4197 24.7929C43.7379 24.6515 44.0561 24.5102 44.3389 24.3689C46.3542 23.3794 48.5817 22.0367 49.5363 19.9872C50.0313 19.1038 50.1373 18.0437 49.8191 16.9836ZM43.0308 23.3441C42.9601 23.3794 42.8894 23.4148 42.8186 23.4148C42.8186 23.3794 42.8186 23.3441 42.8186 23.3441C42.854 23.1321 42.854 22.8847 42.8186 22.6727C42.7833 22.3547 42.359 22.3547 42.3237 22.6727C42.2883 23.0261 42.2176 23.3794 42.1115 23.7328C41.5812 23.9448 41.0155 24.1568 40.4851 24.3689C40.5205 23.8741 40.5559 23.3794 40.5912 22.8847C40.6619 21.9307 40.6619 21.0119 40.6619 20.0932C41.4397 19.4571 42.1469 18.7151 42.5711 17.7963C42.6065 17.6903 42.6772 17.5843 42.7126 17.4783C42.854 18.291 42.9601 19.0684 42.9954 19.8812C43.1015 21.0119 43.1015 22.178 43.0308 23.3441ZM29.2773 38.3619C29.9137 37.4079 30.3733 36.3831 30.7269 35.2877C31.6815 35.111 32.6008 34.9343 33.52 34.687C33.9796 34.581 34.4039 34.4396 34.8282 34.2983C34.616 34.7223 34.3686 35.0757 34.0504 35.429C33.5907 35.9591 32.9897 36.3831 32.424 36.8072C32.3533 36.8778 32.3886 37.0545 32.4947 37.0192C32.1411 37.2665 31.7876 37.4785 31.4694 37.7612C30.7622 38.0439 30.0198 38.2206 29.2773 38.3619ZM27.7216 38.6093C27.6156 37.6552 27.5095 36.6658 27.4034 35.7117C28.2873 35.6411 29.1712 35.5704 30.0198 35.429C29.6662 36.5245 29.1713 37.5492 28.4995 38.468C28.4995 38.468 28.4995 38.5033 28.4641 38.5033C28.252 38.5386 27.9691 38.574 27.7216 38.6093ZM15.3824 35.1464C15.0996 34.8637 14.8168 34.581 14.5693 34.263C14.9228 34.369 15.2764 34.475 15.5946 34.5456C15.8774 35.0757 16.1956 35.6057 16.5492 36.1004C16.1249 35.8178 15.736 35.4997 15.3824 35.1464ZM14.0389 33.4502C13.2611 32.2488 12.6954 30.906 12.059 29.6339C11.9883 29.4572 11.8822 29.2806 11.8115 29.1039C12.2358 29.2452 12.66 29.3512 13.0843 29.4926C13.4378 29.5986 13.7914 29.6693 14.145 29.7399C14.3571 30.8 14.6046 31.8248 14.9582 32.8495C15.0642 33.1322 15.1703 33.4502 15.3117 33.7683C14.8521 33.6976 14.4278 33.5916 14.0389 33.4502ZM11.4226 28.1851C12.0943 28.2912 12.7307 28.3972 13.4025 28.4678C13.5793 28.5032 13.7207 28.5032 13.8975 28.5032C13.9329 28.7505 13.9682 28.9625 14.0036 29.2099C13.8268 29.1746 13.65 29.1392 13.4732 29.1039C12.8368 28.9625 12.1651 28.7859 11.564 28.5385C11.5287 28.4325 11.4579 28.3265 11.4226 28.1851ZM10.8922 28.2912C10.6448 28.1852 10.3619 28.0438 10.1144 27.9378C10.3619 28.0085 10.5741 28.0438 10.8215 28.0791C10.8569 28.1498 10.8569 28.2205 10.8922 28.2912ZM13.7207 8.50294C14.1096 8.82097 14.5692 9.06831 15.0289 9.28033C14.3217 11.1885 13.8975 13.2026 13.65 15.2168C12.8722 15.0401 12.059 14.7928 11.3165 14.4394C11.8468 12.3899 12.6954 10.3404 13.7207 8.50294ZM10.8215 14.2627C9.93765 13.768 9.19514 13.0966 8.84158 12.2132C9.69012 10.1637 10.7862 8.22025 12.1297 6.55946C12.3772 7.19551 12.8015 7.72555 13.2965 8.18492C12.2358 10.0577 11.3872 12.1072 10.8215 14.2627ZM39.8487 24.6162C38.9295 24.9342 37.9749 25.2169 37.0203 25.4643C37.0203 25.2876 37.0203 25.1109 37.0203 24.8989C37.0203 23.9802 36.9495 23.0261 36.8788 22.1073C38.0102 21.6833 39.1063 21.1533 40.0962 20.4819C40.0962 21.7186 39.9901 22.9554 39.9194 24.1568C39.8841 24.3335 39.8487 24.4749 39.8487 24.6162ZM35.2171 33.4502C34.5807 33.6623 33.9443 33.8389 33.3079 34.0156C32.5301 34.2276 31.7169 34.4043 30.939 34.5456C31.3279 33.2029 31.5755 31.7894 31.7169 30.4467C31.7522 30.3053 31.7522 30.164 31.7522 30.0226C33.2725 29.7753 34.7575 29.4219 36.1717 28.9272C36.0303 30.4467 35.7475 31.9308 35.2171 33.3442C35.2525 33.3796 35.2525 33.4149 35.2171 33.4502ZM14.145 24.5455C14.1096 23.8035 14.0743 23.0614 14.0389 22.3194C15.2764 22.7434 16.5138 23.1321 17.7866 23.4501C18.3877 23.5915 18.9887 23.7328 19.5898 23.8388C19.7666 24.7929 19.9433 25.7116 20.1555 26.6304C18.1755 26.4537 16.231 26.2417 14.2511 26.0297C14.2157 25.5703 14.1803 25.0402 14.145 24.5455ZM14.1804 15.8528C15.7007 16.2062 17.2917 16.3829 18.8827 16.4536C18.918 18.6444 19.1302 20.8706 19.4837 23.0967C18.317 22.8847 17.1502 22.602 16.0188 22.2487C15.7714 22.178 14.9935 21.9307 14.0389 21.6126C13.9682 19.6692 14.0036 17.761 14.1804 15.8528ZM20.6505 1.75374C21.4637 1.43572 22.3476 1.22371 23.2315 1.1177C22.3476 1.96577 21.6404 2.95517 21.0394 4.01525C20.8272 3.94458 20.6151 3.87391 20.403 3.80323C19.9434 3.66189 19.5191 3.48521 19.0948 3.30853C19.5898 2.77849 20.1201 2.24845 20.6505 1.75374ZM30.4087 3.48521C31.0097 4.05059 31.5401 4.68664 32.0351 5.39336C32.3179 5.81739 32.5654 6.24143 32.8129 6.66546C32.2826 7.26617 31.6108 7.76089 30.939 8.18492C30.5501 8.43227 30.1258 8.64429 29.7016 8.82097C29.2419 7.5842 28.6409 6.38277 27.9692 5.25202C28.3227 5.14601 28.6409 5.04 28.9591 4.86332C29.5248 4.58063 29.9844 4.12126 30.3733 3.62655C30.338 3.59122 30.3733 3.55588 30.4087 3.48521ZM31.2572 23.6975C31.2926 24.6515 31.2926 25.6056 31.2926 26.5597C29.6662 26.7717 28.0399 26.8777 26.4135 26.9131C26.3074 26.0297 26.2013 25.1462 26.0953 24.2628C27.8277 24.1922 29.5248 23.9802 31.2572 23.6621V23.6975ZM20.7919 26.701C20.5798 25.7823 20.403 24.8636 20.2616 23.9448C21.994 24.2275 23.7618 24.3335 25.5296 24.2628C25.6357 25.1462 25.7417 26.0297 25.8124 26.9131C24.7164 26.9131 23.6204 26.8777 22.5597 26.807C21.9586 26.807 21.3929 26.7717 20.7919 26.701ZM19.5544 11.5065C19.5898 11.2238 19.6252 10.9058 19.6605 10.6231C20.1909 10.6938 20.6858 10.7291 21.1808 10.7645C22.1708 10.8351 23.1961 10.8351 24.2568 10.7645C24.3629 12.4606 24.5043 14.1214 24.6457 15.8175C22.9133 15.9942 21.1808 16.0649 19.413 15.9942C19.3777 14.4747 19.4484 12.9906 19.5544 11.5065ZM24.08 1.1177C24.0447 2.35446 24.0093 3.59123 24.0446 4.82799C23.1607 4.68665 22.3122 4.43928 21.4637 4.1566C22.0294 3.02584 22.7365 2.0011 23.6204 1.1177C23.7618 1.1177 23.9032 1.1177 24.08 1.1177ZM24.0446 5.28735C24.08 6.87748 24.1153 8.50294 24.2214 10.0931C22.7365 10.2344 21.2162 10.2344 19.7312 10.0577C19.9787 8.18492 20.4737 6.27676 21.2515 4.54529C22.1708 4.86332 23.09 5.11067 24.0446 5.28735ZM24.8225 10.6938C26.3428 10.5524 27.8631 10.2344 29.242 9.70437C29.6309 11.0118 29.9137 12.3192 30.1612 13.6267C30.2319 13.98 30.2673 14.3334 30.338 14.6868C29.8077 14.8281 29.2773 14.9695 28.747 15.0755C27.5802 15.3581 26.3781 15.5702 25.2114 15.7115C25.07 14.0507 24.9639 12.3899 24.8225 10.6938ZM24.681 16.3122C24.7871 17.5843 24.9285 18.8564 25.07 20.0932C25.176 21.2593 25.3174 22.4254 25.4589 23.5915C23.6911 23.6268 21.8879 23.4855 20.1555 23.2028C19.8019 20.9766 19.5544 18.7151 19.4484 16.4889C21.2162 16.5596 22.9486 16.5242 24.681 16.3122ZM27.0145 23.5561C26.6963 23.5915 26.3428 23.5915 26.0246 23.6268C25.8832 22.4607 25.7771 21.2946 25.6356 20.1639C25.4942 18.8918 25.3882 17.5843 25.2467 16.3122C26.9792 16.1002 28.7116 15.7468 30.4087 15.2875C30.833 17.8317 31.0805 20.4465 31.1865 23.0261C29.843 23.2381 28.4288 23.4148 27.0145 23.5561ZM31.7876 20.7646C31.6108 18.8564 31.3987 16.9129 31.1158 15.0048C31.2219 14.9694 31.3279 14.9341 31.434 14.8988C32.5654 14.5454 33.8382 14.086 35.0757 13.4853C35.5353 15.7822 35.8181 18.1144 36.0656 20.4465C36.101 20.8352 36.1364 21.2239 36.1717 21.6126C35.2171 21.9307 34.2625 22.2134 33.2725 22.4607C32.8129 22.5667 32.3886 22.6727 31.929 22.7787C31.8937 22.1427 31.8583 21.4713 31.7876 20.7646ZM31.0451 14.5101C30.7976 13.0966 30.5148 11.7185 30.1612 10.3404C30.0905 10.0224 29.9844 9.7397 29.8783 9.45701C31.0097 8.96231 32.0704 8.29092 32.919 7.40752C32.9897 7.33685 33.0251 7.30151 33.0958 7.23084C33.9797 9.03298 34.5453 11.0118 34.9696 12.9553C33.7322 13.6267 32.3886 14.1214 31.0451 14.5101ZM27.3681 5.4287C27.8631 6.34744 28.3934 7.26617 28.747 8.25559C28.853 8.53827 28.9238 8.78563 29.0298 9.06832C27.651 9.56303 26.2013 9.88105 24.7517 10.0224C24.6457 8.4676 24.5396 6.91282 24.4336 5.32269C24.575 5.35803 24.7517 5.35802 24.8932 5.39336C25.7064 5.49937 26.5196 5.49938 27.2974 5.35803C27.3681 5.39337 27.3681 5.39336 27.3681 5.4287ZM24.4336 4.89866C24.3629 3.66189 24.2921 2.38979 24.2214 1.15303C24.4335 1.15303 24.6457 1.15303 24.8578 1.18836C25.5649 2.17778 26.5903 4.05059 27.0853 4.93399C26.2367 5.07534 25.2821 5.00466 24.4336 4.89866ZM20.4737 4.26261C20.6151 4.33328 20.7212 4.36862 20.8626 4.40395C20.014 6.10009 19.4837 8.04357 19.2009 9.98705C18.812 9.91638 18.3877 9.84572 17.9988 9.77504C17.2209 9.59836 16.4431 9.38634 15.7006 9.10365C16.0188 8.25558 16.4078 7.44285 16.8674 6.63012C17.4685 5.5347 18.1402 4.5453 18.9534 3.59123C19.4484 3.83858 19.9787 4.05059 20.4737 4.26261ZM15.5239 9.56303C16.6552 10.0577 17.8927 10.3758 19.1302 10.5524C18.9181 12.2839 18.8473 14.0154 18.8473 15.6762C18.8473 15.7822 18.8473 15.8529 18.8473 15.9589C17.9281 15.9235 17.0088 15.8175 16.0895 15.6762C15.5238 15.6055 14.8875 15.4995 14.2157 15.3581C14.4278 13.3793 14.8521 11.4358 15.5239 9.56303ZM19.3423 29.0685C19.8373 29.1392 20.2969 29.1746 20.7919 29.2452C20.8626 29.4926 20.9333 29.7753 21.004 30.0226C18.8473 29.952 16.6906 29.7399 14.6046 29.3512C14.5693 29.1039 14.5339 28.8565 14.4985 28.5738C16.1249 28.7505 17.7513 28.8919 19.3423 29.0685ZM21.4283 29.3159C22.9133 29.4572 24.4336 29.5279 25.9185 29.5279C25.9892 29.5279 26.0599 29.5279 26.0953 29.5279C26.1306 29.6693 26.1306 29.8459 26.166 29.9873C25.5296 30.0226 24.9285 30.0226 24.3275 30.058C23.4436 30.058 22.5597 30.058 21.6404 30.058C21.5697 29.8106 21.499 29.5633 21.4283 29.3159ZM26.6963 29.5279C28.2166 29.4926 29.7016 29.3512 31.1865 29.1039C31.1865 29.2452 31.1512 29.3866 31.1512 29.5633C29.7016 29.7753 28.2166 29.9166 26.7671 30.0226C26.7317 29.8106 26.7317 29.6693 26.6963 29.5279ZM31.0805 30.1286C30.9744 31.2947 30.7976 32.4608 30.5148 33.6269C30.4441 33.9803 30.338 34.3336 30.2319 34.687C29.2773 34.8283 28.2874 34.9343 27.2974 35.005C27.1206 33.5209 26.9792 32.0721 26.8024 30.588C28.252 30.482 29.6662 30.3406 31.0805 30.1286ZM36.2778 28.1145C36.2778 28.1852 36.2778 28.2205 36.2778 28.2912C34.8282 28.7859 33.3786 29.1392 31.8583 29.3866C31.8583 29.2452 31.8937 29.0686 31.8937 28.9272C33.3786 28.6445 34.8636 28.2205 36.3131 27.6904C36.3131 27.8671 36.3132 28.0085 36.2778 28.1145ZM32.0351 26.489C32.0351 25.4996 32.0351 24.5102 31.9997 23.5208C32.7068 23.3794 33.3786 23.2028 34.0857 23.0261C34.8282 22.8494 35.5353 22.6374 36.2778 22.3547C36.3485 23.4501 36.3838 24.5455 36.4192 25.641C34.9342 25.9943 33.4847 26.277 32.0351 26.489ZM39.3891 14.1567C39.8841 15.9589 40.0609 17.8317 40.0962 19.7045C40.0255 19.7398 39.9548 19.8105 39.8841 19.8458C38.9295 20.4819 37.9042 20.9766 36.8435 21.4006C36.7374 20.3052 36.6314 19.2451 36.4546 18.185C36.2424 16.5242 35.9949 14.8634 35.6414 13.2026C36.7021 12.6019 37.6566 11.8952 38.3638 11.0118C38.788 12.0719 39.1062 13.132 39.3891 14.1567ZM38.7881 10.4111C39.1063 9.88105 39.3537 9.28033 39.4244 8.64429C40.8033 10.7998 41.7579 13.238 42.359 15.7468C42.2883 16.4536 42.2529 17.0896 41.8994 17.761C41.5812 18.3264 41.1569 18.8211 40.6619 19.2451C40.5912 17.1956 40.3437 15.1815 39.7427 13.2026C39.4952 12.2839 39.177 11.3298 38.7881 10.4111ZM35.7475 12.5313C35.6768 12.5666 35.5707 12.6373 35.4999 12.6726C35.3232 11.8245 35.0757 10.9411 34.8282 10.1284C34.4746 8.99765 34.015 7.86689 33.4493 6.84214C33.9443 6.20609 34.3686 5.4287 34.3332 4.61597C34.4393 4.72198 34.5807 4.86332 34.6868 4.96933C36.1717 6.48878 37.2677 8.43227 38.1163 10.4818C37.5506 11.2945 36.7021 11.9659 35.7475 12.5313ZM33.1311 6.2061C32.6361 5.35803 32.0704 4.54529 31.3987 3.83857C31.1512 3.55588 30.9037 3.30853 30.6562 3.09651C30.7976 2.84916 30.9037 2.56648 30.9744 2.31912C32.1058 2.81383 33.1311 3.52055 34.0504 4.33328C33.7322 4.96933 33.52 5.60538 33.1311 6.2061ZM30.2319 2.70782C29.5248 2.14245 28.7116 1.64774 27.8984 1.25904C28.6409 1.47106 29.4187 1.68307 30.1612 1.93042C30.2673 1.96576 30.4087 2.03643 30.5148 2.07177C30.4794 2.21311 30.4087 2.35446 30.3733 2.46047C30.3026 2.56647 30.2673 2.63715 30.2319 2.70782ZM29.9844 3.13185C29.9491 3.20252 29.8784 3.2732 29.843 3.34387C29.4894 3.87391 28.9945 4.22727 28.4288 4.50996C28.1813 4.61596 27.9338 4.72198 27.6863 4.79265C27.4742 4.40395 27.2267 4.01526 26.9792 3.59123C26.8731 3.37921 26.0246 1.85975 25.2467 0.976346C25.2821 0.905674 25.2467 0.799672 25.176 0.729C25.3528 0.729 25.5296 0.729 25.7064 0.729C27.2974 1.22371 28.747 2.03643 29.9844 3.13185ZM18.7059 3.16719C18.5998 3.13185 18.4937 3.06118 18.3877 3.02585C18.7766 2.74316 19.2009 2.4958 19.6251 2.24845C19.2716 2.56647 18.9887 2.84916 18.7059 3.16719ZM18.4938 3.41455C17.3977 4.65131 16.4785 6.02941 15.736 7.5842C15.5238 8.00823 15.3471 8.4676 15.1703 8.92697C14.7107 8.71495 14.2864 8.50294 13.8975 8.22025C13.9329 8.18491 13.9328 8.14958 13.9682 8.11424C15.0289 6.27677 16.4431 4.54529 18.1402 3.27319C18.2463 3.27319 18.3523 3.34387 18.4938 3.41455ZM12.059 15.2168C12.554 15.3935 13.049 15.5702 13.5439 15.7115C13.5086 16.1355 13.4732 16.5242 13.4378 16.9483C13.3318 18.4324 13.3318 19.9165 13.4025 21.4006C12.4479 21.0826 11.4226 20.6939 10.468 20.3405C10.468 20.3052 10.468 20.2699 10.468 20.2345C10.468 18.4324 10.7508 16.5949 11.1751 14.8281C11.4933 14.9694 11.7762 15.0755 12.059 15.2168ZM10.5033 21.5066C10.5033 21.4713 10.5033 21.4713 10.5033 21.436C10.5033 21.2593 10.5033 21.0826 10.5033 20.9412C10.574 20.9766 10.6447 21.0119 10.7508 21.0473C11.6347 21.436 12.554 21.7893 13.4732 22.1427C13.5086 23.1321 13.5793 24.0862 13.6146 25.0756C13.65 25.3936 13.65 25.7116 13.6854 26.0297C13.2965 25.9943 12.9075 25.959 12.554 25.9236C11.9883 25.8883 11.4226 25.8176 10.8569 25.7116C10.574 24.2982 10.5033 22.9201 10.5033 21.5066ZM15.4532 32.5668C15.1703 31.7188 14.9228 30.8 14.746 29.9166C16.8674 30.3407 19.0594 30.5527 21.2162 30.6233C21.6758 32.1075 22.2415 33.5916 22.9839 34.9697C21.3576 34.8637 19.7312 34.687 18.1402 34.4043C17.4331 34.2983 16.726 34.1216 16.0188 33.9449C15.8067 33.5209 15.5946 33.0615 15.4532 32.5668ZM23.5497 34.8283C22.8072 33.5209 22.2769 32.1075 21.8172 30.6587C22.7718 30.694 23.7618 30.6587 24.7164 30.6587C25.2114 30.6587 25.7417 30.6233 26.2367 30.588C26.4135 32.0721 26.5903 33.5209 26.7317 35.005C26.4135 35.005 26.0953 35.0404 25.7771 35.0404C25.07 35.0404 24.3628 35.0404 23.6557 35.005C23.6204 34.9697 23.585 34.899 23.5497 34.8283ZM25.7771 35.7824C26.1306 35.7824 26.4842 35.7471 26.8024 35.7471C26.9085 36.7012 27.0145 37.6552 27.1206 38.6446C26.661 38.4326 26.2013 38.1499 25.7771 37.7612C25.1407 37.1959 24.575 36.5245 24.1154 35.7824C24.6811 35.7824 25.2467 35.7824 25.7771 35.7824ZM35.6767 33.9803C36.0303 33.8389 36.4192 33.6976 36.7728 33.5209C36.6667 33.6622 36.5253 33.8036 36.3838 33.9803C35.9596 34.4396 35.4999 34.8637 35.005 35.2524C35.2524 34.8637 35.4999 34.4396 35.6767 33.9803ZM36.8081 32.8849C36.5253 32.9909 36.2778 33.0969 35.9949 33.2029C36.0657 32.9909 36.1364 32.7788 36.2071 32.6022C36.596 31.3301 36.8081 30.0226 36.9142 28.7152C37.7274 28.4325 38.6113 28.0438 39.4244 27.5844C39.0709 29.3512 38.4698 31.0827 37.4799 32.6022C37.2677 32.6728 37.0203 32.7788 36.8081 32.8849ZM36.9495 28.0438C36.9495 27.8671 36.9849 27.6551 36.9849 27.4784C37.3031 27.3371 37.6567 27.2311 37.9749 27.0897C38.5052 26.8777 39.0355 26.6657 39.6012 26.4537C39.5659 26.5597 39.5659 26.701 39.5305 26.807C38.7527 27.3017 37.8688 27.7258 36.9495 28.0438ZM40.3083 26.171C40.3791 26.1357 40.4498 26.1003 40.5205 26.1003C40.4498 26.171 40.3791 26.2417 40.3083 26.277C40.3083 26.2417 40.3083 26.2063 40.3083 26.171ZM35.5707 4.26261C36.9142 5.35803 38.0809 6.63013 39.0709 8.07891C39.0355 8.71496 38.8234 9.31567 38.5405 9.84571C37.692 7.90222 36.5606 6.06475 35.1464 4.54529C34.0857 3.41454 32.8129 2.56647 31.3987 1.93042C32.8836 2.4958 34.2979 3.2732 35.5707 4.26261ZM18.1049 2.03643C18.8827 1.7184 19.6959 1.47106 20.4737 1.25904C19.5191 1.64774 18.6352 2.14244 17.822 2.77849C17.5745 2.67248 17.327 2.60182 17.0442 2.53114C17.0088 2.53114 17.0088 2.56647 17.0088 2.56647C17.1856 2.70781 17.3977 2.81382 17.6099 2.91983C16.0542 4.1566 14.7107 5.74673 13.65 7.4782C13.5793 7.58421 13.5086 7.72555 13.4378 7.83156C13.2611 7.69021 13.0843 7.54886 12.9429 7.37218C12.6601 7.08949 12.4125 6.73614 12.165 6.38278C13.7561 4.5453 15.6653 3.02584 18.1049 2.03643ZM8.31124 13.45C8.45267 13.0966 8.59412 12.7433 8.73554 12.3899C9.05374 13.3793 9.83156 14.0507 10.7155 14.5807C10.574 15.1815 10.4326 15.8175 10.3266 16.4536C10.3266 16.4536 10.3266 16.4536 10.3266 16.4182C10.3266 16.3829 10.2912 16.3829 10.2912 16.4182C10.2912 16.5596 10.2912 16.6656 10.2912 16.8069C10.1144 17.9377 10.0437 19.0684 10.079 20.1992C8.73551 19.6692 7.71023 19.1744 7.8163 18.9271V18.8918C7.39202 19.0331 7.88699 19.4925 8.06377 19.6338C8.66482 20.0932 9.40731 20.4465 10.1144 20.7646V20.7999C10.0791 21.6126 10.0437 22.4607 10.0437 23.2734C10.0437 24.0508 10.1144 24.8282 10.2205 25.6056C9.40729 25.4643 8.62947 25.2876 7.85164 25.0402C7.5688 23.9448 7.42737 22.8494 7.3213 21.754C7.14452 18.9978 7.71019 16.1709 8.31124 13.45ZM6.01311 24.3689C5.97775 23.6975 6.01314 22.9907 6.0485 22.3547C6.15457 21.0826 6.40202 19.8105 6.72023 18.5384C6.50809 20.6232 6.61416 22.7434 7.07379 24.7929C6.72023 24.6869 6.36667 24.5455 6.01311 24.3689ZM8.98301 28.2912C8.87695 28.0438 8.77087 27.7965 8.6648 27.5491C8.80623 27.5844 8.94768 27.6198 9.0891 27.6551C9.23052 27.7611 9.33658 27.8671 9.47801 27.9731C9.97299 28.3618 10.5387 28.6445 11.1044 28.8565C11.2458 29.2099 11.3872 29.5633 11.564 29.9166C12.0944 31.012 12.6247 32.1428 13.2257 33.2029C12.8722 33.0969 12.4833 32.9909 12.1297 32.8849C10.8569 31.5774 9.7962 29.9873 8.98301 28.2912ZM12.7307 33.5916C13.0489 33.7329 13.3318 33.8389 13.65 33.9449C13.9329 34.369 14.2511 34.793 14.5693 35.1817C13.9329 34.687 13.3318 34.157 12.7307 33.5916ZM20.3323 37.9379C19.8373 37.5845 19.2362 37.3725 18.6705 37.1252C18.1756 36.7718 17.6806 36.4185 17.2563 35.8884C16.9381 35.5351 16.6552 35.111 16.4078 34.687C16.9381 34.8283 17.4684 34.9343 17.9988 35.0404C19.8019 35.4291 21.6404 35.6411 23.4436 35.7117C23.6557 36.0651 23.8679 36.3831 24.1154 36.7011C24.6457 37.4079 25.3175 38.1146 26.0953 38.6446C24.1507 38.7506 22.2061 38.5033 20.3323 37.9379ZM35.8182 35.6764C35.2171 36.1004 34.5807 36.4538 33.9443 36.7718C34.2625 36.5245 34.6161 36.2771 34.9343 36.0298C36.0657 35.1464 37.1263 34.1569 37.9395 32.9909C38.6113 32.6728 39.283 32.2841 39.8487 31.8248C38.7174 33.3442 37.3738 34.6163 35.8182 35.6764ZM41.5458 29.0332C41.1569 29.8813 40.6973 30.6587 40.167 31.4007C40.1316 31.3654 40.0962 31.3654 40.0609 31.3654C39.5305 31.5774 39.0355 31.7894 38.5405 32.0368C39.3891 30.5173 39.8841 28.8212 40.167 27.0897C40.8034 26.6657 41.4044 26.1357 41.864 25.5349C42.1469 25.4289 42.4651 25.2876 42.7479 25.1816C42.5004 26.489 42.1115 27.7965 41.5458 29.0332Z" fill="black"/>
</svg>
