<svg width="29" height="37" viewBox="0 0 29 37" fill="none" xmlns="http://www.w3.org/2000/svg">
<g clip-path="url(#clip0_573_8388)">
<path d="M16.8303 0.726562C16.641 0.726562 9.31303 1.57506 9.31303 1.57506L8.63091 3.04012L9.89493 11.3129L10.5798 13.2447L10.8583 15.7477L10.474 17.2524L5.93304 14.9897L1.09692 19.9365L17.2619 35.9193L26.6445 22.5838L28.8719 17.5777L23.8604 12.7695L21.8697 12.6253L19.3639 15.0803L18.6317 1.58354L16.8303 0.726562Z" fill="white"/>
<path d="M18.0386 36.7233C19.2136 35.6655 20.1351 34.274 21.0261 32.9588C21.3045 33.1426 21.3518 33.0804 21.0706 32.8937L21.2126 32.6844C22.6047 30.6509 23.8938 28.5466 25.1439 26.4226C25.3629 26.0455 25.58 25.6683 25.7954 25.2912L25.8984 25.3139C25.9065 25.3161 25.9152 25.315 25.9225 25.3107C25.9298 25.3065 25.9351 25.2995 25.9374 25.2912C25.9396 25.283 25.9385 25.2742 25.9343 25.2668C25.9301 25.2593 25.9232 25.2539 25.9151 25.2516L25.8371 25.2205C26.4302 24.1797 27.0009 23.1191 27.5076 22.033C27.786 22.033 28.0645 22.033 28.3429 22.0076C28.3498 22.0055 28.3558 22.0012 28.3601 21.9953C28.3644 21.9895 28.3667 21.9823 28.3667 21.975C28.3667 21.9677 28.3644 21.9606 28.3601 21.9548C28.3558 21.9489 28.3498 21.9446 28.3429 21.9425C28.0895 21.9227 27.8334 21.8944 27.58 21.8661C27.8 21.391 28.0088 20.9102 28.2009 20.4265C28.4793 19.7025 29.1893 18.3194 28.9443 17.454C28.9522 17.4099 28.9433 17.3643 28.9192 17.3267C28.2035 16.2397 27.3622 15.2437 26.4134 14.3598C25.5086 13.4774 24.3587 12.4224 23.1866 11.9388H23.1643C23.1409 11.8595 23.1007 11.7864 23.0465 11.7246C22.9922 11.6628 22.9253 11.6139 22.8505 11.5813C22.7756 11.5486 22.6946 11.5331 22.6131 11.5357C22.5317 11.5384 22.4518 11.5591 22.3792 11.5965C22.0801 11.7938 21.7508 11.9391 21.4047 12.0264C21.1635 12.1379 20.9363 12.2785 20.7282 12.445C20.5527 12.4918 20.3883 12.574 20.2448 12.6867C20.1013 12.7995 19.9816 12.9404 19.8929 13.1012C19.8762 13.1323 19.8651 13.1663 19.8484 13.2002C19.7258 13.2766 19.6061 13.3558 19.4892 13.4349C19.4446 12.7533 19.4669 12.066 19.4697 11.3901C19.4697 9.39046 19.6145 11.8879 19.7481 9.89107C19.9096 9.89107 20.0683 9.91935 20.227 9.93915C20.227 9.93915 20.227 9.92218 20.227 9.91935L19.7509 9.86844C19.7787 9.38763 19.8094 8.90399 19.8344 8.42317C19.8985 7.19286 20.3105 -1.23835 17.2201 0.421873C16.0257 -0.0306569 14.7115 0.000454593 13.4782 0.000454593C11.9559 0.0349719 10.4397 0.20915 8.9483 0.520864C8.7243 0.551187 8.52113 0.670105 8.38298 0.851764C8.24482 1.03342 8.18283 1.26314 8.21049 1.49098C8.01037 1.52221 7.82875 1.62767 7.70072 1.78699C7.57268 1.94631 7.5073 2.14819 7.51723 2.35361C7.55899 5.38839 8.03508 6.4377 8.60306 9.39894C8.58024 9.45178 8.57387 9.51045 8.58482 9.56707C8.59577 9.6237 8.62351 9.67556 8.66431 9.71571C9.32694 13.1097 10.0954 12.0208 10.4601 15.477L10.4016 15.5647C10.2067 15.8927 10.3292 16.0624 10.5269 16.1897C10.5269 16.2265 10.5269 16.2661 10.5269 16.3057C10.2295 16.0419 9.91614 15.7972 9.58866 15.5731C9.09864 15.2168 8.57522 14.8972 8.06849 14.5578C8.50561 14.0402 7.89031 13.1097 7.26108 13.5509L6.98267 13.7517C6.914 13.7179 6.83775 13.7032 6.76167 13.7091C6.68559 13.715 6.61241 13.7413 6.54959 13.7853C6.48677 13.8292 6.43655 13.8894 6.40405 13.9595C6.37154 14.0296 6.35793 14.1072 6.36458 14.1844C4.49918 15.4911 2.50571 16.9703 1.33078 18.9134C0.40922 18.7211 -0.520695 19.8948 0.3424 20.6471C6.05832 25.7381 11.0865 31.5277 16.6827 36.7233C16.8648 36.9015 17.1078 37.001 17.3607 37.001C17.6135 37.001 17.8565 36.9015 18.0386 36.7233ZM18.3004 9.76662C15.661 9.65914 13.08 10.0495 10.6773 11.3165L10.4183 10.946C10.3599 10.5755 10.3042 10.205 10.2485 9.8345C10.6903 9.87473 11.1233 9.98445 11.532 10.1598C11.581 10.1866 11.6373 10.1967 11.6924 10.1885C11.7476 10.1803 11.7986 10.1543 11.838 10.1142C11.8774 10.0742 11.903 10.0224 11.9111 9.96636C11.9192 9.91036 11.9093 9.8532 11.8828 9.80339C11.4259 8.9063 10.8651 8.06789 10.2123 7.30599C10.439 7.30305 10.6647 7.33744 10.8805 7.40781C10.9446 7.487 11.0086 7.56619 11.0754 7.63973C11.1159 7.67994 11.1682 7.70556 11.2244 7.71267C11.2806 7.71979 11.3375 7.70801 11.3865 7.67913C11.4354 7.65025 11.4737 7.60587 11.4955 7.55278C11.5172 7.49969 11.5213 7.44082 11.507 7.38518C11.4625 7.24395 11.3709 7.1229 11.248 7.04295C11.112 6.8626 10.9874 6.67367 10.8749 6.47729C13.3111 5.84092 15.8308 5.889 18.3393 5.86072C18.3449 7.17023 18.3087 8.48539 18.3004 9.76662ZM10.7023 8.41752L10.5798 7.4672C10.8582 7.87319 11.1733 8.25193 11.5209 8.59853C11.2522 8.52011 10.9788 8.45964 10.7023 8.41752ZM9.37149 4.59929C9.7223 4.88212 10.0675 5.16496 10.4156 5.44779C10.0787 5.37425 9.74179 5.30071 9.41325 5.19607C9.39655 4.99243 9.38263 4.80859 9.37149 4.59929ZM9.98401 6.54234C9.88378 6.59325 9.95617 6.7573 10.0592 6.72336L10.371 6.62719C10.4044 6.68942 10.4378 6.74881 10.474 6.80821C10.2491 6.78698 10.0233 6.77754 9.79747 6.77992C9.71673 6.18315 9.63877 5.58355 9.57195 4.98677C9.80582 5.4591 10.0146 5.94557 10.2569 6.40093L9.98401 6.54234ZM10.1678 9.31692C10.0898 8.80499 10.0119 8.29307 9.93946 7.78115C10.3795 8.3119 10.7744 8.8796 11.12 9.47813C10.8075 9.39768 10.489 9.34376 10.1678 9.31692ZM18.0498 3.46514C15.8057 3.39726 13.4698 3.18231 11.2564 3.44534C11.2211 3.4503 11.1887 3.46807 11.1653 3.49536C11.1419 3.52265 11.129 3.55763 11.129 3.59383C11.129 3.63002 11.1419 3.665 11.1653 3.69229C11.1887 3.71959 11.2211 3.73735 11.2564 3.74231C13.4837 4.00817 15.8336 3.78757 18.0888 3.71969C18.1305 4.00252 18.1611 4.31363 18.189 4.59646C18.292 5.60334 18.3282 4.68697 18.3365 5.69951C15.7807 5.55526 13.1246 5.29789 10.7162 6.21992C10.2903 5.4393 9.97844 6.50275 9.50792 5.75042C10.1969 5.87669 10.8747 6.05924 11.5348 6.29628C11.5923 6.32441 11.6582 6.32945 11.7192 6.31038C11.7802 6.29132 11.8319 6.24955 11.8639 6.19345C11.8959 6.13734 11.9059 6.07102 11.8919 6.00776C11.8778 5.9445 11.8408 5.88895 11.7882 5.85224C11.1729 5.43364 10.5798 4.9698 10.0007 4.52576C10.5741 4.81387 11.1635 5.0679 11.7659 5.28657C11.856 5.32479 11.9491 5.35507 12.0443 5.37708C12.0717 5.38348 12.1005 5.37985 12.1256 5.36684C12.1506 5.35383 12.1704 5.33227 12.1814 5.30593C12.1923 5.2796 12.1938 5.25018 12.1855 5.22285C12.1773 5.19552 12.1598 5.17201 12.1362 5.15647C11.5663 4.73392 10.9507 4.37901 10.3014 4.09868C10.0951 3.90729 9.87246 3.73502 9.63599 3.58393C9.63599 3.58393 9.6165 3.58393 9.63599 3.6009C9.86567 3.73735 10.0795 3.89958 10.2736 4.08454C9.96452 3.94595 9.64991 3.82151 9.34086 3.69989C9.34086 3.31807 9.31859 2.93624 9.31859 2.55442C9.37719 2.55608 9.43582 2.55325 9.49399 2.54594C10.9585 2.22634 12.448 2.09623 13.9208 1.86714C14.6642 1.75118 15.4132 1.68896 16.1482 1.61825C16.4052 1.58574 16.6652 1.58574 16.9222 1.61825C17.0424 1.64451 17.1674 1.63768 17.2841 1.59845C17.4294 1.79455 17.5597 2.00162 17.6739 2.21785C17.8528 2.61494 17.9792 3.03434 18.0498 3.46514ZM10.8582 9.61672C11.3777 10.2796 11.8006 11.015 12.1139 11.8002H11.2564C11.2249 11.7999 11.1936 11.806 11.1644 11.8181C11.1353 11.8303 11.1088 11.8482 11.0865 11.8709C11.0281 11.1214 10.9501 10.3691 10.8582 9.61672ZM11.1172 12.3008C11.5181 12.94 12.1139 13.4095 12.5343 14.0317C12.1362 14.1731 11.4067 14.1844 11.3371 14.5974C11.3005 14.8388 11.3385 15.0858 11.4457 15.3045C11.3677 15.2557 11.2846 15.2159 11.1979 15.1857C11.2146 14.2269 11.1812 13.2652 11.1172 12.3036V12.3008ZM14.2549 31.5729C14.8153 30.9278 15.4664 30.3702 16.1872 29.9184C16.293 29.8476 16.1872 29.6751 16.0897 29.7487C15.3696 30.2284 14.7224 30.8125 14.1686 31.4824C13.5468 30.8432 12.9297 30.2002 12.3172 29.5535C12.81 28.9878 13.286 28.3967 13.7538 27.8254C13.7612 27.8098 13.7634 27.7922 13.7604 27.7751C13.7573 27.7581 13.7489 27.7425 13.7366 27.7305C13.7242 27.7186 13.7084 27.711 13.6915 27.7087C13.6746 27.7064 13.6574 27.7097 13.6424 27.7179C13.1028 28.2307 12.6176 28.7994 12.1946 29.4149C11.0058 28.1676 9.82253 26.9175 8.62255 25.6815C9.1948 25.2203 9.81915 24.8301 10.4824 24.5191C10.5687 24.4795 10.5074 24.3409 10.4183 24.3664C9.69845 24.6097 9.04181 25.0148 8.49726 25.5514C7.28614 24.3013 6.05832 23.0682 4.80265 21.8746C5.79439 20.7456 6.88981 19.7152 8.07406 18.7974C8.22162 18.6843 8.07406 18.4241 7.9265 18.5401C6.71767 19.4769 5.599 20.5281 4.58549 21.6795C3.72982 20.863 2.85094 20.0655 1.94887 19.2867C3.12432 18.0994 4.41749 17.0388 5.80774 16.1218C5.90477 16.1897 6.01483 16.236 6.13071 16.2576C7.67036 16.5404 8.85085 17.2701 10.062 18.2374C10.1452 18.3173 10.2515 18.3678 10.3652 18.3813C10.4789 18.3948 10.5939 18.3708 10.6931 18.3126C10.7922 18.2545 10.8702 18.1654 10.9155 18.0586C10.9609 17.9518 10.971 17.833 10.9446 17.7198C11.0037 17.7017 11.0553 17.664 11.0911 17.6128C11.1269 17.5616 11.1449 17.4998 11.1422 17.437C11.1202 17.2387 11.0607 17.0466 10.9668 16.8713C11.0156 16.8511 11.0576 16.8172 11.0882 16.7737C11.1187 16.7301 11.1365 16.6787 11.1394 16.6253C11.1394 16.6253 11.1394 16.6253 11.1394 16.6394C11.1812 16.7526 11.3761 16.7469 11.365 16.6083C11.3553 16.4769 11.2978 16.3538 11.2035 16.2633C11.1891 16.2467 11.1732 16.2316 11.1561 16.218C11.1561 16.0738 11.1729 15.9352 11.1756 15.7853L11.2063 15.7542C11.4502 15.9399 11.6784 16.1462 11.8884 16.3707C11.9267 16.4129 11.9781 16.4406 12.0341 16.449C12.09 16.4574 12.1471 16.4462 12.1959 16.4171C12.2446 16.3881 12.2821 16.3429 12.3022 16.2892C12.3222 16.2355 12.3236 16.1764 12.306 16.1218C12.2685 15.9399 12.2047 15.7645 12.1167 15.6014C12.0248 15.4148 11.5459 14.7925 11.7965 14.7784C12.2564 14.76 12.6984 14.5925 13.0577 14.3004C13.0949 14.2597 13.1177 14.2077 13.1228 14.1525C13.1278 14.0972 13.1147 14.0419 13.0856 13.9949C12.7209 13.3501 12.1473 12.8862 11.7102 12.298H12.4647C12.503 12.2981 12.5408 12.2892 12.5752 12.272C12.6096 12.2547 12.6395 12.2297 12.6627 12.1987C12.6859 12.1677 12.7017 12.1317 12.7089 12.0935C12.7161 12.0552 12.7145 12.0158 12.7042 11.9784C12.3015 10.8331 11.6862 9.7769 10.8917 8.86722C11.2981 8.88984 11.7659 9.23207 12.1835 8.94924C12.221 8.92673 12.2521 8.89468 12.2737 8.85624C12.2953 8.8178 12.3067 8.77431 12.3067 8.73004C12.3067 8.68578 12.2953 8.64229 12.2737 8.60385C12.2521 8.56541 12.221 8.53335 12.1835 8.51085C11.6267 8.10357 11.2146 12.0689 10.8193 11.5145C13.1378 10.3472 15.6993 9.76509 18.2864 9.81753C18.2864 11.4975 18.214 8.70035 18.2669 10.3832C16.3709 10.4935 14.4109 10.9206 12.8239 11.9557C12.805 11.9704 12.792 11.9915 12.7874 12.0152C12.7828 12.0389 12.7869 12.0634 12.7988 12.0843C12.8108 12.1051 12.8299 12.1208 12.8524 12.1284C12.875 12.136 12.8995 12.1349 12.9213 12.1254C14.5813 11.229 16.3986 10.6726 18.2697 10.4878C18.2892 11.1016 18.3254 11.7153 18.3839 12.3234C18.4217 12.9334 18.4942 13.5406 18.601 14.142C18.1538 14.5685 17.8213 15.1039 17.6349 15.6976C17.5285 16.0912 17.5527 16.5095 17.7036 16.8878C17.8546 17.266 18.124 17.5833 18.4702 17.7905C19.4085 18.3562 20.3662 17.9263 20.9759 17.1259C21.4381 16.5093 21.3295 16.4047 21.8975 16.0568C22.2452 15.8269 22.5088 15.4872 22.6477 15.0901C22.7866 14.6929 22.793 14.2604 22.6659 13.8592C22.7996 13.8328 22.9304 13.813 23.0585 13.7998C23.1547 13.7939 23.2473 13.7609 23.326 13.7044C23.4047 13.6479 23.4663 13.5703 23.504 13.4802C24.2056 13.9667 24.9573 14.3994 25.6283 14.9142C26.6835 15.6992 27.6692 16.5765 28.574 17.536C28.5055 17.8307 28.3765 18.1073 28.1953 18.3477C27.9654 18.2262 27.7261 18.1241 27.4798 18.0423C26.4691 17.6322 25.3944 17.058 24.317 16.8827C24.28 16.8677 24.2388 16.8682 24.2022 16.8841C24.1657 16.9 24.1368 16.93 24.1221 16.9675C24.1073 17.005 24.1078 17.0469 24.1235 17.0841C24.1391 17.1212 24.1687 17.1505 24.2056 17.1655C24.9545 17.6831 25.8956 17.9122 26.742 18.2176L27.7248 18.5768C27.816 18.611 27.909 18.6403 28.0032 18.6645C27.6635 19.233 27.3044 19.7986 26.9397 20.3643C26.6612 20.7886 26.3995 21.2128 26.1322 21.6484C24.8376 21.4306 23.5485 21.1704 22.2344 21.0431C22.123 21.0431 22.1091 21.2071 22.2093 21.2383C23.4186 21.6171 24.6649 21.8608 25.9262 21.9651C25.3582 22.9098 24.7791 23.8601 24.2223 24.8019L23.916 24.751C23.2256 24.6407 22.5239 24.4343 21.8474 24.3579C21.7499 24.3579 21.7165 24.4993 21.8001 24.5446C22.4543 24.9009 23.2534 25.0027 24.0525 25.0791C23.8798 25.3619 23.7044 25.6448 23.5263 25.9276C23.2014 26.448 22.8729 26.9665 22.5407 27.4832C21.2457 27.1478 19.9249 26.9254 18.5927 26.8185C18.4535 26.8185 18.4507 27.0024 18.5621 27.0448C19.7593 27.5199 21.1152 27.4747 22.3875 27.7151C21.5022 29.0783 20.5945 30.4275 19.6507 31.7454L19.4001 32.0962C18.8729 31.9329 18.3275 31.8378 17.7769 31.8133C17.6934 31.8133 17.6934 31.9463 17.7769 31.9463C18.3029 31.9586 18.8255 32.0355 19.3333 32.1754C18.7353 33.0509 18.0786 33.8835 17.3677 34.6671C16.3069 33.6574 15.2767 32.625 14.2549 31.5729Z" fill="black"/>
</g>
<defs>
<clipPath id="clip0_573_8388">
<rect width="29" height="37" fill="white"/>
</clipPath>
</defs>
</svg>
