<svg width="74" height="57" viewBox="0 0 74 57" fill="none" xmlns="http://www.w3.org/2000/svg">
<g style="mix-blend-mode:multiply">
<path d="M42.8034 53.4622C60.0328 53.4622 74 41.6438 74 27.0651C74 12.4864 60.0328 0.667969 42.8034 0.667969C25.574 0.667969 11.6068 12.4864 11.6068 27.0651C11.6068 41.6438 25.574 53.4622 42.8034 53.4622Z" fill="#8FF7BF"/>
</g>
<g style="mix-blend-mode:multiply">
<path d="M31.1966 56.0013C48.426 56.0013 62.3932 44.1829 62.3932 29.6042C62.3932 15.0254 48.426 3.20703 31.1966 3.20703C13.9672 3.20703 0 15.0254 0 29.6042C0 44.1829 13.9672 56.0013 31.1966 56.0013Z" fill="#8FF7BF"/>
</g>
<path d="M53.5267 51.0117L53.7323 51.2173C53.6649 51.1466 53.5974 51.0792 53.5267 51.0117Z" fill="black"/>
</svg>
