<svg width="30" height="29" viewBox="0 0 30 29" fill="none" xmlns="http://www.w3.org/2000/svg">
<circle cx="14" cy="14" r="14" fill="white"/>
<circle cx="15.0232" cy="15" r="13.75" stroke="black" stroke-width="0.5"/>
<path d="M11 14.5C10.7239 14.5 10.5 14.7239 10.5 15C10.5 15.2761 10.7239 15.5 11 15.5V14.5ZM19.3536 15.3536C19.5488 15.1583 19.5488 14.8417 19.3536 14.6464L16.1716 11.4645C15.9763 11.2692 15.6597 11.2692 15.4645 11.4645C15.2692 11.6597 15.2692 11.9763 15.4645 12.1716L18.2929 15L15.4645 17.8284C15.2692 18.0237 15.2692 18.3403 15.4645 18.5355C15.6597 18.7308 15.9763 18.7308 16.1716 18.5355L19.3536 15.3536ZM11 15.5H19V14.5H11V15.5Z" fill="black"/>
</svg>
