<svg width="29" height="27" viewBox="0 0 29 27" fill="none" xmlns="http://www.w3.org/2000/svg">
<path d="M23.5228 15.3485C23.0896 17.6411 21.9863 19.7538 20.3523 21.4193C18.7184 23.0848 16.6272 24.2285 14.3433 24.7055C12.0594 25.1825 9.6853 24.9715 7.52129 24.0992C5.35729 23.2269 3.50056 21.7325 2.18594 19.8049C0.871321 17.8773 0.157865 15.6032 0.135782 13.2701C0.1137 10.9371 0.784021 8.64981 2.06192 6.69769C3.33982 4.74558 5.16791 3.21626 7.31501 2.30316C9.46212 1.39005 11.8318 1.1342 14.1243 1.56791C17.1943 2.15611 19.9065 3.93603 21.6678 6.51846C23.429 9.10088 24.0959 12.2757 23.5228 15.3485Z" fill="#C2A7E4"/>
<path d="M14.9195 26.3459C14.0956 26.3438 13.274 26.2607 12.4665 26.0978C9.91547 25.6063 7.56729 24.3699 5.7184 22.5448C3.86951 20.7198 2.60282 18.3878 2.07821 15.8434C1.5536 13.299 1.79461 10.6562 2.77082 8.24866C3.74703 5.84112 5.41467 3.77678 7.5632 2.31625C9.71173 0.855729 12.2448 0.0645006 14.8427 0.0424653C17.4405 0.02043 19.9867 0.768575 22.1597 2.19244C24.3327 3.61631 26.0351 5.65208 27.052 8.04271C28.0689 10.4333 28.3547 13.0717 27.8733 15.6246C27.2918 18.6363 25.6819 21.3523 23.3189 23.308C20.9559 25.2638 17.9868 26.3376 14.9195 26.3459ZM14.9195 2.72599C12.9355 2.72348 10.9918 3.28603 9.31586 4.3478C7.63992 5.40958 6.30102 6.92669 5.45581 8.72161C4.61059 10.5165 4.294 12.515 4.54312 14.4833C4.79224 16.4515 5.59676 18.3082 6.86252 19.8359C8.12828 21.3636 9.80293 22.4993 11.6906 23.11C13.5782 23.7208 15.6007 23.7814 17.5215 23.2847C19.4423 22.7879 21.1819 21.7545 22.5368 20.3052C23.8917 18.8559 24.8059 17.0508 25.1723 15.1009C25.6898 12.3859 25.1102 9.57656 23.5604 7.28808C22.0106 4.99959 19.617 3.41859 16.9039 2.89135C16.2482 2.78117 15.5844 2.72587 14.9195 2.72599Z" fill="#010101"/>
</svg>
