<svg width="30" height="27" viewBox="0 0 30 27" fill="none" xmlns="http://www.w3.org/2000/svg">
<path d="M20.8769 21.4482C19.3101 23.1758 17.2663 24.4003 15.0038 24.9667C12.7414 25.5332 10.3617 25.4162 8.16569 24.6307C5.96964 23.8451 4.05572 22.4262 2.66585 20.5533C1.27598 18.6803 0.472519 16.4374 0.357009 14.1079C0.241498 11.7785 0.819138 9.46712 2.01689 7.46586C3.21465 5.4646 4.97878 3.86328 7.08633 2.86433C9.19389 1.86537 11.5503 1.51361 13.8577 1.85345C16.1651 2.1933 18.32 3.2095 20.0501 4.77367C21.2003 5.81359 22.1342 7.0701 22.7983 8.47127C23.4625 9.87245 23.8438 11.3908 23.9206 12.9395C23.9974 14.4882 23.7681 16.0369 23.2459 17.4969C22.7236 18.9569 21.9186 20.2996 20.8769 21.4482Z" fill="#8FF7BF"/>
<path d="M16.1123 26.6854C12.7394 26.6755 9.49876 25.3724 7.05803 23.0445C4.61729 20.7165 3.16237 17.5412 2.99303 14.1726C2.83539 10.6931 4.05917 7.29231 6.39776 4.71111C8.73635 2.12991 12.0002 0.577466 15.4784 0.391978C17.2053 0.306697 18.9321 0.562921 20.5599 1.14594C22.1876 1.72896 23.6844 2.6273 24.9645 3.7896C26.2446 4.9519 27.2828 6.35529 28.0197 7.91941C28.7567 9.48352 29.1778 11.1777 29.2591 12.9048C29.4165 16.3888 28.189 19.7935 25.8446 22.3755C23.5001 24.9575 20.2292 26.5069 16.7462 26.6854H16.1123ZM16.1123 3.06541H15.6162C13.9011 3.15216 12.2339 3.6604 10.7621 4.54512C9.29035 5.42984 8.0594 6.66377 7.17822 8.13767C6.29704 9.61157 5.79281 11.28 5.71019 12.9952C5.62757 14.7104 5.96911 16.4196 6.70455 17.9714C7.43999 19.5231 8.54665 20.8696 9.92658 21.8917C11.3065 22.9138 12.9172 23.5799 14.6159 23.8311C16.3147 24.0823 18.0492 23.9108 19.6659 23.3318C21.2825 22.7528 22.7315 21.7842 23.8846 20.5116C25.2349 19.0092 26.1218 17.1483 26.4386 15.1532C26.7553 13.1581 26.4884 11.114 25.6698 9.26723C24.8513 7.42043 23.5161 5.84977 21.8252 4.7445C20.1344 3.63924 18.1599 3.04656 16.1398 3.03787L16.1123 3.06541Z" fill="#010101"/>
</svg>
