<svg width="19" height="18" viewBox="0 0 19 18" fill="none" xmlns="http://www.w3.org/2000/svg">
<path d="M0.899227 8.97856C0.893777 7.65707 1.28097 6.36374 2.01176 5.26269C2.74256 4.16163 3.78405 3.30246 5.00393 2.79423C6.22381 2.28599 7.56714 2.1516 8.86353 2.40808C10.1599 2.66455 11.3509 3.30035 12.2853 4.2348C13.2198 5.16924 13.8557 6.36021 14.1121 7.65658C14.3686 8.95296 14.2341 10.2963 13.7259 11.5162C13.2177 12.736 12.3586 13.7774 11.2575 14.5082C10.1564 15.239 8.86307 15.6262 7.54156 15.6208C5.77991 15.6208 4.09039 14.921 2.84471 13.6753C1.59904 12.4297 0.899227 10.7402 0.899227 8.97856Z" fill="#8FF7BF"/>
<path d="M10.5416 17.0269C8.95536 17.0269 7.40465 16.5565 6.08571 15.6752C4.76677 14.794 3.73878 13.5414 3.13174 12.0758C2.5247 10.6103 2.36589 8.99772 2.67536 7.44194C2.98483 5.88615 3.74873 4.45707 4.87039 3.33541C5.99206 2.21376 7.42113 1.4499 8.97693 1.14044C10.5327 0.830974 12.1453 0.989804 13.6108 1.59684C15.0764 2.20388 16.329 3.23185 17.2103 4.55078C18.0916 5.86971 18.562 7.42035 18.562 9.00661C18.5547 11.1315 17.7073 13.1673 16.2048 14.6698C14.7023 16.1723 12.6665 17.0197 10.5416 17.0269ZM10.5416 3.71488C9.49621 3.72032 8.4758 4.0353 7.60921 4.62007C6.74261 5.20483 6.0686 6.03318 5.67231 7.00059C5.27601 7.968 5.17517 9.0311 5.38246 10.0558C5.58975 11.0805 6.09591 12.0208 6.83707 12.7581C7.57822 13.4954 8.52112 13.9967 9.54686 14.1986C10.5726 14.4006 11.6352 14.2942 12.6006 13.8929C13.5659 13.4915 14.3907 12.8133 14.971 11.9437C15.5513 11.0741 15.861 10.052 15.861 9.00661C15.861 7.59585 15.3006 6.24286 14.303 5.2453C13.3054 4.24774 11.9524 3.68733 10.5416 3.68733V3.71488Z" fill="#010101"/>
</svg>
