<svg width="28" height="27" viewBox="0 0 28 27" fill="none" xmlns="http://www.w3.org/2000/svg">
<path d="M25.5228 15.8024C25.0935 18.1036 23.9908 20.2257 22.3543 21.8997C20.7178 23.5736 18.6213 24.7241 16.3303 25.2054C14.0393 25.6867 11.657 25.4771 9.48522 24.6032C7.31347 23.7292 5.45003 22.2302 4.13102 20.2962C2.81201 18.3622 2.09682 16.0802 2.07603 13.7393C2.05523 11.3984 2.72979 9.10403 4.01423 7.14689C5.29868 5.18975 7.13517 3.65794 9.29105 2.74554C11.4469 1.83315 13.8251 1.58127 16.1243 2.02178C19.1943 2.60997 21.9065 4.3899 23.6678 6.97232C25.429 9.55475 26.096 12.7295 25.5228 15.8024Z" fill="white"/>
<path d="M13.947 26.7717C13.1155 26.7668 12.2858 26.693 11.4665 26.5512C9.73305 26.2657 8.0742 25.6364 6.58757 24.7003C5.10094 23.7642 3.81653 22.5403 2.80995 21.1004C1.80337 19.6606 1.09496 18.034 0.726357 16.3163C0.357754 14.5986 0.336412 12.8245 0.663611 11.0985C0.99081 9.37243 1.65992 7.72928 2.63159 6.26565C3.60326 4.80203 4.85788 3.54753 6.32157 2.57596C7.78527 1.60439 9.42849 0.935384 11.1546 0.608294C12.8807 0.281204 14.6547 0.302629 16.3724 0.671334C18.0761 0.97724 19.7009 1.62294 21.1498 2.56995C22.5987 3.51695 23.8422 4.74588 24.8062 6.18356C26.7762 9.0684 27.5197 12.6175 26.8733 16.0505C26.5556 17.7501 25.9051 19.3702 24.9591 20.8176C24.0131 22.2649 22.7903 23.511 21.361 24.4842C19.1807 25.9847 16.5938 26.7829 13.947 26.7717ZM13.947 3.15182C11.8588 3.14391 9.81873 3.77903 8.104 4.97087C6.9694 5.74034 5.99782 6.72617 5.24495 7.87186C4.49209 9.01755 3.97275 10.3006 3.7167 11.6473C3.46066 12.9941 3.47292 14.3782 3.75283 15.7202C4.03274 17.0623 4.57478 18.3359 5.34786 19.468C6.11333 20.6102 7.10071 21.5868 8.25128 22.3396C9.40186 23.0925 10.6921 23.6062 12.0453 23.8503C14.7603 24.3677 17.5697 23.7881 19.8582 22.2383C22.1467 20.6886 23.7278 18.295 24.255 15.5819C24.7613 12.8568 24.1666 10.042 22.6013 7.75453C21.8389 6.6153 20.8559 5.64055 19.7103 4.88785C18.5646 4.13515 17.2797 3.6198 15.9314 3.37231C15.2613 3.22674 14.5777 3.15282 13.8919 3.15182H13.947Z" fill="#010101"/>
<path d="M17.0889 21.3413C16.9915 21.3797 16.8832 21.3797 16.7858 21.3413C16.7388 21.2999 16.7013 21.249 16.6755 21.192C16.6498 21.135 16.6365 21.0732 16.6365 21.0106C16.6365 20.948 16.6498 20.8862 16.6755 20.8291C16.7013 20.7721 16.7388 20.7212 16.7858 20.6798C18.5427 18.9462 20.1904 17.1053 21.7193 15.1676C21.7924 15.0726 21.9002 15.0105 22.0191 14.995C22.138 14.9795 22.2581 15.0119 22.3532 15.085C22.4482 15.1581 22.5103 15.2659 22.5258 15.3848C22.5413 15.5037 22.5089 15.6238 22.4358 15.7189C20.8832 17.7223 19.208 19.6277 17.4197 21.424C17.303 21.4389 17.1849 21.4094 17.0889 21.3413Z" fill="#010101"/>
<path d="M11.1632 21.0662C11.0761 21.0614 10.992 21.0323 10.9205 20.9823C10.849 20.9322 10.7929 20.8632 10.7585 20.783C10.7241 20.7028 10.7128 20.6145 10.7259 20.5282C10.739 20.4419 10.7759 20.361 10.8325 20.2945C13.9475 17.07 16.8914 13.6845 19.6522 10.152C19.7253 10.057 19.8331 9.99489 19.952 9.97938C20.0709 9.96388 20.1911 9.99624 20.2861 10.0693C20.3811 10.1424 20.4432 10.2503 20.4587 10.3691C20.4742 10.488 20.4419 10.6082 20.3688 10.7032C17.5965 14.2599 14.6339 17.6641 11.494 20.9009C11.4541 20.9507 11.4039 20.9913 11.3468 21.0199C11.2897 21.0484 11.2271 21.0642 11.1632 21.0662Z" fill="#010101"/>
<path d="M7.52515 17.9792C7.4178 18.015 7.30178 18.015 7.19443 17.9792C7.15192 17.9381 7.11813 17.8888 7.09505 17.8344C7.07196 17.7799 7.06006 17.7214 7.06006 17.6623C7.06006 17.6031 7.07196 17.5446 7.09505 17.4901C7.11813 17.4357 7.15192 17.3865 7.19443 17.3453C10.6396 13.6797 13.947 9.79359 17.0615 5.82479C17.1026 5.78229 17.1519 5.7485 17.2063 5.72542C17.2608 5.70233 17.3193 5.69043 17.3784 5.69043C17.4376 5.69043 17.4961 5.70233 17.5506 5.72542C17.605 5.7485 17.6543 5.78229 17.6954 5.82479C17.7748 5.91125 17.8188 6.02437 17.8188 6.14176C17.8188 6.25915 17.7748 6.37228 17.6954 6.45873C14.5534 10.4275 11.2184 14.3136 7.77324 18.0068C7.68962 18.0217 7.60346 18.0121 7.52515 17.9792Z" fill="#010101"/>
<path d="M5.98173 12.6602C5.88432 12.6986 5.77597 12.6986 5.67856 12.6602C5.63605 12.6191 5.60227 12.5698 5.57918 12.5153C5.55609 12.4609 5.54419 12.4024 5.54419 12.3432C5.54419 12.2841 5.55609 12.2255 5.57918 12.1711C5.60227 12.1166 5.63605 12.0674 5.67856 12.0262C7.47005 9.95917 9.3718 7.94721 11.3287 6.0455C11.3698 6.00299 11.4191 5.96921 11.4735 5.94612C11.528 5.92304 11.5865 5.91113 11.6456 5.91113C11.7048 5.91113 11.7633 5.92304 11.8178 5.94612C11.8722 5.96921 11.9215 6.00299 11.9626 6.0455C12.0089 6.0843 12.0462 6.1328 12.0717 6.18756C12.0973 6.24232 12.1106 6.30203 12.1106 6.36247C12.1106 6.4229 12.0973 6.48261 12.0717 6.53737C12.0462 6.59213 12.0089 6.64059 11.9626 6.67939C10.0333 8.55354 8.13153 10.5655 6.45028 12.605C6.38289 12.6524 6.30481 12.6822 6.22301 12.6918C6.14121 12.7015 6.05827 12.6906 5.98173 12.6602Z" fill="#010101"/>
</svg>
