<svg width="19" height="18" viewBox="0 0 19 18" fill="none" xmlns="http://www.w3.org/2000/svg">
<path d="M0.813045 8.97862C0.807589 7.65829 1.19408 6.36604 1.92365 5.26558C2.65322 4.16512 3.693 3.30596 4.91127 2.79691C6.12954 2.28786 7.47153 2.15183 8.76718 2.40607C10.0628 2.6603 11.2538 3.29335 12.1894 4.22503C13.125 5.15671 13.7629 6.34511 14.0225 7.63967C14.2821 8.93423 14.1516 10.2767 13.6476 11.4971C13.1436 12.7174 12.2888 13.7607 11.1913 14.4948C10.0939 15.229 8.80323 15.6208 7.48288 15.6209C5.71869 15.6209 4.02634 14.9219 2.77628 13.6771C1.52622 12.4322 0.820335 10.7428 0.813045 8.97862Z" fill="#C2A7E4"/>
<path d="M10.4828 17.0269C8.89654 17.0269 7.3459 16.5565 6.02695 15.6752C4.708 14.794 3.68002 13.5414 3.07297 12.0758C2.46592 10.6103 2.30703 8.99772 2.6165 7.44194C2.92597 5.88615 3.68987 4.45707 4.81155 3.33541C5.93322 2.21376 7.3623 1.4499 8.9181 1.14044C10.4739 0.830974 12.0866 0.989804 13.5521 1.59684C15.0177 2.20388 16.2703 3.23185 17.1516 4.55078C18.0329 5.86971 18.5032 7.42035 18.5032 9.00661C18.5032 11.1337 17.6582 13.1737 16.1541 14.6778C14.65 16.1819 12.61 17.0269 10.4828 17.0269ZM10.4828 3.71488C9.4362 3.71488 8.41312 4.02523 7.54289 4.60669C6.67265 5.18816 5.99439 6.01462 5.59386 6.98156C5.19334 7.9485 5.08848 9.0125 5.29266 10.039C5.49685 11.0655 6.0009 12.0084 6.74097 12.7485C7.48104 13.4885 8.42393 13.9925 9.45044 14.1967C10.477 14.4009 11.5409 14.2961 12.5079 13.8955C13.4748 13.495 14.3014 12.8168 14.8828 11.9465C15.4643 11.0763 15.7747 10.0532 15.7747 9.00661C15.7783 8.30938 15.6441 7.61829 15.3798 6.97309C15.1155 6.32788 14.7263 5.74127 14.2345 5.24696C13.7428 4.75265 13.1581 4.3604 12.5143 4.09274C11.8704 3.82508 11.1801 3.68732 10.4828 3.68733V3.71488Z" fill="#010101"/>
</svg>
