<svg width="20" height="18" viewBox="0 0 20 18" fill="none" xmlns="http://www.w3.org/2000/svg">
<path d="M0.754207 8.97856C0.748758 7.65707 1.13595 6.36374 1.86674 5.26269C2.59753 4.16163 3.63893 3.30246 4.85881 2.79423C6.07868 2.28599 7.42209 2.1516 8.71848 2.40808C10.0149 2.66455 11.2058 3.30035 12.1403 4.2348C13.0747 5.16924 13.7105 6.36021 13.967 7.65658C14.2235 8.95296 14.0891 10.2963 13.5808 11.5162C13.0726 12.736 12.2135 13.7774 11.1124 14.5082C10.0114 15.239 8.71801 15.6262 7.39651 15.6208C5.63486 15.6208 3.94536 14.921 2.69969 13.6753C1.45402 12.4297 0.754207 10.7402 0.754207 8.97856Z" fill="#FFDF68"/>
<path d="M11.3966 17.0269C9.81034 17.0269 8.25963 16.5565 6.94069 15.6752C5.62175 14.794 4.59377 13.5414 3.98672 12.0758C3.37968 10.6103 3.22087 8.99772 3.53034 7.44194C3.83981 5.88615 4.60371 4.45707 5.72537 3.33541C6.84704 2.21376 8.27611 1.4499 9.83191 1.14044C11.3877 0.830974 13.0003 0.989804 14.4658 1.59684C15.9313 2.20388 17.184 3.23185 18.0652 4.55078C18.9465 5.86971 19.417 7.42035 19.417 9.00661C19.4097 11.1315 18.5623 13.1673 17.0598 14.6698C15.5573 16.1723 13.5215 17.0197 11.3966 17.0269ZM11.3966 3.71488C10.35 3.71488 9.32685 4.02523 8.45662 4.60669C7.58639 5.18816 6.90813 6.01462 6.5076 6.98156C6.10708 7.9485 6.0023 9.0125 6.20649 10.039C6.41067 11.0655 6.91464 12.0084 7.65471 12.7485C8.39477 13.4885 9.33774 13.9925 10.3642 14.1967C11.3908 14.4009 12.4547 14.2961 13.4217 13.8955C14.3886 13.495 15.2151 12.8168 15.7965 11.9465C16.378 11.0763 16.6884 10.0532 16.6884 9.00661C16.692 8.30938 16.5579 7.61829 16.2935 6.97309C16.0292 6.32788 15.64 5.74127 15.1482 5.24696C14.6565 4.75265 14.0719 4.3604 13.4281 4.09274C12.7842 3.82508 12.0939 3.68732 11.3966 3.68733V3.71488Z" fill="#010101"/>
</svg>
