<svg width="258" height="299" viewBox="0 0 258 299" fill="none" xmlns="http://www.w3.org/2000/svg">
<rect width="258" height="299" fill="white"/>
<path d="M53.034 115.188H1.5V72.5H155.5V115.188H103.966H102.466V116.688V297.5H54.534V116.688V115.188H53.034Z" fill="black" stroke="white" stroke-width="3"/>
<path d="M70.2036 0H258V57H0V54.0797C0 39.7369 7.41863 25.9815 20.624 15.8396C33.8293 5.69767 51.7397 0 70.4148 0H70.2036Z" fill="#FCD600"/>
<path d="M150.499 107.698L150.499 107.704C150.539 112.935 149.018 118.061 146.129 122.43C143.24 126.799 139.112 130.215 134.27 132.243C129.428 134.272 124.09 134.821 118.934 133.82C113.778 132.819 109.037 130.315 105.313 126.625C101.59 122.935 99.0505 118.226 98.0177 113.097C96.9849 107.967 97.5048 102.648 99.5115 97.8131C101.518 92.9782 104.922 88.8459 109.291 85.9411C113.659 83.0362 118.796 81.4903 124.049 81.5001L124.055 81.5C131.048 81.4867 137.76 84.2391 142.717 89.1513C147.675 94.0633 150.473 100.734 150.499 107.698ZM145.302 165.158V297.5H101.158V165.158H145.302Z" fill="black" stroke="white" stroke-width="3"/>
<path d="M166.08 172.894H145.5V133.088H166.26H167.762L167.76 131.587L167.701 72.5H218.04V131.588V133.088H219.54H250.5V172.894H219.42H217.92V174.394V226.091C217.92 233.744 218.833 239.667 220.965 243.722C222.046 245.778 223.458 247.388 225.247 248.477C227.037 249.565 229.11 250.073 231.42 250.073H231.47L231.52 250.07C235.9 249.777 240.126 248.349 243.834 245.934L256.215 288.085C244.568 294.139 231.788 297.356 218.812 297.5C198.039 297.498 185.346 289.398 177.772 277.922C170.129 266.342 167.58 251.14 167.58 236.824V174.394V172.894H166.08Z" fill="black" stroke="white" stroke-width="3"/>
</svg>
