<svg width="23" height="23" viewBox="0 0 23 23" fill="none" xmlns="http://www.w3.org/2000/svg">
<ellipse opacity="0.5" cx="11" cy="10.9992" rx="11" ry="10.9992" fill="#20F180"/>
<path d="M22.75 11.9992C22.75 17.9358 17.9371 22.7484 12 22.7484C6.06292 22.7484 1.25 17.9358 1.25 11.9992C1.25 6.0626 6.06292 1.25 12 1.25C17.9371 1.25 22.75 6.0626 22.75 11.9992Z" stroke="black" stroke-width="0.5"/>
<path d="M17.9996 14.9837V16.79C18.0003 16.9577 17.9659 17.1237 17.8986 17.2773C17.8313 17.431 17.7325 17.5689 17.6087 17.6823C17.4849 17.7956 17.3387 17.8819 17.1795 17.9357C17.0203 17.9894 16.8517 18.0093 16.6843 17.9943C14.8277 17.7929 13.0443 17.1598 11.4773 16.1457C10.0195 15.2213 8.78356 13.9879 7.8572 12.533C6.83752 10.9622 6.20294 9.17382 6.0049 7.31268C5.98982 7.14617 6.00965 6.97836 6.06312 6.81992C6.11659 6.66148 6.20254 6.51589 6.31548 6.39241C6.42843 6.26894 6.5659 6.17028 6.71915 6.10273C6.87239 6.03518 7.03805 6.00022 7.20558 6.00006H9.01565C9.30846 5.99718 9.59233 6.10066 9.81435 6.2912C10.0364 6.48174 10.1814 6.74635 10.2224 7.0357C10.2988 7.61377 10.4404 8.18137 10.6447 8.72765C10.7259 8.94317 10.7435 9.17738 10.6953 9.40256C10.6472 9.62773 10.5354 9.83441 10.3732 9.99812L9.60694 10.7628C10.4658 12.2702 11.7165 13.5184 13.2271 14.3755L13.9933 13.6108C14.1574 13.4489 14.3645 13.3374 14.5901 13.2894C14.8158 13.2413 15.0505 13.2589 15.2664 13.3399C15.8138 13.5437 16.3826 13.6851 16.9619 13.7614C17.2549 13.8026 17.5226 13.9499 17.714 14.1753C17.9053 14.4007 18.007 14.6884 17.9996 14.9837Z" stroke="black" stroke-width="0.5" stroke-linecap="round" stroke-linejoin="round"/>
</svg>
