<svg width="44" height="44" viewBox="0 0 44 44" fill="none" xmlns="http://www.w3.org/2000/svg">
<path d="M22.4358 17.2133V15.0133C22.4358 14.06 22.6358 13.5467 24.0358 13.5467H25.7692V9.88H23.1025C19.7692 9.88 18.4358 12.3 18.4358 15.0133V17.2133H15.7692V20.88H18.4358V31.88H22.4358V20.88H25.3692L25.7692 17.2133H22.4358Z" fill="#B9A6D9"/>
<path d="M22.9038 18.04V18.29H23.1538H25.9532L25.6364 21.31H23.1538H22.9038V21.56V31.87H19.7115V21.56V21.31H19.4615H17.25V18.29H19.4615H19.7115V18.04V15.928C19.7115 14.6602 20.0117 13.488 20.6602 12.6389C21.3011 11.7998 22.3017 11.25 23.7692 11.25H25.9808V14.27H24.6308C23.9673 14.27 23.5016 14.3935 23.2195 14.7163C22.9442 15.0311 22.9038 15.4727 22.9038 15.928V18.04Z" stroke="black" stroke-width="0.5"/>
</svg>
