<svg width="44" height="44" viewBox="0 0 44 44" fill="none" xmlns="http://www.w3.org/2000/svg">
<path d="M31.4956 14.9481C31.6493 14.4011 31.4956 14 30.7688 14H28.3611C27.7485 14 27.4685 14.347 27.3148 14.7281C27.3148 14.7281 26.0907 17.9264 24.356 20.0002C23.7961 20.6036 23.5403 20.7942 23.2351 20.7942C23.0825 20.7942 22.8607 20.6036 22.8607 20.0566V14.9481C22.8607 14.2917 22.6839 14 22.1734 14H18.3901C18.008 14 17.7775 14.3035 17.7775 14.5928C17.7775 15.2139 18.6448 15.3574 18.7337 17.1077V20.9047C18.7337 21.7363 18.5943 21.8881 18.2869 21.8881C17.4711 21.8881 15.4862 18.678 14.3081 15.0034C14.0787 14.2894 13.847 14.0012 13.2322 14.0012H10.8256C10.1372 14.0012 10 14.3482 10 14.7293C10 15.4139 10.8157 18.8015 13.7998 23.282C15.7892 26.3415 18.5899 28 21.1414 28C22.6707 28 22.8596 27.6318 22.8596 26.9966V24.6841C22.8596 23.9477 23.0056 23.7995 23.4898 23.7995C23.8455 23.7995 24.4581 23.9924 25.8865 25.4663C27.5179 27.2142 27.788 27.9988 28.7047 27.9988H31.1113C31.7986 27.9988 32.1422 27.6306 31.9446 26.9037C31.7283 26.1803 30.9488 25.1275 29.9146 23.8819C29.3525 23.1714 28.5126 22.4068 28.2568 22.0245C27.9 21.5317 28.0032 21.3141 28.2568 20.8765C28.2579 20.8777 31.1904 16.4525 31.4956 14.9481Z" fill="#B9A6D9"/>
<path d="M32.2549 15.8804L32.2524 15.8893L32.2506 15.8984C32.1817 16.2377 31.9561 16.7692 31.638 17.3961C31.3237 18.0154 30.9317 18.7041 30.5474 19.3489C30.1634 19.9932 29.7886 20.5909 29.5097 21.0277C29.3961 21.2056 29.2984 21.3567 29.2226 21.4732L29.2097 21.4593L29.0405 21.7511C28.92 21.959 28.7966 22.1731 28.7786 22.4109C28.7593 22.6663 28.8603 22.9023 29.0517 23.1675C29.1909 23.374 29.4687 23.6656 29.7594 23.9707L29.7898 24.0026C30.1036 24.332 30.4459 24.6924 30.7186 25.037L30.7185 25.037L30.7223 25.0416C31.2378 25.6625 31.6857 26.2304 32.0305 26.7306C32.3772 27.2333 32.6071 27.6499 32.7042 27.9723C32.7911 28.2943 32.7414 28.4721 32.665 28.5672C32.5855 28.666 32.4187 28.7488 32.1113 28.7488H29.7047C29.5156 28.7488 29.3694 28.7095 29.2294 28.6309C29.0833 28.5489 28.9334 28.4183 28.7466 28.2177C28.5951 28.055 28.4295 27.8577 28.2277 27.6172C28.1797 27.56 28.1297 27.5005 28.0774 27.4383C27.8071 27.1175 27.4812 26.7371 27.0692 26.2957L27.0693 26.2957L27.066 26.2923C25.6359 24.8167 24.9583 24.5495 24.4898 24.5495C24.2389 24.5495 23.9677 24.5833 23.7933 24.8155C23.7127 24.9227 23.669 25.0522 23.644 25.1907C23.6188 25.3295 23.6096 25.4939 23.6096 25.6841V27.9966C23.6096 28.2978 23.5624 28.4369 23.428 28.5336C23.2604 28.6541 22.9049 28.75 22.1414 28.75C19.6974 28.75 16.9667 27.1558 15.0094 24.1457L15.0094 24.1457L15.0079 24.1434C13.526 21.9185 12.5845 19.9677 12.0141 18.4921C11.7288 17.7541 11.5368 17.136 11.4164 16.6628C11.2943 16.1829 11.25 15.8678 11.25 15.7293C11.25 15.5611 11.2818 15.4551 11.3409 15.3891C11.3956 15.3281 11.5196 15.2512 11.8256 15.2512H14.2322C14.4972 15.2512 14.6367 15.3115 14.7391 15.4125C14.8561 15.528 14.9567 15.727 15.0701 16.0797C15.6645 17.9339 16.4627 19.6723 17.2181 20.9509C17.5953 21.5894 17.9661 22.1205 18.3 22.4954C18.4667 22.6825 18.63 22.8373 18.7859 22.9473C18.9365 23.0535 19.1085 23.1381 19.2869 23.1381C19.3811 23.1381 19.4905 23.1271 19.5952 23.0765C19.7064 23.0227 19.7896 22.9355 19.8477 22.823C19.952 22.621 19.9837 22.3177 19.9837 21.9047V18.1077H19.984L19.9834 18.095C19.9364 17.1706 19.6806 16.6531 19.4284 16.2854C19.3711 16.2019 19.3146 16.127 19.265 16.0612L19.2562 16.0495C19.2031 15.979 19.1601 15.9213 19.1244 15.8661C19.056 15.7601 19.0275 15.6821 19.0275 15.5928C19.0275 15.4269 19.1603 15.25 19.3901 15.25H23.1734C23.3787 15.25 23.4578 15.3054 23.5034 15.3708C23.5651 15.4594 23.6107 15.6297 23.6107 15.9481V21.0566C23.6107 21.3609 23.672 21.597 23.7803 21.7656C23.8881 21.9335 24.0526 22.0442 24.2351 22.0442C24.4517 22.0442 24.6417 21.9725 24.8454 21.8268C25.0401 21.6876 25.2591 21.4722 25.5393 21.1702L25.5395 21.1704L25.5478 21.1606C26.4339 20.1012 27.1839 18.7627 27.7101 17.6972C27.9739 17.1629 28.1831 16.694 28.3264 16.3584C28.398 16.1906 28.4533 16.056 28.4907 15.963C28.5094 15.9165 28.5237 15.8805 28.5334 15.8558L28.5444 15.8277L28.5472 15.8203L28.5474 15.8198C28.6151 15.6525 28.7026 15.5132 28.8233 15.4153C28.94 15.3208 29.1059 15.25 29.3611 15.25H31.7688C32.0946 15.25 32.2099 15.3395 32.253 15.4056C32.3035 15.4829 32.3252 15.6304 32.2549 15.8804ZM29.2568 21.8765L29.0739 22.047C29.0988 22.0577 29.1238 22.0654 29.1484 22.0706C28.982 22.3903 28.9567 22.6101 29.2568 23.0245V21.8765Z" stroke="black" stroke-width="0.5"/>
</svg>
