<svg width="74" height="59" viewBox="0 0 74 59" fill="none" xmlns="http://www.w3.org/2000/svg">
<g style="mix-blend-mode:multiply">
<path d="M42.8034 52.7943C60.0328 52.7943 74 40.9759 74 26.3971C74 11.8184 60.0328 0 42.8034 0C25.574 0 11.6068 11.8184 11.6068 26.3971C11.6068 40.9759 25.574 52.7943 42.8034 52.7943Z" fill="#C2A7E4"/>
</g>
<g style="mix-blend-mode:multiply">
<path d="M31.1966 55.3324C48.426 55.3324 62.3932 43.514 62.3932 28.9352C62.3932 14.3565 48.426 2.53809 31.1966 2.53809C13.9672 2.53809 0 14.3565 0 28.9352C0 43.514 13.9672 55.3324 31.1966 55.3324Z" fill="#C2A7E4"/>
</g>
<path d="M61.4584 14.1702C49.3055 -6.89099 12.1047 -0.809723 7.51727 23.1684C6.39931 29.0119 7.58473 35.0547 11.2341 39.8124C14.6394 44.2392 19.789 47.23 25.4013 47.4035C26.084 50.9457 27.0994 54.4156 28.4339 57.7671C28.5688 58.1108 29.1085 58.2843 29.3045 57.8795C30.7533 54.8983 32.1507 51.628 32.8029 48.3416C41.0076 54.4807 53.0706 52.2897 59.4827 44.5123C66.4474 36.0698 66.849 23.5057 61.4584 14.1702ZM48.9843 50.2305C43.4684 51.7436 37.3807 50.8505 32.896 47.1851C32.8613 47.1558 32.8223 47.132 32.7804 47.1144C32.7329 47.0776 32.6778 47.0518 32.6192 47.0388C32.5605 47.0257 32.4997 47.0258 32.4411 47.039C32.3825 47.0522 32.3275 47.0782 32.2801 47.1151C32.2327 47.152 32.194 47.1989 32.1668 47.2525C32.0843 47.3389 32.0393 47.4544 32.0415 47.5738C31.0296 50.5678 30.1654 53.2246 28.9157 56.1255C27.7293 53.1081 26.7756 50.0043 26.063 46.8413H26.0855C26.606 46.8413 26.606 46.3338 26.0855 46.3177C15.5228 45.9964 7.58794 36.5967 8.09552 26.2653C8.64807 15.1436 17.2254 6.5694 27.5569 3.57856C37.7823 0.642328 50.3592 2.36102 57.7191 10.6011C64.6452 18.3657 66.1679 30.3708 61.4809 39.6453C58.9077 44.7339 54.529 48.7078 48.9843 50.2305Z" fill="black"/>
<path d="M47.6995 45.9987C47.8212 41.8548 48.0064 37.6898 48.3531 33.5485C48.9723 33.4532 49.094 33.2839 48.3689 33.3077C48.6018 29.8862 48.7897 26.3324 48.1811 22.9612C50.6235 21.5667 57.6861 13.0487 55.3733 10.1379C56.3709 9.43401 52.5049 10.4475 52.1238 10.421C48.1546 10.99 45.1829 13.9616 42.5738 16.7718C35.4556 15.4487 28.2237 14.3903 20.9547 14.5649C20.3619 14.6364 18.4964 14.7263 17.9063 15.3164C17.819 15.4038 18.1841 18.2272 18.1841 18.2272C18.2635 19.0899 20.0603 19.5503 20.862 19.9366C25.3261 21.347 29.6764 23.1755 34.2675 24.152C35.7335 23.6227 29.2901 30.0873 28.9911 32.752C28.6841 33.5088 20.8753 34.8689 20.8276 36.3429C20.78 37.7744 25.0906 36.2502 26.8556 37.6659C29.1551 39.5183 29.081 44.1279 29.298 44.2046C27.7712 46.348 31.6796 42.9265 29.7876 43.6939C30.7402 40.9895 31.1503 38.1131 31.5578 35.2765C34.249 32.8949 37.4482 31.1961 40.7136 29.6772C40.9332 30.7198 41.1079 31.7623 41.2428 32.8049C41.1343 32.9743 41.0073 33.2601 41.3063 33.2945C41.9414 37.1394 41.4704 41.2753 42.6082 45.009C40.8035 45.9008 44.2885 45.6468 44.7675 45.8267C45.2967 45.7553 47.202 46.6814 47.3025 46.1522C47.3375 46.1744 47.3771 46.188 47.4183 46.1921C47.4595 46.1961 47.5011 46.1905 47.5397 46.1755C47.5783 46.1606 47.6129 46.1368 47.6406 46.1061C47.6684 46.0754 47.6885 46.0386 47.6995 45.9987Z" fill="white"/>
<path d="M47.6995 45.9989C47.8556 45.1468 47.7471 44.2074 47.7683 43.3395C47.7921 42.326 47.8397 41.3099 47.8953 40.2964C48.0064 38.3224 48.1599 36.351 48.2975 34.3796L48.3531 33.5487C48.5189 33.5081 48.6856 33.4711 48.8532 33.4376C48.8664 33.4335 48.8777 33.4248 48.8851 33.4131C48.8925 33.4015 48.8955 33.3876 48.8936 33.3739C48.8916 33.3603 48.8849 33.3477 48.8746 33.3385C48.8643 33.3293 48.8511 33.3241 48.8373 33.3238C48.6803 33.3238 48.5242 33.3185 48.3689 33.3079C48.6018 29.8864 48.7897 26.3326 48.1811 22.9614C48.2108 22.9814 48.2458 22.9921 48.2816 22.9921C48.3174 22.9921 48.3525 22.9814 48.3822 22.9614C49.3401 22.3342 50.0863 21.3737 50.8272 20.5057C51.8282 19.3586 52.763 18.1553 53.6269 16.9017C54.7753 15.2161 56.7785 12.2206 55.3866 10.1592C55.3812 10.1528 55.3767 10.1457 55.3733 10.1381C55.4433 10.1019 55.5113 10.0622 55.5771 10.019C55.5916 10.0096 55.6028 9.99588 55.6091 9.97975C55.6154 9.96362 55.6164 9.94592 55.612 9.92918C55.6076 9.91244 55.598 9.89753 55.5846 9.88657C55.5712 9.87561 55.5547 9.86917 55.5374 9.86816C55.0211 9.89677 54.5089 9.97565 54.0079 10.1037C53.3808 10.2148 52.751 10.3101 52.1239 10.4212C50.9209 10.6234 49.7557 11.0071 48.668 11.5591C47.4163 12.2556 46.26 13.1113 45.2279 14.1047C44.6987 14.5889 44.1907 15.097 43.6826 15.605C43.2829 15.9714 42.9089 16.3648 42.5633 16.7826C42.5379 16.7558 42.5044 16.7381 42.468 16.7323C40.5628 16.3963 38.6522 16.0946 36.7364 15.8432C35.5271 15.6421 34.2887 15.4304 33.0582 15.2478C30.9896 14.9531 28.9068 14.7676 26.8186 14.6921C24.8657 14.6074 22.9075 14.5466 20.952 14.5783C20.2064 14.5892 19.4626 14.6547 18.7266 14.7742C18.3905 14.8324 17.9328 14.8668 17.8057 15.2319C17.7846 15.2928 17.8507 15.3431 17.9063 15.3325C19.0468 15.0679 20.3381 15.1658 21.5024 15.1658C23.1034 15.1658 24.7043 15.2108 26.3052 15.2822C25.6807 15.3193 25.0033 15.3007 24.4529 15.6342C24.4164 15.6566 24.3872 15.6892 24.3688 15.7279C24.3503 15.7667 24.3435 15.8099 24.3491 15.8524C24.3547 15.8949 24.3725 15.9349 24.4003 15.9675C24.4281 16.0002 24.4647 16.0241 24.5058 16.0364C25.1012 16.2243 25.7442 16.0734 26.3581 16.0364C27.1282 15.994 27.8956 15.9887 28.6656 15.9993C29.1948 15.9993 29.7241 16.0205 30.2533 16.039C30.253 16.0434 30.253 16.0478 30.2533 16.0523L30.2374 16.1422C29.7082 17.1478 29.089 18.0977 28.6021 19.1324C28.2521 19.8455 28.0317 20.6152 27.9511 21.4054C27.1202 21.1223 26.2893 20.8418 25.4532 20.5719C24.1804 20.1644 22.8837 19.8257 21.6056 19.4261C20.4625 19.0662 19.3352 18.5555 18.1789 18.2618C18.1259 18.2486 18.0624 18.3121 18.0995 18.3624C18.7345 19.2144 19.9094 19.5875 20.8568 19.9712C22.1799 20.5005 23.5611 20.8524 24.9054 21.2943C26.0988 21.6912 27.2684 22.149 28.4566 22.5618C28.5092 22.5882 28.5653 22.6069 28.6233 22.6174L29.3086 22.8476C30.9311 23.3778 32.5812 23.8195 34.2517 24.1707C34.3163 24.1743 34.3803 24.1561 34.4334 24.1189C34.4864 24.0817 34.5254 24.0277 34.5441 23.9657C34.5627 23.9037 34.5599 23.8372 34.5362 23.7769C34.5124 23.7166 34.469 23.6661 34.4131 23.6335C33.5134 23.3407 32.6172 23.0381 31.7246 22.7259C31.754 22.6086 31.7734 22.4891 31.7828 22.3686C31.8513 21.6816 32.0535 21.0146 32.3782 20.4052C32.9524 19.1959 33.7013 18.0236 33.8918 16.6767C33.9103 16.5577 33.7409 16.4624 33.6801 16.5921C33.1059 17.7776 32.2009 18.7884 31.5579 19.9289C31.3456 20.3001 31.1573 20.6846 30.9942 21.08C30.9942 20.9662 31.0233 20.855 31.0419 20.7439C31.1418 20.1999 31.2753 19.6626 31.4414 19.135C31.7791 18.0963 32.2478 17.1049 32.836 16.1846V16.166C32.9815 16.166 33.127 16.1846 33.2726 16.1978C34.683 16.3063 36.0907 16.4624 37.5064 16.6159L37.6308 16.6371C39.0121 16.8726 40.4622 17.2192 41.8647 17.1319C41.9116 17.1307 41.9566 17.1129 41.9917 17.0816L42.3489 17.1134C42.3018 17.1988 42.2602 17.2872 42.2246 17.378C42.2018 17.4217 42.1936 17.4716 42.201 17.5204C42.2084 17.5691 42.2311 17.6143 42.2658 17.6493C42.3006 17.6843 42.3455 17.7074 42.3942 17.7152C42.4429 17.7231 42.4928 17.7152 42.5368 17.6929C43.1692 17.4283 43.6297 16.8593 44.0954 16.3698C44.5611 15.8803 45.093 15.3298 45.6063 14.8244C46.6203 13.7944 47.76 12.8965 48.9987 12.1518C50.0572 11.5379 51.2638 11.2071 52.4387 10.9134C53.2617 10.7096 54.2911 10.6197 55.1034 10.2677C55.1054 10.2817 55.1099 10.2951 55.1167 10.3074C55.6115 11.223 55.3257 12.3265 54.9949 13.25C54.5292 14.5492 53.7459 15.7427 52.9547 16.862C52.1046 18.047 51.1894 19.1839 50.2133 20.2676C49.5147 21.0614 48.705 21.7733 48.1255 22.6491L48.0937 22.4798C48.0883 22.4576 48.075 22.4382 48.0561 22.4253C48.0373 22.4124 48.0144 22.4069 47.9918 22.4098C47.9692 22.4128 47.9484 22.424 47.9335 22.4413C47.9187 22.4586 47.9107 22.4808 47.9112 22.5036C47.9112 24.4829 48.0091 26.457 47.9614 28.4363C47.9191 30.061 47.8291 31.6884 47.7286 33.3105C47.0879 33.3351 46.4492 33.3961 45.8154 33.4931C44.6802 33.6625 43.5662 33.7286 42.4257 33.7921C42.3156 33.7943 42.211 33.8399 42.1346 33.9192C42.1002 33.6836 42.0658 33.4508 42.0261 33.2179C42.2907 33.1306 42.5553 32.9374 42.8014 32.8422C43.3952 32.6262 44.0024 32.4494 44.6193 32.3129C45.7281 32.0483 46.7918 31.8499 47.7762 31.2545C47.8043 31.2443 47.8272 31.2234 47.8398 31.1963C47.8525 31.1693 47.8539 31.1383 47.8437 31.1103C47.8335 31.0822 47.8126 31.0593 47.7855 31.0466C47.7585 31.034 47.7275 31.0326 47.6995 31.0428C46.5669 31.3074 45.3788 31.3868 44.2277 31.5455C43.5947 31.6237 42.9731 31.7756 42.3754 31.998C42.1954 32.0642 42.0208 32.1436 41.8461 32.2256C41.6858 31.2818 41.4131 30.3605 41.0338 29.4815L41.3566 29.3016C41.4783 29.2302 41.4016 29.0211 41.264 29.0661L40.8935 29.1958L40.8565 29.1217C40.7824 28.9788 40.5681 29.0767 40.5919 29.2249L40.6077 29.291C38.9384 29.8873 37.3086 30.589 35.7282 31.3921C34.8179 31.8518 33.9532 32.3967 33.1456 33.0195C32.5184 33.5064 31.4335 34.2049 31.3303 35.0544C31.3284 35.0884 31.336 35.1223 31.3524 35.1523C31.3688 35.1822 31.3932 35.207 31.4229 35.2237C30.8328 36.5177 30.6291 38.0207 30.3142 39.3941C30.1236 40.1879 29.9543 40.9818 29.7399 41.7756C29.6394 42.1487 29.523 42.5192 29.3986 42.887C29.2392 43.2329 29.1237 43.5974 29.0546 43.9719C29.0538 44.035 29.0772 44.096 29.1201 44.1423C29.1629 44.1885 29.2219 44.2166 29.2848 44.2207C29.1551 44.4033 29.0387 44.5911 28.9302 44.7499C28.8667 44.8425 28.9937 44.9722 29.0863 44.9087C29.5124 44.615 30.1448 44.2736 30.2798 43.7285C30.2854 43.7051 30.285 43.6807 30.2785 43.6575C30.272 43.6344 30.2596 43.6133 30.2426 43.5963C30.2256 43.5793 30.2045 43.5669 30.1814 43.5604C30.1582 43.5539 30.1338 43.5535 30.1104 43.5591C29.9899 43.5879 29.8759 43.639 29.7743 43.71C29.9659 43.2586 30.1199 42.7921 30.2348 42.3154C30.4769 41.467 30.6756 40.6067 30.8302 39.7381C31.0948 38.2589 31.4044 36.7585 31.5684 35.2634C31.5825 35.2647 31.5967 35.2647 31.6108 35.2634C31.9865 35.1417 32.1903 34.8691 32.4602 34.5966C32.8205 34.2431 33.2042 33.9142 33.6086 33.6122C34.4071 33.031 35.2414 32.5007 36.1066 32.0245C37.607 31.1698 39.2026 30.5056 40.7215 29.6932C40.9412 30.7358 41.1158 31.7784 41.2508 32.821C41.2202 32.8904 41.1848 32.9576 41.1449 33.0221C41.1282 33.0516 41.1195 33.0849 41.1198 33.1188C41.1201 33.1527 41.1292 33.186 41.1464 33.2152C41.1635 33.2444 41.1881 33.2686 41.2176 33.2853C41.247 33.3021 41.2804 33.3108 41.3143 33.3105C41.481 34.6654 41.5948 36.0281 41.69 37.4094C41.7906 38.8701 41.8779 40.3202 42.0155 41.7941C42.1187 42.8685 42.1372 44.0487 42.6162 45.0251C42.5262 45.0428 42.4377 45.0676 42.3516 45.0992C42.087 45.1971 42.0314 45.6099 42.3516 45.6787C42.7025 45.7245 43.057 45.7352 43.41 45.7105C43.8643 45.7214 44.3171 45.7656 44.7649 45.8428C45.5587 45.9698 46.3526 46.1762 47.1226 46.372C47.1495 46.3772 47.1772 46.3752 47.2031 46.3663C47.2289 46.3574 47.252 46.3418 47.2699 46.3212C47.2879 46.3006 47.3001 46.2756 47.3054 46.2487C47.3106 46.2219 47.3087 46.1941 47.2999 46.1683C47.336 46.1909 47.377 46.2045 47.4195 46.2079C47.4619 46.2113 47.5046 46.2044 47.5438 46.1878C47.5831 46.1711 47.6177 46.1453 47.6448 46.1124C47.6719 46.0795 47.6906 46.0406 47.6995 45.9989ZM30.8275 18.7619C30.4385 19.741 29.9755 21.0456 30.0337 22.1252L29.3271 21.8791C29.3536 21.5695 29.2954 21.2308 29.3271 20.9397C29.4305 20.3675 29.571 19.8027 29.7479 19.2488C29.7479 19.2329 29.7479 19.2224 29.7479 19.2091C29.7967 19.4163 29.8867 19.6116 30.0125 19.7833C30.0248 19.8143 30.0479 19.8398 30.0776 19.855C30.1072 19.8702 30.1414 19.8741 30.1737 19.866C30.2061 19.8579 30.2344 19.8384 30.2534 19.811C30.2724 19.7837 30.2808 19.7503 30.2771 19.7172C30.293 19.0953 30.211 18.5052 30.3062 17.8834C30.4015 17.2615 30.5417 16.6953 30.6026 16.0893C30.6053 16.0744 30.6053 16.0592 30.6026 16.0443C31.183 16.0672 31.7625 16.0972 32.3411 16.1343C31.6793 16.9096 31.1662 17.8004 30.8275 18.7619ZM44.9263 45.2236C44.3504 45.075 43.7607 44.9863 43.1666 44.959C43.238 43.8343 42.9417 42.6991 42.8279 41.5719C42.6823 40.1112 42.5924 38.6426 42.4839 37.1792C42.4495 36.7162 42.4071 36.2531 42.3595 35.7926C42.4216 35.8044 42.4853 35.8044 42.5474 35.7926C43.8899 35.5452 45.2465 35.3808 46.6092 35.3005C46.6738 35.3005 46.7357 35.2748 46.7814 35.2292C46.827 35.1835 46.8527 35.1216 46.8527 35.057C46.8527 34.9924 46.827 34.9305 46.7814 34.8849C46.7357 34.8392 46.6738 34.8136 46.6092 34.8136C45.1781 34.6516 43.7321 34.6738 42.3066 34.8797C42.2916 34.8784 42.2766 34.8784 42.2616 34.8797L42.2219 34.5833C42.2851 34.6158 42.3547 34.6339 42.4257 34.6363C44.2012 34.6971 45.9715 34.1467 47.7021 33.7022C47.6862 33.9271 47.673 34.1494 47.6598 34.3717C47.5301 36.3457 47.3793 38.3144 47.2681 40.2885C47.2152 41.2305 47.1755 42.1734 47.1491 43.1172C47.1226 44.0381 46.9929 45.086 47.1888 45.991C47.1946 46.0154 47.2044 46.0386 47.2179 46.0598C46.4971 45.6771 45.7255 45.3991 44.9263 45.2342V45.2236Z" fill="black"/>
<path d="M17.7978 18.0951C17.733 17.6673 17.6932 17.2361 17.6787 16.8037C17.6699 16.0855 17.5567 15.3724 17.3427 14.6868C17.3427 14.663 17.295 14.6656 17.2977 14.6868C17.3342 15.4557 17.3271 16.2261 17.2765 16.9943C17.2765 17.6611 17.1759 18.582 17.6179 19.1324C17.7211 19.262 17.901 19.1324 17.9142 19.0106C17.9143 18.7018 17.8752 18.3941 17.7978 18.0951Z" fill="black"/>
<path d="M35.3816 23.8264C33.9076 25.033 32.7354 26.7663 31.7378 28.3698C31.2086 29.2087 30.7243 30.066 30.2453 30.9313C29.8352 31.6775 29.2107 32.519 29.1578 33.3817C29.1578 33.5378 29.3324 33.5748 29.4224 33.4955C30.0866 32.9662 30.4094 31.9898 30.8063 31.2542C31.2747 30.3862 31.7616 29.5262 32.2776 28.6821C33.2779 27.0388 34.4872 25.557 35.535 23.9507C35.6118 23.8449 35.4662 23.7549 35.3816 23.8264Z" fill="black"/>
<path d="M28.7582 44.2577C28.6691 43.7431 28.5435 43.2355 28.3824 42.7388C28.2157 42.1064 28.094 41.4633 27.9511 40.823C27.7527 39.9312 27.533 38.7272 26.853 38.0313C26.8803 37.9822 26.8964 37.9276 26.9 37.8716C26.9036 37.8155 26.8947 37.7594 26.874 37.7072C26.8532 37.655 26.8211 37.608 26.7799 37.5698C26.7387 37.5316 26.6896 37.503 26.636 37.4861C24.9239 36.9569 23.0531 37.3803 21.3728 36.7585C21.6797 36.6076 21.9549 36.3509 22.2592 36.1895C23.0292 35.8048 23.8249 35.4741 24.6408 35.1999C25.5034 34.8806 26.3625 34.5471 27.2181 34.1996C27.8744 33.935 28.6471 33.7021 29.1472 33.1835C29.1643 33.1653 29.1751 33.1421 29.178 33.1172C29.1809 33.0924 29.1757 33.0673 29.1633 33.0457C29.1508 33.024 29.1317 33.0069 29.1088 32.997C29.0859 32.987 29.0604 32.9847 29.0361 32.9903C28.2687 33.157 27.533 33.5195 26.7868 33.7842C25.8607 34.0911 24.9345 34.3716 24.0057 34.7024C23.3574 34.9379 20.4069 35.7609 20.8488 36.8193C20.8609 36.8431 20.8795 36.863 20.9025 36.8766C20.9254 36.8902 20.9518 36.8969 20.9785 36.8961H21.0235C21.0038 36.9268 20.9907 36.9612 20.985 36.9972C20.9793 37.0332 20.9811 37.07 20.9903 37.1053C20.9995 37.1406 21.0159 37.1736 21.0385 37.2023C21.061 37.2309 21.0892 37.2546 21.1214 37.2718C22.8096 38.0657 24.7175 37.6926 26.4613 38.2244C26.5033 38.237 26.5472 38.2424 26.591 38.2403C26.718 38.6558 26.8953 39.058 27.025 39.4734C27.19 40.0396 27.3182 40.6159 27.4087 41.1987C27.5939 42.2413 27.6362 43.6147 28.3136 44.4773C28.3529 44.5143 28.4026 44.5383 28.4559 44.5463C28.5093 44.5543 28.5638 44.5457 28.6122 44.5218C28.6605 44.4979 28.7004 44.4598 28.7265 44.4126C28.7526 44.3654 28.7637 44.3113 28.7582 44.2577Z" fill="black"/>
<path d="M51.0627 18.7537C52.1609 16.785 52.7483 14.5834 53.8465 12.6146C53.8721 12.5682 53.8852 12.5159 53.8846 12.4629C53.884 12.4099 53.8697 12.358 53.8431 12.3121C53.8164 12.2663 53.7784 12.2281 53.7326 12.2014C53.6868 12.1746 53.6349 12.1602 53.5819 12.1595C53.1215 12.1833 52.6504 12.2098 52.1741 12.2468C52.1878 12.2358 52.2002 12.2234 52.2112 12.2098C52.2376 12.1833 52.2112 12.1357 52.1715 12.1568L51.9968 12.2627L51.7481 12.2865C51.7403 12.2389 51.7197 12.1943 51.6884 12.1575C51.6571 12.1208 51.6164 12.0933 51.5706 12.078C51.5248 12.0628 51.4757 12.0603 51.4287 12.0709C51.3816 12.0816 51.3383 12.1049 51.3035 12.1383C51.2268 12.215 51.1474 12.2891 51.0733 12.3659C49.1099 12.6305 47.2099 13.2576 45.9927 14.9406C45.953 14.9962 46.0324 15.0729 46.0853 15.0332L46.379 14.8347L46.3076 14.9035L46.2838 14.9274L46.1488 15.0597C46.0951 15.1049 46.0616 15.1697 46.0557 15.2396C46.0497 15.3096 46.0718 15.3791 46.1171 15.4328C46.1623 15.4865 46.2271 15.52 46.297 15.5259C46.367 15.5319 46.4365 15.5098 46.4902 15.4645C46.5907 15.491 46.6913 15.5228 46.7892 15.5572C46.7664 15.5989 46.757 15.6467 46.7622 15.694C46.7674 15.7413 46.787 15.7859 46.8183 15.8218C46.8551 15.8766 46.9111 15.9157 46.9752 15.9313C47.0393 15.947 47.107 15.9381 47.1649 15.9064C47.2311 15.8773 47.2973 15.8482 47.3608 15.8138C47.917 16.1133 48.4196 16.5032 48.8479 16.9676C48.9193 17.0416 48.9855 17.1157 49.0517 17.1925C48.9008 17.3962 49.1337 17.7217 49.3666 17.5973C49.5042 17.7879 49.6312 17.9863 49.7555 18.1848C49.9619 18.5156 50.0757 18.849 50.433 19.0342C50.4564 19.0494 50.4831 19.0587 50.5109 19.0614C50.5387 19.0641 50.5667 19.0601 50.5926 19.0497C50.6185 19.0393 50.6416 19.0229 50.6599 19.0018C50.6781 18.9807 50.691 18.9555 50.6976 18.9284C50.6976 18.9151 50.6976 18.8993 50.6976 18.886C50.7639 18.914 50.8384 18.916 50.9061 18.8914C50.9738 18.8669 51.0297 18.8177 51.0627 18.7537ZM51.8804 15.1655C51.9519 15.1073 52.018 15.0464 52.0842 14.9829L51.9783 15.2475C51.9514 15.214 51.9181 15.1861 51.8804 15.1655ZM48.5621 15.8191L48.5198 15.9144L48.2763 15.7583L48.4907 15.6418C48.4891 15.6736 48.4947 15.7053 48.5071 15.7347C48.5194 15.764 48.5382 15.7901 48.5621 15.8112V15.8191ZM47.0935 15.2396C47.0115 15.2158 46.9268 15.1973 46.8448 15.1787C47.2946 14.8533 47.7259 14.504 48.1678 14.1679L47.0935 15.2396ZM50.2398 13.1968L50.2186 13.21L50.2954 13.0777L50.3774 13.0618L50.2398 13.1968ZM49.1178 16.4145L48.9088 16.2213C49.1734 15.8297 49.3666 15.3587 49.7026 14.9962C49.7301 14.9633 49.7491 14.9242 49.7582 14.8824C49.7762 14.8608 49.7957 14.8405 49.8164 14.8215C50.3714 14.4161 50.8341 13.8975 51.1739 13.3C51.1841 13.2797 51.1921 13.2584 51.1977 13.2365L51.5311 12.9083C52.0445 12.8581 52.5578 12.8263 53.0738 12.7998C52.9548 13.0327 52.841 13.2656 52.7325 13.5011C52.6945 13.4811 52.6523 13.4707 52.6094 13.4707C52.5666 13.4707 52.5243 13.4811 52.4864 13.5011C51.2347 14.1706 50.3483 15.3375 49.3666 16.3351C49.332 16.3687 49.3084 16.412 49.299 16.4592C49.2895 16.5065 49.2946 16.5555 49.3136 16.5997L49.1178 16.4145ZM50.1154 17.4889L50.1366 17.4756C50.1469 17.5055 50.1631 17.5329 50.1843 17.5564C50.2055 17.5799 50.2311 17.5988 50.2598 17.6121C50.2884 17.6255 50.3194 17.6329 50.351 17.634C50.3826 17.6351 50.414 17.6298 50.4435 17.6185C50.6007 17.5532 50.7536 17.478 50.9013 17.3936C50.7744 17.608 50.6264 17.8093 50.4594 17.9943C50.3595 17.8137 50.2445 17.642 50.1154 17.4809V17.4889Z" fill="black"/>
<path d="M48.795 19.8467C48.8272 19.7959 48.8411 19.7357 48.8345 19.6759C48.8279 19.6162 48.8011 19.5605 48.7586 19.5179C48.7161 19.4754 48.6603 19.4486 48.6006 19.442C48.5408 19.4354 48.4806 19.4494 48.4298 19.4816L48.2128 19.5848C48.1427 19.5655 48.0678 19.5741 48.0038 19.6086L47.9826 19.6218C47.6958 19.6186 47.4163 19.7118 47.1887 19.8864C47.0937 19.974 47.0203 20.0824 46.9744 20.2032C46.9285 20.324 46.9113 20.4538 46.9241 20.5824L46.9056 20.6168C46.889 20.6491 46.8845 20.6862 46.8927 20.7216C46.9009 20.757 46.9214 20.7883 46.9506 20.8099C46.9728 20.9274 47.0028 21.0432 47.0406 21.1566C46.9797 21.4212 47.2893 21.707 47.5248 21.4582C47.6205 21.3589 47.709 21.2528 47.7894 21.1407C47.9455 21.0084 48.1043 20.8761 48.2499 20.7385C48.4843 20.4768 48.669 20.1746 48.795 19.8467Z" fill="black"/>
<path d="M44.1245 23.3505C43.8387 23.4616 43.7699 23.7633 43.7461 24.0385C43.7468 24.0951 43.7696 24.1492 43.8096 24.1893C43.8497 24.2293 43.9038 24.2521 43.9604 24.2528C44.0875 24.2528 44.225 24.2528 44.3415 24.2528C44.3952 24.2941 44.4619 24.3152 44.5296 24.3123C44.5974 24.3094 44.6619 24.2827 44.7119 24.2369L44.7887 24.1628C44.839 24.1443 44.8892 24.1258 44.9395 24.102C45.3251 23.8725 45.6702 23.5811 45.9609 23.2393C45.9892 23.2064 46.009 23.1671 46.0185 23.1248C46.028 23.0825 46.0269 23.0385 46.0154 22.9966C46.0039 22.9548 45.9823 22.9165 45.9525 22.8849C45.9227 22.8534 45.8856 22.8297 45.8445 22.8159C45.4449 22.6519 44.7675 22.2867 44.3574 22.6175C44.2608 22.7108 44.189 22.8266 44.1483 22.9546C44.1077 23.0825 44.0995 23.2186 44.1245 23.3505Z" fill="black"/>
<path d="M40.5151 27.0052L40.4939 27.0396C40.4172 27.1507 40.5707 27.3042 40.6818 27.2274L40.7162 27.2036C41.0675 27.3083 41.4407 27.3156 41.7959 27.2248C42.2351 27.0581 42.5897 26.6453 42.8993 26.3251C42.9433 26.2892 42.9746 26.24 42.9886 26.1849C43.0025 26.1298 42.9983 26.0717 42.9766 26.0192C42.955 25.9667 42.917 25.9225 42.8683 25.8932C42.8195 25.864 42.7627 25.8512 42.7061 25.8567C42.558 25.8382 42.3568 25.7826 42.1504 25.7456C42.0815 25.7062 42 25.6948 41.9229 25.7138C41.7548 25.6859 41.5823 25.7129 41.4307 25.7906C41.2665 25.9066 41.1544 26.0823 41.1184 26.2801L41.0602 26.3383C40.8488 26.4758 40.6685 26.6561 40.531 26.8676C40.5096 26.9101 40.5039 26.9589 40.5151 27.0052Z" fill="black"/>
<path d="M38.4511 28.0924C37.7642 28.1826 37.1252 28.4938 36.6305 28.9789C36.5874 29.0203 36.558 29.074 36.5461 29.1326C36.5343 29.1913 36.5407 29.2521 36.5644 29.307C36.5278 29.3871 36.4986 29.4704 36.4771 29.5558C36.4673 29.5963 36.4681 29.6387 36.4794 29.6788C36.4907 29.7189 36.5121 29.7555 36.5416 29.785C36.5711 29.8144 36.6076 29.8359 36.6478 29.8472C36.6879 29.8585 36.7302 29.8593 36.7708 29.8495C37.6731 29.6299 38.2659 29.2859 38.7633 28.4999C38.9036 28.2803 38.6707 28.0527 38.4511 28.0924Z" fill="black"/>
<path d="M45.3179 16.8439C45.325 16.7969 45.3192 16.7488 45.3013 16.7048C45.2834 16.6608 45.2539 16.6224 45.216 16.5937C45.1781 16.565 45.1331 16.547 45.0859 16.5417C45.0386 16.5364 44.9908 16.5439 44.9475 16.5634C44.6295 16.7111 44.3436 16.9197 44.106 17.1773C44.0451 17.2223 43.9869 17.2673 43.9313 17.3176C43.9061 17.3381 43.8863 17.3645 43.8738 17.3945C43.8614 17.4246 43.8566 17.4572 43.8599 17.4896C43.6436 17.8172 43.4935 18.184 43.418 18.5692C43.4125 18.596 43.4157 18.6239 43.427 18.6487C43.4383 18.6736 43.4572 18.6943 43.481 18.7078C43.5048 18.7213 43.5322 18.7269 43.5594 18.7239C43.5866 18.7209 43.6121 18.7094 43.6323 18.6909C43.8754 18.4636 44.0761 18.1948 44.2251 17.8971C44.2977 17.7632 44.3866 17.6388 44.4897 17.5266C44.7951 17.4105 45.076 17.2382 45.3179 17.0186C45.3303 17.0076 45.3402 16.9942 45.347 16.9792C45.3538 16.9641 45.3573 16.9478 45.3573 16.9312C45.3573 16.9147 45.3538 16.8984 45.347 16.8833C45.3402 16.8683 45.3303 16.8549 45.3179 16.8439Z" fill="black"/>
<path d="M39.9277 21.3975L39.7609 21.5166C39.7322 21.5454 39.7127 21.5821 39.7048 21.6221C39.6969 21.662 39.701 21.7034 39.7166 21.741C39.7321 21.7786 39.7584 21.8108 39.7922 21.8335C39.826 21.8561 39.8658 21.8683 39.9065 21.8685C40.2796 21.8315 40.7427 21.8394 41.0602 21.6039C41.3778 21.3684 41.5762 20.9873 41.7985 20.6698C41.8152 20.6419 41.8257 20.6108 41.8295 20.5785C41.8333 20.5463 41.8303 20.5136 41.8205 20.4826C41.8108 20.4516 41.7946 20.423 41.773 20.3987C41.7514 20.3744 41.7249 20.355 41.6953 20.3417C41.6831 20.3057 41.6633 20.2729 41.6373 20.2452C41.6113 20.2176 41.5796 20.1959 41.5445 20.1816C41.5094 20.1673 41.4716 20.1608 41.4337 20.1623C41.3958 20.1639 41.3586 20.1736 41.3248 20.1908C41.0601 20.3182 40.8242 20.4983 40.6315 20.7201C40.4088 20.8557 40.1996 21.0126 40.007 21.1884C39.9775 21.214 39.9548 21.2464 39.941 21.2829C39.9271 21.3194 39.9225 21.3588 39.9277 21.3975Z" fill="black"/>
<path d="M36.9825 24.5887C37.0045 24.6182 37.0354 24.64 37.0705 24.6509C37.1057 24.6619 37.1434 24.6614 37.1783 24.6496C37.3118 24.6012 37.4402 24.54 37.562 24.467C37.5805 24.5623 37.6996 24.6417 37.7737 24.5464C37.8444 24.4583 37.9048 24.3624 37.9536 24.2606C38.2448 24.0988 38.5274 23.9222 38.8004 23.7314C38.8547 23.7005 38.8973 23.6525 38.9215 23.5948C38.9457 23.5372 38.9501 23.4732 38.9341 23.4128C38.9181 23.3523 38.8825 23.2989 38.833 23.2608C38.7834 23.2227 38.7227 23.2021 38.6602 23.2021C38.5293 23.2026 38.3985 23.2105 38.2685 23.226C38.241 23.2127 38.2099 23.2087 38.1799 23.2144C38.1499 23.2201 38.1226 23.2353 38.1018 23.2577C37.9236 23.2918 37.7659 23.3944 37.6626 23.5435C37.6626 23.5594 37.6467 23.5753 37.6387 23.5885C37.3328 23.7238 37.0477 23.902 36.792 24.1177C36.747 24.1532 36.7148 24.2023 36.7001 24.2576C36.6854 24.313 36.6891 24.3716 36.7106 24.4247C36.732 24.4778 36.7701 24.5225 36.8192 24.552C36.8682 24.5816 36.9255 24.5945 36.9825 24.5887Z" fill="black"/>
<path d="M36.0113 26.4221H35.8737C35.8718 26.3983 35.8643 26.3753 35.8518 26.3549C35.8393 26.3346 35.8221 26.3175 35.8017 26.3051C35.7813 26.2927 35.7582 26.2854 35.7344 26.2836C35.7106 26.2819 35.6867 26.2858 35.6647 26.2951C35.5774 26.3348 35.4874 26.3692 35.4001 26.4036C35.3249 26.404 35.2498 26.4085 35.1751 26.4168C34.8669 26.5019 34.5783 26.6467 34.3257 26.8428C34.2805 26.8714 34.2428 26.9102 34.2157 26.9563C34.1885 27.0023 34.1727 27.0541 34.1696 27.1075C34.0752 27.2135 33.9869 27.3249 33.905 27.4409C33.8844 27.4779 33.8763 27.5206 33.882 27.5626C33.8878 27.6046 33.907 27.6436 33.9367 27.6737L34.3442 28.1051C34.3782 28.1395 34.4227 28.1615 34.4706 28.1678C34.5186 28.174 34.5672 28.164 34.6089 28.1395C35.2083 27.8069 35.7535 27.3848 36.2257 26.8878C36.2713 26.8508 36.3033 26.7996 36.3166 26.7424C36.3299 26.6852 36.3238 26.6252 36.2992 26.5718C36.2747 26.5184 36.233 26.4747 36.1809 26.4476C36.1288 26.4205 36.0691 26.4116 36.0113 26.4221ZM34.9979 27.3139C34.9654 27.3143 34.9333 27.3065 34.9046 27.2912C34.876 27.276 34.8516 27.2537 34.8338 27.2265C34.978 27.11 35.1421 27.0204 35.318 26.9619H35.3895C35.2625 27.0731 35.1328 27.2001 34.9979 27.3139Z" fill="black"/>
<path d="M32.1691 29.4554C32.1347 29.384 32.0209 29.4343 32.0394 29.5084C32.0669 29.605 32.1137 29.695 32.177 29.773L32.1453 29.8074C32.1077 29.8563 32.0808 29.9125 32.0661 29.9724C32.0514 30.0322 32.0494 30.0945 32.0601 30.1552C32.0708 30.216 32.094 30.2738 32.1283 30.3251C32.1625 30.3763 32.2071 30.4199 32.2591 30.453C32.2815 30.4749 32.3093 30.4904 32.3396 30.4982C32.37 30.506 32.4018 30.5057 32.432 30.4975C32.4622 30.4892 32.4897 30.4732 32.5118 30.451C32.534 30.4288 32.5499 30.4012 32.5581 30.371C32.6216 30.2324 32.6338 30.0758 32.5925 29.9291L32.6348 29.8921C32.7436 29.8108 32.8181 29.6919 32.8439 29.5586C32.8466 29.5278 32.842 29.4967 32.8306 29.468C32.8192 29.4392 32.8012 29.4135 32.778 29.3929C32.7549 29.3723 32.7272 29.3575 32.6973 29.3495C32.6674 29.3415 32.636 29.3406 32.6057 29.3469C32.4761 29.3813 32.4364 29.5189 32.3411 29.6116C32.3411 29.6116 32.3146 29.6354 32.3014 29.6486C32.2442 29.5943 32.1991 29.5285 32.1691 29.4554Z" fill="black"/>
</svg>
