<svg width="74" height="59" viewBox="0 0 74 59" fill="none" xmlns="http://www.w3.org/2000/svg">
<g style="mix-blend-mode:multiply">
<path d="M42.8034 53.6576C60.0328 53.6576 74 41.8392 74 27.2604C74 12.6817 60.0328 0.863281 42.8034 0.863281C25.574 0.863281 11.6068 12.6817 11.6068 27.2604C11.6068 41.8392 25.574 53.6576 42.8034 53.6576Z" fill="#9DD4FF"/>
</g>
<g style="mix-blend-mode:multiply">
<path d="M31.1966 56.1956C48.426 56.1956 62.3932 44.3772 62.3932 29.7985C62.3932 15.2198 48.426 3.40137 31.1966 3.40137C13.9672 3.40137 0 15.2198 0 29.7985C0 44.3772 13.9672 56.1956 31.1966 56.1956Z" fill="#9DD4FF"/>
</g>
<path d="M61.4584 15.0335C49.3055 -6.02771 12.1047 0.0535581 7.51727 24.0317C6.39931 29.8752 7.58473 35.9179 11.2341 40.6757C14.6394 45.1025 19.789 48.0933 25.4013 48.2668C26.084 51.809 27.0994 55.2789 28.4339 58.6303C28.5688 58.9741 29.1085 59.1475 29.3045 58.7428C30.7533 55.7616 32.1507 52.4912 32.8029 49.2048C41.0076 55.3439 53.0706 53.153 59.4827 45.3755C66.4474 36.9331 66.849 24.369 61.4584 15.0335ZM48.9843 51.0938C43.4684 52.6069 37.3807 51.7138 32.896 48.0484C32.8613 48.0191 32.8223 47.9953 32.7804 47.9777C32.7329 47.9409 32.6778 47.9151 32.6192 47.902C32.5605 47.889 32.4997 47.8891 32.4411 47.9023C32.3825 47.9155 32.3275 47.9415 32.2801 47.9784C32.2327 48.0153 32.194 48.0622 32.1668 48.1158C32.0843 48.2022 32.0393 48.3176 32.0415 48.4371C31.0296 51.4311 30.1654 54.0879 28.9157 56.9887C27.7293 53.9714 26.7756 50.8676 26.063 47.7046H26.0855C26.606 47.7046 26.606 47.197 26.0855 47.181C15.5228 46.8597 7.58794 37.4599 8.09552 27.1285C8.64807 16.0068 17.2254 7.43268 27.5569 4.44184C37.7823 1.50561 50.3592 3.2243 57.7191 11.4644C64.6452 19.229 66.1679 31.2341 61.4809 40.5086C58.9077 45.5972 54.529 49.5711 48.9843 51.0938Z" fill="black"/>
<path d="M21.0025 26.9647C21.9057 26.35 23.2604 26.1331 24.3665 26.2704C25.2398 26.3778 25.9181 26.7359 26.2722 27.3247C26.2344 27.6868 26.2822 28.0846 26.2722 28.387C26.3021 28.4248 26.3299 28.4666 26.3578 28.5044L26.4373 28.5263C26.5876 28.3776 26.7478 28.2394 26.9168 28.1125C26.9824 27.7007 33.6964 25.8268 31.6434 25.5781C31.6195 25.5105 31.5976 25.4428 31.5718 25.3792C31.5459 25.3155 31.4365 25.3314 31.4544 25.4011C31.4723 25.4707 31.4822 25.5105 31.4962 25.5662C29.8192 25.4011 28.178 25.8805 27.1336 27.3466C26.9446 27.6112 27.3982 27.8877 27.5872 27.6211C28.5321 26.2863 31.7329 27.0243 31.7468 27.4998C31.735 27.5011 31.7236 27.5051 31.7136 27.5115C31.7036 27.518 31.6951 27.5266 31.689 27.5368C31.6828 27.547 31.6791 27.5585 31.6781 27.5703C31.6771 27.5822 31.6788 27.5941 31.6832 27.6052C31.707 27.6629 31.7289 27.7226 31.7508 27.7843C31.7508 28.4348 31.707 29.0892 31.6454 29.7417L31.6314 29.7298C31.6314 29.7298 31.6195 29.7298 31.6314 29.7298L31.6513 29.7517C31.4524 31.7788 31.152 33.8059 31.8045 35.7952C31.8841 36.0419 31.8682 36.0439 31.4683 36.2269C31.2256 36.3383 31.4922 36.583 31.4285 36.6586C31.1186 37.0332 30.8883 37.4669 30.7515 37.9334C30.6147 38.3999 30.5743 38.8894 30.6328 39.372C30.9491 41.6816 33.6287 43.1955 36.0318 43.1995H36.1591C36.4967 43.2402 36.8381 43.2402 37.1757 43.1995C37.6906 43.14 38.1757 42.9273 38.5682 42.5888C38.8593 42.4269 39.127 42.2261 39.3639 41.992C40.3904 40.9973 40.7087 39.6724 40.6968 38.3356C40.7074 38.3284 40.7165 38.3192 40.7234 38.3084C40.7304 38.2977 40.7352 38.2857 40.7374 38.273C40.7396 38.2604 40.7393 38.2475 40.7364 38.235C40.7335 38.2225 40.7282 38.2107 40.7206 38.2003L40.6948 38.1665C40.6948 38.0869 40.6948 38.0054 40.6828 37.9238C40.6709 37.8422 40.5655 37.8462 40.5635 37.9238C40.5635 37.9536 40.5635 37.9835 40.5635 38.0133C40.1 37.5041 39.5032 37.3171 38.9342 37.9079C38.234 38.636 37.8441 39.571 37.11 40.2752C36.2447 41.1047 34.5378 40.9734 33.9649 39.8773C33.7065 39.3268 33.5766 38.7248 33.585 38.1168C33.575 37.7925 33.585 37.4683 33.585 37.146C33.585 36.9053 33.6466 36.6606 33.5372 36.4338C33.5304 36.4217 33.5224 36.4104 33.5133 36.4C33.5619 36.3922 33.6065 36.3684 33.6401 36.3323C33.6736 36.2963 33.6941 36.2501 33.6983 36.2011C33.8814 32.9605 33.396 29.7318 33.3781 26.4892C34.7248 26.9925 35.9483 27.8439 36.6843 28.8068C36.7066 28.8328 36.7371 28.8503 36.7708 28.8565C36.8045 28.8627 36.8393 28.857 36.8693 28.8406C36.8693 29.0176 36.8693 29.1927 36.8574 29.3638C36.9381 29.3797 37.0178 29.4002 37.0961 29.4254H37.11C37.204 29.138 37.3252 28.8602 37.4721 28.5959V28.5362H37.496C37.624 28.3145 37.769 28.103 37.9296 27.9036C38.1783 27.267 38.415 26.6364 39.0436 26.1968C39.71 25.7665 40.5064 25.5841 41.2936 25.6815C42.7884 25.8403 44.2154 26.3891 45.4313 27.273C45.4313 27.3466 45.4313 27.4202 45.4313 27.4938C45.7724 27.8049 46.0829 28.1479 46.3584 28.5183C46.3759 28.2926 46.4064 28.0681 46.4499 27.8459C46.5633 27.2352 46.7264 26.5429 46.7125 25.9242C46.7138 25.8287 46.6889 25.7346 46.6405 25.6522C46.5921 25.5698 46.522 25.5022 46.4379 25.4568C46.4777 19.6559 41.8148 12.6137 34.8183 12.7808C34.4543 10.8751 34.6055 8.97128 34.7029 7.05756C34.7189 6.76115 34.2414 6.67163 34.14 6.9561C33.4636 8.85259 32.762 10.7411 32.0353 12.6217C29.1866 13.314 26.4135 14.2887 24.3963 16.3318C21.6232 19.1407 20.8772 22.7672 19.8408 26.3102C19.8271 26.352 19.8261 26.3969 19.8378 26.4394C19.8494 26.4818 19.8733 26.5199 19.9064 26.5489C19.8646 26.7478 19.8268 26.9308 19.801 27.1258C19.7751 27.3207 19.7512 27.5714 19.7333 27.7962L19.7851 27.8937L19.8805 28.0389L19.9502 28.1244C20.0748 27.9928 20.2077 27.8692 20.348 27.7544C20.3659 27.6191 20.3838 27.4819 20.4077 27.3566C20.4376 27.1696 20.4773 26.9846 20.5211 26.7995C20.537 26.846 20.5633 26.8882 20.5981 26.9229C20.6328 26.9576 20.675 26.984 20.7214 26.9999C20.7679 27.0158 20.8173 27.0209 20.866 27.0148C20.9148 27.0087 20.9614 26.9916 21.0025 26.9647ZM31.6911 38.9622C31.6678 38.864 31.6512 38.7643 31.6414 38.6638L31.6653 38.7036C31.6692 38.7872 31.6792 38.8747 31.6911 38.9622ZM33.9092 42.4694C32.8489 42.0576 31.8841 41.3673 31.3669 40.4144C31.1831 40.0843 31.0655 39.7214 31.0207 39.3462C31.0486 39.4417 31.0804 39.5312 31.1122 39.6107C31.5598 40.7168 32.5246 41.6936 33.6208 42.3142C33.7143 42.3679 33.8117 42.4197 33.9092 42.4694ZM33.0041 11.5256C32.9583 11.7663 32.9086 12.007 32.839 12.2437C32.8309 12.2758 32.8323 12.3096 32.8429 12.341C32.8534 12.3724 32.8728 12.4 32.8986 12.4208L32.6261 12.4824C32.7534 12.1641 32.8787 11.8439 33.0041 11.5256ZM33.6705 10.7119C33.6526 10.6483 33.6347 10.5846 33.6188 10.513C33.6347 10.4653 33.6506 10.4175 33.6685 10.3698C33.6787 10.3289 33.6731 10.2858 33.6528 10.2489C33.6325 10.212 33.599 10.1841 33.5591 10.1708V10.1171L33.7361 9.6576C33.7063 10.0097 33.6844 10.3638 33.6705 10.7119ZM33.6705 12.0408C33.6439 12.0252 33.6137 12.017 33.583 12.017C33.5522 12.017 33.522 12.0252 33.4954 12.0408C33.4954 12.0269 33.4954 12.0129 33.4954 11.999C33.5491 11.9175 33.6009 11.8339 33.6506 11.7504C33.6583 11.7356 33.665 11.7203 33.6705 11.7046C33.6586 11.8041 33.6586 11.9194 33.6586 12.0408H33.6705ZM33.766 12.6376C33.7799 12.6714 33.7978 12.7052 33.8157 12.739C33.6745 12.7271 33.5352 12.7013 33.392 12.6794C33.4257 12.5486 33.4503 12.4157 33.4656 12.2815C33.5487 12.4107 33.6469 12.5296 33.758 12.6356L33.766 12.6376ZM34.0564 9.09462C34.0348 9.06929 34.0054 9.05181 33.9729 9.04489C34.0007 8.96929 34.0306 8.89569 34.0584 8.82009C34.0564 8.9116 34.0564 9.00311 34.0564 9.09462ZM34.2374 11.8518C34.1496 11.7322 34.0692 11.6073 33.9967 11.4778C33.9788 10.881 34.0246 10.2683 34.0624 9.68744C34.0624 9.954 34.0783 10.2186 34.0942 10.4832C34.1148 10.9416 34.1606 11.3985 34.2315 11.8518H34.2374ZM34.2255 12.6257C34.2884 12.6206 34.3502 12.6059 34.4085 12.5819C34.4284 12.6515 34.4503 12.7211 34.4742 12.7808H34.4543C34.4418 12.7785 34.429 12.7785 34.4165 12.7808C34.4095 12.7696 34.4007 12.7595 34.3906 12.751C34.3309 12.7192 34.2752 12.6714 34.2195 12.6257H34.2255ZM34.0405 12.0786C34.0966 12.1632 34.1571 12.2449 34.2215 12.3233C34.1709 12.3277 34.12 12.3209 34.0723 12.3034C34.0564 12.2278 34.0425 12.1542 34.0345 12.0786H34.0405ZM32.0512 12.8942C32.0812 12.9248 32.118 12.9478 32.1586 12.9614C32.1992 12.9749 32.2425 12.9787 32.2848 12.9722C32.3271 12.9658 32.3674 12.9495 32.4021 12.9245C32.4369 12.8995 32.4653 12.8666 32.4849 12.8286C32.4988 12.7908 32.5127 12.755 32.5286 12.7192C32.6997 12.6555 30.9869 13.2762 32.0552 12.8942H32.0512Z" fill="white"/>
<path d="M39.5469 38.184C39.8895 39.0444 39.9731 39.9861 39.7877 40.8935C39.7877 40.9472 39.6782 40.9412 39.6723 40.8935C39.5907 39.9863 39.7558 39.1031 39.4912 38.2079C39.4833 38.1721 39.535 38.1542 39.5469 38.184Z" fill="black"/>
<path d="M38.7214 39.4797C39.0914 40.2754 39.1371 41.3318 38.2439 41.847C38.1842 41.8828 38.1146 41.8032 38.1544 41.7535C38.4067 41.4808 38.6087 41.1656 38.7512 40.8225C38.8885 40.4028 38.8109 39.9054 38.7114 39.4857C38.7015 39.4757 38.7174 39.4698 38.7214 39.4797Z" fill="black"/>
<path d="M32.2123 33.2198C32.6382 33.6431 32.8889 34.2113 32.9145 34.8112C32.9145 34.9405 32.6877 34.9286 32.6937 34.7993C32.6939 34.2466 32.485 33.7143 32.1089 33.3093C32.0512 33.2417 32.1526 33.1581 32.2123 33.2198Z" fill="black"/>
<path d="M36.4257 17.402C36.3581 17.4358 36.2685 17.3682 36.2984 17.3026C36.4794 16.9047 36.8952 16.5924 37.1697 16.2363C37.5877 15.7124 37.8503 15.0818 37.9276 14.4161C37.9396 14.3126 38.1266 14.3206 38.1087 14.428C38.0593 15.0121 37.8747 15.5767 37.5696 16.0771C37.311 16.5307 36.9191 17.1534 36.4257 17.402Z" fill="black"/>
<path d="M38.785 17.4616C39.0976 16.9307 39.3689 16.3768 39.5967 15.8044C39.6643 15.6373 39.9747 15.6771 39.9488 15.8681C39.8557 16.3969 39.672 16.9057 39.4057 17.372C39.2187 17.7281 39.0078 18.4204 38.5821 18.5656C38.5634 18.5739 38.5432 18.5782 38.5228 18.5782C38.5023 18.5782 38.4821 18.5739 38.4634 18.5657C38.4447 18.5575 38.4279 18.5454 38.4141 18.5303C38.4003 18.5153 38.3897 18.4975 38.3832 18.4781C38.2539 18.122 38.608 17.758 38.785 17.4616Z" fill="black"/>
<path d="M38.3912 21.2301C38.3036 21.244 38.1922 21.1604 38.24 21.0749C38.3934 20.8351 38.597 20.6315 38.8368 20.4781C39.1962 20.1953 39.5292 19.8804 39.8314 19.5372C40.4024 18.868 40.8224 18.0836 41.0628 17.2375C41.0887 17.148 41.2458 17.1778 41.2379 17.2693C41.1544 18.1319 40.818 18.9505 40.2711 19.6227C40.0033 19.9678 39.7043 20.2874 39.3779 20.5776C39.1053 20.8421 38.795 21.1624 38.3912 21.2301Z" fill="black"/>
<path d="M39.6384 22.4615C39.9766 22.0636 40.5496 21.8269 40.9534 21.4668C41.4146 21.0515 41.7833 20.5439 42.0356 19.9768C42.0594 19.9211 42.1629 19.9331 42.1529 19.9987C42.0607 20.593 41.7755 21.1403 41.3413 21.5564C40.9673 21.9542 40.3725 22.551 39.7757 22.6425C39.6703 22.6604 39.5648 22.549 39.6384 22.4615Z" fill="black"/>
<path d="M43.4062 22.4076C43.4062 22.4023 43.4083 22.3973 43.412 22.3935C43.4158 22.3898 43.4208 22.3877 43.4261 22.3877C43.4314 22.3877 43.4364 22.3898 43.4402 22.3935C43.4439 22.3973 43.446 22.4023 43.446 22.4076C43.4241 23.828 41.5124 24.1045 40.4322 24.6774C40.277 24.759 40.1457 24.5282 40.3049 24.4486C41.3711 23.9234 43.1536 23.7146 43.4062 22.4076Z" fill="black"/>
<path d="M32.4908 17.5437C32.4621 17.5421 32.4351 17.5292 32.4159 17.5077C32.3967 17.4863 32.3868 17.4581 32.3884 17.4293C32.39 17.4006 32.4029 17.3736 32.4244 17.3544C32.4458 17.3352 32.474 17.3253 32.5028 17.3269C33.1732 17.2513 33.8635 17.1399 34.144 16.5053C34.1877 16.4078 34.3429 16.4555 34.315 16.559C34.0902 17.2771 33.2806 17.6949 32.4908 17.5437Z" fill="black"/>
<path d="M34.4344 19.3456C33.577 19.3177 32.6758 19.3714 31.8483 19.1466C31.8296 19.1437 31.8126 19.1341 31.8003 19.1197C31.788 19.1053 31.7812 19.087 31.7812 19.0681C31.7812 19.0491 31.788 19.0308 31.8003 19.0164C31.8126 19.002 31.8296 18.9925 31.8483 18.9895C32.6898 18.8602 33.579 19.0193 34.4344 19.0909C34.4682 19.0909 34.5005 19.1044 34.5244 19.1282C34.5483 19.1521 34.5617 19.1845 34.5617 19.2183C34.5617 19.252 34.5483 19.2844 34.5244 19.3083C34.5005 19.3322 34.4682 19.3456 34.4344 19.3456Z" fill="black"/>
<path d="M31.7051 20.9511C32.0552 20.7919 32.5147 20.8615 32.8986 20.8078C33.3858 20.7501 33.867 20.6502 34.3369 20.5094C34.3946 20.4895 34.4622 20.5572 34.4046 20.599C34.0286 20.8604 33.6047 21.045 33.1573 21.142C32.7335 21.2395 32.091 21.3967 31.6911 21.1798C31.6679 21.1701 31.6482 21.1534 31.6349 21.132C31.6216 21.1106 31.6153 21.0856 31.6168 21.0605C31.6183 21.0354 31.6276 21.0113 31.6435 20.9917C31.6593 20.9721 31.6808 20.9579 31.7051 20.9511Z" fill="black"/>
<path d="M31.6275 22.2798C31.9438 22.1266 32.4411 22.3196 32.8051 22.2937C33.3204 22.2579 33.7998 22.0132 33.9013 21.5219C33.9013 21.4761 33.9808 21.4781 33.9808 21.5219C33.9808 21.9854 33.8257 22.431 33.2925 22.5901C32.8728 22.7135 31.9 22.8348 31.5877 22.4747C31.5747 22.4604 31.5652 22.4432 31.5601 22.4245C31.5549 22.4058 31.5543 22.3862 31.5582 22.3672C31.562 22.3482 31.5703 22.3304 31.5824 22.3152C31.5944 22.3 31.6099 22.2879 31.6275 22.2798Z" fill="black"/>
<path d="M31.1262 24.1199C31.1082 24.1006 31.0966 24.0762 31.0931 24.0501C31.0895 24.024 31.0942 23.9974 31.1064 23.974C31.1187 23.9507 31.1378 23.9317 31.1613 23.9197C31.1848 23.9077 31.2115 23.9033 31.2376 23.9071C31.7011 23.9886 32.1427 24.106 32.6162 24.0344C33.1779 23.9365 33.6998 23.6796 34.1201 23.2944C34.2176 23.2128 34.3886 23.3421 34.3011 23.4396C33.579 24.2313 32.1367 25.031 31.1262 24.1199Z" fill="black"/>
<path d="M29.5586 13.899C29.6043 13.8452 29.7157 13.885 29.6839 13.9547C29.2025 14.9493 30.1096 15.9857 30.2807 16.9486C30.2855 16.9734 30.2818 16.9991 30.2701 17.0215C30.2584 17.0439 30.2394 17.0617 30.2162 17.0719C30.1931 17.082 30.1672 17.084 30.1427 17.0776C30.1183 17.0711 30.0968 17.0564 30.0818 17.0361C29.4054 16.2324 28.7867 14.8081 29.5586 13.899Z" fill="black"/>
<path d="M28.0208 15.5003C28.0308 15.4605 28.1044 15.4745 28.0984 15.5143C28.0356 16.0489 28.0844 16.5908 28.2416 17.1057C28.3948 17.6369 28.7748 18.0526 29.0692 18.5181C29.1189 18.5957 29.0055 18.6932 28.926 18.6355C27.8995 17.8915 27.7264 16.5885 28.0208 15.5003Z" fill="black"/>
<path d="M26.4254 17.2353C26.4493 17.1855 26.5527 17.1736 26.5607 17.2353C26.6263 17.8778 26.688 18.4288 26.9764 19.0256C27.1469 19.3626 27.3573 19.6779 27.6031 19.9646C27.7722 20.1635 27.8975 20.2391 27.8895 20.4918C27.886 20.5222 27.8707 20.5501 27.847 20.5694C27.8232 20.5888 27.7927 20.598 27.7622 20.5952C27.1953 20.5316 26.7934 19.6244 26.5865 19.2027C26.2981 18.6298 26.125 17.84 26.4254 17.2353Z" fill="black"/>
<path d="M25.1681 20.0736C24.7464 19.4769 24.4997 18.8641 24.5713 18.144C24.5713 18.1102 24.629 18.1142 24.631 18.144C24.6828 18.8801 25.1761 19.5524 25.6416 20.1333C26.0176 20.6068 26.6363 21.128 26.688 21.7387C26.688 21.8063 26.6124 21.8919 26.5348 21.8322C25.9659 21.4025 25.566 20.6466 25.1681 20.0736Z" fill="black"/>
<path d="M24.1954 20.4365C24.2721 20.9928 24.503 21.5164 24.8618 21.9484C25.2457 22.4059 25.8346 22.5929 26.2543 22.9948C26.2708 23.0128 26.2814 23.0355 26.2846 23.0598C26.2878 23.084 26.2834 23.1087 26.2721 23.1304C26.2609 23.1521 26.2432 23.1698 26.2215 23.1811C26.1998 23.1925 26.1751 23.1968 26.1509 23.1937C25.5302 23.1101 24.9891 22.579 24.635 22.1354C24.2658 21.648 24.0517 21.061 24.0203 20.4504C24.0084 20.3549 24.1795 20.345 24.1954 20.4365Z" fill="black"/>
<path d="M24.3903 22.9386C24.5811 23.3499 24.8209 23.7367 25.1045 24.0904C25.393 24.4405 25.7809 24.6872 26.0992 25.0075C26.1124 25.0216 26.1204 25.0399 26.1217 25.0592C26.123 25.0785 26.1175 25.0977 26.1062 25.1134C26.095 25.1291 26.0786 25.1405 26.0599 25.1455C26.0412 25.1505 26.0213 25.1488 26.0037 25.1408C25.0806 24.7748 24.5017 23.8199 24.2531 22.9744C24.2372 22.9108 24.3585 22.873 24.3903 22.9386Z" fill="black"/>
<path d="M21.0025 26.9647C21.9057 26.35 23.2604 26.1331 24.3665 26.2704C25.2398 26.3778 25.9181 26.7359 26.2722 27.3247C26.2344 27.6868 26.2822 28.0846 26.2722 28.387C26.3021 28.4248 26.3299 28.4666 26.3578 28.5044L26.4373 28.5263C26.5876 28.3776 26.7478 28.2394 26.9168 28.1125C26.9824 27.7007 27.0699 27.2133 26.9168 26.8552C26.9605 25.5323 27.0938 24.2691 27.5792 22.998C28.0923 21.709 28.7603 20.4872 29.5685 19.3595C30.3642 18.2335 31.2276 17.1712 32.0432 16.0592C32.465 15.5002 32.8628 14.9392 33.2607 14.3663C33.4593 14.0661 33.6426 13.7561 33.8097 13.4373C35.0628 15.4328 35.8589 17.6807 36.1412 20.0199C36.2981 21.2692 36.3798 22.5267 36.3859 23.7857C36.3859 24.4064 36.376 25.0257 36.3561 25.6437C36.3342 26.2127 36.2248 26.8174 36.368 27.3764C36.3796 27.4099 36.4008 27.4392 36.429 27.4606C36.4572 27.482 36.4911 27.4946 36.5265 27.4967C36.5618 27.4988 36.597 27.4904 36.6276 27.4726C36.6582 27.4547 36.6827 27.4282 36.6982 27.3963C36.923 26.7995 36.8633 26.1232 36.8813 25.5045C36.9031 24.8301 36.9151 24.1557 36.9031 23.4794C36.9008 22.2353 36.7997 20.9934 36.6008 19.7653C36.2029 17.4657 35.4191 15.1899 33.8714 13.312L34.0087 13.0534C34.1056 13.0501 34.2021 13.0388 34.2971 13.0195C34.3351 13.0118 34.369 12.9906 34.3926 12.9599C34.4065 12.9662 34.4212 12.9702 34.4364 12.9718H34.5378C34.5796 13.0752 34.6234 13.1707 34.6731 13.2821C34.7228 13.3935 34.9476 13.3339 34.9158 13.2045C34.8999 13.1349 34.886 13.0653 34.8701 13.0056C36.457 13.1361 37.9996 13.5943 39.4004 14.3514C40.8012 15.1085 42.0298 16.1479 43.0083 17.404C44.8365 19.7136 45.9088 22.5762 45.8829 25.417C45.8157 25.4411 45.7549 25.4802 45.705 25.5311C45.655 25.5821 45.6172 25.6437 45.5945 25.7114C45.5107 26.0957 45.4588 26.4863 45.4393 26.8791C44.186 25.9441 42.6045 25.232 41.0091 25.216C39.3759 25.1981 37.8262 26.1829 37.4741 27.6271C37.3965 27.45 37.0563 27.4461 37.0046 27.645C36.9362 27.9373 36.8989 28.2361 36.8932 28.5362C35.7851 27.0204 33.6964 25.8268 31.6434 25.5781C31.6195 25.5105 31.5976 25.4428 31.5718 25.3792C31.5459 25.3155 31.4365 25.3314 31.4544 25.401C31.4723 25.4707 31.4822 25.5105 31.4962 25.5662C29.8192 25.4011 28.178 25.8805 27.1336 27.3466C26.9446 27.6112 27.3982 27.8877 27.5872 27.6211C28.5361 26.2783 30.0479 25.8805 31.6076 26.0416C31.6918 26.5221 31.7397 27.0082 31.7508 27.4958C31.739 27.4971 31.7276 27.5011 31.7176 27.5076C31.7075 27.514 31.6991 27.5226 31.693 27.5328C31.6868 27.543 31.6831 27.5545 31.6821 27.5663C31.6811 27.5782 31.6828 27.5901 31.6871 27.6012C31.711 27.6589 31.7329 27.7186 31.7548 27.7803C31.7548 28.4308 31.711 29.0853 31.6493 29.7378L31.6354 29.7258C31.6354 29.7258 31.6235 29.7258 31.6354 29.7258L31.6553 29.7477C31.4564 31.7748 31.156 33.8019 31.8085 35.7913C31.8881 36.0379 32.3197 35.9584 32.2382 35.7077C31.8005 34.341 31.8145 32.9406 31.904 31.5301C32.1125 31.8289 32.2936 32.1458 32.4451 32.4771C32.5883 32.8033 32.644 33.1813 32.8171 33.4896C32.8255 33.5042 32.8382 33.5158 32.8535 33.5229C32.8688 33.53 32.8859 33.5321 32.9025 33.5291C32.9191 33.526 32.9343 33.5179 32.9461 33.5059C32.9578 33.4938 32.9656 33.4784 32.9683 33.4618C32.9921 33.1475 32.825 32.8073 32.6878 32.5208C32.4892 32.1138 32.252 31.7268 31.9796 31.365C31.9721 31.3551 31.9625 31.3469 31.9515 31.3411C31.9405 31.3352 31.9283 31.3319 31.9159 31.3312C31.9418 30.9552 31.9716 30.5792 31.9995 30.2033C32.1029 30.3664 32.1984 30.5335 32.3197 30.6906C32.4411 30.8478 32.5883 31.0507 32.7176 31.2377C32.7728 31.3521 32.8599 31.4481 32.9683 31.5142C33.012 31.5361 33.0757 31.5142 33.0777 31.4665C33.0777 31.1939 32.6798 30.7841 32.5028 30.5792C32.3436 30.4042 32.1765 30.2391 32.0094 30.0759C32.0373 29.6642 32.0611 29.2524 32.0711 28.8406C32.1447 29.1529 32.2183 29.4652 32.3138 29.7696C32.3297 29.8173 32.4132 29.8313 32.4292 29.7696C32.5227 29.4513 32.4033 29.133 32.3138 28.8227C32.2422 28.568 32.1626 28.3154 32.0711 28.0667C32.0711 27.7624 32.0412 27.4699 32.0074 27.1616C32.1097 27.5923 32.2345 28.0172 32.3814 28.4348C32.4053 28.4984 32.5207 28.5024 32.5207 28.4348C32.5207 27.639 32.081 26.8433 31.9239 26.0734C32.3573 26.1435 32.7839 26.2507 33.199 26.3937C32.9046 29.5945 33.3562 32.8053 33.199 36.0101H33.0916C32.9146 35.7992 32.6619 35.6381 32.5067 35.4013C32.2924 35.1154 32.1553 34.779 32.1089 34.4246C32.1089 34.4007 32.0711 34.3987 32.0691 34.4246C32.0203 34.7981 32.1041 35.1768 32.3058 35.4948C32.4167 35.6744 32.5453 35.8423 32.6898 35.9962C32.2714 35.9817 31.855 36.0598 31.4703 36.2249C31.2276 36.3363 31.4305 36.6924 31.6692 36.5671C31.7553 36.5218 31.8443 36.4826 31.9358 36.4497C32.2199 36.9608 32.6026 37.4105 33.0618 37.7726C33.0737 37.9238 33.0856 38.067 33.0916 38.1884C33.0947 38.7779 33.2129 39.361 33.4397 39.9052C33.9331 40.9515 35.2301 41.5205 36.4456 41.2062C37.5178 40.9297 38.037 39.8873 38.5463 39.0716C38.783 38.6857 39.0237 38.2023 39.4176 37.9258C39.8632 37.6095 40.2452 38.0093 40.5137 38.3376C40.5234 38.3508 40.5365 38.3611 40.5515 38.3674C40.5357 38.6242 40.5058 38.8798 40.462 39.1333C40.3128 40.1002 39.8785 41.0007 39.2147 41.7194C39.2907 41.5537 39.3488 41.3803 39.3878 41.2022C39.3889 41.1907 39.3859 41.1793 39.3795 41.1697C39.373 41.1602 39.3635 41.1532 39.3525 41.1499C39.3414 41.1466 39.3296 41.1473 39.319 41.1517C39.3084 41.1562 39.2997 41.1642 39.2943 41.1743C39.0857 41.6389 38.7429 42.0305 38.3101 42.2988C37.8773 42.5671 37.3742 42.7 36.8653 42.6803C36.7327 42.6803 36.6001 42.6723 36.4675 42.6564C36.6557 42.5471 36.8329 42.4198 36.9966 42.2764C37.3408 41.9741 37.854 41.5662 37.9634 41.1266C37.9774 41.0729 37.9157 40.9993 37.85 41.0391C37.4303 41.2917 37.1856 41.7791 36.8236 42.0994C36.6177 42.2864 36.3982 42.4579 36.1671 42.6126C35.841 42.5563 35.5212 42.4683 35.2122 42.35H35.2261C35.5225 42.1869 35.9423 41.984 36.0895 41.6916C36.1094 41.6478 36.0557 41.5941 36.0079 41.608C35.6976 41.6975 35.4848 41.99 35.2122 42.1591C35.1446 42.2028 35.075 42.2426 35.0133 42.2804C34.6406 42.1221 34.2831 41.9304 33.945 41.7075C33.758 41.5822 33.573 41.4489 33.394 41.3096C33.6645 41.3395 33.9351 41.3633 34.2056 41.3693C34.242 41.3714 34.2778 41.359 34.305 41.3347C34.3322 41.3105 34.3487 41.2764 34.3508 41.24C34.353 41.2036 34.3405 41.1678 34.3163 41.1406C34.292 41.1134 34.2579 41.0969 34.2215 41.0948C33.8444 41.0639 33.466 41.052 33.0876 41.059C32.9344 40.9257 32.7872 40.7864 32.65 40.6412L32.5704 40.488C32.5704 40.488 32.5704 40.4661 32.5565 40.4542L32.654 40.5C32.7932 40.5636 33.1234 40.7188 33.2766 40.6054C33.2875 40.5968 33.2961 40.5857 33.3016 40.573C33.3072 40.5603 33.3094 40.5464 33.3083 40.5326C33.3071 40.5187 33.3025 40.5054 33.2949 40.4938C33.2873 40.4823 33.2769 40.4727 33.2647 40.4662C33.2548 40.4587 33.2431 40.4539 33.2309 40.4522C33.2806 40.4522 33.1016 40.3587 33.0638 40.3428C32.9134 40.2763 32.7593 40.2186 32.6022 40.1697L32.4212 40.112C32.3337 39.8435 32.274 39.571 32.2123 39.3004C32.3771 39.4561 32.575 39.5725 32.7912 39.6406C32.9563 39.6824 33.1155 39.5033 32.9901 39.376C32.7276 39.1273 32.3496 38.996 32.079 38.7434C32.0393 38.6161 31.9955 38.4908 31.9438 38.3674C31.9321 38.3469 31.9156 38.3296 31.8956 38.3172C31.8755 38.3047 31.8527 38.2975 31.8292 38.2961C31.8057 38.2947 31.7821 38.2992 31.7608 38.3092C31.7395 38.3193 31.721 38.3345 31.707 38.3535C31.6832 38.3276 31.6633 38.2998 31.6434 38.2739C31.6483 38.1951 31.6583 38.1167 31.6732 38.0392C31.7191 37.8571 31.7859 37.6808 31.8722 37.514C31.9785 38.101 32.3124 38.6222 32.8012 38.9642C32.8395 38.9863 32.8847 38.9934 32.928 38.9842C32.9713 38.9749 33.0096 38.9499 33.0355 38.9141C33.0615 38.8782 33.0733 38.834 33.0686 38.79C33.0638 38.746 33.043 38.7053 33.01 38.6758C32.5471 38.3535 32.1712 37.9215 31.9159 37.4185C32.0184 37.2172 32.0793 36.9973 32.095 36.772C32.0945 36.7475 32.0887 36.7235 32.078 36.7015C32.0673 36.6795 32.052 36.6601 32.0331 36.6445C32.0142 36.629 31.9922 36.6178 31.9685 36.6117C31.9448 36.6055 31.9201 36.6045 31.896 36.6089C31.828 36.6276 31.7615 36.6515 31.6971 36.6805C31.6821 36.6628 31.6637 36.6484 31.6429 36.6382C31.6221 36.628 31.5995 36.6221 31.5763 36.621C31.5532 36.6199 31.5301 36.6235 31.5084 36.6317C31.4868 36.6399 31.467 36.6524 31.4504 36.6685C31.1405 37.0431 30.9102 37.4769 30.7734 37.9434C30.6366 38.4099 30.5962 38.8994 30.6547 39.382C30.971 41.6916 33.6506 43.2054 36.0537 43.2094H36.181C36.5186 43.2502 36.8599 43.2502 37.1976 43.2094C37.7124 43.15 38.1976 42.9372 38.5901 42.5987C38.8812 42.4368 39.1489 42.2361 39.3858 42.0019C40.4123 41.0072 40.7306 39.6824 40.7186 38.3455C40.7293 38.3384 40.7383 38.3291 40.7453 38.3184C40.7523 38.3076 40.7571 38.2956 40.7593 38.283C40.7615 38.2703 40.7612 38.2574 40.7583 38.2449C40.7554 38.2324 40.75 38.2206 40.7425 38.2103L40.7167 38.1764C40.7167 38.0969 40.7167 38.0153 40.7047 37.9337C40.6928 37.8522 40.5874 37.8562 40.5854 37.9337C40.5854 37.9636 40.5854 37.9934 40.5854 38.0233C40.1218 37.514 39.5251 37.327 38.9561 37.9178C38.2559 38.6459 37.866 39.5809 37.1319 40.2851C36.2666 41.1147 34.5597 40.9834 33.9868 39.8873C33.7284 39.3368 33.5984 38.7348 33.6068 38.1267C33.5969 37.8025 33.6068 37.4782 33.6068 37.1559C33.6068 36.9152 33.6685 36.6705 33.5591 36.4438C33.5523 36.4317 33.5443 36.4203 33.5352 36.4099C33.5838 36.4021 33.6284 36.3783 33.6619 36.3423C33.6955 36.3062 33.716 36.26 33.7202 36.211C33.9032 32.9704 33.4179 29.7417 33.3999 26.4992C34.7467 27.0025 35.9701 27.8539 36.7062 28.8167C36.7285 28.8427 36.759 28.8603 36.7927 28.8664C36.8264 28.8726 36.8612 28.867 36.8912 28.8505C36.8912 29.0276 36.8912 29.2026 36.8793 29.3737C36.96 29.3896 37.0397 29.4102 37.118 29.4354H37.1319C37.2258 29.148 37.3471 28.8702 37.494 28.6058V28.5462H37.5178C37.6459 28.3244 37.7909 28.1129 37.9515 27.9136C38.2002 27.277 38.4369 26.6464 39.0655 26.2067C39.7246 25.778 40.5124 25.5923 41.2936 25.6815C42.7884 25.8403 44.2154 26.3891 45.4313 27.273C45.4313 27.3466 45.4313 27.4202 45.4313 27.4938C45.7724 27.8049 46.0829 28.1479 46.3584 28.5183C46.3759 28.2926 46.4064 28.0681 46.4499 27.8459C46.5633 27.2352 46.7264 26.5429 46.7125 25.9242C46.7138 25.8287 46.6889 25.7346 46.6405 25.6522C46.5921 25.5698 46.522 25.5022 46.4379 25.4568C46.4777 19.6559 41.8148 12.6137 34.8183 12.7808C34.4543 10.8751 34.6055 8.97128 34.7029 7.05756C34.7189 6.76115 34.2414 6.67163 34.14 6.9561C33.4636 8.85258 32.762 10.7411 32.0353 12.6217C29.1866 13.314 26.4135 14.2887 24.3963 16.3318C21.6232 19.1407 20.8772 22.7672 19.8408 26.3102C19.8271 26.352 19.8261 26.3969 19.8378 26.4394C19.8494 26.4818 19.8733 26.5199 19.9064 26.5489C19.8646 26.7478 19.8268 26.9308 19.801 27.1258C19.7751 27.3207 19.7512 27.5714 19.7333 27.7962L19.7851 27.8937L19.8805 28.0389L19.9502 28.1244C20.0748 27.9928 20.2077 27.8692 20.348 27.7544C20.3659 27.6191 20.3838 27.4819 20.4077 27.3565C20.4376 27.1696 20.4773 26.9845 20.5211 26.7995C20.537 26.846 20.5633 26.8882 20.5981 26.9229C20.6328 26.9576 20.675 26.984 20.7214 26.9999C20.7679 27.0158 20.8173 27.0209 20.866 27.0148C20.9148 27.0087 20.9614 26.9916 21.0025 26.9647ZM31.6911 38.9622C31.6678 38.864 31.6512 38.7643 31.6414 38.6638L31.6653 38.7036C31.6692 38.7872 31.6792 38.8747 31.6911 38.9622ZM33.9092 42.4694C32.8489 42.0576 31.8841 41.3673 31.3669 40.4144C31.1831 40.0842 31.0655 39.7214 31.0207 39.3462C31.0486 39.4417 31.0804 39.5312 31.1122 39.6107C31.5598 40.7168 32.5246 41.6936 33.6208 42.3142C33.7143 42.3679 33.8117 42.4197 33.9092 42.4694ZM33.2428 36.3025C33.2583 36.3204 33.2764 36.3358 33.2965 36.3483C33.2689 36.3607 33.2455 36.3807 33.2289 36.406C33.0518 36.6805 33.0299 37.1142 33.0538 37.522C32.6501 37.2034 32.2849 36.8389 31.9656 36.4358C32.3803 36.3173 32.8128 36.2735 33.2428 36.3065V36.3025ZM33.0041 11.5256C32.9583 11.7663 32.9086 12.007 32.839 12.2437C32.8309 12.2758 32.8323 12.3096 32.8429 12.341C32.8534 12.3724 32.8728 12.4 32.8986 12.4208L32.6261 12.4824C32.7534 12.1641 32.8787 11.8439 33.0041 11.5256ZM33.6705 10.7119C33.6526 10.6483 33.6347 10.5846 33.6188 10.513C33.6347 10.4653 33.6506 10.4175 33.6685 10.3698C33.6787 10.3289 33.6731 10.2858 33.6528 10.2489C33.6325 10.212 33.599 10.1841 33.5591 10.1708V10.1171L33.7361 9.65759C33.7063 10.0097 33.6844 10.3638 33.6705 10.7119ZM33.6705 12.0408C33.6439 12.0252 33.6137 12.017 33.583 12.017C33.5522 12.017 33.522 12.0252 33.4954 12.0408C33.4954 12.0269 33.4954 12.0129 33.4954 11.999C33.5491 11.9175 33.6009 11.8339 33.6506 11.7504C33.6583 11.7356 33.665 11.7203 33.6705 11.7046C33.6586 11.8041 33.6586 11.9194 33.6586 12.0408H33.6705ZM33.766 12.6376C33.7799 12.6714 33.7978 12.7052 33.8157 12.739C33.6745 12.7271 33.5352 12.7013 33.392 12.6794C33.4257 12.5486 33.4503 12.4157 33.4656 12.2815C33.5487 12.4107 33.6469 12.5296 33.758 12.6356L33.766 12.6376ZM34.0564 9.09462C34.0348 9.06929 34.0054 9.05181 33.9729 9.04489C34.0007 8.96929 34.0306 8.89569 34.0584 8.82009C34.0564 8.9116 34.0564 9.00311 34.0564 9.09462ZM34.2374 11.8518C34.1496 11.7322 34.0692 11.6073 33.9967 11.4778C33.9788 10.881 34.0246 10.2683 34.0624 9.68743C34.0624 9.954 34.0783 10.2186 34.0942 10.4832C34.1148 10.9416 34.1606 11.3985 34.2315 11.8518H34.2374ZM34.2255 12.6257C34.2884 12.6206 34.3502 12.6059 34.4085 12.5819C34.4284 12.6515 34.4503 12.7211 34.4742 12.7808H34.4543C34.4418 12.7785 34.429 12.7785 34.4165 12.7808C34.4095 12.7696 34.4007 12.7595 34.3906 12.751C34.3309 12.7192 34.2752 12.6714 34.2195 12.6257H34.2255ZM34.0405 12.0786C34.0966 12.1632 34.1571 12.2449 34.2215 12.3233C34.1709 12.3277 34.12 12.3209 34.0723 12.3034C34.0564 12.2278 34.0425 12.1542 34.0345 12.0786H34.0405ZM20.6146 26.5668C20.5903 26.5825 20.5694 26.6027 20.5529 26.6265C20.5768 26.533 20.6007 26.4415 20.6285 26.348C20.6507 26.1498 20.6547 25.95 20.6405 25.7512C20.6427 25.73 20.6388 25.7086 20.6293 25.6896C20.6198 25.6706 20.605 25.6546 20.5868 25.6437C21.4819 22.4131 22.2697 19.0512 24.8578 16.5605C26.0131 15.4744 27.3629 14.6159 28.8365 14.0301C29.8848 13.5945 30.9809 13.2722 32.0492 12.8902C32.0792 12.9208 32.116 12.9438 32.1566 12.9574C32.1972 12.9709 32.2405 12.9747 32.2828 12.9683C32.3252 12.9619 32.3654 12.9455 32.4001 12.9205C32.4349 12.8955 32.4633 12.8627 32.4829 12.8246C32.4968 12.7868 32.5107 12.751 32.5266 12.7152C32.6937 12.6515 32.8608 12.5859 33.026 12.5162C33.0386 12.5117 33.0492 12.5028 33.0557 12.4911C33.0623 12.4794 33.0645 12.4657 33.0618 12.4526H33.0777C33.0584 12.5536 33.0325 12.6533 33.0001 12.751C32.9944 12.7746 32.9941 12.7991 32.9992 12.8228C33.0044 12.8465 33.0148 12.8688 33.0297 12.8879C33.0446 12.907 33.0636 12.9225 33.0854 12.9333C33.1071 12.944 33.131 12.9497 33.1553 12.9499C33.4358 12.9778 33.6605 13.0315 33.9052 13.0394L33.7899 13.2006L33.7302 13.129C33.6944 13.0872 33.6188 13.129 33.6486 13.1787C33.6785 13.2284 33.6964 13.2563 33.7222 13.2941C32.1885 15.4087 30.3444 17.3264 28.8842 19.4729C27.424 21.6194 26.1091 24.2413 26.3637 26.8751C25.9319 26.357 25.3256 26.0146 24.6589 25.9123C23.3002 25.6358 21.7227 25.781 20.6146 26.5668Z" fill="black"/>
<path d="M53.3946 35.3655L54.8329 36.6964V38.4868L54.2898 40.5576L53.2195 41.795L51.4152 42.348C51.4152 42.348 50.0326 42.0138 49.9352 42.1113C49.8377 42.2088 48.8371 41.1982 48.8371 41.1982L48.284 39.6863V37.8661L49.0241 36.2567L50.341 35.3715L51.9861 34.9736L53.3946 35.3655Z" fill="white"/>
<path d="M49.3344 28.9043L47.7429 30.824L44.7251 35.6899L42.1191 40.3827L41.2836 42.002L42.1191 42.6445C42.1191 42.6445 44.003 41.7951 44.3392 41.7951C44.6754 41.7951 46.8676 37.0406 46.8676 37.0406L49.6527 32.9923L51.7613 29.7199V28.9043L50.4424 29.3022L49.3344 28.9043Z" fill="white"/>
<path d="M42.0316 28.4053L40.6192 28.9046L39.7916 29.9788L39.161 31.2182V33.482L39.8911 35.1869L40.7863 35.6902L41.7491 35.8851L42.7378 35.6902L43.8061 34.7611L44.7351 32.4197L44.1124 29.1354L42.0316 28.4053Z" fill="white"/>
<path d="M42.0137 36.2947C43.0083 36.1196 43.7523 35.3836 44.2915 34.5719C45.2105 33.1894 45.5029 31.2259 44.7132 29.724C44.4298 29.1823 43.9902 28.7383 43.4514 28.4495C42.9126 28.1608 42.2994 28.0406 41.6914 28.1047C41.2048 28.1872 40.7425 28.3765 40.3377 28.6589C39.9328 28.9413 39.5955 29.3098 39.35 29.7379C39.2899 29.7402 39.2319 29.7604 39.1834 29.7958C39.1349 29.8313 39.098 29.8804 39.0775 29.9368C38.6367 31.1412 38.512 32.4384 38.7154 33.7046C38.8447 34.4208 39.3122 35.1767 39.9468 35.495C40.1973 35.79 40.5177 36.0177 40.8786 36.1574C41.2396 36.2971 41.6298 36.3443 42.0137 36.2947ZM41.0628 35.6044C41.1376 35.5801 41.2107 35.5508 41.2816 35.5169C41.3044 35.5034 41.3228 35.4836 41.3344 35.4598C41.3461 35.436 41.3505 35.4093 41.3471 35.383C41.3437 35.3568 41.3327 35.3321 41.3154 35.312C41.2981 35.292 41.2753 35.2774 41.2498 35.2702C40.9219 35.2009 40.5979 35.1146 40.279 35.0116C40.0854 34.7699 39.9334 34.4976 39.8294 34.2059C40.3765 34.7211 41.1822 34.944 41.8486 34.5162C41.8594 34.5118 41.868 34.5032 41.8725 34.4923C41.8769 34.4815 41.8769 34.4694 41.8724 34.4586C41.868 34.4477 41.8594 34.4392 41.8485 34.4347C41.8377 34.4302 41.8256 34.4302 41.8148 34.4347C40.9454 34.8146 40.3984 34.2119 39.7459 33.7563C39.7361 33.7495 39.7254 33.7441 39.714 33.7404C39.6941 33.6409 39.6762 33.5415 39.6623 33.438C39.6769 33.0402 39.6961 32.6423 39.72 32.2444C39.8353 32.4918 40.001 32.7123 40.2066 32.8918C40.4122 33.0713 40.653 33.2059 40.9136 33.2868C40.9593 33.3008 40.9892 33.2312 40.9454 33.2113C40.098 32.8134 39.8712 32.0356 39.7916 31.1941C39.7916 31.0747 39.8036 30.9554 39.8055 30.836C39.9842 30.4093 40.2183 30.008 40.5018 29.6424C40.4814 29.8613 40.4989 30.082 40.5535 30.2949C40.6248 30.6749 40.7165 31.0507 40.8281 31.4209C40.8352 31.4473 40.8525 31.4697 40.8762 31.4833C40.8999 31.497 40.928 31.5006 40.9544 31.4935C40.9808 31.4864 41.0032 31.469 41.0168 31.4454C41.0305 31.4217 41.0341 31.3935 41.027 31.3672C40.9633 31.0827 40.9017 30.7982 40.8499 30.5118C40.7922 30.1915 40.8261 29.8334 40.7107 29.529C40.7026 29.505 40.6855 29.485 40.6629 29.4733C40.9814 29.1487 41.404 28.9466 41.8565 28.9024C41.9142 28.9024 41.9699 28.8924 42.0276 28.8905C41.7053 29.3221 41.6914 30.0164 41.7849 30.4938C41.7868 30.5071 41.7928 30.5194 41.8021 30.5291C41.8114 30.5387 41.8235 30.5452 41.8366 30.5476H41.7272C41.6713 30.548 41.6165 30.5629 41.568 30.5908C41.5196 30.6187 41.4792 30.6586 41.4507 30.7067C41.1225 31.3652 40.5476 32.4971 41.1304 33.1556C41.1542 33.1798 41.1847 33.1964 41.218 33.2033C41.3536 33.5547 41.5777 33.8651 41.8685 34.1045C41.905 34.1413 41.9528 34.1651 42.0043 34.1719C42.0557 34.1787 42.108 34.1683 42.1529 34.1423C42.5024 33.9002 42.7946 33.5845 43.009 33.2175C43.2235 32.8505 43.355 32.4409 43.3943 32.0177C43.448 31.0926 42.6582 30.6251 41.8506 30.5555C41.8623 30.5557 41.8739 30.5533 41.8846 30.5484C41.8953 30.5436 41.9048 30.5365 41.9124 30.5275C41.92 30.5186 41.9255 30.5081 41.9286 30.4968C41.9317 30.4854 41.9322 30.4736 41.9301 30.462C41.8602 30.1179 41.8766 29.7618 41.9779 29.4256C42.0566 29.2294 42.1783 29.0534 42.334 28.9104C42.8247 28.9734 43.2786 29.2039 43.6191 29.5628C43.3525 29.7857 43.0521 30.1298 43.0362 30.4819C43.0362 30.5476 43.1337 30.5456 43.1377 30.4819C43.1595 30.1218 43.4778 29.8971 43.6966 29.6444C44.0013 29.9899 44.2189 30.4032 44.3312 30.8499C44.3531 30.9355 44.369 31.025 44.385 31.1145C44.3261 31.1532 44.2708 31.1972 44.2198 31.2458C44.0972 31.3656 43.998 31.5073 43.9274 31.6636C43.8757 31.769 44.0328 31.8625 44.0866 31.7571C44.1516 31.627 44.2361 31.5075 44.3372 31.403C44.361 31.3801 44.3862 31.3589 44.4128 31.3393C44.4671 32.205 44.2834 33.0691 43.8817 33.8379C43.7823 33.9439 43.6745 34.0417 43.5594 34.1303C43.0483 34.4859 42.4529 34.7013 41.8327 34.755C41.8273 34.7565 41.8225 34.7598 41.8191 34.7643C41.8157 34.7687 41.8139 34.7742 41.8139 34.7798C41.8139 34.7855 41.8157 34.7909 41.8191 34.7954C41.8225 34.7999 41.8273 34.8032 41.8327 34.8047C42.4224 34.8303 43.0083 34.6977 43.5295 34.4208C43.4488 34.5349 43.3618 34.6445 43.2689 34.749C43.1342 34.8488 43.0131 34.9658 42.9089 35.0971C42.7979 35.1914 42.6795 35.2766 42.5548 35.3518C42.3337 35.4266 42.0919 35.4109 41.8824 35.308C41.767 35.2563 41.6636 35.4254 41.7809 35.4811C41.8727 35.5251 41.9687 35.5598 42.0674 35.5845L41.948 35.6243C41.66 35.7141 41.3505 35.7072 41.0668 35.6044H41.0628ZM41.6019 32.0236C41.672 31.7491 41.77 31.4825 41.8943 31.2279C43.2411 31.3811 42.7318 32.9029 41.9978 33.6529C41.7367 33.4453 41.5588 33.151 41.4965 32.8233C41.5223 32.6821 41.5323 32.5389 41.5462 32.3917C41.5711 32.3184 41.6017 32.2473 41.6377 32.1788C41.6477 32.1668 41.6551 32.1528 41.6594 32.1378C41.6638 32.1227 41.6649 32.107 41.6629 32.0915C41.6608 32.0759 41.6556 32.061 41.6475 32.0476C41.6394 32.0343 41.6286 32.0227 41.6158 32.0137L41.6019 32.0236Z" fill="black"/>
<path d="M43.0859 33.6008C43.3617 33.4091 43.6077 33.1779 43.816 32.9145C44.0149 32.6698 44.3113 32.3435 44.3392 32.0232C44.3392 31.9755 44.2835 31.9616 44.2536 31.9874C44.0388 32.1704 43.9254 32.5027 43.7663 32.7374C43.568 33.0357 43.3205 33.298 43.0342 33.5132C42.9845 33.551 43.0302 33.6386 43.0859 33.6008Z" fill="black"/>
<path d="M54.1804 35.6879C53.136 34.5957 51.4073 34.54 50.1042 35.1488C48.7117 35.7993 48.0771 37.1381 48.101 38.5704C47.9546 39.1169 47.9468 39.6913 48.0785 40.2415C48.2101 40.7918 48.477 41.3005 48.855 41.7215C49.6964 42.6027 51.0432 42.8236 52.1751 42.5172C54.8289 41.7772 56.1378 37.7309 54.1804 35.6879ZM54.5345 37.6772C54.3245 37.8614 54.1025 38.0316 53.87 38.1865L53.8163 38.2223C53.777 37.9977 53.6931 37.7833 53.5696 37.5917L53.5199 37.52C53.5756 37.4444 53.6253 37.3708 53.6711 37.3112C53.8707 37.0347 54.0207 36.7258 54.1147 36.3981C54.3461 36.7902 54.4894 37.2281 54.5345 37.6812V37.6772ZM51.8847 42.0179C51.4916 42.116 51.082 42.1292 50.6834 42.0565C50.2848 41.9837 49.9062 41.8268 49.5731 41.5961C49.6596 41.3354 49.7065 41.0631 49.7124 40.7885C49.7661 40.323 49.7879 39.8635 49.8238 39.396C49.8238 39.3661 49.784 39.3621 49.776 39.396C49.631 39.7951 49.5166 40.2048 49.4338 40.6214C49.3629 40.8918 49.34 41.1726 49.3662 41.4509C49.305 41.3983 49.2465 41.3426 49.1912 41.2838C48.9756 41.0454 48.8101 40.7663 48.7041 40.4629C48.5982 40.1595 48.5541 39.838 48.5745 39.5173C48.6791 39.3576 48.7998 39.209 48.9345 39.0737C49.1914 38.8396 49.4877 38.6531 49.8098 38.5227C49.8152 38.5212 49.8202 38.5187 49.8246 38.5154C49.829 38.512 49.8327 38.5078 49.8355 38.503C49.8382 38.4982 49.84 38.4929 49.8408 38.4874C49.8415 38.4819 49.8411 38.4763 49.8397 38.4709C49.8382 38.4656 49.8358 38.4606 49.8324 38.4562C49.829 38.4518 49.8248 38.4481 49.82 38.4453C49.8152 38.4425 49.8099 38.4407 49.8044 38.44C49.7989 38.4393 49.7933 38.4397 49.7879 38.4411C49.3515 38.5121 48.9428 38.7013 48.6063 38.9882C48.6381 38.6599 48.6898 38.3297 48.7316 38.0054C49.0831 37.8518 49.4489 37.7331 49.8238 37.6513C49.9352 37.6334 49.8934 37.4803 49.7999 37.4683C49.3324 37.4166 48.9584 37.5479 48.5227 37.6891C48.5015 37.6969 48.4814 37.7076 48.4631 37.721C48.5872 37.2359 48.8145 36.7833 49.1295 36.3941C49.2555 36.5068 49.4082 36.5855 49.5731 36.6229C49.7494 36.6955 49.9375 36.7352 50.1281 36.7402C50.1511 36.7356 50.1718 36.7232 50.1866 36.705C50.2015 36.6869 50.2096 36.6642 50.2096 36.6408C50.2096 36.6173 50.2015 36.5946 50.1866 36.5765C50.1718 36.5583 50.1511 36.5459 50.1281 36.5413C49.9422 36.5268 49.7607 36.4776 49.593 36.3961C49.4918 36.3378 49.3843 36.2911 49.2727 36.2568C49.4391 36.0778 49.6253 35.9183 49.8277 35.7814C50.2458 35.5019 50.7201 35.3177 51.2171 35.2418C51.7142 35.1658 52.2219 35.1999 52.7043 35.3417C52.4755 35.7435 52.2863 36.1666 52.1393 36.605C52.1015 36.7561 52.3383 36.8675 52.4019 36.7144C52.5868 36.287 52.7469 35.8493 52.8813 35.4034C52.9549 35.4313 53.0305 35.4631 53.1021 35.4969C53.4372 35.6554 53.7307 35.8897 53.9595 36.1812C53.8145 36.4906 53.6364 36.7834 53.4284 37.0545C53.3753 37.1273 53.3181 37.197 53.2573 37.2634C52.571 36.7343 51.4669 36.9073 50.7647 37.347C50.5608 37.4614 50.388 37.6241 50.2614 37.8207C50.1349 38.0173 50.0584 38.2419 50.0386 38.4749C50.0461 38.775 50.1587 39.063 50.3569 39.2885C50.6354 40.0266 51.4948 40.3807 52.386 40.2355L52.4457 40.2235C52.4134 40.311 52.401 40.4046 52.4092 40.4974C52.4175 40.5903 52.4462 40.6802 52.4934 40.7606C52.6227 40.9596 53.0484 41.2122 53.2573 41.0013C53.2729 40.9854 53.2816 40.964 53.2816 40.9417C53.2816 40.9194 53.2729 40.898 53.2573 40.882C53.122 40.7288 52.8813 40.7964 52.752 40.6094C52.6686 40.4804 52.6256 40.3294 52.6287 40.1758C52.7754 40.1279 52.9151 40.061 53.0445 39.9768C53.383 40.1196 53.75 40.1822 54.1167 40.1599C53.9084 40.6179 53.5996 41.0232 53.2132 41.3456C52.8268 41.6679 52.3727 41.8991 51.8847 42.0219V42.0179ZM53.128 38.8509C53.0459 39.0264 52.9289 39.1833 52.7843 39.3123C52.6396 39.4412 52.4703 39.5394 52.2865 39.6009C52.1129 39.6625 51.9285 39.6878 51.7447 39.6752C51.561 39.6625 51.3818 39.6121 51.2183 39.5273C51.2428 39.5011 51.2598 39.4688 51.2675 39.4338C51.2752 39.3988 51.2733 39.3624 51.262 39.3283C51.1785 39.012 50.7926 38.837 50.7667 38.5087C50.7468 38.2521 50.9835 38.0472 51.1785 37.9119C51.6122 37.6275 52.3104 37.4723 52.7799 37.7607C52.7734 37.7882 52.7694 37.8161 52.7679 37.8443C52.768 37.8702 52.7766 37.8954 52.7924 37.9159C52.8082 37.9364 52.8304 37.9511 52.8555 37.9577C52.9047 37.9677 52.9554 37.9677 53.0047 37.9577C53.08 38.0415 53.1367 38.1403 53.171 38.2476C53.2053 38.355 53.2164 38.4684 53.2036 38.5803C53.1558 38.6246 53.1196 38.6799 53.0982 38.7415C53.0902 38.7611 53.0888 38.7827 53.0941 38.8032C53.0995 38.8236 53.1114 38.8418 53.128 38.8549V38.8509ZM54.2281 39.8814C54.0187 39.859 53.8079 39.8523 53.5975 39.8615C53.4707 39.8613 53.3443 39.85 53.2195 39.8276C53.3993 39.6748 53.5466 39.4874 53.6525 39.2766C53.7584 39.0657 53.8209 38.8357 53.8362 38.6002L54.0511 38.4212C54.2403 38.2719 54.4095 38.0987 54.5543 37.906C54.5892 38.5802 54.4779 39.2541 54.2281 39.8814Z" fill="black"/>
<path d="M51.2919 36.6628C51.3317 36.7344 51.4252 36.6807 51.4152 36.6111C51.3292 36.1418 51.1006 35.7105 50.7607 35.3757C50.7543 35.37 50.7459 35.3669 50.7373 35.3672C50.7286 35.3675 50.7204 35.371 50.7143 35.3771C50.7082 35.3832 50.7047 35.3914 50.7045 35.4C50.7042 35.4086 50.7072 35.417 50.713 35.4235C51.0293 35.7935 51.0671 36.255 51.2919 36.6628Z" fill="black"/>
<path d="M51.6579 41.7472C51.5585 41.7619 51.4571 41.7426 51.37 41.6924C51.283 41.6422 51.2155 41.5641 51.1785 41.4707C51.1025 41.1937 51.0769 40.9053 51.1029 40.6193C51.1029 40.5497 51.0094 40.5437 50.9875 40.6034C50.9074 40.7779 50.864 40.967 50.8599 41.1589C50.8558 41.3509 50.8911 41.5416 50.9636 41.7194C51.1108 42.0297 51.4251 42.0556 51.7076 41.9342C51.8031 41.8944 51.7613 41.7452 51.6579 41.7472Z" fill="black"/>
<path d="M47.9816 31.6592C47.918 31.6592 47.8742 31.7308 47.9359 31.7666C48.2955 31.9475 48.578 32.2519 48.7316 32.624C48.7973 32.7951 49.0758 32.7195 49.0081 32.5484C48.9343 32.3207 48.7997 32.1175 48.6188 31.9608C48.4379 31.804 48.2175 31.6997 47.9816 31.6592Z" fill="black"/>
<path d="M49.8755 30.9994C49.5447 30.851 49.2301 30.669 48.9365 30.4563C48.925 30.4477 48.9108 30.4435 48.8965 30.4445C48.8822 30.4455 48.8687 30.4517 48.8585 30.4618C48.8484 30.472 48.8422 30.4855 48.8412 30.4998C48.8402 30.5141 48.8444 30.5283 48.853 30.5398C49.1021 30.8269 49.4101 31.0569 49.7561 31.2142C49.8914 31.2719 50.0108 31.069 49.8755 30.9994Z" fill="black"/>
<path d="M52.195 29.0776C52.2197 29.0274 52.2278 28.9706 52.2182 28.9154C52.2086 28.8603 52.1817 28.8096 52.1415 28.7707C52.1012 28.7318 52.0497 28.7066 51.9943 28.6988C51.9388 28.6911 51.8823 28.7011 51.8329 28.7275C51.0969 29.1134 50.3549 29.1771 49.6009 28.7931C49.5586 28.7702 49.5089 28.7647 49.4625 28.7778C49.4162 28.7909 49.3767 28.8215 49.3526 28.8633C49.3285 28.905 49.3216 28.9545 49.3335 29.0012C49.3453 29.0479 49.3749 29.0882 49.4159 29.1134C49.6934 29.2819 49.9974 29.4023 50.3151 29.4695H50.3012L49.6626 29.4993C49.6447 29.4993 49.6275 29.5065 49.6148 29.5191C49.6021 29.5318 49.595 29.549 49.595 29.567C49.595 29.5849 49.6021 29.6021 49.6148 29.6148C49.6275 29.6275 49.6447 29.6346 49.6626 29.6346L50.2335 29.6605C50.4128 29.6926 50.5972 29.6803 50.7707 29.6247C50.7791 29.6196 50.7863 29.6127 50.7917 29.6045C50.7971 29.5963 50.8006 29.587 50.802 29.5773C50.8033 29.5675 50.8024 29.5576 50.7994 29.5483C50.7964 29.5389 50.7913 29.5303 50.7846 29.5232C50.8975 29.5248 51.0105 29.5195 51.1228 29.5073C50.8705 30.0628 50.5703 30.5953 50.2256 31.0987C50.1579 31.1704 50.0903 31.242 50.0266 31.3176C50.0139 31.3348 50.0048 31.3544 49.9996 31.3753C49.9945 31.3961 49.9936 31.4177 49.9968 31.4389C49.9113 31.5623 49.8257 31.6856 49.7402 31.8049C49.2727 32.4734 48.7754 33.1199 48.2979 33.7803C48.2755 33.7399 48.2481 33.7025 48.2164 33.6689C48.1308 33.5834 48.0493 33.4979 47.9578 33.4143C47.7714 33.2605 47.6085 33.0802 47.4744 32.8792C47.3848 32.728 47.172 32.8613 47.2436 33.0164C47.3132 33.1587 47.3993 33.2922 47.5002 33.4143C47.6086 33.5715 47.7362 33.7146 47.8802 33.84C47.96 33.9072 48.0527 33.9573 48.1527 33.9872C47.9796 34.2299 47.8086 34.4746 47.6434 34.7253C47.5758 34.8287 47.5102 34.9341 47.4445 35.0396C47.3649 34.8227 47.0646 34.7094 46.8815 34.584C46.6448 34.4229 46.3942 34.2956 46.1515 34.1464C46.1434 34.1413 46.1339 34.139 46.1245 34.1401C46.115 34.1411 46.1062 34.1453 46.0994 34.152C46.0927 34.1588 46.0885 34.1676 46.0875 34.1771C46.0864 34.1865 46.0886 34.196 46.0938 34.2041C46.2386 34.4356 46.4255 34.6381 46.6448 34.8009C46.8437 34.9461 47.0864 35.1987 47.345 35.1987C47.0268 35.7319 46.7383 36.2849 46.4499 36.8379C46.3659 36.8297 46.2839 36.8075 46.2072 36.7723C46.1134 36.711 46.0341 36.6303 45.9744 36.5355C45.8233 36.2659 45.7025 35.9804 45.6143 35.6841C45.5765 35.5847 45.4154 35.5906 45.4154 35.712C45.4219 36.1186 45.5493 36.514 45.7814 36.8479C45.8415 36.9305 45.9202 36.9978 46.0111 37.0444C46.1019 37.0911 46.2025 37.1157 46.3046 37.1164C46.1375 37.4367 45.9684 37.755 45.7894 38.0693L45.5905 38.4015C45.584 38.3928 45.5759 38.3853 45.5666 38.3796C45.3351 38.2676 45.1271 38.1123 44.9539 37.9221C44.8128 37.7113 44.7241 37.4699 44.6953 37.2179C44.6754 37.0866 44.4963 37.1343 44.4804 37.2457C44.4288 37.5599 44.5 37.8819 44.6794 38.1449C44.7652 38.2782 44.8829 38.388 45.0219 38.4644C45.1608 38.5408 45.3165 38.5814 45.4751 38.5826C45.2881 38.9008 45.0958 39.2165 44.8982 39.5295C44.7806 39.3979 44.6557 39.2731 44.5242 39.1555C44.2556 38.9068 43.9672 38.682 43.7066 38.4274C43.6469 38.3697 43.5713 38.4413 43.6012 38.5089C43.7557 38.8811 43.9822 39.2191 44.2676 39.5036C44.3914 39.6407 44.5425 39.7505 44.7112 39.8259C44.2974 40.4684 43.8637 41.099 43.4042 41.7098C43.3778 41.7444 43.3595 41.7845 43.3505 41.8271C43.0183 41.8172 42.6781 41.8629 42.3558 41.8828C42.1671 41.8939 41.9791 41.9158 41.7929 41.9485C41.7372 41.9591 41.6835 41.971 41.6317 41.9843C41.8724 41.6163 42.0574 41.1886 42.2604 40.8166C42.3897 40.5818 42.517 40.3451 42.6443 40.1103C42.7066 40.3487 42.8283 40.5673 42.9981 40.7458C43.1679 40.9243 43.3802 41.0568 43.6151 41.1309C43.8657 41.2124 43.9612 40.8325 43.7225 40.733C43.5309 40.6678 43.355 40.5634 43.206 40.4263C43.057 40.2893 42.9382 40.1228 42.8571 39.9373C42.8497 39.9188 42.8371 39.9028 42.8209 39.8912C42.8047 39.8796 42.7855 39.8728 42.7656 39.8716L43.1635 39.1296C43.8021 37.936 44.4347 36.7524 45.0792 35.5687C46.3289 33.2876 47.705 31.078 49.2011 28.9503C49.2011 28.9503 49.2011 28.9344 49.1872 28.9503C47.3968 30.7805 46.0719 33.0264 44.7868 35.2186C44.1045 36.3824 43.4539 37.562 42.7975 38.7457C42.4951 39.3027 42.1901 39.859 41.8824 40.4147C41.586 40.9518 41.1622 41.5108 40.9812 42.0997C40.9725 42.1346 40.9721 42.171 40.9799 42.2062C40.9878 42.2413 41.0038 42.274 41.0266 42.3019C41.0494 42.3297 41.0784 42.3518 41.1113 42.3665C41.1442 42.3811 41.18 42.3878 41.216 42.3861C41.2119 42.4121 41.2017 42.4366 41.1861 42.4577C41.1742 42.4737 41.1981 42.4916 41.212 42.4776C41.2406 42.4509 41.2607 42.4163 41.2697 42.3782C41.3049 42.3678 41.3366 42.3478 41.3612 42.3205C41.3731 42.3066 41.3831 42.2906 41.395 42.2787C41.395 42.3006 41.4169 42.3205 41.4268 42.3404C41.4058 42.3501 41.3875 42.3649 41.3737 42.3834C41.3598 42.402 41.3508 42.4237 41.3474 42.4466C41.3441 42.4695 41.3465 42.4929 41.3545 42.5146C41.3624 42.5364 41.3757 42.5558 41.393 42.5711L41.4945 42.6646C41.4801 42.6867 41.4702 42.7113 41.4654 42.7372C41.4606 42.7631 41.461 42.7896 41.4666 42.8153C41.4721 42.8411 41.4827 42.8654 41.4978 42.887C41.5128 42.9086 41.532 42.927 41.5541 42.9411C41.6504 43.0014 41.7524 43.052 41.8585 43.0923L41.9003 43.1281C41.9003 43.148 41.9222 43.1659 41.9321 43.1838C41.949 43.2159 41.9743 43.2428 42.0053 43.2615C42.0364 43.2802 42.0719 43.2902 42.1082 43.2902C42.1444 43.2902 42.18 43.2802 42.211 43.2615C42.242 43.2428 42.2673 43.2159 42.2842 43.1838C42.7158 43.2161 43.1478 43.1272 43.5315 42.9272C43.5862 42.9362 43.642 42.9362 43.6966 42.9272C43.9334 42.8815 44.1422 42.6427 44.2934 42.4299C44.4822 42.2463 44.6546 42.0466 44.8087 41.8331C45.1859 41.3059 45.5256 40.7528 45.8252 40.178C46.422 39.0679 46.9432 37.9141 47.5659 36.8141C49.0021 34.2797 50.9596 32.0596 52.2089 29.4138C52.2392 29.3623 52.254 29.3033 52.2515 29.2436C52.249 29.184 52.2294 29.1264 52.195 29.0776ZM44.1482 41.8908C44.1423 41.9012 44.1356 41.9112 44.1283 41.9206C44.1249 41.9003 44.1196 41.8803 44.1124 41.8609C44.1832 41.7957 44.2496 41.726 44.3113 41.6521L44.1482 41.8908ZM44.6734 41.115L44.6077 41.2164C44.6537 41.1299 44.6949 41.0409 44.7311 40.9498C44.7479 40.9152 44.7521 40.8758 44.743 40.8384C44.7437 40.8338 44.7437 40.8291 44.743 40.8245C44.9526 40.5142 45.1555 40.1999 45.3518 39.8816C45.1469 40.3013 44.9201 40.7131 44.6734 41.115ZM51.1228 29.9748C51.1765 29.8136 51.2242 29.6485 51.264 29.4834L51.3774 29.4595C51.2978 29.6386 51.2123 29.8117 51.1228 29.9788V29.9748Z" fill="black"/>
</svg>
