<svg width="1184" height="22" viewBox="0 0 1184 22" fill="none" xmlns="http://www.w3.org/2000/svg">
<path d="M0.274902 10.9727H1183.98" stroke="#E8E8E8" stroke-width="2" stroke-miterlimit="10"/>
<path d="M149.059 21.9132C155.101 21.9132 159.999 17.0152 159.999 10.9732C159.999 4.93121 155.101 0.0332031 149.059 0.0332031C143.017 0.0332031 138.119 4.93121 138.119 10.9732C138.119 17.0152 143.017 21.9132 149.059 21.9132Z" fill="black"/>
<path d="M601.975 21.9132C608.017 21.9132 612.915 17.0152 612.915 10.9732C612.915 4.93121 608.017 0.0332031 601.975 0.0332031C595.933 0.0332031 591.035 4.93121 591.035 10.9732C591.035 17.0152 595.933 21.9132 601.975 21.9132Z" fill="black"/>
<path d="M1048.33 21.9132C1054.37 21.9132 1059.27 17.0152 1059.27 10.9732C1059.27 4.93121 1054.37 0.0332031 1048.33 0.0332031C1042.28 0.0332031 1037.39 4.93121 1037.39 10.9732C1037.39 17.0152 1042.28 21.9132 1048.33 21.9132Z" fill="#363636"/>
</svg>
