<svg width="186" height="63" viewBox="0 0 186 63" fill="none" xmlns="http://www.w3.org/2000/svg">
<path d="M0.34642 16.1366H24.6595V23.0968H16.4467V50.8704H8.55929V23.0968H0.34642V16.1366Z" fill="black"/>
<path d="M36.6533 28.6179C37.9449 28.5766 39.2318 28.7925 40.4405 29.2532C41.6493 29.7139 42.7561 30.4103 43.6977 31.3026V29.2491H51.1177V50.8031H43.7478V48.3455H43.6643C42.7645 49.3207 41.6739 50.0971 40.4614 50.6259C39.2489 51.1546 37.9409 51.4241 36.6199 51.4174C30.3268 51.4174 25.9282 46.3677 25.9282 40.0303C25.9282 33.6928 30.3935 28.6179 36.6533 28.6179ZM38.8735 45.0884C39.538 45.1145 40.2008 45.0017 40.82 44.7571C41.4393 44.5125 42.0017 44.1415 42.472 43.6673C42.9423 43.1931 43.3102 42.626 43.5527 42.0015C43.7953 41.3771 43.9071 40.7088 43.8813 40.0387C43.8813 38.6994 43.3537 37.415 42.4146 36.468C41.4754 35.521 40.2016 34.9889 38.8735 34.9889C37.5453 34.9889 36.2716 35.521 35.3324 36.468C34.3932 37.415 33.8656 38.6994 33.8656 40.0387C33.8334 40.7104 33.9409 41.3815 34.1812 42.0089C34.4215 42.6363 34.7892 43.206 35.2608 43.6816C35.7324 44.1571 36.2974 44.528 36.9196 44.7702C37.5418 45.0125 38.2073 45.1209 38.8735 45.0884Z" fill="black"/>
<path d="M56.1506 29.2491H63.5705V32.3547H63.654C63.654 32.3547 65.9993 28.6179 70.2393 28.6179C71.8965 28.6192 73.5206 29.0855 74.93 29.9645L71.8251 36.2682C70.6991 35.4541 69.3371 35.0397 67.9524 35.0899C64.0964 35.0899 63.5538 38.9109 63.5538 39.458V50.803H56.1506V29.2491Z" fill="black"/>
<path d="M82.1413 53.1175C82.976 54.4136 84.7454 55.8864 87.9838 55.8864C90.037 55.8864 93.2254 54.6661 93.2254 50.8367V49.2376C91.6312 51.005 89.1189 51.4258 86.181 51.4258C79.8961 51.4258 75.4892 46.3761 75.4892 40.0387C75.4892 33.7013 79.8961 28.6094 86.181 28.6094C88.7237 28.5215 91.2021 29.4259 93.1002 31.1343H93.2254V29.2491H100.645V51.3922C100.645 58.6217 95.3203 62.3333 87.9838 62.3333C83.5018 62.3333 78.3437 61.3233 76.0818 56.0716L82.1413 53.1175ZM88.3928 45.0884C89.0577 45.1157 89.7209 45.0038 90.3408 44.7597C90.9606 44.5156 91.5236 44.1446 91.9941 43.6701C92.4646 43.1956 92.8325 42.628 93.0746 42.003C93.3167 41.3779 93.4277 40.7091 93.4006 40.0387C93.4006 38.6994 92.873 37.415 91.9339 36.468C90.9947 35.521 89.7209 34.9889 88.3928 34.9889C87.0646 34.9889 85.7909 35.521 84.8517 36.468C83.9125 37.415 83.3849 38.6994 83.3849 40.0387C83.3527 40.7104 83.4602 41.3815 83.7005 42.0089C83.9408 42.6363 84.3085 43.206 84.7801 43.6816C85.2517 44.1571 85.8167 44.5279 86.4389 44.7702C87.0611 45.0125 87.7266 45.1209 88.3928 45.0884Z" fill="black"/>
<path d="M111.83 41.0571C111.83 44.373 114.592 45.5092 116.478 45.5092C118.866 45.5092 119.917 45.0463 121.72 43.1106L127.087 45.8038C124.658 49.8773 120.71 51.4343 115.936 51.4343C109.434 51.4343 104.109 46.3088 104.109 40.0471C104.109 33.7854 109.434 28.6179 115.936 28.6179C122.438 28.6179 127.462 32.4809 127.462 40.0471C127.47 40.3843 127.456 40.7217 127.421 41.0571H111.83ZM120.176 36.9331C120.087 35.931 119.611 35.0043 118.85 34.3526C118.09 33.7009 117.106 33.3763 116.111 33.4488C113.557 33.4488 112.13 34.9637 112.005 36.9331H120.176Z" fill="black"/>
<path d="M132.22 21.22H139.64V29.2491H144.172V34.9216H139.64V41.7724C139.64 43.7839 140.141 44.7518 141.309 44.7518C141.975 44.7071 142.614 44.4737 143.154 44.0785L144.998 50.0877C143.308 50.9536 141.443 51.4145 139.548 51.4343C133.639 51.4343 132.211 47.0242 132.211 43.1948V34.9216H129.107V29.2491H132.22V21.22Z" fill="black"/>
<path d="M167.166 20.3363C167.173 21.217 166.92 22.0797 166.439 22.8151C165.959 23.5505 165.272 24.1253 164.467 24.4665C163.662 24.8078 162.774 24.9001 161.917 24.7318C161.06 24.5635 160.272 24.1421 159.652 23.5211C159.033 22.9002 158.611 22.1077 158.439 21.2442C158.267 20.3807 158.353 19.4852 158.687 18.6714C159.021 17.8576 159.587 17.1622 160.314 16.6734C161.04 16.1846 161.894 15.9246 162.768 15.9262C163.931 15.924 165.047 16.3871 165.872 17.2139C166.696 18.0407 167.162 19.1637 167.166 20.3363ZM158.928 50.803H166.348V29.2491H158.928V50.803Z" fill="black"/>
<path d="M172.867 21.22H180.287V29.2491H184.802V34.9216H180.27V41.7724C180.27 43.7839 180.779 44.7518 181.939 44.7518C182.605 44.7094 183.245 44.4758 183.784 44.0785L185.637 50.0877C183.947 50.9536 182.082 51.4145 180.187 51.4343C174.277 51.4343 172.85 47.0242 172.85 43.1948V34.9216H169.779V29.2491H172.875L172.867 21.22Z" fill="black"/>
<path d="M163.377 0.373009H185.637V9.24371H155.056V8.78924C155.056 6.55711 155.935 4.41641 157.5 2.83806C159.065 1.25972 161.188 0.373009 163.402 0.373009H163.377Z" fill="#FCD600"/>
</svg>
