<svg width="52" height="81" viewBox="0 0 52 81" fill="none" xmlns="http://www.w3.org/2000/svg">
<path d="M2.64722 80.0431V73.7198L10.7209 65.8649C30.1722 47.3544 38.9461 37.4209 39.1649 26.0433C39.1649 18.2977 35.4015 11.1649 24.0458 11.1649C18.0759 11.3823 12.3643 13.6546 7.8765 17.5976L4.5945 10.3334C10.6475 5.30604 18.2779 2.57148 26.1463 2.60977C42.5563 2.60977 49.4704 13.8561 49.4704 24.7523C49.4704 38.7993 39.2743 50.1769 23.2144 65.646L17.0442 71.2911V71.5099H51.2645V80.0431H2.64722Z" fill="#FFDF68"/>
<path d="M0.459229 77.8556V71.5323L8.53296 63.6774C27.9843 45.1669 36.7582 35.2334 36.977 23.8558C36.977 16.1102 33.2136 8.97736 21.8579 8.97736C15.888 9.19484 10.1763 11.4671 5.68851 15.4101L2.40651 8.14591C8.4595 3.11854 16.0899 0.383983 23.9583 0.422272C40.3683 0.422272 47.2824 11.6686 47.2824 22.5648C47.2824 36.6118 37.0863 47.9894 21.0264 63.4585L14.8562 69.1036V69.3224H49.0766V77.8556H0.459229Z" stroke="#262626" stroke-width="0.5" stroke-miterlimit="10"/>
</svg>
