<svg width="51" height="81" viewBox="0 0 51 81" fill="none" xmlns="http://www.w3.org/2000/svg">
<path d="M48.468 11.409H19.4114L16.4795 30.9698C18.5351 30.648 20.6127 30.4871 22.6934 30.4884C28.4325 30.3695 34.0988 31.7899 39.1034 34.6018C42.5339 36.5585 45.3656 39.4141 47.2934 42.8609C49.2212 46.3078 50.172 50.2153 50.0434 54.1626C50.0434 69.041 38.2063 80.1779 21.5994 80.1779C14.9624 80.3327 8.40491 78.7085 2.60754 75.4737L5.18937 67.6406C10.1911 70.3694 15.7924 71.813 21.49 71.8416C31.2047 71.8416 39.5191 65.5182 39.5191 55.344C39.4097 45.498 32.8457 38.4527 17.6391 38.4527C14.109 38.4932 10.5857 38.771 7.09292 39.2841L12.0159 2.72266H48.468V11.409Z" fill="#9DD4FF"/>
<path d="M46.2801 9.22152H17.2234L14.2915 28.7823C16.3471 28.4605 18.4247 28.2996 20.5054 28.3009C26.2446 28.182 31.9109 29.6024 36.9154 32.4143C40.346 34.371 43.1777 37.2266 45.1055 40.6734C47.0333 44.1203 47.984 48.0278 47.8554 51.9751C47.8554 66.8535 36.0183 77.9904 19.4114 77.9904C12.7744 78.1452 6.21693 76.521 0.419556 73.2862L3.00138 65.4531C8.0031 68.1819 13.6044 69.6255 19.302 69.6541C29.0168 69.6541 37.3311 63.3307 37.3311 53.1565C37.2217 43.3105 30.6577 36.2652 15.4511 36.2652C11.9211 36.3057 8.39772 36.5835 4.90493 37.0966L9.82794 0.535156H46.2801V9.22152Z" stroke="#262626" stroke-width="0.5" stroke-miterlimit="10"/>
</svg>
