<svg width="59" height="80" viewBox="0 0 59 80" fill="none" xmlns="http://www.w3.org/2000/svg">
<path d="M37.9467 79.0762V58.334H2.56671V51.5294L36.612 2.91211H47.7489V50.2385H58.4045V58.334H47.7489V79.0762H37.9467ZM37.9467 50.2385V24.8358C37.9467 20.8536 38.0779 16.8715 38.2967 12.8675H37.9467C35.6055 17.2435 33.7457 20.613 31.6233 24.1356L13.0035 50.0197V50.2385H37.9467Z" fill="#FFD8BC"/>
<path d="M35.7587 76.887V56.1447H0.378723V49.34L34.424 0.722656H45.5609V48.0491H56.2165V56.1447H45.5609V76.887H35.7587ZM35.7587 48.0491V22.6464C35.7587 18.6642 35.8899 14.6821 36.1087 10.678H35.7587C33.4175 15.054 31.5577 18.4235 29.4354 21.9462L10.8155 47.8303V48.0491H35.7587Z" stroke="#262626" stroke-width="0.5" stroke-miterlimit="10"/>
</svg>
