<svg width="51" height="82" viewBox="0 0 51 82" fill="none" xmlns="http://www.w3.org/2000/svg">
<path d="M5.91824 68.2935C11.03 71.331 16.8427 72.9896 22.7877 73.1071C36.025 73.1071 40.1167 64.6614 40.0073 58.3381C39.8979 47.6825 30.2926 43.0221 20.3153 43.0221H14.5827V35.2984H20.3153C27.8201 35.2984 37.316 31.4257 37.316 22.4111C37.316 16.3066 33.4433 10.9241 23.9474 10.9241C18.4592 11.0642 13.1331 12.8142 8.6314 15.9565L5.94014 8.47355C11.8621 4.61675 18.7838 2.5783 25.8509 2.60973C40.8606 2.60973 47.7309 11.5149 47.7309 20.7701C47.7309 28.625 43.0485 35.2985 33.6839 38.6898V38.9305C43.0485 40.7903 50.6627 47.8357 50.6627 58.4912C50.6627 70.6784 41.1669 81.3339 22.8971 81.3339C15.9524 81.4246 9.11174 79.6408 3.0957 76.1702L5.91824 68.2935Z" fill="#8FF7BF"/>
<path d="M3.73013 66.106C8.84192 69.1435 14.6546 70.8022 20.5996 70.9196C33.837 70.9196 37.9286 62.4739 37.8192 56.1506C37.7098 45.4951 28.1045 40.8346 18.1272 40.8346H12.3946V33.111H18.1272C25.6321 33.111 35.128 29.2382 35.128 20.2236C35.128 14.1191 31.2552 8.73664 21.7593 8.73664C16.2711 8.87668 10.945 10.6267 6.4433 13.7691L3.75204 6.28606C9.67405 2.42926 16.5957 0.3908 23.6629 0.422233C38.6726 0.422233 45.5429 9.3274 45.5429 18.5826C45.5429 26.4376 40.8605 33.111 31.4959 36.5024V36.7431C40.8605 38.6029 48.4747 45.6482 48.4747 56.3038C48.4747 68.4909 38.9789 79.1465 20.709 79.1465C13.7643 79.2372 6.92365 77.4533 0.907593 73.9828L3.73013 66.106Z" stroke="#262626" stroke-width="0.5" stroke-miterlimit="10"/>
</svg>
