<svg width="55" height="82" viewBox="0 0 55 82" fill="none" xmlns="http://www.w3.org/2000/svg">
<path d="M47.4853 10.9863C44.8938 10.8753 42.2977 11.0366 39.7398 11.4677C32.9556 12.4174 26.6774 15.5889 21.8872 20.486C17.097 25.3831 14.0649 31.7297 13.265 38.5333H13.6151C15.7887 35.7421 18.5843 33.4973 21.779 31.9778C24.9738 30.4583 28.4793 29.7061 32.0162 29.7812C45.4943 29.7812 54.9683 39.496 54.9683 54.3744C54.9683 68.3338 45.4942 81.2211 29.675 81.2211C13.3963 81.2211 2.71887 68.5526 2.71887 48.7512C2.71887 33.7634 8.12326 21.9263 15.6062 14.4433C22.2741 8.05909 30.8837 4.0854 40.068 3.15324C42.5503 2.75999 45.0596 2.56248 47.5728 2.5625L47.4853 10.9863ZM44.5534 54.9214C44.5534 43.9814 38.3395 37.4174 28.8655 37.4174C25.7829 37.4913 22.7789 38.4044 20.1766 40.0583C17.5743 41.7122 15.4722 44.0444 14.0965 46.8039C13.291 48.1911 12.8823 49.773 12.9149 51.3768C13.1556 63.8922 18.8882 73.2568 29.675 73.2568C38.5802 73.2131 44.5534 65.8176 44.5534 54.9214Z" fill="#FCB4F0"/>
<path d="M45.2973 8.79881C42.7058 8.68779 40.1097 8.84913 37.5518 9.28017C30.7675 10.2299 24.4894 13.4013 19.6992 18.2985C14.9089 23.1956 11.8768 29.5422 11.077 36.3457H11.427C13.6007 33.5545 16.3962 31.3097 19.591 29.7903C22.7857 28.2708 26.2913 27.5186 29.8281 27.5937C43.3062 27.5937 52.7803 37.3084 52.7803 52.1868C52.7803 66.1462 43.3062 79.0335 27.487 79.0335C11.2082 79.0335 0.530762 66.365 0.530762 46.5636C0.530762 31.5758 5.93516 19.7388 13.4181 12.2558C20.0861 5.87158 28.6957 1.8979 37.88 0.965736C40.3623 0.572487 42.8716 0.374983 45.3848 0.375L45.2973 8.79881ZM42.3654 52.7338C42.3654 41.7938 36.1515 35.2298 26.6774 35.2298C23.5949 35.3038 20.5908 36.2168 17.9885 37.8707C15.3862 39.5246 13.2841 41.8568 11.9084 44.6163C11.1029 46.0036 10.6942 47.5855 10.7269 49.1892C10.9675 61.7046 16.7001 71.0692 27.487 71.0692C36.3921 71.0255 42.3654 63.63 42.3654 52.7338Z" stroke="#262626" stroke-width="0.5" stroke-miterlimit="10"/>
</svg>
