<svg width="15" height="23" viewBox="0 0 15 23" fill="none" xmlns="http://www.w3.org/2000/svg">
<g clip-path="url(#clip0_535_9097)">
<path d="M0.47998 0.749805V21.3998L1.36998 21.7598H5.42998L5.80998 16.9298C5.80998 16.9298 7.80998 16.9298 8.20998 16.9298C8.60998 16.9298 8.57998 13.4998 8.57998 13.4998L6.38998 13.3398H5.29998L5.42998 11.2498C5.42998 11.2498 9.92998 10.3398 10.32 10.3398C10.71 10.3398 13.09 7.9998 13.09 7.9998L13.59 4.7198C13.59 4.7198 12.25 1.5098 12 1.5098C11.75 1.5098 6.99998 0.299805 6.99998 0.299805H1.28998L0.47998 0.749805Z" fill="white"/>
<path d="M5.50997 11.4801C5.81997 11.4801 6.10997 11.3701 6.44997 11.3101C7.09997 11.1801 7.76997 11.1101 8.44997 11.0001C9.67657 10.8244 10.8503 10.3843 11.89 9.71009C12.725 9.10836 13.3614 8.2711 13.7177 7.30551C14.074 6.33993 14.134 5.28997 13.89 4.29009C13.24 0.860089 9.09997 0.110089 5.93997 8.89609e-05C3.994 -0.060704 2.04696 0.0800456 0.129971 0.420089C-2.92957e-05 0.440089 -2.92957e-05 0.610089 0.149971 0.610089C0.609971 0.610089 1.06997 0.610089 1.52997 0.610089L1.99997 0.840089C2.23047 0.968321 2.45411 1.10851 2.66997 1.26009C2.6796 1.26731 2.69151 1.27082 2.70352 1.26996C2.71552 1.26911 2.72682 1.26395 2.73533 1.25544C2.74384 1.24693 2.74899 1.23564 2.74984 1.22363C2.7507 1.21163 2.74719 1.19972 2.73997 1.19009C2.49049 0.9237 2.16632 0.738953 1.80997 0.660089H3.65997L4.42997 1.00009C4.48997 1.00009 4.54997 0.940089 4.48997 0.910089C4.25997 0.840089 3.99997 0.750089 3.81997 0.640089C4.36997 0.640089 4.91997 0.640089 5.46997 0.640089C5.91732 0.955184 6.32967 1.31725 6.69997 1.72009C6.69997 1.72009 6.81997 1.72009 6.77997 1.66009C6.48019 1.25623 6.10282 0.916254 5.66997 0.660089C6.05997 0.660089 6.44997 0.660089 6.83997 0.730089C7.44303 0.961384 7.93372 1.41625 8.20997 2.00009C8.20997 2.05009 8.33997 2.00009 8.29997 1.95009C8.01185 1.41687 7.55449 0.994696 6.99997 0.750089C7.45636 0.789232 7.91033 0.852655 8.35997 0.940089C8.35997 0.940089 8.29997 1.00009 8.34997 1.00009C9.51905 1.37045 10.6032 1.96862 11.54 2.76009C12.0519 3.27725 12.4415 3.90258 12.68 4.59009C12.5901 4.59554 12.4999 4.59554 12.41 4.59009H12.22C12.1587 4.42159 12.0852 4.25781 12 4.10009C11.6594 3.2641 11.0556 2.56195 10.28 2.10009C10.2 2.10009 10.12 2.16009 10.19 2.22009C10.8326 2.74765 11.3775 3.38399 11.8 4.10009C11.8668 4.22887 11.9236 4.3626 11.97 4.50009H11.82V4.59009L12.05 4.67009C12.1477 4.96864 12.2114 5.27726 12.24 5.59009C12.0378 6.23885 11.7193 6.8454 11.3 7.38009C11.2238 7.29505 11.1536 7.20483 11.09 7.11009C11.09 7.11009 11.2 7.32009 11.27 7.42009C10.75 7.92116 10.139 8.31827 9.46997 8.59009C9.17094 8.74329 8.86383 8.88016 8.54997 9.00009C8.20997 9.12009 7.85997 9.21009 7.54997 9.30009C7.48988 9.19148 7.43968 9.07769 7.39997 8.96009C7.39997 8.88009 7.23997 8.96009 7.26997 8.96009C7.30107 9.07312 7.3412 9.18348 7.38997 9.29009C7.13997 9.35009 6.88997 9.40009 6.62997 9.44009C6.60869 9.42305 6.58224 9.41376 6.55497 9.41376C6.52771 9.41376 6.50125 9.42305 6.47997 9.44009C6.10997 9.50009 5.72997 9.55009 5.34997 9.58009C5.33517 9.5702 5.31777 9.56492 5.29997 9.56492C5.28217 9.56492 5.26477 9.5702 5.24997 9.58009L4.99997 9.65009H5.18997C5.29923 10.0174 5.52799 10.3376 5.83997 10.5601C5.44064 10.6403 5.08472 10.8645 4.83997 11.1901C4.82876 11.2128 4.82274 11.2377 4.82237 11.2629C4.822 11.2882 4.82727 11.3133 4.83781 11.3363C4.84835 11.3593 4.86389 11.3796 4.88329 11.3959C4.90269 11.4121 4.92547 11.4238 4.94997 11.4301H5.21997L5.33997 12.3001C5.12997 12.0801 4.90997 11.8801 4.67997 11.6701C4.60997 11.6001 4.49997 11.6701 4.56997 11.7701L5.16997 12.3501L5.38997 12.6101L5.50997 11.4801ZM4.99997 17.1301C5.12997 17.2701 5.24997 17.4201 5.37997 17.5701C5.37997 18.1301 5.37997 18.6901 5.37997 19.2501C5.37997 19.8101 5.37997 20.1001 5.37997 20.5201L5.11997 20.1901C4.93959 19.978 4.74586 19.7776 4.53997 19.5901C4.53997 19.5401 4.39997 19.5901 4.45997 19.6701C4.66906 19.8793 4.86289 20.1032 5.03997 20.3401C5.15997 20.5001 5.24997 20.6801 5.36997 20.8401V21.1201C5.20345 21.1101 5.03649 21.1101 4.86997 21.1201C4.75997 20.9901 4.63997 20.8601 4.53997 20.7201C4.5649 20.5611 4.5649 20.3991 4.53997 20.2401C4.53997 20.2401 4.47997 20.2401 4.46997 20.2401C4.46997 20.4501 4.36997 20.6701 4.30997 20.8801C4.2878 20.9582 4.26109 21.035 4.22997 21.1101C3.84997 21.1101 3.45997 21.1101 3.06997 21.1701C3.30647 20.7654 3.51367 20.3444 3.68997 19.9101C3.68997 19.8301 3.58997 19.8001 3.54997 19.9101C3.33141 20.3692 3.0773 20.8106 2.78997 21.2301H2.42997C2.46657 20.8813 2.48326 20.5308 2.47997 20.1801C2.65997 19.9701 2.84997 19.7601 3.01997 19.5501C3.01997 19.5501 3.01997 19.4801 2.95997 19.5501L2.47997 19.9501C2.47997 19.7201 2.47997 19.4901 2.47997 19.2601C2.47997 19.0301 2.47997 18.9601 2.47997 18.8101L2.87997 18.2201C2.94997 18.1001 2.75997 18.0001 2.67997 18.1101L2.46997 18.4101C2.46997 18.0601 2.46997 17.7101 2.39997 17.3601C2.57643 17.1054 2.70518 16.8208 2.77997 16.5201C2.69366 16.7793 2.56528 17.0226 2.39997 17.2401L2.20997 16.0001V15.6901L2.99997 14.6101C2.99997 14.6101 2.99997 14.5201 2.91997 14.6101L2.17997 15.4901C2.11997 14.9001 2.06997 14.3001 2.00997 13.7101C2.40997 13.1501 2.84997 12.6201 3.24997 12.0701C3.24997 12.0701 3.24997 11.9901 3.16997 12.0701C2.78997 12.5501 2.37997 13.0101 1.98997 13.4901C1.92997 12.9101 1.87997 12.3201 1.82997 11.7401C2.10031 11.1317 2.4995 10.5892 2.99997 10.1501C2.99997 10.1501 2.99997 10.0801 2.99997 10.1001C2.54264 10.4401 2.15835 10.8686 1.86997 11.3601C1.86997 10.7901 1.78997 10.2301 1.76997 9.66009C2.06298 8.94484 2.39687 8.24702 2.76997 7.57009C2.25786 8.30774 1.79678 9.07954 1.38997 9.88009C1.21997 10.2101 1.05997 10.5501 0.909971 10.8801C0.909971 10.2601 0.909971 9.63009 0.839971 9.01009C0.947763 8.6216 1.08139 8.24076 1.23997 7.87009C1.24134 8.20496 1.26809 8.53925 1.31997 8.87009C1.31997 8.96009 1.50997 8.96009 1.51997 8.87009C1.58492 8.34877 1.58492 7.82141 1.51997 7.30009L1.63997 7.07009C2.00778 6.49492 2.28754 5.86799 2.46997 5.21009C2.11642 5.74842 1.79905 6.30965 1.51997 6.89009C1.51997 6.42009 1.45997 5.95009 1.41997 5.47009L1.48997 5.34009C2.03123 4.53137 2.37386 3.60627 2.48997 2.64009C2.22094 3.47931 1.8301 4.27446 1.32997 5.00009C1.32997 4.57009 1.24997 4.15009 1.21997 3.72009C1.31016 3.53796 1.39028 3.35101 1.45997 3.16009C1.7549 2.45648 2.00539 1.73507 2.20997 1.00009C2.20997 1.00009 2.20997 0.950089 2.14997 1.00009C1.86437 1.77041 1.53037 2.5219 1.14997 3.25009C1.12118 2.49977 1.13788 1.74839 1.19997 1.00009C1.19997 0.950089 1.13997 0.950089 1.12997 1.00009C1.03198 1.83972 0.98856 2.68483 0.999971 3.53009L0.659971 4.15009C0.670331 3.01412 0.610216 1.87861 0.479971 0.750089C0.479971 0.731524 0.472596 0.713719 0.459468 0.700592C0.446341 0.687464 0.428536 0.680089 0.409971 0.680089C0.391406 0.680089 0.373601 0.687464 0.360473 0.700592C0.347346 0.713719 0.339971 0.731524 0.339971 0.750089C0.167438 2.49442 0.110647 4.24826 0.169971 6.00009C0.169971 6.40009 0.169971 6.80009 0.169971 7.20009C0.0595539 7.52124 0.0286713 7.86438 0.0799707 8.20009C0.0799707 8.20009 0.0799707 8.27009 0.159971 8.28009V11.4001C0.159971 13.1401 0.159971 14.8901 0.209971 16.6301C0.209971 17.4601 0.209971 18.3001 0.209971 19.1301C0.160358 19.6355 0.160358 20.1446 0.209971 20.6501C0.178366 20.7882 0.131408 20.9224 0.0699707 21.0501C0.0508645 21.0945 0.0411767 21.1424 0.0415185 21.1908C0.0418603 21.2392 0.0522244 21.287 0.0719567 21.3311C0.091689 21.3753 0.120361 21.4149 0.156164 21.4474C0.191966 21.4799 0.234122 21.5047 0.279971 21.5201H0.109971C0.0728404 21.5201 0.0372308 21.5348 0.0109758 21.5611C-0.0152793 21.5873 -0.0300293 21.623 -0.0300293 21.6601C-0.0300293 21.6972 -0.0152793 21.7328 0.0109758 21.7591C0.0372308 21.7853 0.0728404 21.8001 0.109971 21.8001H0.259971C0.249362 21.8412 0.255518 21.8848 0.277085 21.9214C0.298652 21.958 0.333862 21.9845 0.374971 21.9951C0.416079 22.0057 0.459718 21.9995 0.496288 21.978C0.532858 21.9564 0.559362 21.9212 0.569971 21.8801C1.13419 22.0069 1.71184 22.064 2.28997 22.0501C2.28997 22.2101 2.53997 22.2701 2.58997 22.1101C2.58563 22.0903 2.58563 22.0699 2.58997 22.0501C3.49881 21.985 4.41113 21.985 5.31997 22.0501C5.38879 22.0745 5.46199 22.0842 5.5348 22.0785C5.60761 22.0727 5.67839 22.0517 5.74254 22.0168C5.80669 21.9819 5.86277 21.9339 5.90713 21.8759C5.95148 21.8179 5.98312 21.7512 5.99997 21.6801C6.13829 21.3873 6.19363 21.0622 6.15997 20.7401C6.15997 20.2401 6.15997 19.7401 6.15997 19.2501L4.99997 17.1301ZM5.41997 16.6301C5.41997 16.8301 5.41997 17.0301 5.41997 17.2301V16.6301ZM4.77997 12.9101C4.71997 12.8401 4.58997 12.9101 4.63997 12.9801L4.77997 12.9101ZM2.08997 21.2401L1.63997 21.3001C1.75061 21.0263 1.90607 20.7728 2.09997 20.5501C2.08997 20.7801 2.08997 21.0001 2.08997 21.2401ZM2.08997 20.1601C1.67016 20.4596 1.34416 20.8723 1.14997 21.3501H0.759971C0.983033 20.8817 1.2404 20.4305 1.52997 20.0001C1.71997 19.7101 1.91997 19.4301 2.11997 19.1401C2.11997 19.4801 2.10997 19.8201 2.10997 20.1601H2.08997ZM2.08997 18.7301C1.80997 19.1101 1.52997 19.4801 1.25997 19.8701L1.09997 20.1001C1.09997 19.8001 1.09997 19.4901 1.09997 19.2201C1.34629 18.6582 1.68422 18.1412 2.09997 17.6901C2.07997 18.0001 2.09997 18.3701 2.10997 18.7301H2.08997ZM2.02997 17.4901C1.66932 17.8488 1.33512 18.2331 1.02997 18.6401C1.02997 18.2001 1.02997 17.7601 1.02997 17.3201C1.29997 16.8601 1.59997 16.4301 1.91997 15.9901C1.99997 16.4901 1.99997 17.0001 2.04997 17.4901H2.02997ZM1.90997 15.7301C1.59997 16.0901 1.29997 16.4601 1.02997 16.8401V16.7301C1.02997 16.2701 1.02997 15.8101 1.02997 15.3601H0.999971C1.16791 14.9179 1.38957 14.4981 1.65997 14.1101L1.75997 13.9701C1.82997 14.5501 1.87997 15.1401 1.92997 15.7301H1.90997ZM1.73997 13.6601C1.62997 13.8101 1.50997 13.9601 1.39997 14.1201C1.28997 14.2801 1.12997 14.5001 0.989971 14.7201V13.6601C0.989971 13.5801 1.03997 13.5101 1.05997 13.4401C1.20664 13.0534 1.36664 12.6634 1.53997 12.2701C1.53997 12.1701 1.62997 12.0601 1.67997 11.9601C1.68997 12.5301 1.71997 13.0901 1.75997 13.6601H1.73997ZM0.939971 11.4201C1.13997 10.9901 1.30997 10.5401 1.49997 10.1001L1.64997 9.72009C1.64997 10.3401 1.64997 10.9601 1.64997 11.5801L1.43997 12.0001C1.26997 12.3101 1.10997 12.6301 0.959971 12.9501C0.959971 12.4801 0.959971 12.0101 0.959971 11.5501L0.939971 11.4201ZM1.21997 6.87009C1.21997 7.02009 1.21997 7.17009 1.21997 7.32009C1.21997 7.47009 0.919971 7.90009 0.799971 8.20009L0.749971 6.62009C0.869971 6.36009 1.00997 6.10009 1.14997 5.85009C1.16997 6.19009 1.19997 6.53009 1.21997 6.87009ZM0.699971 4.55009C0.833306 4.37791 0.950469 4.1938 1.04997 4.00009V4.83009V5.29009L0.989971 5.39009C0.939971 5.60009 0.829971 5.77009 0.729971 6.00009C0.709971 5.49009 0.699971 5.00009 0.699971 4.55009ZM4.42997 21.0801C4.42997 20.9901 4.42997 20.9001 4.47997 20.8301C4.47529 20.8104 4.47529 20.7898 4.47997 20.7701L4.71997 21.0801H4.42997ZM9.09997 1.10009C9.47191 1.19167 9.83904 1.30181 10.2 1.43009C11.0401 1.71398 11.7822 2.23071 12.34 2.92009H12.25C12.1776 2.92937 12.1041 2.92052 12.036 2.89434C11.968 2.86815 11.9075 2.82546 11.86 2.77009C11.8374 2.76166 11.8125 2.76166 11.79 2.77009C11.059 1.98261 10.13 1.40586 9.09997 1.10009ZM12 3.10009C12.0678 3.12954 12.141 3.14474 12.215 3.14474C12.2889 3.14474 12.3621 3.12954 12.43 3.10009C12.7579 3.5738 12.9796 4.11276 13.08 4.68009C12.9802 4.67051 12.8797 4.67051 12.78 4.68009C12.6113 4.1007 12.3477 3.55327 12 3.06009V3.10009ZM12.44 4.79009L12.75 4.86009C12.8603 5.23367 12.9438 5.61463 13 6.00009C13 6.00009 13.06 6.00009 13.05 6.00009C13.0007 5.59455 12.9205 5.19337 12.81 4.80009C12.8897 4.80972 12.9703 4.80972 13.05 4.80009C13.1621 5.42693 13.145 6.07005 13 6.69009C12.8134 6.59674 12.6149 6.52945 12.41 6.49009C12.5012 5.89454 12.4568 5.28606 12.28 4.71009L12.44 4.79009ZM12.19 6.50009C12.1943 6.48032 12.1943 6.45985 12.19 6.44009V6.50009ZM11.59 7.39009C11.7848 7.15794 11.9557 6.90666 12.1 6.64009H12.16C12.0731 7.04902 11.8992 7.43443 11.65 7.77009L11.42 7.55009L11.59 7.39009ZM11.35 7.65009L11.56 7.90009C11.2548 8.25513 10.8805 8.54433 10.46 8.75009C10.3413 8.6866 10.2175 8.63308 10.09 8.59009C10.5529 8.32274 10.9769 7.99298 11.35 7.61009V7.65009ZM9.70997 8.75009L9.99997 8.60009L10.32 8.77009C9.83549 8.98507 9.31825 9.11692 8.78997 9.16009C9.08997 9.00009 9.40997 8.89009 9.70997 8.75009ZM5.99997 10.5401C5.86997 10.4101 5.71997 10.3001 5.58997 10.1701C5.46241 10.0291 5.36084 9.86655 5.28997 9.69009C5.6497 9.7098 6.01024 9.7098 6.36997 9.69009C6.38422 9.85385 6.44565 10.01 6.54681 10.1395C6.64798 10.2691 6.78455 10.3666 6.93997 10.4201C6.63997 10.4301 6.31997 10.4701 5.99997 10.5401ZM7.31997 10.3401C7.31335 10.32 7.30154 10.302 7.28573 10.288C7.26993 10.2739 7.25069 10.2643 7.22997 10.2601C7.07508 10.242 6.93044 10.1735 6.81838 10.0651C6.70632 9.95662 6.63308 9.8143 6.60997 9.66009C6.87997 9.66009 7.14997 9.58009 7.40997 9.53009C7.44755 9.59404 7.49108 9.65431 7.53997 9.71009C7.69997 9.91009 7.96997 10.2101 8.25997 10.2201C8.27271 10.2194 8.28512 10.2157 8.29614 10.2093C8.30717 10.2029 8.31649 10.1939 8.32334 10.1831C8.3302 10.1724 8.33437 10.1601 8.33552 10.1474C8.33668 10.1347 8.33477 10.1219 8.32997 10.1101C8.18997 9.94009 7.93997 9.85009 7.77997 9.70009C7.7115 9.63491 7.64799 9.56472 7.58997 9.49009C7.91997 9.42009 8.23997 9.33009 8.58997 9.23009H8.73997L8.91997 9.43009C9.04997 9.59009 9.12997 9.78009 9.24997 9.95009C9.36997 10.1201 9.36997 9.95009 9.35997 9.95009C9.28923 9.66936 9.11858 9.42404 8.87997 9.26009C9.43636 9.23968 9.98478 9.12119 10.5 8.91009C10.68 9.03009 10.84 9.17009 11.01 9.30009C10.6864 9.48263 10.3525 9.64624 10.01 9.79009C9.14412 10.0883 8.2433 10.2732 7.32997 10.3401H7.31997ZM11.11 9.17009C10.9562 9.0302 10.7887 8.90623 10.61 8.80009C11.0257 8.61331 11.3971 8.34067 11.7 8.00009C11.8386 8.12369 11.9934 8.22797 12.16 8.31009C11.855 8.64373 11.5049 8.93318 11.12 9.17009H11.11ZM12.58 7.68009C12.4776 7.87361 12.3535 8.05479 12.21 8.22009L11.79 7.88009C12.0591 7.53148 12.2501 7.12904 12.35 6.70009C12.5308 6.78477 12.7181 6.85499 12.91 6.91009C12.8325 7.17794 12.7252 7.43623 12.59 7.68009H12.58Z" fill="#010101"/>
<path d="M4.99998 19C5.09998 19.24 5.05998 19.51 5.17998 19.74C5.1862 19.7504 5.195 19.759 5.20551 19.7649C5.21603 19.7709 5.2279 19.774 5.23998 19.774C5.25206 19.774 5.26393 19.7709 5.27445 19.7649C5.28496 19.759 5.29376 19.7504 5.29998 19.74C5.33915 19.5911 5.34603 19.4356 5.32016 19.2838C5.29429 19.132 5.23626 18.9876 5.14998 18.86C5.08255 18.7247 4.98843 18.6045 4.87328 18.5065C4.75814 18.4085 4.62435 18.3349 4.47998 18.29C4.47998 18.29 4.47998 18.29 4.47998 18.29C4.71589 18.4738 4.89595 18.7197 4.99998 19Z" fill="#010101"/>
<path d="M3.89001 6.10961C3.88576 6.12023 3.88419 6.13173 3.88541 6.1431C3.88664 6.15447 3.89064 6.16537 3.89705 6.17484C3.90346 6.18431 3.9121 6.19207 3.9222 6.19743C3.93231 6.20279 3.94357 6.20559 3.95501 6.20559C3.96645 6.20559 3.97771 6.20279 3.98782 6.19743C3.99792 6.19207 4.00656 6.18431 4.01297 6.17484C4.01938 6.16537 4.02338 6.15447 4.02461 6.1431C4.02583 6.13173 4.02426 6.12023 4.02001 6.10961C4.19001 5.69961 4.37001 5.26961 4.58001 4.86961C4.58001 5.21961 4.49001 5.56961 4.45001 5.92961C4.3799 6.50684 4.34982 7.08823 4.36001 7.66961C4.3373 7.8697 4.35964 8.07233 4.42539 8.26266C4.49114 8.45299 4.59864 8.62621 4.74001 8.76961C4.75876 8.7785 4.77926 8.78312 4.80001 8.78312C4.82076 8.78312 4.84126 8.7785 4.86001 8.76961C4.75257 8.9456 4.68753 9.14416 4.67001 9.34961C4.67001 9.39961 4.75001 9.39961 4.76001 9.34961C4.79308 9.1308 4.87512 8.92229 5.00001 8.73961C5.0248 8.34333 5.0248 7.94589 5.00001 7.54961C5.00001 6.99961 5.00001 6.43961 5.00001 5.88961C5.00001 4.96961 5.15001 4.05961 5.11001 3.13961C5.47043 3.31453 5.8545 3.43581 6.25001 3.49961C6.69358 3.62637 7.12793 3.78341 7.55001 3.96961C7.94405 4.10408 8.30256 4.32596 8.5987 4.61863C8.89483 4.9113 9.12091 5.26718 9.26001 5.65961C9.48001 6.65961 8.81001 7.31961 8.00001 7.79961C7.61337 8.08739 7.17041 8.29045 6.70002 8.39556C6.22963 8.50066 5.74237 8.50545 5.27001 8.40961C5.19001 8.40961 5.07001 8.40961 5.13001 8.52961C5.79001 9.32961 7.13001 8.89961 7.94001 8.52961C8.45897 8.35343 8.91975 8.03845 9.27234 7.61888C9.62492 7.1993 9.85584 6.69116 9.94001 6.14961C9.93779 5.63689 9.79123 5.13515 9.5171 4.70186C9.24298 4.26856 8.85237 3.92122 8.39001 3.69961C7.88272 3.4038 7.34233 3.16885 6.78001 2.99961C6.29762 2.777 5.77962 2.64158 5.25001 2.59961H5.18001C5.1145 2.60505 5.05198 2.62937 5.00001 2.66961C4.99482 2.65662 4.98585 2.64548 4.97426 2.63763C4.96267 2.62978 4.949 2.62559 4.93501 2.62559C4.92102 2.62559 4.90734 2.62978 4.89576 2.63763C4.88417 2.64548 4.8752 2.65662 4.87001 2.66961C4.87001 2.91961 4.81001 3.15961 4.77001 3.40961V3.50961C4.62089 3.7538 4.50329 4.01588 4.42001 4.28961C4.42468 4.30031 4.43237 4.30943 4.44214 4.31582C4.45191 4.32222 4.46333 4.32563 4.47501 4.32563C4.48669 4.32563 4.49811 4.32222 4.50788 4.31582C4.51765 4.30943 4.52534 4.30031 4.53001 4.28961C4.61697 4.15718 4.69066 4.0165 4.75001 3.86961L4.63001 4.70961C4.35326 5.15974 4.10607 5.6274 3.89001 6.10961Z" fill="#010101"/>
<path d="M3.50001 7.99965C3.61001 7.72965 3.65001 7.41965 3.74001 7.13965C3.86877 6.78867 4.03649 6.45324 4.24001 6.13965H4.18001C3.75784 6.67947 3.48536 7.32101 3.39001 7.99965C3.39001 8.07965 3.48001 8.07965 3.50001 7.99965Z" fill="#010101"/>
<path d="M4.18002 7.53993C3.93014 7.99682 3.75141 8.48915 3.65002 8.99993C3.65002 9.0132 3.65529 9.02591 3.66467 9.03529C3.67405 9.04467 3.68676 9.04993 3.70002 9.04993C3.71329 9.04993 3.726 9.04467 3.73538 9.03529C3.74476 9.02591 3.75002 9.0132 3.75002 8.99993C3.87692 8.51931 4.03731 8.04816 4.23002 7.58993C4.23002 7.58993 4.20002 7.50993 4.18002 7.53993Z" fill="#010101"/>
<path d="M6.33994 13.5104C6.09472 13.9517 5.91612 14.4268 5.80994 14.9204C5.80994 14.9804 5.88994 15.0004 5.90994 14.9204C6.03683 14.4398 6.19723 13.9686 6.38994 13.5104C6.38994 13.5104 6.35994 13.4804 6.33994 13.5104Z" fill="#010101"/>
<path d="M7.81992 13.6602C7.57627 14.1022 7.39775 14.5771 7.28992 15.0702C7.28992 15.1302 7.36992 15.1602 7.38992 15.0702C7.51527 14.5891 7.6757 14.1178 7.86992 13.6602H7.81992Z" fill="#010101"/>
<path d="M6.62998 15.4106C6.38476 15.8519 6.20616 16.327 6.09998 16.8206C6.09998 16.8338 6.10524 16.8466 6.11462 16.8559C6.124 16.8653 6.13671 16.8706 6.14998 16.8706C6.16324 16.8706 6.17595 16.8653 6.18533 16.8559C6.19471 16.8466 6.19998 16.8338 6.19998 16.8206C6.32538 16.3428 6.48582 15.8748 6.67998 15.4206C6.67998 15.4206 6.64998 15.3806 6.62998 15.4106Z" fill="#010101"/>
<path d="M5.30994 13.3C5.85455 13.1139 6.42455 13.0127 6.99994 13C7.2691 12.97 7.54077 12.97 7.80994 13C8.07994 13 8.35994 13.09 8.62994 13.14L8.87994 13.19V13.36C8.76007 13.9507 8.76007 14.5594 8.87994 15.15C8.99096 15.7443 9.05781 16.3459 9.07994 16.95V17.35H8.61994C8.07985 17.3862 7.53758 17.3728 6.99994 17.31C6.42775 17.2627 5.86166 17.1589 5.30994 17V16.91C5.85958 16.7308 6.42571 16.6069 6.99994 16.54C7.54058 16.4733 8.08622 16.4565 8.62994 16.49L8.19994 16.93C8.21202 16.3252 8.27896 15.7227 8.39994 15.13C8.52491 14.5399 8.52491 13.9301 8.39994 13.34L8.61994 13.55C8.34994 13.55 8.06994 13.67 7.79994 13.7C7.53031 13.72 7.25957 13.72 6.98994 13.7C6.43102 13.6704 5.879 13.5627 5.34994 13.38L5.30994 13.3Z" fill="#010101"/>
</g>
<defs>
<clipPath id="clip0_535_9097">
<rect width="14.01" height="22.23" fill="white"/>
</clipPath>
</defs>
</svg>
