<svg width="107" height="107" viewBox="0 0 107 107" fill="none" xmlns="http://www.w3.org/2000/svg">
<path d="M55.8189 106.254C83.6121 106.254 106.143 83.7227 106.143 55.9295C106.143 28.1363 83.6121 5.60547 55.8189 5.60547C28.0257 5.60547 5.49487 28.1363 5.49487 55.9295C5.49487 83.7227 28.0257 106.254 55.8189 106.254Z" fill="#9DD4FF"/>
<path d="M51.4429 101.877C79.2361 101.877 101.767 79.3457 101.767 51.5525C101.767 23.7593 79.2361 1.22852 51.4429 1.22852C23.6497 1.22852 1.1189 23.7593 1.1189 51.5525C1.1189 79.3457 23.6497 101.877 51.4429 101.877Z" stroke="black" stroke-width="0.5" stroke-miterlimit="10"/>
<path d="M79.6462 17.8359L69.472 22.0807L58.7726 26.9599L52.2086 32.0798L49.1017 36.1058H46.7824L42.4064 34.9461L32.3853 36.784L27.5499 38.3375L24.6836 39.0596L25.8213 42.1884L26.6528 46.5644L27.1998 51.378L27.3749 56.2353L27.6811 61.0271L28.3376 64.681L29.5847 65.8844L32.3197 67.7661L34.7046 71.5951L37.5053 75.7304L40.9842 80.1064L43.763 83.0602L49.0361 81.4411L51.3334 80.8066C51.3334 80.8066 46.7387 76.54 46.4323 76.54C44.8822 74.9903 43.4212 73.354 42.0563 71.6389L40.1528 68.7726L39.4745 66.8909H43.4348L48.0952 66.6502L49.6706 66.7815L50.1738 69.6697L50.5676 70.348H52.515L53.8715 69.7572L53.5871 66.3877L53.2152 64.8123L55.6438 66.694L60.1949 69.7572L65.4461 72.4266L69.8221 74.9865L74.395 75.8617L75.9266 76.168L77.4144 75.8617L79.1867 76.168L79.5586 73.5424L78.9679 61.9023V50.5903L79.2086 40.985L79.5149 30.3513V17.8359H79.6462Z" fill="white"/>
<path d="M79.9743 47.1337C80.1056 37.5503 80.6307 27.7699 79.843 18.2083H79.9743C80.4556 17.8801 80.1494 16.9611 79.5367 17.2018C76.5611 18.4708 73.5416 19.7399 70.544 21.0527C70.5184 21.012 70.4829 20.9785 70.4408 20.9553C70.3987 20.9321 70.3515 20.9198 70.3034 20.9198C70.2553 20.9198 70.208 20.9321 70.1659 20.9553C70.1238 20.9785 70.0883 21.012 70.0627 21.0527C69.9991 21.1242 69.9474 21.2055 69.9096 21.2934C68.181 22.0592 66.4525 22.8688 64.7458 23.6783C64.7458 23.6783 64.7458 23.547 64.7458 23.4814C64.7458 23.4157 64.2864 23.2844 64.2645 23.4814C64.2753 23.6124 64.2753 23.7442 64.2645 23.8752C63.2799 24.3347 62.3172 24.8161 61.3545 25.3193C58.8295 26.5919 56.4396 28.1167 54.2216 29.8703C54.2216 29.7172 53.9809 29.6516 53.8278 29.761C52.7556 30.5924 51.6397 29.9798 50.4582 30.3736C50.4234 30.3736 50.39 30.3874 50.3654 30.412C50.3408 30.4366 50.327 30.4701 50.327 30.5049C50.327 30.5397 50.3408 30.5731 50.3654 30.5977C50.39 30.6223 50.4234 30.6362 50.4582 30.6362C51.596 30.308 52.3836 30.6361 53.3026 30.483L53.1495 30.7237L52.7338 31.0956C51.9877 31.7657 51.2997 32.4976 50.677 33.2836L50.9833 32.4303C51.2459 31.7302 50.1519 31.4457 49.8675 32.124C49.7581 32.3647 49.6706 32.5835 49.583 32.8242C49.583 31.6645 49.4517 30.5048 49.3423 29.3671C49.3423 29.2358 49.1673 29.2358 49.1454 29.3671C48.9485 31.5551 48.7954 33.6118 48.686 35.7561L48.5109 35.6029C45.4259 33.4149 41.0061 34.3339 37.571 35.0122C35.383 35.4279 33.1949 35.9748 30.8975 36.6094C30.851 36.4885 30.8145 36.3642 30.7882 36.2374C30.7882 36.0186 30.3068 35.953 30.2412 36.2374C30.2535 36.4269 30.2535 36.6169 30.2412 36.8063C28.5126 37.3096 26.806 37.8784 25.165 38.4692C24.8805 37.9659 24.1585 38.4692 24.3773 38.9287C26.5653 43.8736 26.3465 49.6061 26.5653 54.9011C26.6097 57.3229 26.7849 59.7405 27.0904 62.1433C27.25 63.2555 27.4988 64.3531 27.8343 65.4253C27.9175 65.8163 28.0889 66.1832 28.3353 66.4979C28.5818 66.8126 28.8969 67.0669 29.2565 67.2414C29.3334 67.2884 29.4215 67.3139 29.5117 67.3153C29.6018 67.3166 29.6906 67.2938 29.7689 67.249C29.8471 67.2043 29.9119 67.1394 29.9565 67.0611C30.0011 66.9827 30.0238 66.8939 30.0223 66.8038C30.0327 66.7681 30.0327 66.7301 30.0223 66.6944H30.1536C30.144 66.7709 30.1529 66.8486 30.1795 66.9209C30.2062 66.9933 30.2498 67.0581 30.3068 67.1101C31.7645 68.6656 33.0282 70.3921 34.0701 72.2519C33.6982 72.4926 34.0702 73.0834 34.4202 72.8427C35.3173 74.3305 36.1925 75.8403 37.1333 77.2187C38.7524 79.5817 42.5377 85.4893 46.1698 84.089C46.4069 84.018 46.6104 83.8638 46.7431 83.6548C46.8757 83.4458 46.9285 83.196 46.8918 82.9512C48.5762 82.8098 50.2291 82.4113 51.7929 81.7697C52.018 81.7055 52.2136 81.5648 52.3461 81.3719C52.4787 81.179 52.5399 80.9459 52.5192 80.7128C52.4984 80.4796 52.3971 80.261 52.2326 80.0945C52.0681 79.928 51.8507 79.8241 51.6179 79.8005C51.5785 79.739 51.5262 79.6867 51.4647 79.6473C50.9643 79.3557 50.5268 78.9677 50.1775 78.5057C49.8282 78.0438 49.5741 77.517 49.4299 76.9561C49.2571 76.1812 48.9537 75.4413 48.5328 74.7681C48.4893 74.6897 48.4164 74.6319 48.3303 74.6073C48.2441 74.5827 48.1517 74.5933 48.0733 74.6368C47.995 74.6803 47.9371 74.7532 47.9125 74.8394C47.8879 74.9256 47.8985 75.018 47.942 75.0963C48.2372 75.7904 48.4076 76.5311 48.4453 77.2843C48.1583 76.8572 47.8363 76.4546 47.4826 76.0809C46.4542 74.8556 45.2946 73.6741 44.2662 72.4707C43.2379 71.2673 41.8375 69.6919 40.6998 68.2041H43.5223C45.189 68.2998 46.8612 68.2192 48.5109 67.9634C48.7329 67.898 48.9278 67.7624 49.0664 67.5771C49.205 67.3917 49.2798 67.1665 49.2798 66.9351C49.2798 66.7036 49.205 66.4784 49.0664 66.2931C48.9278 66.1077 48.7329 65.9722 48.5109 65.9067C47.1974 65.7209 45.8642 65.7209 44.5506 65.9067H43.6973C43.7123 65.8642 43.7123 65.8179 43.6973 65.7754C44.0692 62.643 44.0692 59.4776 43.6973 56.3452C43.6973 56.2987 43.6789 56.2542 43.646 56.2214C43.6132 56.1885 43.5687 56.1701 43.5223 56.1701C43.4759 56.1701 43.4313 56.1885 43.3985 56.2214C43.3657 56.2542 43.3472 56.2987 43.3472 56.3452C42.9754 59.4776 42.9754 62.643 43.3472 65.7754C43.3338 65.7987 43.3267 65.8251 43.3267 65.852C43.3267 65.8789 43.3338 65.9053 43.3472 65.9286L39.1463 66.1036V65.9504C39.015 65.3597 38.7524 64.7471 38.6212 64.1344C38.3989 62.9148 38.2963 61.6763 38.3149 60.4367C38.4431 59.0398 38.2792 57.6315 37.8335 56.3014C37.8335 56.3014 37.6147 56.3014 37.6366 56.3014C37.7898 58.1612 37.4178 60.1523 37.4178 62.0121C37.3274 63.397 37.5057 64.7864 37.9429 66.1036C36.7832 66.1036 35.5798 66.1036 34.3764 66.1036C34.1139 65.0096 33.6982 63.9156 33.4575 62.8435C33.1296 61.0907 33.0633 59.299 33.2606 57.5267C33.2606 57.286 32.8886 57.2423 32.8449 57.5267C32.1468 60.3521 32.299 63.3207 33.2824 66.0599C32.5046 65.9744 31.7359 65.8206 30.9851 65.6004C30.7881 64.2 30.3068 62.8435 30.0442 61.4651C29.6589 59.4175 29.5559 57.3267 29.7379 55.2512C29.7379 55.1989 29.7171 55.1488 29.6802 55.1119C29.6433 55.0749 29.5932 55.0542 29.541 55.0542C29.4888 55.0542 29.4387 55.0749 29.4018 55.1119C29.3648 55.1488 29.3441 55.1989 29.3441 55.2512C28.5848 58.6233 28.8593 62.1459 30.1317 65.3597H29.913C29.8609 65.1514 29.7951 64.9467 29.716 64.7471C29.3808 63.6524 29.1321 62.5331 28.9721 61.3994C28.604 58.7807 28.3776 56.1439 28.2938 53.5007C28.3537 48.552 27.3696 43.6464 25.4056 39.1037C26.9969 39.2144 28.5958 39.0965 30.1536 38.7536C29.9129 40.6572 29.7598 42.6045 29.5191 44.4862C28.8865 47.0202 29.2796 49.7015 30.6131 51.9473C30.622 51.9658 30.6361 51.9813 30.6535 51.9923C30.6709 52.0032 30.691 52.009 30.7116 52.009C30.7321 52.009 30.7522 52.0032 30.7697 51.9923C30.7871 51.9813 30.801 51.9658 30.81 51.9473C30.2413 49.1387 30.2413 46.2446 30.81 43.436C31.167 41.8487 31.3504 40.2273 31.357 38.6004L34.464 37.5283C33.7643 39.4035 33.3012 41.3586 33.0855 43.3484C32.7019 45.7901 32.9428 48.2892 33.7857 50.6126C33.9389 51.0283 34.5734 50.8532 34.4421 50.4375C33.7393 47.9926 33.679 45.4077 34.2671 42.9327C34.8112 41.0803 35.235 39.1947 35.5361 37.2877L36.0612 37.1783L38.9493 36.5656C38.5071 38.0275 38.2787 39.5456 38.2711 41.0729C38.2711 42.3857 38.2711 43.6985 38.2711 45.0113C38.2711 46.3241 38.5774 47.068 38.7306 48.1839C38.8972 47.3543 38.9996 46.5131 39.0369 45.6677C39.0369 44.5737 39.0369 43.4797 39.0369 42.4076C39.2102 40.3594 39.5319 38.3265 39.9996 36.325C42.5527 35.6157 45.2811 35.9214 47.6139 37.1783C47.7203 37.2397 47.841 37.2721 47.9639 37.2721C48.0868 37.2721 48.2075 37.2397 48.314 37.1783C47.5701 41.7626 47.277 46.4087 47.4388 51.0502C47.4841 54.5737 47.8281 58.0872 48.4671 61.5526C48.4671 61.9027 48.5766 62.2527 48.6422 62.6028C48.8829 65.1628 49.2111 67.7446 49.6049 70.2827H49.233V70.4796L49.7143 70.6109C49.8456 71.2673 50.6114 71.2454 50.9833 70.8297C51.824 70.9556 52.6831 70.834 53.4558 70.4796C53.52 70.8639 53.6077 71.2438 53.7183 71.6174C53.7336 71.6663 53.7642 71.7092 53.8055 71.7395C53.8469 71.7699 53.8968 71.7864 53.9481 71.7864C53.9994 71.7864 54.0493 71.7699 54.0906 71.7395C54.132 71.7092 54.1626 71.6663 54.1778 71.6174C54.6002 69.8 54.6374 67.9143 54.2872 66.0817C57.1919 68.3888 60.2717 70.4664 63.4987 72.2957C65.5306 73.4683 67.6524 74.4779 69.8439 75.3151C71.8421 76.3126 74.0704 76.7583 76.2985 76.606C76.3628 76.5729 76.4167 76.5227 76.4543 76.461C76.492 76.3992 76.5119 76.3283 76.5119 76.256C76.5119 76.1837 76.492 76.1127 76.4543 76.0509C76.4167 75.9892 76.3628 75.939 76.2985 75.9059C74.4825 75.1631 72.6272 74.5203 70.7409 73.9804C69.5024 73.5304 68.2899 73.0117 67.1089 72.427C66.9641 71.3051 66.7448 70.194 66.4525 69.1012C66.1505 67.5066 65.9894 65.8885 65.9711 64.2657C65.8883 61.2216 66.227 58.1806 66.9776 55.2293C66.9868 55.1712 66.9745 55.1117 66.9429 55.0621C66.9112 55.0125 66.8626 54.9762 66.806 54.96C66.7495 54.9439 66.6889 54.949 66.6359 54.9744C66.5829 54.9998 66.541 55.0438 66.5181 55.098C65.4231 58.0294 64.8744 61.1366 64.899 64.2657C64.7321 66.81 65.0438 69.363 65.8179 71.7924L64.1769 70.9829C63.5862 70.6766 62.9736 70.3483 62.3828 69.9983C62.3828 67.5477 61.6607 64.9878 61.4419 62.5153C61.2114 59.6613 61.4779 56.7888 62.2297 54.0259C62.2297 53.829 61.9671 53.7414 61.9015 54.0259C60.9571 56.7861 60.4837 59.6855 60.5011 62.6028C60.4342 64.9288 60.7145 67.2517 61.3326 69.495C58.882 68.0509 56.5409 66.4756 54.0466 65.119C53.8934 64.0906 53.7183 63.106 53.587 62.1871C53.3026 59.9991 52.9744 57.8111 52.69 55.6231C52.7132 55.5027 52.75 55.3852 52.7994 55.273H52.6243C52.4055 53.8143 52.2086 52.2828 52.0336 50.6782C51.7929 48.4902 51.5303 46.3022 51.4209 43.983L51.6835 42.4951C51.6907 42.475 51.6938 42.4536 51.6928 42.4323C51.6917 42.411 51.6865 42.39 51.6774 42.3707C51.6682 42.3514 51.6553 42.3341 51.6395 42.3198C51.6237 42.3055 51.6052 42.2944 51.5851 42.2872C51.565 42.28 51.5436 42.2769 51.5222 42.278C51.5009 42.2791 51.48 42.2843 51.4607 42.2934C51.4414 42.3026 51.4241 42.3155 51.4098 42.3313C51.3955 42.3471 51.3844 42.3656 51.3772 42.3857C51.2977 39.9443 51.533 37.5028 52.0773 35.1215C52.2695 34.8301 52.4815 34.5523 52.7119 34.2901L52.2524 34.6402C52.4274 34.0713 52.6025 33.5243 52.7994 32.9992C53.2192 32.5361 53.6726 32.1046 54.1559 31.7083C55.9874 30.2589 57.9505 28.9843 60.0198 27.9012C58.6632 32.5397 59.4071 37.7909 59.4947 42.517C59.5116 42.5764 59.5475 42.6287 59.5969 42.6659C59.6462 42.7032 59.7064 42.7233 59.7682 42.7233C59.83 42.7233 59.8901 42.7032 59.9394 42.6659C59.9888 42.6287 60.0247 42.5764 60.0417 42.517C59.9482 37.4529 60.2628 32.3895 60.9825 27.376L62.8204 26.4133L64.0895 25.7788C64.0895 27.8136 64.0895 29.8266 63.7613 31.8833C63.3715 34.6307 63.1668 37.401 63.1486 40.1758C63.1486 40.2106 63.1624 40.2441 63.187 40.2687C63.2117 40.2933 63.2451 40.3071 63.2799 40.3071C63.3147 40.3071 63.3481 40.2933 63.3727 40.2687C63.3974 40.2441 63.4112 40.2106 63.4112 40.1758C63.5425 37.1782 64.1551 34.2901 64.5708 31.3144C64.9158 29.3433 65.0405 27.3399 64.9428 25.3412C66.3431 24.6629 67.7434 24.0284 69.1656 23.3939C68.8155 24.838 68.7061 26.4571 68.4873 27.7699C68.1484 29.9442 67.9293 32.1355 67.8309 34.3339C67.8309 34.487 68.0497 34.5089 68.0935 34.3339C68.5967 32.1459 68.9468 30.111 69.3188 27.9668C69.6251 26.3258 70.3252 24.4879 70.544 22.7593L72.185 22.0373C74.7037 21.0774 77.1528 19.9442 79.5148 18.6459C78.7053 27.9449 78.6615 37.3533 78.5084 46.6742C78.3552 55.995 78.3552 65.7536 78.9459 75.2932C78.9459 76.2122 80.4557 76.2122 80.39 75.2932C79.8211 65.7317 79.8211 56.4327 79.9743 47.1337ZM43.3472 79.6036L43.019 79.341C42.5085 78.8596 42.0271 78.3565 41.575 77.8313L43.763 79.0128L43.3472 79.6036ZM44.8351 80.7632L44.0474 80.1506C44.2254 79.8992 44.3862 79.636 44.5288 79.3629L45.3383 79.8005C45.1402 80.1046 44.9717 80.427 44.8351 80.7632ZM41.3781 71.5955L42.2095 72.6239C42.5815 73.1271 42.9753 73.6085 43.3691 74.1117C43.3117 74.1143 43.256 74.132 43.2075 74.1629C43.1591 74.1938 43.1195 74.2368 43.093 74.2878C43.0664 74.3387 43.0537 74.3958 43.056 74.4532C43.0584 74.5106 43.0759 74.5664 43.1066 74.615C44.5453 77.0854 46.7277 79.0381 49.3423 80.1943L47.4169 80.7632C46.7935 80.9188 46.1855 81.1311 45.6009 81.3977L45.404 81.2883C45.5115 80.8264 45.7045 80.3885 45.9729 79.9974C46.0013 79.9708 46.024 79.9386 46.0396 79.9029C46.0551 79.8671 46.0631 79.8286 46.0631 79.7896C46.0631 79.7506 46.0551 79.712 46.0396 79.6763C46.024 79.6405 46.0013 79.6083 45.9729 79.5817L44.857 79.0566C44.9023 78.9807 44.939 78.9 44.9663 78.8159C44.9932 78.7395 44.9929 78.6562 44.9652 78.5801C44.9375 78.5039 44.8843 78.4398 44.8146 78.3985C44.7449 78.3572 44.6631 78.3413 44.5831 78.3536C44.503 78.3659 44.4297 78.4055 44.3756 78.4658L44.2006 78.7284L41.2468 77.3281L40.7873 76.7811C41.2249 76.2997 41.6625 75.8621 42.1001 75.4245C42.1726 75.3549 42.2145 75.2593 42.2166 75.1588C42.2186 75.0582 42.1806 74.961 42.111 74.8885C42.0414 74.8159 41.9458 74.774 41.8453 74.772C41.7447 74.7699 41.6475 74.8079 41.575 74.8775L40.306 76.1465L39.7808 75.4245C40.6982 74.3742 41.3177 73.0974 41.575 71.7268L41.3781 71.5955ZM38.0085 68.1603H39.2994C39.4049 68.4525 39.5291 68.7376 39.6714 69.0137C40.0578 69.7866 40.5195 70.5195 41.0499 71.2017C40.9906 71.2002 40.9322 71.216 40.8817 71.247C40.8312 71.2781 40.7908 71.3231 40.7654 71.3767C40.2267 72.4131 39.5575 73.3764 38.7743 74.243C38.0742 73.2584 37.3521 72.2738 36.5863 71.333L39.387 69.3856C39.5839 69.2325 39.387 68.8824 39.1682 69.0355L36.2362 70.8953C35.2989 69.7427 34.2264 68.7069 33.0418 67.8103C34.6842 68.07 36.3459 68.1872 38.0085 68.1603ZM52.9307 64.3532C52.7775 64.3532 52.5806 64.4845 52.7338 64.6158L53.0838 64.944C53.0838 65.5566 53.2151 66.1693 53.2589 66.7819C53.3026 67.3945 53.2589 68.4666 53.412 69.2981C53.1223 69.5555 52.807 69.7828 52.4712 69.9764L52.1211 70.1295C52.1652 69.7589 52.1652 69.3844 52.1211 69.0137C52.1437 68.737 52.1437 68.4589 52.1211 68.1822C52.1425 68.1379 52.1535 68.0893 52.1535 68.04C52.1535 67.9908 52.1425 67.9422 52.1211 67.8978C52.1211 67.8978 52.1211 67.8978 52.1211 67.7884C52.1211 67.679 52.1211 67.6133 52.1211 67.5258C52.4274 65.6441 52.6243 63.7187 52.7775 61.7933L52.9307 64.3532ZM52.2086 58.7738V58.927L51.8804 60.2179C51.9239 59.731 52.0343 59.2524 52.2086 58.7957V58.7738ZM51.9023 56.5858L51.771 56.914C51.771 56.4326 51.771 55.9732 51.771 55.5137C51.7929 55.8857 51.8367 56.2357 51.9679 56.6077L51.9023 56.5858ZM49.7143 54.8792C49.7143 54.8792 49.7143 54.7042 49.7143 54.6385C50.2361 53.1354 50.5454 51.5668 50.6333 49.9781L50.8302 48.3371C50.8302 48.6653 50.8302 48.9935 50.9396 49.3217C51.049 50.4813 51.1803 51.619 51.3334 52.7568C50.6897 53.3713 50.1633 54.0979 49.78 54.9011L49.7143 54.8792ZM50.9833 69.6044L50.7208 67.7884L51.0709 68.1822C51.0826 68.3498 51.0826 68.5179 51.0709 68.6854C51.0474 68.9986 51.0474 69.3132 51.0709 69.6263L50.9833 69.6044ZM50.5895 63.4562V63.3249C50.5778 63.5508 50.5778 63.7772 50.5895 64.0032V63.4562ZM51.0709 70.2827C51.0803 70.2247 51.0803 70.1657 51.0709 70.1077V70.2827ZM51.3553 53.2163V53.5445C51.1365 55.3606 50.7208 57.1547 50.4363 58.927C50.4363 59.4521 50.1957 60.021 50.0644 60.568C49.5705 58.0383 50.0638 55.4156 51.4429 53.2382L51.3553 53.2163ZM51.1803 35.406C50.3899 36.7936 49.884 38.3248 49.6924 39.9102C49.5008 41.4957 49.6273 43.1034 50.0644 44.6393C50.09 44.68 50.1255 44.7135 50.1676 44.7368C50.2097 44.76 50.257 44.7722 50.305 44.7722C50.3531 44.7722 50.4004 44.76 50.4425 44.7368C50.4846 44.7135 50.5201 44.68 50.5458 44.6393V44.8363C50.2832 46.0178 50.0644 47.2212 49.8893 48.4464C49.8173 49.0348 49.7151 49.6191 49.583 50.1969C49.583 49.9343 49.583 49.6499 49.583 49.3873C49.583 45.3395 49.583 41.2917 49.583 37.222C49.583 37.0469 49.583 36.8501 49.583 36.6532C50.1957 35.7123 50.8083 34.8152 51.4647 33.9619C51.5084 34.5308 51.3772 34.9684 51.2678 35.3403L51.1803 35.406Z" fill="black"/>
<path d="M79.6899 75.7738C78.5522 75.7738 77.0425 76.0145 76.3205 74.9424C76.3002 74.9046 76.2657 74.8765 76.2247 74.8642C76.1836 74.8519 76.1394 74.8564 76.1017 74.8767C76.0639 74.897 76.0358 74.9315 76.0235 74.9725C76.0112 75.0136 76.0157 75.0578 76.036 75.0955C76.6705 76.5833 78.224 76.6052 79.6899 76.6052C79.8002 76.6052 79.9059 76.5614 79.9839 76.4834C80.0618 76.4055 80.1056 76.2998 80.1056 76.1895C80.1056 76.0793 80.0618 75.9735 79.9839 75.8955C79.9059 75.8176 79.8002 75.7738 79.6899 75.7738Z" fill="black"/>
<path d="M58.8383 65.5994C57.9818 60.9825 57.5932 56.291 57.6786 51.5961C57.6786 51.5323 57.6533 51.4711 57.6081 51.4259C57.563 51.3808 57.5017 51.3555 57.4379 51.3555C57.3741 51.3555 57.3128 51.3808 57.2677 51.4259C57.2226 51.4711 57.1973 51.5323 57.1973 51.5961C57.0222 55.9721 55.6875 61.9892 58.4006 65.7744C58.4312 65.8206 58.4768 65.8548 58.5296 65.8713C58.5824 65.8878 58.6393 65.8855 58.6906 65.865C58.742 65.8444 58.7848 65.8068 58.8116 65.7584C58.8385 65.7101 58.848 65.6539 58.8383 65.5994Z" fill="black"/>
<path d="M72.6445 57.4395C71.1614 59.5349 70.443 62.0762 70.6096 64.638C70.6324 66.1871 70.7862 67.7314 71.0691 69.2546C71.106 70.5861 71.5917 71.866 72.4475 72.8867C72.4847 72.9281 72.5325 72.9585 72.5857 72.9748C72.639 72.991 72.6956 72.9925 72.7496 72.979C72.8036 72.9655 72.8529 72.9376 72.8922 72.8982C72.9315 72.8588 72.9593 72.8094 72.9727 72.7554C73.0256 71.8138 72.8687 70.8721 72.5132 69.9985C72.1309 68.6085 71.8673 67.1885 71.7255 65.7538C71.3045 62.9532 71.6368 60.091 72.6882 57.4613L72.6445 57.4395Z" fill="black"/>
<path d="M74.9638 63.3027C74.8106 65.075 74.6355 66.8254 74.5918 68.5758C74.3945 70.3572 74.3945 72.155 74.5918 73.9364C74.6167 74.0034 74.6615 74.0612 74.7201 74.102C74.7788 74.1428 74.8485 74.1647 74.92 74.1647C74.9914 74.1647 75.0612 74.1428 75.1199 74.102C75.1785 74.0612 75.2233 74.0034 75.2482 73.9364C75.4344 72.4105 75.4344 70.8676 75.2482 69.3416C75.2482 67.3068 75.0513 65.3157 74.8762 63.3027H74.9638Z" fill="black"/>
<path d="M46.8481 57.4168C46.218 58.504 45.8772 59.7345 45.858 60.9909C45.8389 62.2472 46.142 63.4875 46.7386 64.5934C46.848 64.7903 47.1981 64.5934 47.1106 64.4184C46.5525 63.3522 46.2483 62.1715 46.2217 60.9684C46.1952 59.7652 46.4469 58.5722 46.9574 57.4825C46.9574 57.4825 46.8918 57.3512 46.8481 57.4168Z" fill="black"/>
<path d="M43.7849 43.3493C44.2676 41.0205 44.2228 38.6132 43.6536 36.304C43.632 36.2521 43.5955 36.2079 43.5488 36.1767C43.502 36.1456 43.4471 36.1289 43.391 36.1289C43.3348 36.1289 43.28 36.1456 43.2333 36.1767C43.1865 36.2079 43.15 36.2521 43.1284 36.304C42.8761 37.6194 42.8761 38.9708 43.1284 40.2861C43.2395 41.9701 43.0844 43.6609 42.669 45.2966C42.1439 47.1564 41.9032 48.0316 43.4785 49.2787C43.2392 49.1026 43.0384 48.8797 42.8881 48.6234C42.7378 48.3671 42.6413 48.0829 42.6045 47.7881C42.5676 47.4933 42.5912 47.194 42.6738 46.9086C42.7563 46.6232 42.8961 46.3576 43.0847 46.128C43.497 45.2563 43.7349 44.3124 43.7849 43.3493Z" fill="black"/>
<path d="M57.3066 30.9648C55.1185 36.0191 55.8624 41.4892 55.9937 46.8498C56.0107 46.9092 56.0466 46.9614 56.096 46.9987C56.1453 47.0359 56.2054 47.056 56.2673 47.056C56.3291 47.056 56.3892 47.0359 56.4385 46.9987C56.4879 46.9614 56.5238 46.9092 56.5408 46.8498C56.2608 41.5745 56.6208 36.2848 57.6129 31.0961C57.6567 30.9648 57.3723 30.9648 57.3066 30.9648Z" fill="black"/>
<path d="M76.036 22.2115C74.1516 25.0137 73.3292 28.3965 73.7168 31.7511C73.7282 31.7796 73.7478 31.8039 73.7732 31.8211C73.7985 31.8383 73.8284 31.8475 73.859 31.8475C73.8896 31.8475 73.9195 31.8383 73.9449 31.8211C73.9702 31.8039 73.9899 31.7796 74.0012 31.7511C74.3098 28.5347 75.1296 25.3883 76.4298 22.4303C76.437 22.3819 76.4292 22.3324 76.4076 22.2885C76.3859 22.2446 76.3514 22.2083 76.3086 22.1846C76.2659 22.1608 76.2169 22.1507 76.1682 22.1555C76.1194 22.1603 76.0733 22.1798 76.036 22.2115Z" fill="black"/>
</svg>
