<svg width="106" height="106" viewBox="0 0 106 106" fill="none" xmlns="http://www.w3.org/2000/svg">
<path d="M55.3988 105.421C83.192 105.421 105.723 82.8906 105.723 55.0974C105.723 27.3043 83.192 4.77344 55.3988 4.77344C27.6056 4.77344 5.07483 27.3043 5.07483 55.0974C5.07483 82.8906 27.6056 105.421 55.3988 105.421Z" fill="#C2A7E4"/>
<path d="M51.0228 101.044C78.816 101.044 101.347 78.5137 101.347 50.7205C101.347 22.9273 78.816 0.396484 51.0228 0.396484C23.2297 0.396484 0.698853 22.9273 0.698853 50.7205C0.698853 78.5137 23.2297 101.044 51.0228 101.044Z" stroke="black" stroke-width="0.5" stroke-miterlimit="10"/>
<path d="M61.8973 32.8907L55.3333 37.5293L50.1915 43.0212L46.2093 48.3162L45.2904 49.6946L44.3714 44.5091L38.7264 44.9247L37.9168 40.8551L23.4104 40.3737L22.6884 65.1419L23.6948 69.3647L27.7645 70.7869C27.7645 70.7869 37.6761 69.8242 37.9606 69.8242C38.3771 68.4935 38.6486 67.1217 38.7702 65.7327L43.8682 65.1419L44.4152 61.5754L61.1972 62.21L83.471 61.291L88.0439 55.3397L84.1711 51.1387L64.3479 52.1671L55.3771 50.8761L53.8455 48.3818L55.0708 45.4499L60.1032 39.6954L64.4792 35.3194L64.8511 34.7506L62.0942 32.2344L61.8973 32.8907Z" fill="white"/>
<path d="M88.569 55.0105C87.5625 53.7852 86.5123 51.7285 84.8932 51.2034C84.8671 51.08 84.7975 50.97 84.6971 50.8937C84.5966 50.8174 84.4721 50.7797 84.3462 50.7877C78.4604 50.7877 72.5966 51.3347 66.7109 51.466C63.8987 51.5865 61.0814 51.4768 58.2871 51.1378C56.9086 50.919 55.0051 50.4814 54.5894 48.9498C53.933 46.4555 57.4994 43.1953 58.9654 41.62C61.0002 39.432 63.3414 37.4846 65.1355 35.0559C65.178 35.017 65.2118 34.9697 65.235 34.9169C65.2582 34.8642 65.2702 34.8072 65.2702 34.7496C65.2702 34.692 65.2582 34.6351 65.235 34.5823C65.2118 34.5296 65.178 34.4823 65.1355 34.4433C64.447 33.5819 63.6186 32.8423 62.685 32.2553C62.6868 32.1546 62.6619 32.0551 62.6128 31.9671C62.5636 31.8792 62.492 31.8058 62.4052 31.7546C62.3184 31.7035 62.2195 31.6762 62.1188 31.6758C62.018 31.6753 61.9189 31.7017 61.8316 31.7521C58.2595 34.1335 54.99 36.9401 52.095 40.1102C50.5219 41.762 49.0601 43.5163 47.719 45.3615C46.9066 46.3669 46.175 47.435 45.531 48.5559C45.3998 47.2212 45.2247 45.8866 44.984 44.5519C44.9426 44.415 44.8588 44.2947 44.7449 44.2083C44.6309 44.1218 44.4926 44.0736 44.3495 44.0705C42.7085 44.0705 41.0675 44.0705 39.4265 44.2456C39.4246 43.8058 39.388 43.3668 39.3171 42.9328C39.3479 42.9003 39.365 42.8572 39.365 42.8124C39.365 42.7676 39.3479 42.7246 39.3171 42.6921C39.2351 42.2871 39.0631 41.9057 38.8139 41.5762C38.9211 41.4465 39.0163 41.3074 39.0983 41.1605C39.1345 41.0989 39.1558 41.0298 39.1605 40.9586C39.1653 40.8874 39.1534 40.816 39.1258 40.7502C39.0982 40.6844 39.0556 40.6259 39.0015 40.5793C38.9474 40.5328 38.8831 40.4996 38.8139 40.4822C36.2087 40.1565 33.5782 40.0832 30.959 40.2634C28.3477 39.9008 25.7178 39.6889 23.0822 39.6289C23.0498 39.611 23.0138 39.6008 22.9769 39.5991C22.94 39.5974 22.9032 39.6042 22.8693 39.619C22.8355 39.6339 22.8055 39.6563 22.7817 39.6845C22.7579 39.7128 22.7409 39.7462 22.7321 39.782C21.9446 45.4491 21.6809 51.1767 21.9444 56.8922C21.9444 59.9992 21.9444 63.128 22.2945 66.2131C22.3041 67.3308 22.4963 68.4394 22.8634 69.4951C22.8312 69.5117 22.8043 69.5368 22.7855 69.5676C22.7666 69.5985 22.7567 69.634 22.7567 69.6702C22.7567 69.7063 22.7666 69.7418 22.7855 69.7727C22.8043 69.8035 22.8312 69.8286 22.8634 69.8452H23.0384C23.1949 70.0638 23.4062 70.2374 23.6511 70.3484C23.6511 70.6985 24.2637 70.8736 24.8763 70.9611L25.1389 71.3768C25.1611 71.4084 25.1906 71.4342 25.2248 71.452C25.2591 71.4698 25.2972 71.4791 25.3358 71.4791C25.3744 71.4791 25.4125 71.4698 25.4468 71.452C25.481 71.4342 25.5105 71.4084 25.5327 71.3768C25.6604 71.2636 25.7776 71.1391 25.8828 71.0048C26.1154 70.9766 26.3504 70.9766 26.583 71.0048C27.3031 71.1475 28.0402 71.1843 28.771 71.1142H28.8804C29.8427 71.0177 30.7994 70.8717 31.7466 70.6766L33.3001 70.4141C34.3504 70.4141 35.4881 70.4141 36.429 70.4141C36.6512 70.401 36.8611 70.3077 37.0197 70.1515H38.0481C38.3615 70.1515 38.662 70.027 38.8836 69.8054C39.1051 69.5839 39.2296 69.2833 39.2296 68.97C39.5664 68.0925 39.6938 67.1485 39.6016 66.2131C41.2771 66.6379 43.0481 66.4678 44.6121 65.7318C44.7791 65.6585 44.9242 65.543 45.0331 65.3967C45.1419 65.2503 45.2108 65.0781 45.2329 64.897C45.255 64.716 45.2295 64.5323 45.159 64.3641C45.0885 64.1958 44.9754 64.0488 44.8309 63.9376C44.8309 63.8063 44.8309 63.6969 44.8309 63.5656L45.0278 61.9903C50.833 62.7289 56.6993 62.8609 62.5318 62.3841C69.5553 62.1216 76.535 61.5964 83.5585 61.5745C83.6699 61.5994 83.7858 61.5957 83.8954 61.5638C84.0051 61.5319 84.1049 61.4728 84.1856 61.3921C84.2663 61.3114 84.3254 61.2116 84.3573 61.1019C84.3892 60.9923 84.3929 60.8764 84.368 60.765C85.8979 59.2391 87.3027 57.5928 88.569 55.842C88.6786 55.7313 88.74 55.5819 88.74 55.4262C88.74 55.2705 88.6786 55.1211 88.569 55.0105ZM36.057 64.7909C36.057 64.7909 36.057 64.6596 36.057 64.594C36.057 64.5283 36.057 64.1345 36.057 63.9157C36.1877 63.735 36.3047 63.5449 36.4071 63.3468C36.4131 63.3126 36.41 63.2775 36.3981 63.2449C36.3862 63.2124 36.3659 63.1835 36.3392 63.1613C36.3126 63.1391 36.2806 63.1243 36.2464 63.1185C36.2122 63.1126 36.1771 63.1159 36.1445 63.128C36.1445 62.8436 36.1445 62.5591 36.1445 62.2966C36.1445 62.034 36.1445 61.5308 36.2539 61.1588L36.7134 60.7431C36.7134 61.8371 36.5821 62.9311 36.5821 64.0032C36.3864 64.2781 36.1745 64.5411 35.9476 64.7909H36.057ZM25.117 69.3419C25.1062 69.2621 25.1062 69.1811 25.117 69.1013L25.8391 69.2763L25.117 69.3419ZM33.694 42.7358C33.633 42.7691 33.5863 42.8236 33.5627 42.889L33.0376 43.3266L32.6656 42.9765L32.9282 42.4951H33.694V42.7358ZM35.2037 42.7358H35.6851L35.4225 42.9328L35.2037 42.7358ZM38.1137 51.1815C38.124 51.1016 38.124 51.0207 38.1137 50.9408V50.6564C38.0715 50.8052 38.0204 50.9514 37.9606 51.094L38.1137 51.1815ZM27.4363 67.6353C27.5457 67.9854 27.6551 68.3136 27.7864 68.6418C27.6811 68.2515 27.511 67.8817 27.2831 67.5478L27.4363 67.6353ZM25.0295 68.3573H25.4015H25.0514H25.0295ZM23.9136 54.0478V53.6758L24.0449 53.5665V53.6758C23.9403 53.7603 23.845 53.8557 23.7605 53.9603L23.9136 54.0478ZM37.0416 44.6394L36.9322 44.7488L37.0416 44.6394ZM26.2329 44.355C26.2329 44.5738 26.3423 44.8144 26.3861 45.0332C26.3073 45.2106 26.2415 45.3934 26.1891 45.5802C25.9523 45.4374 25.7321 45.2686 25.5327 45.077C25.7515 44.8363 25.9922 44.6175 26.2329 44.3987V44.355ZM30.3245 66.5194L30.1275 65.4911L30.2369 65.3598L30.6089 65.9068C30.5981 65.994 30.5981 66.0822 30.6089 66.1693L30.3901 66.41L30.3245 66.5194ZM29.7118 44.6175H29.8431C29.8533 44.7486 29.8533 44.8803 29.8431 45.0114H28.9241L29.2742 44.6613L29.7118 44.6175ZM29.3399 65.4473C29.2934 65.3265 29.2568 65.2021 29.2305 65.0753L29.4492 64.9659V65.3379L29.3399 65.4473ZM25.664 60.6775C25.664 60.6775 25.664 60.4805 25.664 60.393V60.8087V60.6775ZM25.2702 61.5089C25.2794 61.407 25.2794 61.3045 25.2702 61.2026C25.2283 61.2727 25.1918 61.3458 25.1608 61.4214L25.2702 61.5089ZM35.9695 54.5073C35.9695 54.2447 35.9695 54.004 35.9695 53.7415C36.0472 53.713 36.1325 53.713 36.2102 53.7415C36.057 53.9603 35.9695 54.201 35.8601 54.4198L35.9695 54.5073ZM33.7815 64.2658C33.7815 64.2658 33.7815 64.1126 33.7815 64.047V64.2439V64.2658ZM24.6576 48.7091L25.0295 48.0746V48.5341L24.6138 49.0592C24.6454 48.9155 24.6601 48.7686 24.6576 48.6216V48.7091ZM25.4233 47.4401L25.5546 47.1994L25.6859 47.8776L25.5109 48.0746C25.4671 47.7682 25.4452 47.637 25.4233 47.3525V47.4401ZM33.694 61.1807C33.6614 61.1422 33.6213 61.1106 33.5762 61.0881C33.531 61.0655 33.4818 61.0524 33.4314 61.0494C33.4423 60.8454 33.4423 60.6409 33.4314 60.4368L33.6283 59.8242C33.6283 60.2618 33.7596 60.6993 33.8471 61.1369L33.694 61.1807ZM25.2921 52.8444L25.4233 53.282C25.4233 53.2164 25.2921 53.0195 25.2921 52.8444ZM26.8674 49.6062L26.5611 49.8687C26.5502 49.6647 26.5502 49.4602 26.5611 49.2561V49.1467C26.5611 48.9498 26.7142 48.7528 26.7799 48.5559L26.8674 49.6062ZM29.3836 49.6062C29.5654 49.5249 29.7565 49.4662 29.9525 49.4311C29.9632 49.489 29.9632 49.5483 29.9525 49.6062L29.7337 49.7375C29.6434 49.7797 29.5477 49.8092 29.4492 49.825L29.3836 49.6062ZM29.9306 48.0746H29.6899H29.9306ZM31.0246 48.0746V48.3371H30.6745C30.6638 48.2499 30.6638 48.1617 30.6745 48.0746H31.0246ZM31.1559 50.7439C31.1559 51.1596 31.1559 51.5754 31.1559 51.9911L30.7183 52.2318C30.7183 51.7285 30.7183 51.2472 30.7183 50.7439H31.1559ZM28.3115 53.8509L28.5084 54.0916L28.2677 54.2885C28.2572 54.1866 28.2572 54.084 28.2677 53.9822C28.3041 53.9778 28.3408 53.9778 28.3771 53.9822L28.3115 53.8509ZM31.4185 57.2423V56.9578V57.2423ZM28.7491 56.2358C28.7491 56.564 28.7491 56.9141 28.9022 57.2642C28.9022 56.9578 28.7491 56.6515 28.7053 56.3452L28.7491 56.2358ZM31.1778 54.7042H30.8496L31.1778 54.8574V54.7042ZM30.3682 58.3801L30.2369 57.6799L30.7183 56.8485H30.9152L31.1121 57.7674L30.3901 58.5332L30.3682 58.3801ZM32.053 54.0041V52.4287C32.053 52.9319 32.228 53.457 32.2936 53.9603C32.2495 53.9862 32.2111 54.0209 32.181 54.0623C32.1509 54.1038 32.1296 54.151 32.1186 54.201L32.053 54.0041ZM31.3747 53.3039C31.3638 53.4568 31.3638 53.6104 31.3747 53.7634L30.8715 53.5665V52.6037L31.3309 52.3849L31.3747 53.3039ZM30.3245 55.3606H29.8431V55.2075L30.3463 55.4481L30.3245 55.3606ZM27.852 57.8987C27.9264 58.0315 28.0143 58.1561 28.1146 58.2707L27.7864 58.7302C27.7864 58.577 27.7864 58.4457 27.7864 58.3144C27.7864 58.1831 27.852 58.1831 27.9176 58.03L27.852 57.8987ZM28.0489 59.6928L27.9176 59.3428L28.1365 59.0365C28.0965 59.2971 28.0891 59.5617 28.1146 59.8242L28.0489 59.6928ZM28.0489 61.1369V61.2682V61.1588V61.1369ZM29.7118 59.9773V60.1086V59.9773ZM31.3309 58.4457C31.3309 58.7958 31.4622 59.1459 31.506 59.4741C31.2413 59.4392 30.9833 59.3655 30.7402 59.2553L31.3309 58.4457ZM31.9873 56.2577C31.9873 55.9951 31.9873 55.7107 31.9873 55.4481C31.9873 55.7326 31.9873 56.017 31.9873 56.3015V56.2577ZM32.8188 53.3695C32.8188 52.8006 32.6437 52.2318 32.5343 51.641L32.8406 51.4441C32.8406 51.9036 32.9501 52.3849 32.9938 52.8663C32.9765 53.101 32.9172 53.3307 32.8188 53.5446V53.3695ZM30.2151 52.3849C30.2151 52.1661 30.0619 51.9473 29.9744 51.7066V51.4003V51.2034C29.9744 51.5973 29.9744 51.9911 29.9744 52.3849H30.2151ZM30.04 53.4571C29.9171 53.4344 29.791 53.4344 29.6681 53.4571C29.6575 53.2822 29.6575 53.1068 29.6681 52.9319H29.8869C29.9306 53.282 29.9744 53.4571 30.04 53.6321V53.4571ZM29.4711 52.2536C29.4711 52.013 29.4711 51.7942 29.4711 51.5535C29.5125 51.6954 29.5637 51.8343 29.6243 51.9692C29.5402 52.1093 29.4879 52.2662 29.4711 52.4287V52.2536ZM29.4711 61.3557C29.4711 61.6183 29.6243 61.859 29.7118 62.1215C29.5922 61.9887 29.4894 61.8418 29.4055 61.6839C29.4034 61.6329 29.4034 61.5818 29.4055 61.5308L29.4711 61.3557ZM29.9962 60.4149C29.9962 60.9181 30.2369 61.3995 30.3682 61.9027V62.0122C30.2151 61.5527 30.0838 61.0932 29.9306 60.6337C29.9304 60.6191 29.9304 60.6045 29.9306 60.5899L29.9962 60.4149ZM31.0902 61.1151C31.0902 60.8087 30.9371 60.4805 30.8715 60.1742C31.1469 60.2176 31.4274 60.2176 31.7029 60.1742C31.7029 60.1742 31.7029 60.3493 31.7029 60.4368L31.0902 61.1151ZM31.6372 61.1151L31.2653 61.7933V61.5527L31.6372 61.1151ZM33.1032 55.3168V55.0981V55.4044V55.3168ZM33.6721 54.8136V55.0762C33.6721 55.0762 33.6065 54.9887 33.6065 54.9011L33.6721 54.8136ZM32.8625 51.094C32.7548 51.1865 32.6374 51.2672 32.5125 51.3347L32.3812 50.7221H32.8188C32.775 50.8971 32.775 51.0284 32.7969 51.1815L32.8625 51.094ZM31.7904 49.9344C31.8013 49.796 31.8013 49.657 31.7904 49.5186C31.7456 49.6975 31.7235 49.8813 31.7248 50.0656L31.7904 49.9344ZM31.1996 49.4092C31.1996 49.5843 31.1996 49.7374 31.1996 49.9125H30.8715C30.9152 49.8249 31.0246 49.6937 31.134 49.5405L31.1996 49.4092ZM29.8212 51.1596C29.8212 50.9408 29.6462 50.7439 29.5805 50.547L30.0181 50.6564L29.8212 51.1596ZM28.2459 52.013C28.2459 51.6629 28.2459 51.2909 28.2459 50.9408H28.399C28.399 51.5097 28.399 52.0786 28.5741 52.6475C28.4321 52.4884 28.3005 52.3203 28.1802 52.1442L28.2459 52.013ZM28.2459 50.5032V50.6126V50.5032ZM26.8456 50.7658C26.8223 50.8933 26.7856 51.018 26.7361 51.1378C26.7146 51.1618 26.7027 51.193 26.7027 51.2253C26.7027 51.2576 26.7146 51.2887 26.7361 51.3128L26.4955 51.6848C26.4955 51.3785 26.4955 51.0721 26.4955 50.7658L26.7142 50.5251C26.7978 50.6313 26.844 50.762 26.8456 50.8971V50.7658ZM25.9922 50.3501L25.7953 50.547C25.7953 50.0219 25.7953 49.4968 25.6421 48.9716L25.8391 48.7528C25.8498 48.8839 25.8498 49.0156 25.8391 49.1467C25.9266 49.6718 25.9704 50.0657 25.9922 50.4814V50.3501ZM25.9922 51.6191L26.1672 51.4222C26.1672 51.7723 26.1672 52.1005 26.1672 52.4506L26.036 52.6256C25.9266 52.3849 25.9047 52.013 25.8828 51.7504L25.9922 51.6191ZM26.6924 54.7698V54.201C26.7206 54.5179 26.7718 54.8323 26.8456 55.1418L26.6924 54.7698ZM31.8779 47.4181H31.6591H31.8779ZM28.9241 48.906C28.9241 48.906 28.9241 48.906 28.9241 48.7528V48.5997C29.0296 48.6528 29.1394 48.6967 29.2523 48.731L28.9241 48.906ZM25.3139 49.4968C25.3139 49.9125 25.3139 50.3501 25.4233 50.7658L25.0951 49.825L25.3139 49.4968ZM26.1016 54.923C26.1016 55.1856 26.2548 55.4481 26.3204 55.7107V55.8201C26.2828 55.698 26.2314 55.5805 26.1672 55.47L26.1016 54.923ZM27.2831 63.8719C27.2735 64.0103 27.2735 64.1493 27.2831 64.2877C27.2709 64.2152 27.2709 64.1413 27.2831 64.0688V63.8719ZM28.9898 63.0186C28.9898 63.2155 29.1867 63.4125 29.2961 63.6094L28.8804 63.9595C28.893 63.8358 28.893 63.7112 28.8804 63.5875C28.7491 63.5218 28.8366 63.3468 28.9022 63.1499L28.9898 63.0186ZM35.0068 50.5251V50.3063V50.1751V50.0656L35.2037 49.9125C34.9411 50.2626 34.9192 50.4595 34.9192 50.6564L35.0068 50.5251ZM31.7685 46.6961H31.6154C31.6154 46.6961 31.6154 46.4554 31.6154 46.346L31.7466 46.5211L31.7685 46.6961ZM31.1121 46.6961H30.5651C30.5545 46.6309 30.5545 46.5644 30.5651 46.4992H30.7621H31.1778C31.1545 46.5496 31.1326 46.6007 31.1121 46.6524V46.6961ZM29.6681 47.5057C29.4508 47.5407 29.238 47.5994 29.0335 47.6807L29.2086 47.4401L29.6681 47.5057ZM27.5895 47.9871V48.5997L27.4144 48.7966C27.4144 48.5122 27.4144 48.2059 27.4144 47.9214L27.5895 47.9871ZM26.0797 59.5616C26.0892 59.6048 26.0892 59.6496 26.0797 59.6928V59.5616ZM34.4379 58.577H34.7223L34.3941 58.7958C34.3941 58.7958 34.416 58.577 34.4379 58.577ZM35.9257 52.6256C35.9257 52.4068 35.9257 52.1661 35.9257 51.9473L36.1008 51.7285C36.1008 51.9473 36.1008 52.1443 36.2539 52.3631L35.9257 52.6256ZM34.9849 49.7156L34.7223 49.8906C34.7223 49.6499 34.7223 49.4311 34.7223 49.1905H35.0724C35.0068 49.2123 35.0068 49.4092 34.9849 49.6062V49.7156ZM34.2191 50.2626C34.2191 50.0219 34.2191 49.7812 34.0659 49.5405V49.278H34.2191V50.2626ZM24.9639 47.5276L24.6357 48.0527C24.6357 47.8339 24.6357 47.5932 24.6357 47.3744L24.942 47.265L24.9639 47.5276ZM24.57 46.9149C24.57 46.6961 24.6794 46.4773 24.7451 46.2804C24.7451 46.4773 24.7451 46.6524 24.7451 46.8493L24.57 46.9149ZM25.5109 56.8922C25.5109 56.8922 25.489 56.8484 25.5109 56.7828V56.8922ZM25.5109 59.0802V59.1896C25.4178 59.328 25.3372 59.4745 25.2702 59.6272L25.5109 59.0802ZM34.2847 61.1807C34.2847 60.5681 34.0878 59.9554 33.9784 59.3428L34.7223 58.8614C34.5916 59.4214 34.5183 59.9932 34.5035 60.5681C34.4445 60.7259 34.3934 60.8865 34.3504 61.0494L34.2847 61.1807ZM35.5756 48.2715C35.5756 47.8995 35.5757 47.5057 35.7288 47.1337C35.7288 47.4401 35.7288 47.7682 35.7288 48.0746V48.2715H35.5756ZM35.0505 48.2715H34.5473C34.7898 47.6969 34.9874 47.1044 35.1381 46.4992L35.2693 46.3898C35.2474 46.9368 35.1818 47.637 35.1162 48.184L35.0505 48.2715ZM35.3569 45.8647C35.3785 45.8008 35.3785 45.7316 35.3569 45.6678V45.8647ZM33.7159 46.2366L33.2564 45.9522H33.7159V46.2366ZM29.5805 45.9085C29.2767 46.0825 28.9971 46.2958 28.7491 46.543L27.9614 46.3679C27.9614 46.2148 27.9614 46.0616 27.9614 45.9303L29.5805 45.9085ZM25.2046 46.0616C25.2046 46.2366 25.2045 46.4117 25.3577 46.6086H25.2483L25.117 45.9303L25.2046 46.0616ZM27.7864 65.7536L28.1146 65.3817C28.1146 65.6442 28.1146 65.9287 28.224 66.1912C28.0796 66.0316 27.9547 65.8553 27.852 65.6661L27.7864 65.7536ZM34.7005 67.0664V66.9352C34.7005 66.8039 34.7004 66.6726 34.8536 66.5632C34.8317 66.6945 34.788 66.8257 34.7661 66.9789L34.7005 67.0664ZM35.8163 57.0235C35.8163 56.8047 35.8163 56.5859 35.8163 56.389L36.2758 55.4481C36.2321 55.8857 36.0351 56.389 35.882 56.936L35.8163 57.0235ZM35.4881 45.077L35.0505 45.3615H34.9411H34.241V44.9676C34.6706 44.9342 35.1022 44.9342 35.5319 44.9676C35.5319 44.9676 35.5757 44.8801 35.5538 44.9895L35.4881 45.077ZM33.6721 45.1864H33.2782L33.6502 45.077C33.68 45.0815 33.7093 45.0889 33.7377 45.0989L33.6721 45.1864ZM28.6397 44.8582L28.4428 45.0551H28.2459L28.5303 44.8145H28.7053L28.6397 44.8582ZM25.6202 44.0924L25.0951 44.6175C25.0951 44.6175 25.0951 44.6175 25.0951 44.5081C25.3318 44.3793 25.5585 44.233 25.7734 44.0705L25.6202 44.0924ZM23.5854 52.3193V52.9976C23.7605 52.735 23.7386 52.5162 23.7386 52.2974L23.5854 52.3193ZM24.7669 63.6532C24.7669 63.6532 24.7669 63.6531 24.7669 63.5V63.6532ZM28.1365 67.4603C28.1486 67.6643 28.1486 67.8689 28.1365 68.0729C28.0357 67.7575 27.9553 67.4359 27.8958 67.1102L28.1365 67.4603ZM31.7685 65.4473V65.5567V65.4473ZM35.8382 59.2553C35.8401 59.1977 35.8293 59.1404 35.8066 59.0875C35.7839 59.0346 35.7499 58.9873 35.7069 58.9489C35.696 58.8325 35.696 58.7153 35.7069 58.5988C35.8382 58.0956 36.0133 58.1831 36.1664 58.4457C36.3196 58.7083 35.9476 58.9927 35.8163 59.2553H35.8382ZM36.1664 57.2423C36.3269 56.8047 36.4581 56.3671 36.5602 55.9295C36.5602 56.3014 36.5602 56.6734 36.5602 57.0454L36.1664 57.2423ZM37.1072 47.2212C37.1072 47.44 37.1072 47.6588 37.1072 47.8776H36.9979H36.5602C36.7406 47.4257 36.9527 46.987 37.1948 46.5648L37.1072 47.2212ZM35.7288 43.261L35.3569 42.9328L35.882 42.5608C35.8695 42.794 35.8695 43.0277 35.882 43.261H35.7288ZM35.0943 43.7642H34.0878L34.7005 43.3485L35.0943 43.7642ZM32.9063 43.6329V43.5235C32.9063 43.5235 33.147 43.6548 33.1251 43.7205L32.9063 43.6329ZM31.1778 43.3922L30.959 43.261H31.0902C31.1732 43.3576 31.2783 43.4327 31.3966 43.4798L31.1778 43.3922ZM31.1778 44.2675C31.1778 44.3769 31.1778 44.4862 31.1778 44.5956L30.6308 44.1361C30.6308 44.1361 30.6308 44.0268 30.6308 43.983L31.1778 44.2675ZM26.9112 43.7423H26.6486V43.611H26.8456C26.9796 43.6516 27.1004 43.7271 27.1956 43.8298L26.9112 43.7423ZM24.7232 44.0705C24.852 43.9322 24.9623 43.7777 25.0514 43.611L25.2046 43.7642L24.7232 44.0705ZM23.848 66.3663C23.848 66.6288 23.848 66.8914 23.848 67.1539C23.848 66.4757 23.7167 65.7974 23.6729 65.141L23.848 66.3663ZM24.3512 66.235C24.2854 65.5656 24.2854 64.8914 24.3512 64.222L24.6357 64.0251C24.6824 64.1682 24.7189 64.3144 24.7451 64.4627C24.6981 64.6502 24.6615 64.8401 24.6357 65.0316C24.6292 65.0695 24.6312 65.1084 24.6415 65.1455C24.6518 65.1826 24.6701 65.217 24.6952 65.2463C24.7202 65.2755 24.7514 65.2988 24.7865 65.3147C24.8216 65.3305 24.8597 65.3384 24.8982 65.3379C24.8982 65.6661 24.8982 65.9943 24.8982 66.3444V66.5851C24.8982 66.782 24.8982 66.9789 24.7451 67.1758L24.3731 67.329C24.7669 67.0445 24.7232 66.6945 24.6794 66.3225L24.3512 66.235ZM28.3552 68.2261C28.5681 68.0928 28.7727 67.9466 28.9679 67.7885C28.9575 67.8242 28.9575 67.8621 28.9679 67.8979C28.9679 68.2042 28.9679 68.5105 28.9679 68.8168H28.2677C28.416 68.6573 28.5548 68.4893 28.6835 68.3136L28.3552 68.2261ZM29.5149 68.5324L29.6681 68.8168H29.4711C29.4711 68.8168 29.8212 68.7074 29.8431 68.6199L29.5149 68.5324ZM35.4881 67.4165C35.4353 67.5006 35.3768 67.581 35.3131 67.6572V67.5478L35.4881 67.4165ZM37.3698 44.4862V44.5956C37.3698 44.5956 37.3698 44.4425 37.3698 44.3768C37.4974 44.4057 37.6124 44.4748 37.698 44.5738L37.3698 44.4862ZM36.8228 45.2083C36.6545 45.4314 36.501 45.6653 36.3633 45.9085C36.3633 45.6021 36.3633 45.2958 36.3633 45.0114L36.6478 44.7707L36.8228 45.2083ZM33.9784 43.3922H33.869C33.869 43.1734 33.869 42.9546 33.869 42.7358L34.3722 43.1516L33.9784 43.3922ZM31.7904 42.6702C31.7428 42.608 31.6833 42.556 31.6154 42.517H31.8779C31.9454 42.5903 32.0041 42.671 32.053 42.7577L31.7904 42.6702ZM23.5198 55.5357V56.7828C23.4585 56.9769 23.4074 57.1741 23.3666 57.3736L23.5198 55.5357ZM24.1981 62.9967C24.208 63.1132 24.208 63.2303 24.1981 63.3468C24.1903 63.2229 24.1903 63.0987 24.1981 62.9748V62.9967ZM30.5432 68.6855C30.5432 68.423 30.3682 68.1823 30.3026 67.9198L30.8058 67.7666C30.8922 67.9365 30.9947 68.0977 31.1121 68.2479L31.3091 68.4886L30.8277 68.6418L30.5432 68.6855ZM37.1072 43.6986C37.1072 43.3485 36.976 42.9984 36.8885 42.6265V42.4295H36.9979C37.0848 42.8269 37.1505 43.2286 37.1948 43.6329L37.1072 43.6986ZM23.5198 62.4278V62.2966C23.5276 62.3693 23.5276 62.4427 23.5198 62.5154C23.5198 62.7779 23.5198 63.0405 23.5198 63.3031C23.9136 63.128 23.9136 62.8217 23.8917 62.5154L23.5198 62.4278ZM35.8382 67.7228V67.8979H35.6194L35.8382 67.7228ZM36.2102 67.1977C36.3028 67.0822 36.3834 66.9576 36.4509 66.8258C36.4355 66.8524 36.4274 66.8825 36.4274 66.9133C36.4274 66.944 36.4355 66.9742 36.4509 67.0008V67.8979L36.2102 67.1977ZM35.9914 66.1912C35.997 66.2374 36.014 66.2816 36.0407 66.3197C36.0674 66.3579 36.1031 66.3889 36.1445 66.41L36.0132 66.6069C36.0226 66.5197 36.0226 66.4317 36.0132 66.3444C36.0579 66.2927 36.0825 66.2267 36.0825 66.1584C36.0825 66.0901 36.0579 66.0241 36.0132 65.9724L36.1883 65.7536L35.9914 66.1912ZM37.0635 58.3144C37.0539 58.387 37.0539 58.4606 37.0635 58.5332C37.0033 58.4207 36.9521 58.3037 36.9103 58.1832C36.9103 58.0737 37.0197 57.9424 37.0635 57.8112C37.1686 58.0194 37.2931 58.2172 37.4355 58.4019L37.0635 58.3144ZM37.8512 42.1451L38.0481 42.0357L37.9168 42.4514L37.8512 42.1451ZM24.7232 41.5762C24.6586 41.5779 24.5954 41.5946 24.5384 41.625C24.4814 41.6553 24.4323 41.6986 24.395 41.7512C24.4698 41.645 24.5502 41.5428 24.6357 41.4449L24.7232 41.5762ZM24.2637 41.7075C24.1921 41.5595 24.104 41.42 24.0011 41.2918L24.4606 41.5105L24.2637 41.7075ZM23.2572 41.2699V40.7666L23.7167 41.0948C23.6669 41.1219 23.6236 41.1593 23.5896 41.2046C23.5556 41.2499 23.5318 41.3021 23.5198 41.3574L23.2572 41.2699ZM37.1948 66.5413V66.7163C37.1827 66.7439 37.1765 66.7737 37.1765 66.8039C37.1765 66.834 37.1827 66.8638 37.1948 66.8914V67.1539V66.5413ZM43.3212 63.8063C42.0548 64.1595 40.7583 64.3939 39.4484 64.5065C39.4484 64.1345 39.4484 63.8063 39.4484 63.5218C39.4484 60.6774 39.4484 57.8112 39.4484 54.9668C39.4484 52.1224 39.4484 49.6499 39.2952 47.0025C39.2952 46.5211 39.2952 45.9084 39.2952 45.2301C40.7393 45.3395 42.2053 45.3833 43.6712 45.4052C44.3385 50.7011 44.3385 56.0598 43.6712 61.3557H43.4743C43.2336 61.3557 43.168 61.7277 43.4743 61.7933H43.6712C43.7588 62.581 43.6712 63.2374 43.5837 63.8938L43.3212 63.8063ZM85.2432 57.2423C82.5301 57.2423 79.7951 57.483 77.082 57.5486C74.4772 57.4546 71.8802 57.8862 69.4459 58.8177C72.1809 58.5989 74.8721 58.3801 77.6071 58.3801C79.7951 58.3801 81.9831 58.5332 84.1711 58.3801C83.5804 59.0365 82.9677 59.6928 82.3551 60.3055C75.988 60.3055 69.6428 60.7431 63.2976 61.0713C60.1031 61.2463 56.8868 61.3776 53.6704 61.3995C50.8041 61.3995 47.9379 61.2463 45.0935 61.2682C45.5668 57.466 45.7132 53.6303 45.531 49.8031C46.3637 48.852 47.0968 47.8183 47.719 46.718C49.1343 44.8402 50.6537 43.0432 52.2701 41.3355C55.2109 38.0757 58.5395 35.188 62.1817 32.7367C62.7944 33.3931 63.4289 34.0057 64.0415 34.6621C61.7441 37.1346 59.1842 39.3663 56.9086 41.8606C55.2239 43.7423 52.8609 46.3679 53.2985 49.1029C53.8673 52.5381 59.8624 52.3412 62.1817 52.4287C69.5115 52.7131 76.8413 51.816 84.0617 51.7723H84.2586C84.9758 52.4316 85.6213 53.1651 86.1841 53.9603C83.2084 54.0697 80.2327 54.1791 77.2352 54.2447C74.2163 54.1593 71.2048 54.5884 68.33 55.5138V55.6232C71.5245 55.4044 74.6752 55.2075 77.8697 55.2075C80.8828 55.3495 83.9021 55.2837 86.9061 55.0105C86.9623 55.0797 87.0135 55.1529 87.0593 55.2293C86.7311 55.9951 86.1184 56.6515 85.5058 57.3298L85.2432 57.2423Z" fill="black"/>
</svg>
