<svg width="106" height="106" viewBox="0 0 106 106" fill="none" xmlns="http://www.w3.org/2000/svg">
<path d="M54.9828 105.421C82.776 105.421 105.307 82.8906 105.307 55.0974C105.307 27.3043 82.776 4.77344 54.9828 4.77344C27.1896 4.77344 4.65881 27.3043 4.65881 55.0974C4.65881 82.8906 27.1896 105.421 54.9828 105.421Z" fill="#8FF7BF"/>
<path d="M50.6069 101.044C78.4001 101.044 100.931 78.5137 100.931 50.7205C100.931 22.9273 78.4001 0.396484 50.6069 0.396484C22.8137 0.396484 0.282837 22.9273 0.282837 50.7205C0.282837 78.5137 22.8137 101.044 50.6069 101.044Z" stroke="black" stroke-width="0.5" stroke-miterlimit="10"/>
<path d="M74.1935 78.2682C72.5744 80.1717 68.9862 79.8216 66.645 79.7779C63.188 79.7779 59.7308 79.4934 56.2738 79.2965C52.8167 79.0996 49.2285 79.2965 45.6839 79.2965C41.2947 79.5243 36.8937 79.2822 32.5559 78.5745C32.8404 79.6685 31.0024 79.931 30.6305 78.837C27.8517 70.085 29.3833 60.7423 28.9676 51.8371C28.705 46.214 28.6394 40.6127 28.8363 35.0114C28.9457 32.1451 29.077 29.2789 29.2739 26.4126C29.4066 23.8393 29.7727 21.2834 30.3679 18.7765C30.3679 18.5577 30.7837 18.6014 30.8056 18.7765C30.8056 19.6298 43.9335 17.5293 56.3176 17.7262C62.1595 17.7262 68.7235 15.3851 72.0055 19.7392C75.2875 24.0933 74.1935 35.646 74.5873 42.0787C75.1223 54.1399 74.9908 66.2214 74.1935 78.2682Z" fill="white"/>
<path d="M73.4933 77.1306C70.9552 77.2837 68.461 77.5901 65.901 77.5463C62.5534 77.5463 59.2057 77.2181 55.8581 77.0212C52.5104 76.8242 48.8784 77.0212 45.3995 77.0212C41.0235 77.1306 36.6476 76.8461 32.2716 77.2181C31.3633 73.2735 30.9517 69.2308 31.0463 65.1841C31.0463 60.5237 31.1557 55.907 30.915 51.2684C30.6525 45.8203 30.543 40.3284 30.5649 34.9022C30.5649 32.189 30.6306 29.476 30.7618 26.7628C30.9368 24.0306 30.9368 21.29 30.7618 18.5578C30.7618 18.339 30.368 18.2953 30.3242 18.5578C29.729 21.0648 29.3628 23.6207 29.2302 26.1939C29.0333 29.0602 28.902 31.9265 28.7926 34.7928C28.5957 40.3941 28.6613 45.9954 28.9239 51.6185C29.3396 60.5237 27.808 69.9321 30.5868 78.6184C30.9587 79.7124 32.7748 79.4498 32.5122 78.3558C36.85 79.0636 41.251 79.3056 45.6402 79.0779C49.1847 79.0779 52.6856 78.9466 56.2301 79.0779C59.7747 79.2092 63.1442 79.5374 66.6012 79.5593C68.9424 79.5593 72.5307 79.9531 74.1498 78.0495C74.6093 77.6557 74.0403 77.1087 73.4933 77.1306Z" fill="black"/>
<path d="M31.2649 19.5196C32.2714 20.1979 34.4375 19.8916 35.6409 19.8916C38.4197 19.8916 41.1984 19.8916 43.9772 19.6728C52.6286 19.2863 61.2959 19.447 69.927 20.1541C70.0509 20.1818 70.1794 20.1829 70.3037 20.1573C70.4281 20.1317 70.5457 20.08 70.6486 20.0056C70.7515 19.9312 70.8373 19.8357 70.9006 19.7256C70.9638 19.6155 71.0031 19.4932 71.0155 19.3668C71.028 19.2405 71.0136 19.1129 70.9731 18.9925C70.9326 18.8722 70.8669 18.7618 70.7805 18.6687C70.6941 18.5756 70.589 18.5018 70.472 18.4524C70.355 18.403 70.2289 18.3789 70.102 18.3819C61.3733 17.5741 52.5957 17.4351 43.8459 17.9661C40.9796 18.1412 38.1353 18.3818 35.269 18.6663C34.175 18.7975 33.081 18.907 32.0089 19.1039C31.6566 19.154 31.3241 19.2975 31.0461 19.5196C31.0461 19.5196 31.2211 19.5415 31.2649 19.5196Z" fill="black"/>
<path d="M74.675 44.1141C74.8719 39.7381 75.0469 35.2308 74.8063 30.811C74.7006 28.6528 74.4078 26.5078 73.931 24.4002C73.5114 22.5908 72.7703 20.8714 71.743 19.324C71.743 19.2146 71.5243 19.324 71.568 19.324C72.9883 23.0975 73.6716 27.1084 73.581 31.1392C73.7123 35.5152 73.3403 39.8912 73.1434 44.2672C72.6839 54.9228 73.7559 65.6002 73.7778 76.2558C73.7778 77.1529 75.2439 77.2842 75.2439 76.3871C75.2001 65.644 74.2155 54.879 74.675 44.1141Z" fill="black"/>
<path d="M36.7786 64.8329C38.4919 64.1374 40.3738 63.9698 42.1829 64.3515C44.1959 64.5922 46.2307 64.8985 48.2437 65.0079C50.2567 65.1173 60.9778 64.5484 62.9908 64.2859C65.7257 63.9358 68.4607 63.8264 71.1738 63.4325C71.2939 63.4232 71.4108 63.3885 71.5165 63.3308C71.6222 63.273 71.7145 63.1936 71.7873 63.0976C71.8601 63.0016 71.9119 62.8913 71.939 62.7739C71.9662 62.6566 71.9681 62.5348 71.9448 62.4166C71.9215 62.2984 71.8733 62.1865 71.8036 62.0882C71.7339 61.99 71.6442 61.9076 71.5404 61.8465C71.4366 61.7853 71.3211 61.7469 71.2013 61.7337C71.0816 61.7204 70.9604 61.7327 70.8457 61.7697C68.1545 62.2729 65.4851 62.7762 62.772 63.1919C60.4746 63.5419 49.644 64.1327 47.3029 64.0233C44.0209 63.8702 39.623 62.7105 36.7567 64.7891C36.7349 64.811 36.7568 64.8329 36.7786 64.8329Z" fill="black"/>
<path d="M41.308 51.6613C43.496 51.9239 45.8151 52.2959 48.0688 52.6241C50.3224 52.9523 61.1967 53.2586 63.3847 53.1929C64.4419 53.2587 65.4904 52.9658 66.3604 52.3615C66.8398 51.9386 67.2206 51.4158 67.4762 50.8299C67.6512 50.5236 67.2575 50.1078 66.9074 50.1954C66.1416 50.3704 66.0104 50.1954 65.0039 50.1954C63.9974 50.1954 63.1004 50.3266 62.1376 50.3048C59.9497 50.3048 49.0097 49.9328 46.6248 49.7359C43.4084 49.4514 37.8729 48.6856 36.0131 51.9239C35.7724 52.3178 36.2975 52.8866 36.6913 52.5147C37.3611 52.0633 38.1166 51.7546 38.9109 51.6077C39.7051 51.4609 40.5211 51.4792 41.308 51.6613Z" fill="black"/>
<path d="M70.3863 38.0756C69.905 37.813 69.6861 37.4411 69.1172 37.3535C68.4923 37.2844 67.8643 37.2479 67.2356 37.2441C66.0541 37.2441 64.8726 37.2441 63.7129 37.2441C61.5249 37.2441 50.5849 37.5942 48.3969 37.8349C46.2089 38.0756 44.3928 38.3819 42.3361 38.5132C40.0431 38.6171 37.7755 39.0368 35.5971 39.7603C35.2252 39.8916 35.4221 40.4386 35.8159 40.3729C39.9789 39.9205 44.1662 39.7305 48.3531 39.8041C50.5411 39.8041 61.2842 39.6509 63.4285 39.5853C64.61 39.5853 65.7696 39.5853 66.9511 39.5853C67.5857 39.5853 68.1984 39.5853 68.8329 39.5853C69.4674 39.5853 69.6861 39.279 70.2112 39.082C70.2969 39.0345 70.3708 38.9684 70.4276 38.8885C70.4843 38.8087 70.5226 38.7172 70.5394 38.6206C70.5561 38.5241 70.5511 38.4251 70.5247 38.3308C70.4982 38.2364 70.4509 38.1493 70.3863 38.0756Z" fill="black"/>
<path d="M35.4878 28.2945C39.3387 25.2751 53.4732 26.6754 57.9148 27.6819C60.1296 28.2248 62.3719 28.6484 64.632 28.9509C66.0323 29.0822 69.5113 29.301 70.0145 27.5725C70.0602 27.4458 70.0612 27.3074 70.0175 27.18C69.9737 27.0527 69.8878 26.9441 69.7739 26.8723C68.9532 26.626 68.0783 26.626 67.2576 26.8723C66.1602 27.0035 65.0511 27.0035 63.9537 26.8723C61.4156 26.6316 50.235 26.019 47.7188 25.5814C43.3428 24.7719 38.2886 24.5749 35.0503 28.0101C34.8096 28.1632 35.2253 28.4915 35.4878 28.2945Z" fill="black"/>
</svg>
