<svg width="74" height="60" viewBox="0 0 74 60" fill="none" xmlns="http://www.w3.org/2000/svg">
<g style="mix-blend-mode:multiply">
<path d="M42.8034 52.7943C60.0328 52.7943 74 40.9759 74 26.3971C74 11.8184 60.0328 0 42.8034 0C25.574 0 11.6068 11.8184 11.6068 26.3971C11.6068 40.9759 25.574 52.7943 42.8034 52.7943Z" fill="#FFDF68"/>
</g>
<g style="mix-blend-mode:multiply">
<path d="M31.1966 55.3333C48.426 55.3333 62.3932 43.5149 62.3932 28.9362C62.3932 14.3575 48.426 2.53906 31.1966 2.53906C13.9672 2.53906 0 14.3575 0 28.9362C0 43.5149 13.9672 55.3333 31.1966 55.3333Z" fill="#FFDF68"/>
</g>
<path d="M66.3832 18.6944C64.9408 13.0628 61.1757 8.8641 56.0068 6.33586C50.5295 3.65342 44.2073 2.57081 38.1838 1.98934C31.6753 1.37897 24.9547 1.86084 18.9313 4.55934C13.7495 6.89162 9.34518 10.8398 7.08358 16.1244C4.78343 21.4828 4.73524 27.6444 6.25154 33.2213C7.95738 39.5146 11.6261 45.2489 17.7555 47.9313C19.3033 48.6031 20.9352 49.0614 22.6064 49.2934C24.0392 49.5023 25.1571 49.544 26.2172 50.723C26.7409 51.3077 27.0878 52.1526 27.5312 52.8047C29.4594 55.6188 31.9555 57.9978 34.8589 59.7887C34.9401 59.8335 35.0326 59.8537 35.1251 59.8466C35.2175 59.8395 35.3059 59.8055 35.3793 59.7488C35.4527 59.6922 35.508 59.6152 35.5382 59.5276C35.5685 59.4399 35.5724 59.3453 35.5496 59.2554C34.8979 55.8312 33.8646 52.4907 32.4688 49.2967C32.3306 48.9754 31.7877 49.2099 31.9098 49.5344C32.993 52.4045 33.8364 55.3594 34.4316 58.3688C32.2451 56.8597 30.3256 54.9966 28.7519 52.8561C27.3834 50.9639 26.7473 48.8822 24.2126 48.4871C21.4113 48.0502 18.9474 47.6197 16.4416 46.1805C13.6633 44.5573 11.3721 42.2173 9.80778 39.4054C4.01885 29.2731 4.88944 15.2249 14.7775 8.03206C24.6656 0.839266 38.7171 1.89939 49.9384 5.09904C54.937 6.5254 59.9871 8.92835 62.9843 13.3552C66.5438 18.614 66.9967 26.0285 65.217 31.9877C63.2542 38.5733 58.172 43.6491 51.7695 46.0071C45.7268 48.2365 39.1347 48.3008 32.774 48.2558C32.6597 48.2745 32.5557 48.3333 32.4808 48.4215C32.4058 48.5098 32.3646 48.6219 32.3646 48.7377C32.3646 48.8535 32.4058 48.9655 32.4808 49.0538C32.5557 49.1421 32.6597 49.2008 32.774 49.2196C44.5671 49.3095 57.9503 48.1434 64.3175 36.6394C67.3084 31.2681 67.9027 24.6214 66.3832 18.6944Z" fill="black"/>
<g clip-path="url(#clip0_539_7259)">
<path d="M33.0049 9.21542L33.5049 12.9503L34.1995 18.0407L32.6897 25.8567L32.2537 39.9041L32.8153 43.2611L37.2808 44.1973H40.1108L39.2291 33.9263L40.4655 24.2648L39.7192 18.9257L39.2931 12.2141L39.2291 8.59375L33.0049 9.21542Z" fill="white"/>
<path d="M33.0764 13.4963C33.3023 13.8764 33.6481 14.1725 34.0606 14.3391C34.4732 14.5056 34.9296 14.5333 35.3596 14.4179C35.6198 14.3369 35.8755 14.2425 36.1256 14.1351C37.9261 14.1351 39.7857 13.2598 40.3128 11.5509C40.5514 10.8287 40.52 10.0457 40.2242 9.34453C40.1643 8.86776 39.953 8.42213 39.6207 8.07193C39.0493 7.50633 38.1675 7.25522 37.3424 7.15039C37.0035 7.06584 36.657 7.0152 36.3079 6.99924C35.7271 6.9704 35.1467 7.06417 34.6052 7.27433C34.0638 7.48449 33.5737 7.80623 33.1675 8.2182C32.8292 8.59711 32.5757 9.0426 32.4237 9.52538C32.2718 10.0082 32.2247 10.5173 32.2857 11.0194C32.3453 11.8957 32.6164 12.7452 33.0764 13.4963Z" fill="black"/>
<path d="M40.968 43.9429C39.0123 37.536 40.6971 30.6757 40.8498 24.1396C40.8966 22.2112 40.9335 19.7342 39.6182 18.1496C38.1404 16.3602 35.6552 17.1208 33.8645 17.9472C33.2833 18.2154 33.665 18.9907 34.2118 18.959C32.5985 21.3969 31.8177 24.3858 31.4261 27.326C31.3818 27.3772 31.335 27.4259 31.2907 27.4796C31.2652 27.5104 31.2465 27.5462 31.236 27.5847C31.2255 27.6231 31.2233 27.6634 31.2296 27.7027C31.2358 27.7421 31.2505 27.7797 31.2724 27.8131C31.2944 27.8465 31.3233 27.8749 31.3572 27.8964C31.2685 28.7448 31.1971 29.5884 31.1503 30.4026C30.9877 32.7599 30.9606 35.1245 31.069 37.4848C31.1028 38.6321 31.1949 39.7769 31.3448 40.915C31.4828 41.778 31.665 42.641 31.7808 43.5041C31.8547 44.055 32.1995 44.5426 32.8227 44.5426C35.2857 44.4963 37.6971 45.0424 40.1576 45.0034C40.2873 45.0019 40.4149 44.971 40.5306 44.9132C40.6464 44.8554 40.7472 44.7721 40.8254 44.6697C40.9036 44.5674 40.9571 44.4487 40.9819 44.3227C41.0066 44.1967 41.0018 44.0668 40.968 43.9429ZM39.6207 25.6072C39.2931 31.4583 37.867 37.4409 39.0887 43.2603C37.7759 43.1359 36.4803 42.8873 35.1749 42.702C35.7831 42.3813 36.3602 42.0059 36.899 41.5805C36.9754 41.522 36.8793 41.4172 36.803 41.4562C36.1281 41.7999 35.4089 42.0291 34.7168 42.3314C34.5296 42.4143 34.3177 42.4899 34.101 42.5752L33.8547 42.5484C33.8424 42.0072 33.8547 41.466 33.8547 40.9272C33.8547 40.8272 33.8547 40.7273 33.8547 40.6273C34.4797 40.1168 35.0568 39.5513 35.5788 38.9378C35.5893 38.9252 35.5947 38.9092 35.5938 38.8928C35.593 38.8765 35.5861 38.8611 35.5744 38.8495C35.5628 38.838 35.5472 38.8311 35.5307 38.8303C35.5142 38.8295 35.498 38.8348 35.4852 38.8452C34.9593 39.2426 34.409 39.6074 33.8374 39.9374C33.8079 39.2523 33.7586 38.5648 33.734 37.8798V37.692C34.5265 37.1597 35.3647 36.6971 36.2389 36.3097C36.3079 36.278 36.2586 36.1635 36.1872 36.1878C35.3353 36.4684 34.5109 36.8249 33.7241 37.2532C33.6971 36.5462 33.6675 35.8417 33.6404 35.1347C33.7956 35.0323 33.9507 34.9323 34.1133 34.8372C34.9893 34.3381 35.9263 33.9522 36.9015 33.689C36.9852 33.6646 36.9729 33.5256 36.8793 33.5329C35.7421 33.6447 34.6357 33.9637 33.6158 34.474C33.5985 33.9108 33.5813 33.3476 33.5714 32.7845C33.6752 32.6742 33.7854 32.57 33.9015 32.4724C34.6001 31.889 35.395 31.4288 36.2512 31.1121C36.399 31.0609 36.3867 30.8122 36.2143 30.8268C35.2722 30.8786 34.361 31.1773 33.5739 31.6923C33.5739 31.4696 33.5739 31.2478 33.5739 31.0267C33.5838 30.3311 33.6002 29.6347 33.6232 28.9374C34.5472 27.9145 35.6327 27.0467 36.8374 26.3679C36.8645 26.3532 36.8374 26.3118 36.8153 26.3191C35.6274 26.7164 34.5296 27.34 33.5838 28.1549C33.6133 27.4056 33.6486 26.6572 33.6897 25.9095C34.7833 25.0099 35.9384 24.1688 36.8916 23.101C36.9027 23.0855 36.9079 23.0667 36.9063 23.0477C36.9047 23.0288 36.8963 23.0111 36.8828 22.9977C36.8692 22.9842 36.8513 22.976 36.8322 22.9744C36.8131 22.9728 36.794 22.9779 36.7783 22.9889C35.8128 23.7934 34.7512 24.5102 33.7389 25.2805C33.7586 24.9344 33.7783 24.5906 33.8005 24.2444C33.835 23.7032 33.8867 23.1571 33.9532 22.6134C35.1182 21.531 36.17 20.3559 37.5296 19.4612C37.5387 19.4529 37.5447 19.4417 37.5465 19.4295C37.5482 19.4173 37.5458 19.4049 37.5394 19.3944C37.5331 19.3838 37.5232 19.3757 37.5116 19.3715C37.4999 19.3672 37.4871 19.367 37.4754 19.371C36.2405 20.0588 35.0914 20.8877 34.0517 21.8406C34.2145 20.7648 34.5021 19.7111 34.9089 18.7006C36.4581 18.0716 38.3695 17.7254 39.1527 19.5612C39.936 21.3969 39.7168 23.6666 39.6207 25.6072Z" fill="black"/>
</g>
<defs>
<clipPath id="clip0_539_7259">
<rect width="10" height="38" fill="white" transform="translate(31 7)"/>
</clipPath>
</defs>
</svg>
