<svg width="107" height="106" viewBox="0 0 107 106" fill="none" xmlns="http://www.w3.org/2000/svg">
<path d="M55.8189 105.421C83.6121 105.421 106.143 82.8906 106.143 55.0974C106.143 27.3043 83.6121 4.77344 55.8189 4.77344C28.0257 4.77344 5.49487 27.3043 5.49487 55.0974C5.49487 82.8906 28.0257 105.421 55.8189 105.421Z" fill="#FFDF68"/>
<path d="M51.4429 101.044C79.2361 101.044 101.767 78.5137 101.767 50.7205C101.767 22.9273 79.2361 0.396484 51.4429 0.396484C23.6497 0.396484 1.1189 22.9273 1.1189 50.7205C1.1189 78.5137 23.6497 101.044 51.4429 101.044Z" stroke="black" stroke-width="0.5" stroke-miterlimit="10"/>
<path d="M78.0707 19.541L22.1893 60.0409L21.8611 67.6114L22.8894 69.6681L22.6925 73.4314L22.8894 78.9671L39.9559 79.7985L40.8967 77.5887L47.6138 78.2013L61.9233 78.4201L63.6737 77.8074L70.0626 78.0044L81.2433 78.7045V72.6L80.9808 65.0295L80.5432 62.2508L80.7182 51.9234L80.0181 42.7557L80.3463 32.6034L78.0707 19.541Z" fill="white"/>
<path d="M40.306 72.4046C34.4203 72.1858 28.5345 71.4637 22.6269 71.6606C22.4798 71.6663 22.3407 71.7287 22.2388 71.8348C22.1368 71.9409 22.0798 72.0824 22.0799 72.2295C21.6043 74.4182 21.7715 76.6976 22.5613 78.7935H22.1674C22.1237 78.8079 22.0856 78.8357 22.0585 78.873C22.0315 78.9103 22.0169 78.9553 22.0169 79.0014C22.0169 79.0474 22.0315 79.0923 22.0585 79.1297C22.0856 79.167 22.1237 79.1948 22.1674 79.2092C25.3942 79.9053 28.6913 80.2211 31.9915 80.15C34.1795 80.15 36.3675 80.5001 38.5555 80.5001C42.8222 80.5001 41.4218 75.6428 41.028 72.9297C40.9961 72.7672 40.9039 72.6228 40.77 72.5254C40.6361 72.4281 40.4704 72.3849 40.306 72.4046ZM35.1204 78.7497C31.2063 78.2682 27.2509 78.2242 23.3271 78.6184C23.1595 76.6833 23.101 74.7401 23.152 72.7984H25.537C25.3953 74.4948 25.3953 76.2 25.537 77.8964C25.537 78.0933 25.7776 78.0933 25.8214 77.8964C25.9415 76.2065 25.9415 74.5102 25.8214 72.8202C28.1406 72.8202 30.4818 73.0172 32.823 73.1922C32.4001 74.3609 32.2431 75.6092 32.3635 76.8462C32.3548 76.8662 32.3512 76.888 32.3531 76.9097C32.3549 76.9314 32.3621 76.9523 32.374 76.9705C32.386 76.9888 32.4023 77.0037 32.4214 77.0141C32.4406 77.0245 32.4621 77.0299 32.4839 77.0299C32.5057 77.0299 32.5271 77.0245 32.5463 77.0141C32.5655 77.0037 32.5818 76.9888 32.5937 76.9705C32.6056 76.9523 32.6128 76.9314 32.6147 76.9097C32.6165 76.888 32.6129 76.8662 32.6042 76.8462C32.4425 75.6348 32.5471 74.4028 32.9105 73.236L35.733 73.4548C35.3139 74.9778 35.1658 76.5627 35.2954 78.1371C35.3068 78.1655 35.3265 78.1899 35.3518 78.2071C35.3772 78.2242 35.4071 78.2334 35.4377 78.2334C35.4683 78.2334 35.4982 78.2242 35.5235 78.2071C35.5489 78.1899 35.5685 78.1655 35.5799 78.1371C35.7331 76.5617 35.5799 75.0083 35.8205 73.4548L39.9121 73.7173C40.1561 74.9363 40.3025 76.1728 40.3497 77.415C40.1966 79.9312 36.652 78.9466 35.1204 78.7497Z" fill="black"/>
<path d="M44.4632 59.1007C44.4708 59.1883 44.5022 59.2721 44.5541 59.3431C44.606 59.4141 44.6764 59.4696 44.7576 59.5034C44.8387 59.5372 44.9276 59.5481 45.0146 59.535C45.1015 59.5219 45.1832 59.4852 45.2508 59.4289C47.5496 59.6225 49.8633 59.5417 52.143 59.1882C55.5125 58.9475 59.0134 59.1882 62.4048 59.1882C62.5175 59.1884 62.6272 59.1523 62.7179 59.0854C62.8085 59.0184 62.8752 58.924 62.908 58.8162C63.3019 56.6282 64.6366 52.2522 61.6171 51.6177C59.6312 51.5744 57.6444 51.6401 55.6657 51.8146C51.9461 51.5958 48.2265 51.8146 44.5288 51.3989C44.4094 51.3514 44.2762 51.3514 44.1568 51.3989C44.1568 51.3989 44.0474 51.3989 44.0255 51.3989C43.753 53.2947 43.8421 55.2251 44.2881 57.0877C44.2291 57.7638 44.2883 58.445 44.4632 59.1007ZM56.169 53.018C55.7462 54.3228 55.6045 55.7023 55.7533 57.0658C55.7533 57.219 55.9939 57.219 55.9939 57.0658C55.8401 55.744 55.9898 54.4046 56.4316 53.1493C56.4432 53.1255 56.4492 53.0993 56.4492 53.0727C56.4492 53.0462 56.4432 53.02 56.4316 52.9961H57.2848C58.7835 52.7671 60.3046 52.723 61.814 52.8649C63.0393 53.0837 62.1422 57.2409 62.0547 57.9848C61.9672 58.7287 57.6787 58.3786 56.8035 58.3786C54.8343 58.3786 52.9307 58.2474 50.9615 58.3786C51.0928 56.9783 51.1584 55.578 51.2897 54.1777C50.9595 55.5611 50.7906 56.9782 50.7865 58.4005C49.7362 58.4005 48.7079 58.5974 47.6576 58.6412C48.1056 57.041 48.2393 55.3692 48.0515 53.7182C48.0515 53.5869 47.7889 53.5869 47.8108 53.7182C47.9103 55.3768 47.7777 57.0411 47.417 58.6631H46.0166C45.8901 58.6638 45.7663 58.6267 45.661 58.5565C45.5557 58.4863 45.4739 58.3863 45.4259 58.2692C45.4259 57.6128 45.3603 56.9564 45.229 56.3C45.229 55.8187 45.3384 55.3811 45.3384 55.1841C45.3763 54.3617 45.2109 53.5426 44.857 52.7992C44.8247 52.7305 44.771 52.6742 44.7039 52.6386C44.6368 52.6031 44.56 52.5904 44.485 52.6023H44.5944C48.4381 53.012 52.3058 53.1509 56.169 53.018Z" fill="black"/>
<path d="M44.5945 69.7127V69.5158C44.637 69.5308 44.6833 69.5308 44.7258 69.5158C50.8959 70.6098 57.1974 69.8221 63.3894 69.5158C63.4729 69.5116 63.5544 69.4891 63.6281 69.4499C63.7019 69.4107 63.7662 69.3557 63.8163 69.2889C63.8664 69.2221 63.9012 69.145 63.9182 69.0632C63.9352 68.9814 63.9339 68.8968 63.9145 68.8156C63.4004 66.3044 63.2676 63.7302 63.5207 61.1795C63.5236 61.1058 63.5117 61.0324 63.4855 60.9634C63.4593 60.8945 63.4195 60.8316 63.3685 60.7785C63.3174 60.7254 63.2561 60.6831 63.1882 60.6542C63.1204 60.6254 63.0474 60.6105 62.9737 60.6106C57.088 60.2167 51.1804 60.6106 45.2947 60.6106C45.2013 60.6074 45.1087 60.6302 45.0276 60.6766C44.9464 60.723 44.8798 60.7911 44.8351 60.8732C44.7617 60.8838 44.6946 60.9207 44.6463 60.977C44.598 61.0333 44.5718 61.1053 44.5726 61.1795C44.5726 61.7921 44.7039 62.361 44.7039 62.9736C44.6444 63.8857 44.5202 64.7924 44.3319 65.6868C44.2437 66.3035 44.2437 66.9298 44.3319 67.5466C44.3319 68.006 44.3319 68.4874 44.3319 68.9688C44.305 69.0691 44.305 69.1747 44.3319 69.2751C44.3422 69.3769 44.3422 69.4795 44.3319 69.5814C44.3319 69.5814 44.5507 69.8002 44.5945 69.7127ZM62.4704 61.814C62.2691 64.0631 62.3648 66.3289 62.7549 68.553C58.6852 68.7499 54.6155 69.0782 50.5459 69.0344H49.5831C49.618 69.0344 49.6513 69.0205 49.676 68.9959C49.7006 68.9713 49.7144 68.9379 49.7144 68.9031C49.7144 67.2184 49.7144 65.5336 49.5831 63.8488C49.5831 65.5336 49.4299 67.2184 49.4737 68.9031C49.4737 68.9379 49.4875 68.9713 49.5122 68.9959C49.5368 69.0205 49.5702 69.0344 49.605 69.0344L47.2857 68.8812C45.3603 68.7281 45.4259 68.4655 45.5353 66.6933C45.5353 65.9056 45.5353 65.2054 45.5353 64.5053C45.7743 63.6241 45.7743 62.6952 45.5353 61.814C51.2679 61.814 56.8691 61.4858 62.4704 61.814Z" fill="black"/>
<path d="M24.2679 74.5488C24.2679 75.7304 24.2679 76.9337 24.2679 78.1153H24.4648V74.5488H24.2679Z" fill="black"/>
<path d="M27.2218 73.4543C26.895 74.1114 26.7016 74.8268 26.6528 75.5591C26.604 76.2914 26.7007 77.0261 26.9373 77.7209C26.9475 77.7443 26.9644 77.7642 26.9857 77.7782C27.0071 77.7922 27.0321 77.7997 27.0577 77.7997C27.0832 77.7997 27.1082 77.7922 27.1296 77.7782C27.1509 77.7642 27.1678 77.7443 27.1781 77.7209C26.7499 76.3677 26.7962 74.9089 27.3093 73.5856C27.3093 73.5856 27.2437 73.4105 27.2218 73.4543Z" fill="black"/>
<path d="M28.4906 73.4762C28.4906 74.8765 28.3156 76.2988 28.4906 77.6991C28.4906 77.8523 28.7314 77.8523 28.7314 77.6991C28.8408 76.2988 28.7314 74.8765 28.7314 73.4762C28.5782 73.4324 28.4906 73.4324 28.4906 73.4762Z" fill="black"/>
<path d="M29.7161 73.4758C29.7161 74.7448 29.7161 76.0139 29.7161 77.2829H29.913C29.913 76.0139 29.913 74.7448 29.913 73.4758C29.8693 73.3883 29.7161 73.3883 29.7161 73.4758Z" fill="black"/>
<path d="M30.5912 73.4762C30.5148 74.8098 30.5148 76.1466 30.5912 77.4802H30.7662C30.7662 76.1674 30.7662 74.8109 30.7662 73.4762C30.6787 73.4324 30.5912 73.4324 30.5912 73.4762Z" fill="black"/>
<path d="M34.092 77.4805C34.0579 76.8319 34.0579 76.1819 34.092 75.5332C34.0066 76.1792 33.9555 76.8292 33.9388 77.4805H34.092Z" fill="black"/>
<path d="M34.464 73.8926V74.1551C34.4542 74.0679 34.4542 73.9798 34.464 73.8926C34.464 73.8926 34.464 73.8926 34.464 73.8926Z" fill="black"/>
<path d="M34.3328 74.1543C34.1439 74.5892 34.047 75.0586 34.0484 75.5327C34.1116 75.0673 34.2066 74.6067 34.3328 74.1543Z" fill="black"/>
<path d="M36.4988 74.3301V78.3341C36.4988 78.4435 36.6958 78.4435 36.6739 78.3341V74.3301H36.4988Z" fill="black"/>
<path d="M37.7678 73.8926C37.6658 75.1516 37.6292 76.415 37.6584 77.6778C37.6584 77.831 37.8991 77.831 37.8991 77.6778C37.9647 76.4169 37.9647 75.1535 37.8991 73.8926C37.8991 73.8926 37.7678 73.8926 37.7678 73.8926Z" fill="black"/>
<path d="M39.0151 73.8918C38.9645 75.2229 38.8035 76.5476 38.5337 77.852C38.5337 77.9833 38.7088 78.0271 38.7088 77.852C38.9411 76.5223 39.0654 75.176 39.0807 73.8262L39.0151 73.8918Z" fill="black"/>
<path d="M39.4089 75.1602V78.5297C39.4191 78.5531 39.436 78.5731 39.4573 78.5871C39.4787 78.6011 39.5037 78.6085 39.5292 78.6085C39.5548 78.6085 39.5798 78.6011 39.6011 78.5871C39.6225 78.5731 39.6393 78.5531 39.6495 78.5297V75.1602H39.4089Z" fill="black"/>
<path d="M46.5198 73.4766C46.4218 74.4734 46.4218 75.4773 46.5198 76.4741C46.5198 76.6054 46.7824 76.6054 46.8043 76.4741C46.9135 75.4779 46.9135 74.4728 46.8043 73.4766C46.7168 73.3672 46.5417 73.3672 46.5198 73.4766Z" fill="black"/>
<path d="M47.8108 72.6219C47.353 73.9795 47.1962 75.4205 47.3514 76.8448C47.3514 76.9979 47.6139 76.9979 47.592 76.8448C47.3976 75.4415 47.5248 74.0125 47.964 72.6657C47.964 72.6657 47.8546 72.5344 47.8108 72.6219Z" fill="black"/>
<path d="M49.1237 73.0605C49.0108 74.392 48.9742 75.7289 49.0142 77.0646C49.0142 77.2396 49.2768 77.2396 49.2987 77.0646C49.2987 75.7518 49.2987 74.3733 49.1674 73.0605H49.1237Z" fill="black"/>
<path d="M50.4583 73.082C50.1238 73.7434 49.9495 74.4742 49.9495 75.2153C49.9495 75.9565 50.1238 76.6873 50.4583 77.3487C50.4583 77.4581 50.6553 77.3487 50.6334 77.3487C50.2396 75.8608 49.5613 74.3948 50.4583 73.082Z" fill="black"/>
<path d="M51.6179 73.4762C51.6179 74.8109 51.4647 76.1674 51.6179 77.4803C51.6281 77.5037 51.6449 77.5236 51.6663 77.5376C51.6877 77.5516 51.7126 77.5591 51.7382 77.5591C51.7637 77.5591 51.7888 77.5516 51.8102 77.5376C51.8315 77.5236 51.8484 77.5037 51.8586 77.4803C51.8586 76.1674 51.8586 74.8109 51.8586 73.4762C51.7273 73.4324 51.6179 73.4324 51.6179 73.4762Z" fill="black"/>
<path d="M54.5936 73.0605C54.4698 74.3914 54.4332 75.7289 54.4842 77.0646C54.4842 77.2396 54.7467 77.2396 54.7686 77.0646C54.8013 75.7285 54.7575 74.3916 54.6373 73.0605H54.5936Z" fill="black"/>
<path d="M57.0879 72.6438C57.3131 74.0329 57.4301 75.4375 57.438 76.8448C57.438 76.976 57.6567 77.0198 57.6786 76.8448C57.8163 75.3685 57.6526 73.8797 57.1973 72.4688C57.1973 72.4688 57.0879 72.6 57.0879 72.6438Z" fill="black"/>
<path d="M58.7727 72.6445V75.7953H58.8821V72.6445H58.7727Z" fill="black"/>
<path d="M59.7573 72.4686C59.8638 73.193 59.915 73.9245 59.9104 74.6566C59.8558 75.268 59.8558 75.8831 59.9104 76.4945C59.9104 76.5236 59.922 76.5514 59.9425 76.5719C59.963 76.5924 59.9908 76.6039 60.0198 76.6039C60.0488 76.6039 60.0767 76.5924 60.0972 76.5719C60.1177 76.5514 60.1292 76.5236 60.1292 76.4945C60.3154 75.1374 60.2487 73.7576 59.9323 72.4248C59.9761 72.2498 59.7354 72.3154 59.7573 72.4686Z" fill="black"/>
<path d="M61.7265 74.1329C61.813 73.4678 61.7067 72.7919 61.4202 72.1855C61.4202 72.1855 61.2451 72.1855 61.2889 72.1855C62.011 73.7828 60.8512 75.4894 61.6609 77.0648C61.6609 77.2179 61.9673 77.0648 61.9016 77.0648C61.6063 76.1161 61.5462 75.1099 61.7265 74.1329Z" fill="black"/>
<path d="M46.3229 68.006V63.3893C46.3116 63.3609 46.2919 63.3365 46.2666 63.3193C46.2413 63.3021 46.2114 63.293 46.1808 63.293C46.1501 63.293 46.1202 63.3021 46.0948 63.3193C46.0695 63.3365 46.0499 63.3609 46.0386 63.3893V68.006C46.0386 68.0437 46.0536 68.0799 46.0802 68.1065C46.1069 68.1332 46.143 68.1482 46.1808 68.1482C46.2185 68.1482 46.2546 68.1332 46.2813 68.1065C46.3079 68.0799 46.3229 68.0437 46.3229 68.006Z" fill="black"/>
<path d="M47.1105 67.8081C47.1105 66.2109 47.1105 64.5699 47.1105 62.9727C47.1105 64.5699 46.9794 66.2109 47.1105 67.8081Z" fill="black"/>
<path d="M48.4015 68.0053C48.4999 66.468 48.4999 64.926 48.4015 63.3887H48.2045C48.2045 64.8984 48.0514 66.4956 48.2045 68.0053H48.4015Z" fill="black"/>
<path d="M51.793 68.2692C51.7899 66.6452 51.9512 65.0252 52.2744 63.4337C52.2744 63.2149 51.9899 63.1055 51.9024 63.4337C51.3598 65.0164 51.2392 66.7132 51.5523 68.3567C51.5684 68.3818 51.5925 68.4006 51.6208 68.4101C51.649 68.4197 51.6796 68.4193 51.7076 68.4091C51.7356 68.3989 51.7593 68.3795 51.7748 68.3541C51.7903 68.3287 51.7967 68.2987 51.793 68.2692Z" fill="black"/>
<path d="M54.1561 68.6397C54.1561 68.654 54.1589 68.6682 54.1644 68.6815C54.1699 68.6948 54.178 68.7068 54.1881 68.717C54.1983 68.7272 54.2103 68.7352 54.2236 68.7407C54.2369 68.7462 54.2511 68.749 54.2655 68.749C54.2798 68.749 54.294 68.7462 54.3073 68.7407C54.3206 68.7352 54.3327 68.7272 54.3428 68.717C54.353 68.7068 54.361 68.6948 54.3665 68.6815C54.372 68.6682 54.3749 68.654 54.3749 68.6397C54.5632 67.1651 54.4059 65.667 53.9155 64.2637C53.9155 64.2637 53.7404 64.2637 53.7841 64.2637C54.1236 65.696 54.2489 67.1706 54.1561 68.6397Z" fill="black"/>
<path d="M55.9719 67.8081C55.9719 66.189 55.8626 64.5699 55.9719 62.9727C55.9719 64.5699 55.9719 66.189 55.9719 67.8081Z" fill="black"/>
<path d="M58.0726 67.7863C57.7716 66.1989 57.6105 64.5882 57.5912 62.9727C57.4334 64.5999 57.5517 66.2422 57.9413 67.83L58.0726 67.7863Z" fill="black"/>
<path d="M61.464 67.1519C61.0819 65.6444 60.927 64.0884 61.0045 62.5352C61.0045 62.5352 60.8732 62.5352 60.8513 62.5352C60.6285 64.1129 60.7631 65.7207 61.2451 67.2394C61.2451 67.2394 61.5077 67.3269 61.464 67.1519Z" fill="black"/>
<path d="M46.4762 58.16C46.4875 58.1884 46.5072 58.2128 46.5325 58.2299C46.5579 58.2471 46.5878 58.2563 46.6184 58.2563C46.649 58.2563 46.6789 58.2471 46.7042 58.2299C46.7296 58.2128 46.7492 58.1884 46.7606 58.16C46.7169 57.3291 46.7169 56.4965 46.7606 55.6657C46.842 55.0201 46.7899 54.3648 46.6074 53.7402C46.6074 53.7402 46.498 53.7402 46.6074 53.7402C47.0013 55.1843 46.1917 56.694 46.4762 58.16Z" fill="black"/>
<path d="M49.2768 57.9193C49.2768 56.5847 49.4518 55.2719 49.6706 53.9372C49.6706 53.9372 49.4955 53.7621 49.4736 53.9372C49.165 55.2564 49.0181 56.6083 49.0361 57.9631C49.0361 58.0725 49.2549 58.0725 49.2768 57.9193Z" fill="black"/>
<path d="M52.6244 57.7006C52.5494 56.5066 52.6751 55.3084 52.9964 54.156C52.9964 54.156 52.9964 54.0247 52.8651 54.156C52.4936 55.3139 52.3379 56.5302 52.4057 57.7443C52.4086 57.7587 52.4142 57.7723 52.4224 57.7845C52.4305 57.7967 52.441 57.8071 52.4532 57.8153C52.4654 57.8234 52.4791 57.829 52.4934 57.8319C52.5078 57.8347 52.5226 57.8347 52.537 57.8319C52.5513 57.829 52.565 57.8233 52.5772 57.8152C52.5893 57.807 52.5997 57.7965 52.6079 57.7843C52.616 57.7722 52.6217 57.7585 52.6245 57.7441C52.6273 57.7297 52.6273 57.7149 52.6244 57.7006Z" fill="black"/>
<path d="M54.2873 57.5039C54.2873 56.3005 54.2873 55.119 54.2873 53.9156C54.2873 53.7625 54.0465 53.7625 54.0684 53.9156C54.0684 55.119 54.0684 56.3005 54.0684 57.5039H54.2873Z" fill="black"/>
<path d="M58.2913 55.994C58.2913 56.1472 58.4882 56.1909 58.51 55.994C58.7146 55.0359 58.5505 54.0359 58.0506 53.1934H57.9193C58.4023 54.0432 58.5357 55.0476 58.2913 55.994Z" fill="black"/>
<path d="M59.9979 56.8481C59.9979 56.8481 60.1511 57.0012 60.1729 56.8481C60.3658 55.7515 60.2208 54.6221 59.7572 53.6098C59.7572 53.5004 59.5384 53.6098 59.5822 53.7192C60.0454 54.6928 60.1908 55.7873 59.9979 56.8481Z" fill="black"/>
<path d="M61.0482 57.2846V54.3308C61.038 54.3074 61.0212 54.2874 60.9998 54.2734C60.9784 54.2594 60.9534 54.252 60.9279 54.252C60.9023 54.252 60.8773 54.2594 60.8559 54.2734C60.8345 54.2874 60.8177 54.3074 60.8075 54.3308V57.2846C60.8177 57.308 60.8345 57.328 60.8559 57.342C60.8773 57.356 60.9023 57.3634 60.9279 57.3634C60.9534 57.3634 60.9784 57.356 60.9998 57.342C61.0212 57.328 61.038 57.308 61.0482 57.2846Z" fill="black"/>
<path d="M81.7466 72.4259C81.7461 72.2905 81.7007 72.1591 81.6176 72.0522C81.5345 71.9453 81.4182 71.869 81.2871 71.8351C76.4785 70.9859 71.5962 70.6267 66.7151 70.763V70.4786C66.6989 70.4244 66.6657 70.3769 66.6204 70.3431C66.5751 70.3093 66.52 70.291 66.4635 70.291C66.4069 70.291 66.3519 70.3093 66.3066 70.3431C66.2612 70.3769 66.228 70.4244 66.2119 70.4786V70.7411C66.0997 70.791 66.0044 70.8723 65.9375 70.9752C65.8706 71.0781 65.8351 71.1982 65.8351 71.3209C65.8351 71.4437 65.8706 71.5638 65.9375 71.6667C66.0044 71.7696 66.0997 71.8509 66.2119 71.9008C66.2119 73.87 66.2119 75.8611 66.2119 77.8303C66.2084 77.9609 66.2499 78.0888 66.3296 78.1924C66.4093 78.296 66.5222 78.369 66.6494 78.3991C71.288 79.0555 76.2766 77.7427 80.7401 79.4931C80.8968 79.5331 81.0629 79.5095 81.2023 79.4276C81.3416 79.3456 81.4429 79.2119 81.484 79.0555C81.7647 76.8575 81.8525 74.6392 81.7466 72.4259ZM80.412 78.1366C76.2766 76.78 71.6599 77.699 67.3933 77.3708C67.3908 75.5678 67.2445 73.768 66.9558 71.9883H70.1283C69.9858 73.7457 70.0298 75.5132 70.2596 77.2614C70.2596 77.4364 70.5878 77.3708 70.5441 77.2614C70.2563 75.5415 70.1537 73.7957 70.2378 72.0539H71.9225C72.2945 73.4324 71.9225 74.8765 72.4258 76.233C72.4258 76.233 72.6227 76.233 72.6008 76.233C72.5303 74.8453 72.3252 73.4676 71.9882 72.1196C73.2134 72.1196 74.4606 72.1196 75.6859 72.2946C76.5173 72.2946 80.5213 72.2946 80.5213 73.3886C80.5924 74.9719 80.5559 76.5582 80.412 78.1366Z" fill="black"/>
<path d="M66.4087 69.888C71.3099 70.1286 76.2328 70.0849 81.134 69.888C81.2259 69.8836 81.3158 69.8594 81.3974 69.8168C81.479 69.7743 81.5503 69.7145 81.6065 69.6417C81.6627 69.5688 81.7024 69.4847 81.7228 69.3949C81.7432 69.3052 81.7439 69.2122 81.7248 69.1222C81.1121 66.6716 81.8998 64.2211 81.2871 61.7486C81.2623 61.6481 81.2104 61.5562 81.1372 61.4829C81.0639 61.4097 80.972 61.3578 80.8714 61.3329C76.4954 60.6546 71.8131 62.4488 67.3933 61.136C67.2655 61.093 67.1261 61.1009 67.0039 61.1579C66.8817 61.2149 66.7861 61.3168 66.7369 61.4423C66.7369 61.2454 66.54 61.0485 66.4306 60.8516C66.2993 63.6741 65.993 66.4747 65.8398 69.2753C65.8394 69.4305 65.898 69.58 66.0036 69.6937C66.1092 69.8075 66.254 69.8769 66.4087 69.888ZM67.0433 62.2519C70.1361 62.8901 73.3229 62.9273 76.4298 62.3613C78.7491 62.1644 80.4776 62.3613 80.3026 65.1619C80.1707 66.3251 80.1707 67.4995 80.3026 68.6627H79.4273C79.5021 67.205 79.5021 65.7444 79.4273 64.2867C79.3525 65.7444 79.3525 67.205 79.4273 68.6627C75.3139 68.7721 71.2005 68.6627 67.087 68.6627C67.3873 66.5352 67.3726 64.3751 67.0433 62.2519Z" fill="black"/>
<path d="M66.5183 60.02C70.8943 58.5103 76.0142 59.6043 80.4996 59.648C80.6047 59.651 80.7076 59.6179 80.7912 59.5542C80.8748 59.4905 80.9341 59.4 80.9591 59.2979C81.2326 56.8868 81.3204 54.4583 81.2216 52.0338C81.2216 51.9003 81.1686 51.7723 81.0743 51.6779C80.9799 51.5836 80.8519 51.5305 80.7184 51.5305H73.1479C70.9538 51.2388 68.7238 51.3801 66.584 51.9463C66.5054 51.9743 66.4347 52.0207 66.3776 52.0816C66.3205 52.1425 66.2787 52.2161 66.2558 52.2963C66.2324 52.3014 66.2104 52.3112 66.191 52.3251C66.1715 52.3391 66.1551 52.3568 66.1428 52.3773C66.1305 52.3978 66.1225 52.4206 66.1194 52.4443C66.1162 52.468 66.118 52.4921 66.1245 52.5151C66.9341 54.7031 65.9713 57.3287 65.8838 59.6261C65.8833 59.7011 65.9021 59.7749 65.9383 59.8406C65.9745 59.9062 66.027 59.9614 66.0907 60.001C66.1544 60.0405 66.2271 60.063 66.302 60.0663C66.3769 60.0697 66.4514 60.0537 66.5183 60.02ZM66.9778 52.9746C69.7347 51.8806 73.4106 52.537 76.3425 52.537C76.8457 52.537 80.2152 52.2088 80.2152 52.909C80.2152 53.6091 80.4777 58.7072 79.9745 58.7072C75.7298 58.7072 71.0037 57.7663 66.8465 58.9916C67.2078 57.0096 67.2078 54.9785 66.8465 52.9965L66.9778 52.9746Z" fill="black"/>
<path d="M66.8026 50.3057C68.3176 50.6926 69.8943 50.7744 71.4412 50.5464C74.5481 50.5464 77.6114 50.24 80.7183 50.5464C80.8098 50.5427 80.8992 50.5187 80.9801 50.476C81.061 50.4333 81.1314 50.373 81.1859 50.2995C81.2405 50.2261 81.2779 50.1413 81.2954 50.0515C81.313 49.9617 81.3101 49.8691 81.2872 49.7805C80.981 47.5332 80.8493 45.2655 80.8933 42.9978C80.8941 42.8652 80.8519 42.736 80.773 42.6294C80.6941 42.5229 80.5827 42.4449 80.4557 42.407C76.0797 41.2473 71.7037 42.8446 67.3277 41.7506C67.2137 41.7248 67.0949 41.7299 66.9836 41.7653C66.8722 41.8008 66.7723 41.8654 66.6943 41.9524C66.6162 42.0394 66.5628 42.1456 66.5395 42.2602C66.5163 42.3747 66.524 42.4934 66.562 42.6039C66.0806 44.4637 64.7678 49.2117 66.8026 50.3057ZM66.9339 42.9102H67.0871C69.8666 43.4207 72.7087 43.4945 75.5109 43.129C76.3271 43.0853 77.1452 43.0853 77.9614 43.129C79.6462 43.129 79.6681 43.4353 79.69 44.9232C79.7087 46.3872 79.8183 47.8487 80.0181 49.2992C76.3642 49.0585 72.6227 49.2992 68.9687 49.2992C67.5246 49.2992 67.0214 49.1898 66.8902 47.5925C66.7589 45.9953 66.9558 44.4856 66.9339 42.9102Z" fill="black"/>
<path d="M65.7523 40.0219C65.7519 40.1658 65.7988 40.3058 65.8858 40.4205C65.9728 40.5351 66.095 40.618 66.2337 40.6564C68.4217 40.9408 70.3472 41.6191 72.4695 41.7942C75.0211 41.659 77.5632 41.3814 80.0838 40.9627C80.2381 40.9592 80.3873 40.9063 80.5093 40.8118C80.6314 40.7173 80.72 40.5862 80.7621 40.4376C81.3119 37.8179 81.3934 35.1214 81.0027 32.4733C80.9604 32.3189 80.8694 32.1823 80.7433 32.0838C80.6172 31.9852 80.4626 31.93 80.3026 31.9263C75.7297 31.7731 71.1786 32.1232 66.6057 32.342C66.4419 32.3409 66.2824 32.394 66.1518 32.4929C66.0213 32.5918 65.927 32.731 65.8836 32.889C65.7423 33.2416 65.6827 33.6216 65.7093 34.0006C65.7358 34.3795 65.8478 34.7475 66.0368 35.077C66.0897 36.7305 65.9945 38.3854 65.7523 40.0219ZM67.109 35.6459C67.109 35.0551 67.2183 34.4425 67.284 33.8517H67.7216C67.9925 35.3527 68.066 36.8827 67.9403 38.4027C67.9311 38.426 67.9276 38.4511 67.9303 38.476C67.933 38.5009 67.9417 38.5248 67.9558 38.5455C67.9698 38.5662 67.9887 38.5832 68.0108 38.5949C68.0329 38.6066 68.0575 38.6127 68.0826 38.6127C68.1076 38.6127 68.1322 38.6066 68.1543 38.5949C68.1765 38.5832 68.1954 38.5662 68.2094 38.5455C68.2235 38.5248 68.2322 38.5009 68.2349 38.476C68.2376 38.4511 68.2341 38.426 68.2248 38.4027C68.4271 36.8737 68.285 35.3188 67.8091 33.8517C71.7475 33.6329 75.6859 33.3484 79.6462 33.436C79.9131 35.4956 79.8614 37.5841 79.493 39.628C77.305 39.8031 75.2702 40.3501 73.1478 40.4595C71.094 40.3786 69.0548 40.0778 67.0652 39.5624C67.1703 38.3493 67.1115 37.1276 66.8901 35.9303C66.962 35.9145 67.0249 35.8715 67.0657 35.8103C67.1065 35.7491 67.122 35.6745 67.109 35.6021V35.6459Z" fill="black"/>
<path d="M21.3361 60.7637C22.2117 60.9594 23.12 60.9569 23.9945 60.7562C24.8691 60.5556 25.6876 60.1619 26.3903 59.604C28.9065 58.0287 31.3133 56.1689 33.6982 54.3747C38.5775 50.7645 43.2379 46.9574 48.0077 43.194C53.2152 39.1244 58.6195 35.3391 64.002 31.5101C65.1179 30.7224 66.19 29.891 67.3059 29.0595C67.6828 29.8283 68.1295 30.5607 68.6405 31.2475C68.721 31.3221 68.817 31.378 68.9216 31.4112C69.0262 31.4443 69.1368 31.4539 69.2456 31.4393C69.3543 31.4246 69.4585 31.3861 69.5506 31.3265C69.6427 31.2669 69.7205 31.1876 69.7783 31.0944C71.8092 27.9149 74 24.8405 76.3423 21.8829L77.7207 20.8546L78.5303 20.417C79.3618 19.9794 78.6397 18.7322 77.7864 19.1698C74.4387 20.9202 69.4501 23.5458 65.5336 23.0426C64.921 23.0426 64.2427 23.5458 64.6584 24.1803C65.1888 24.9973 65.6569 25.853 66.0587 26.7403C65.1616 27.3967 64.2864 28.075 63.3894 28.7095C58.2038 32.4729 52.8651 36.0393 47.7014 39.8245C42.9097 43.3253 38.3805 47.1762 33.4138 50.4582C29.3003 53.1932 23.3053 55.6875 21.1391 60.4792C21.1319 60.5424 21.1479 60.6061 21.1842 60.6585C21.2204 60.7108 21.2743 60.7482 21.3361 60.7637Z" fill="black"/>
<path d="M22.2112 69.9533C23.1892 70.5212 24.3295 70.7446 25.4495 70.5879C27.3693 70.3801 29.306 70.3801 31.2258 70.5879C33.8733 71.0474 37.3304 72.1632 39.7591 70.5879C42.1878 69.0125 41.3782 65.2929 41.3126 63.1268C41.3124 63.0028 41.2717 62.8822 41.1966 62.7835C41.1216 62.6847 41.0163 62.6132 40.8969 62.5798C37.7734 62.1437 34.6191 61.968 31.4665 62.0547C29.6286 62.0547 27.8125 62.0547 25.9965 62.2516C24.6238 62.1394 23.2421 62.2503 21.9049 62.5798C21.8296 62.5991 21.7629 62.6429 21.7152 62.7043C21.6675 62.7657 21.6416 62.8412 21.6416 62.919C21.6416 62.9967 21.6675 63.0722 21.7152 63.1336C21.7629 63.195 21.8296 63.2388 21.9049 63.2581C23.5021 63.5653 25.1432 63.5653 26.7404 63.2581C29.1253 63.2581 31.5103 63.083 33.8952 63.083C34.5297 63.083 40.153 63.0831 40.153 63.6738C40.153 66.1462 40.4812 69.5814 37.1554 69.8658C35.0583 69.858 32.9705 69.586 30.9414 69.0563C29.118 68.8256 27.2729 68.8256 25.4495 69.0563C23.7866 69.0563 22.1237 68.75 22.43 66.6057C22.43 66.015 22.6707 65.4461 22.7364 64.8553C22.802 64.2646 22.4737 63.6519 21.7955 63.6082C21.8173 65.9931 20.1107 68.2686 22.2112 69.9533Z" fill="black"/>
<path d="M24.4648 67.3269L24.3555 64.1543C24.3555 65.2045 24.3555 66.3423 24.2461 67.3269C24.2604 67.3415 24.2774 67.353 24.2962 67.3609C24.3149 67.3688 24.3351 67.3729 24.3555 67.3729C24.3759 67.3729 24.396 67.3688 24.4148 67.3609C24.4336 67.353 24.4506 67.3415 24.4648 67.3269Z" fill="black"/>
<path d="M25.4494 68.9031C25.4494 69.0563 25.7776 68.9031 25.712 68.9031C25.5915 67.2351 25.5915 65.5606 25.712 63.8926C25.712 65.5117 24.8369 67.3278 25.4494 68.9031Z" fill="black"/>
<path d="M27.4186 68.0057L27.2873 63.8047C27.2873 65.205 27.2873 66.6054 27.1779 68.0057C27.1123 68.2026 27.4186 68.2026 27.4186 68.0057Z" fill="black"/>
<path d="M31.1819 68.2256C31.1819 66.7597 31.1819 65.2718 31.1819 63.8496H31.0068C31.0068 65.3156 30.8755 66.8034 31.0068 68.2256C30.9412 68.3788 31.16 68.3788 31.1819 68.2256Z" fill="black"/>
<path d="M33.0198 68.2256C33.0198 68.4006 33.2824 68.4006 33.3043 68.2256C33.3043 66.7596 33.1293 65.2718 33.173 63.8496C33.173 65.2718 32.9104 66.7596 33.0198 68.2256Z" fill="black"/>
<path d="M37.0896 68.8599C37.0896 67.4596 37.0896 66.0592 37.0896 64.6589C37.0794 64.6355 37.0626 64.6155 37.0412 64.6015C37.0198 64.5875 36.9948 64.5801 36.9692 64.5801C36.9437 64.5801 36.9187 64.5875 36.8973 64.6015C36.8759 64.6155 36.8591 64.6355 36.8489 64.6589V68.8599C36.8632 68.8781 36.8815 68.8928 36.9024 68.9029C36.9232 68.913 36.946 68.9183 36.9692 68.9183C36.9924 68.9183 37.0153 68.913 37.0361 68.9029C37.057 68.8928 37.0753 68.8781 37.0896 68.8599Z" fill="black"/>
<path d="M39.1682 68.8593V64.2207H39.015V68.8593C39.0373 68.8753 39.0641 68.8839 39.0916 68.8839C39.1191 68.8839 39.1459 68.8753 39.1682 68.8593Z" fill="black"/>
<path d="M71.0692 33.916C71.0692 34.3536 71.0692 34.7912 71.0692 35.2288C71.0254 34.7912 71.0473 34.3536 71.0692 33.916Z" fill="black"/>
<path d="M71.1567 39.1903C71.1567 37.8775 71.1567 36.5647 71.0254 35.252C71.0254 36.5647 71.0254 37.8775 71.0254 39.1903C71.0453 39.2018 71.068 39.2079 71.091 39.2079C71.1141 39.2079 71.1367 39.2018 71.1567 39.1903Z" fill="black"/>
<path d="M72.1852 38.5546C72.1852 38.5836 72.1967 38.6114 72.2172 38.632C72.2378 38.6525 72.2656 38.664 72.2946 38.664C72.3236 38.664 72.3514 38.6525 72.3719 38.632C72.3925 38.6114 72.404 38.5836 72.404 38.5546C72.5134 37.023 72.2508 35.4695 72.404 33.916C72.3384 35.4695 72.0977 37.023 72.1852 38.5546Z" fill="black"/>
<path d="M75.3358 39.4084V35.1855C75.3358 35.1855 75.2045 35.1855 75.1826 35.1855V39.4084C75.1826 39.4084 75.3358 39.5178 75.3358 39.4084Z" fill="black"/>
<path d="M76.7799 38.1393C76.7913 38.1677 76.8109 38.1921 76.8363 38.2093C76.8616 38.2264 76.8915 38.2356 76.9221 38.2356C76.9528 38.2356 76.9827 38.2264 77.008 38.2093C77.0334 38.1921 77.053 38.1677 77.0644 38.1393C77.2183 36.7045 77.0463 35.2535 76.5611 33.8945C76.5611 33.8945 76.408 33.8945 76.4517 33.8945C76.8765 35.2672 76.9887 36.7176 76.7799 38.1393Z" fill="black"/>
<path d="M78.2239 38.5564L78.1146 34.3555C78.1146 35.7558 78.1146 37.1561 78.1146 38.5564C78.1318 38.5643 78.1504 38.5684 78.1693 38.5684C78.1882 38.5684 78.2068 38.5643 78.2239 38.5564Z" fill="black"/>
<path d="M69.8876 48.4239C69.5056 46.9168 69.3726 45.3573 69.4938 43.8073C69.4824 43.7788 69.4628 43.7544 69.4374 43.7373C69.4121 43.7201 69.3822 43.7109 69.3516 43.7109C69.321 43.7109 69.2911 43.7201 69.2657 43.7373C69.2404 43.7544 69.2207 43.7788 69.2094 43.8073C69.0084 45.39 69.1654 46.9976 69.6688 48.5115C69.6688 48.5115 69.9314 48.5333 69.8876 48.4239Z" fill="black"/>
<path d="M71.1568 48.2262C71.0354 46.9623 71.1467 45.6868 71.485 44.4629C71.0815 45.6822 70.9035 46.9649 70.9599 48.2481C70.9737 48.2608 70.9901 48.2704 71.008 48.2763C71.0258 48.2821 71.0447 48.2841 71.0633 48.282C71.082 48.28 71.1 48.2739 71.1162 48.2643C71.1323 48.2546 71.1461 48.2417 71.1568 48.2262Z" fill="black"/>
<path d="M73.0385 48.2042C72.7414 46.7655 72.6602 45.2907 72.7977 43.8281H72.6446C72.493 45.2877 72.5519 46.7614 72.8196 48.2042C72.8196 48.2332 72.8312 48.261 72.8517 48.2815C72.8722 48.302 72.9 48.3136 72.929 48.3136C72.9581 48.3136 72.9859 48.302 73.0065 48.2815C73.027 48.261 73.0385 48.2332 73.0385 48.2042Z" fill="black"/>
<path d="M74.5483 48.0292C74.5483 46.4757 74.5483 44.9441 74.5483 43.3906C74.5483 43.2812 74.3513 43.2812 74.3513 43.3906C74.3513 44.9441 74.3513 46.4757 74.3513 48.0292C74.3789 48.0523 74.4137 48.065 74.4498 48.065C74.4858 48.065 74.5207 48.0523 74.5483 48.0292Z" fill="black"/>
<path d="M76.1892 47.6353C76.4116 46.3042 76.5359 44.9587 76.5611 43.6094H76.4517C76.4264 44.9606 76.2874 46.3074 76.036 47.6353C76.036 47.6353 76.1673 47.7885 76.1892 47.6353Z" fill="black"/>
<path d="M77.8521 48.0513C78.1787 46.7357 78.3115 45.3794 78.246 44.0254C78.246 44.0254 78.1365 44.0254 78.1365 44.0254C78.1811 45.3682 78.0263 46.7102 77.6771 48.0075C77.6552 48.1169 77.8302 48.1607 77.8521 48.0513Z" fill="black"/>
<path d="M78.7055 48.8821C78.9507 47.6264 79.0971 46.3535 79.1431 45.0749C79.1329 45.0515 79.116 45.0316 79.0946 45.0176C79.0732 45.0036 79.0482 44.9961 79.0227 44.9961C78.9971 44.9961 78.9721 45.0036 78.9508 45.0176C78.9294 45.0316 78.9126 45.0515 78.9024 45.0749C78.8807 46.3384 78.7489 47.5977 78.5085 48.8383C78.5085 48.9696 78.6836 49.0134 78.7055 48.8821Z" fill="black"/>
<path d="M68.6186 57.5041C68.558 56.0869 68.3972 54.6757 68.1374 53.2812C68.1374 53.2812 68.028 53.2812 68.1374 53.2812C68.3418 54.6802 68.4586 56.0906 68.4874 57.5041C68.3999 57.6572 68.6405 57.6572 68.6186 57.5041Z" fill="black"/>
<path d="M69.472 57.5044C69.472 56.2353 69.472 54.9663 69.472 53.6973H69.3188C69.3188 54.9663 69.3188 56.2353 69.3188 57.5044C69.3412 57.5204 69.3679 57.529 69.3954 57.529C69.4229 57.529 69.4497 57.5204 69.472 57.5044Z" fill="black"/>
<path d="M71.1787 57.5041C71.1787 56.0819 71.1787 54.6816 71.1787 53.2812H71.0693C71.0693 54.6816 71.0693 56.0819 71.0693 57.5041C71.1046 57.5176 71.1435 57.5176 71.1787 57.5041Z" fill="black"/>
<path d="M72.7321 56.3879C72.6197 56.9721 72.5612 57.5654 72.5571 58.1602C72.5571 58.3134 72.7759 58.4228 72.8634 58.1602C73.3012 56.8166 73.3012 55.3686 72.8634 54.0249C72.8414 53.979 72.8042 53.9421 72.7579 53.9207C72.7117 53.8993 72.6596 53.8946 72.6103 53.9076C72.5611 53.9206 72.5179 53.9503 72.4882 53.9917C72.4585 54.0331 72.4441 54.0835 72.4477 54.1343C72.6491 54.8682 72.7449 55.627 72.7321 56.3879Z" fill="black"/>
<path d="M74.0668 57.9201C74.1432 56.5135 74.1432 55.1038 74.0668 53.6973C73.9904 55.1038 73.9904 56.5135 74.0668 57.9201Z" fill="black"/>
<path d="M75.3139 57.9185V55.7305C75.3139 56.4525 75.3139 57.1745 75.3139 57.9185C75.1608 58.006 75.3139 58.006 75.3139 57.9185Z" fill="black"/>
<path d="M75.2701 53.916C75.2701 54.1348 75.2701 54.3536 75.2701 54.5724C75.2482 54.3536 75.2482 54.2005 75.2701 53.916Z" fill="black"/>
<path d="M77.0425 57.8761C76.5931 56.3887 76.437 54.8282 76.583 53.2812H76.4299C76.2558 54.8442 76.382 56.4261 76.8018 57.9417C76.8171 57.9648 76.8392 57.9825 76.8651 57.9922C76.8909 58.002 76.9192 58.0033 76.9459 57.996C76.9726 57.9888 76.9963 57.9732 77.0136 57.9517C77.031 57.9302 77.0411 57.9037 77.0425 57.8761Z" fill="black"/>
<path d="M77.8958 57.2849C77.7117 55.9509 77.8161 54.5929 78.202 53.3027C78.202 53.3027 78.202 53.3027 78.202 53.3027C77.7213 54.5867 77.5489 55.9657 77.6988 57.3286C77.7141 57.3404 77.7317 57.3486 77.7505 57.3528C77.7692 57.357 77.7888 57.357 77.8075 57.3529C77.8263 57.3487 77.844 57.3404 77.8592 57.3287C77.8745 57.3169 77.8869 57.302 77.8958 57.2849Z" fill="black"/>
<path d="M78.7055 58.357C78.7055 58.4883 78.9461 58.4883 78.9461 58.357C78.8874 57.3552 78.9388 56.35 79.0993 55.3595C79.2415 54.6813 79.2415 53.9809 79.0993 53.3027C79.0993 53.3027 78.9899 53.3027 79.0993 53.3027C79.3618 54.9656 78.0491 56.7379 78.7055 58.357Z" fill="black"/>
<path d="M69.472 68.005C69.472 67.3048 69.2532 66.5828 69.2094 65.817C69.1581 64.9925 69.2393 64.1652 69.4501 63.3665C69.4501 63.2352 69.2532 63.1696 69.2094 63.3665C68.6294 64.896 68.6294 66.5849 69.2094 68.1144C69.2308 68.1363 69.2583 68.1512 69.2883 68.1573C69.3183 68.1634 69.3495 68.1604 69.3778 68.1486C69.406 68.1368 69.4301 68.1169 69.4469 68.0913C69.4637 68.0657 69.4724 68.0356 69.472 68.005Z" fill="black"/>
<path d="M70.7192 68.2029C70.4487 66.8926 70.3095 65.5586 70.3034 64.2207C70.3034 64.1917 70.2919 64.1639 70.2714 64.1434C70.2509 64.1229 70.223 64.1113 70.194 64.1113C70.165 64.1113 70.1372 64.1229 70.1167 64.1434C70.0961 64.1639 70.0846 64.1917 70.0846 64.2207C69.9574 65.577 70.0987 66.945 70.5004 68.2466C70.566 68.3998 70.7629 68.356 70.7192 68.2029Z" fill="black"/>
<path d="M72.4039 67.8088C72.4803 66.4752 72.4803 65.1383 72.4039 63.8047H72.2289C72.2289 65.1175 72.0976 66.4959 72.2289 67.8088C72.2167 67.825 72.2093 67.8443 72.2075 67.8646C72.2056 67.8848 72.2095 67.9051 72.2185 67.9233C72.2276 67.9415 72.2416 67.9568 72.2589 67.9674C72.2762 67.9781 72.2961 67.9838 72.3164 67.9838C72.3367 67.9838 72.3567 67.9781 72.374 67.9674C72.3912 67.9568 72.4052 67.9415 72.4143 67.9233C72.4234 67.9051 72.4272 67.8848 72.4254 67.8646C72.4236 67.8443 72.4161 67.825 72.4039 67.8088Z" fill="black"/>
<path d="M74.5264 67.3273V63.739C74.5162 63.7156 74.4993 63.6956 74.4779 63.6816C74.4566 63.6676 74.4316 63.6602 74.406 63.6602C74.3804 63.6602 74.3555 63.6676 74.3341 63.6816C74.3127 63.6956 74.2959 63.7156 74.2856 63.739V67.3273C74.2959 67.3507 74.3127 67.3706 74.3341 67.3846C74.3555 67.3986 74.3804 67.4061 74.406 67.4061C74.4316 67.4061 74.4566 67.3986 74.4779 67.3846C74.4993 67.3706 74.5162 67.3507 74.5264 67.3273Z" fill="black"/>
<path d="M77.0424 67.3285V63.959H76.8455V67.3285C76.8578 67.3425 76.873 67.3536 76.8899 67.3613C76.9069 67.369 76.9253 67.3729 76.944 67.3729C76.9626 67.3729 76.981 67.369 76.998 67.3613C77.015 67.3536 77.0301 67.3425 77.0424 67.3285Z" fill="black"/>
<path d="M78.6396 67.5904C78.6396 66.7589 78.6396 65.9057 78.6396 65.0742H78.5304C78.5304 65.9057 78.5304 66.7589 78.5304 67.5904C78.596 67.6341 78.6396 67.6341 78.6396 67.5904Z" fill="black"/>
<path d="M67.6779 73.0391C68.3342 74.1549 67.6779 75.6647 67.9623 76.8462C67.9736 76.8746 67.9933 76.899 68.0186 76.9161C68.044 76.9333 68.0739 76.9425 68.1045 76.9425C68.1351 76.9425 68.165 76.9333 68.1904 76.9161C68.2157 76.899 68.2354 76.8746 68.2467 76.8462C68.378 76.0273 68.378 75.1927 68.2467 74.3737C68.2339 73.8727 68.0304 73.3953 67.6779 73.0391Z" fill="black"/>
<path d="M73.673 72.8203C73.673 72.7913 73.6615 72.7635 73.641 72.743C73.6205 72.7224 73.5926 72.7109 73.5636 72.7109C73.5346 72.7109 73.5068 72.7224 73.4863 72.743C73.4658 72.7635 73.4542 72.7913 73.4542 72.8203C73.8043 74.0675 73.4542 75.3584 73.848 76.6056C73.848 76.7806 74.1762 76.6056 74.1105 76.6056C73.848 75.3584 74.0449 74.0675 73.673 72.8203Z" fill="black"/>
<path d="M75.5983 73.0605C75.5983 74.3952 75.4232 75.7518 75.5983 77.0646C75.5983 77.2396 75.8828 77.2396 75.8828 77.0646C75.9592 75.731 75.9592 74.3941 75.8828 73.0605H75.5983Z" fill="black"/>
<path d="M77.7208 73.0605C77.6009 74.3341 77.6009 75.616 77.7208 76.8896C77.7208 76.9244 77.7347 76.9578 77.7593 76.9824C77.7839 77.007 77.8173 77.0208 77.8521 77.0208C77.8869 77.0208 77.9204 77.007 77.945 76.9824C77.9696 76.9578 77.9834 76.9244 77.9834 76.8896C78.1144 75.6166 78.1144 74.3335 77.9834 73.0605H77.7208Z" fill="black"/>
<path d="M79.3617 73.2793C79.3617 74.4608 79.3617 75.6642 79.3617 76.8458C79.3617 76.9989 79.6024 76.9989 79.5806 76.8458C79.5806 75.6642 79.5806 74.4608 79.5806 73.2793H79.3617Z" fill="black"/>
</svg>
